<svg width="18" height="302" viewBox="0 0 18 302" fill="none" xmlns="http://www.w3.org/2000/svg">
<path d="M6.286 171.024L14 173.418V175.098L8.302 176.652L14 178.206V179.886L6.286 182.294V180.67L12.488 179.06L6.286 177.422V175.756L12.46 174.188L6.286 172.592V171.024ZM5.264 169.019C5.264 169.308 5.166 169.551 4.97 169.747C4.774 169.943 4.53133 170.041 4.242 170.041C3.95267 170.041 3.71 169.943 3.514 169.747C3.318 169.551 3.22 169.308 3.22 169.019C3.22 168.739 3.318 168.501 3.514 168.305C3.71 168.109 3.95267 168.011 4.242 168.011C4.53133 168.011 4.774 168.109 4.97 168.305C5.166 168.501 5.264 168.739 5.264 169.019ZM6.286 168.235H14V169.831H6.286V168.235ZM7.588 164.277H11.858C12.1473 164.277 12.3573 164.212 12.488 164.081C12.6093 163.941 12.67 163.708 12.67 163.381V162.401H14V163.661C14 164.38 13.832 164.931 13.496 165.313C13.16 165.696 12.614 165.887 11.858 165.887H7.588V166.797H6.286V165.887H4.368V164.277H6.286V162.401H7.588V164.277ZM10.136 161.462C9.34267 161.462 8.64733 161.304 8.05 160.986C7.44333 160.66 6.97667 160.212 6.65 159.642C6.32333 159.073 6.16 158.42 6.16 157.682C6.16 156.749 6.384 155.979 6.832 155.372C7.27067 154.756 7.90067 154.341 8.722 154.126V155.848C8.33933 155.988 8.04067 156.212 7.826 156.52C7.61133 156.828 7.504 157.216 7.504 157.682C7.504 158.336 7.73733 158.858 8.204 159.25C8.66133 159.633 9.30533 159.824 10.136 159.824C10.9667 159.824 11.6153 159.633 12.082 159.25C12.5487 158.858 12.782 158.336 12.782 157.682C12.782 156.758 12.376 156.147 11.564 155.848V154.126C12.348 154.35 12.9733 154.77 13.44 155.386C13.8973 156.002 14.126 156.768 14.126 157.682C14.126 158.42 13.9627 159.073 13.636 159.642C13.3 160.212 12.8333 160.66 12.236 160.986C11.6293 161.304 10.9293 161.462 10.136 161.462ZM6.16 148.546C6.16 147.958 6.286 147.435 6.538 146.978C6.79 146.511 7.16333 146.147 7.658 145.886C8.15267 145.615 8.75 145.48 9.45 145.48H14V147.062H9.688C8.99733 147.062 8.47 147.235 8.106 147.58C7.73267 147.925 7.546 148.397 7.546 148.994C7.546 149.591 7.73267 150.067 8.106 150.422C8.47 150.767 8.99733 150.94 9.688 150.94H14V152.536H3.64L3.64 150.94H7.182C6.85533 150.669 6.60333 150.329 6.426 149.918C6.24867 149.498 6.16 149.041 6.16 148.546ZM14.126 136.461C14.126 137.189 13.9627 137.847 13.636 138.435C13.3 139.023 12.8333 139.485 12.236 139.821C11.6293 140.157 10.9293 140.325 10.136 140.325C9.352 140.325 8.65667 140.153 8.05 139.807C7.44333 139.462 6.97667 138.991 6.65 138.393C6.32333 137.796 6.16 137.129 6.16 136.391C6.16 135.654 6.32333 134.987 6.65 134.389C6.97667 133.792 7.44333 133.321 8.05 132.975C8.65667 132.63 9.352 132.457 10.136 132.457C10.92 132.457 11.6153 132.635 12.222 132.989C12.8287 133.344 13.3 133.829 13.636 134.445C13.9627 135.052 14.126 135.724 14.126 136.461ZM12.74 136.461C12.74 136.051 12.642 135.668 12.446 135.313C12.25 134.949 11.956 134.655 11.564 134.431C11.172 134.207 10.696 134.095 10.136 134.095C9.576 134.095 9.10467 134.203 8.722 134.417C8.33 134.632 8.036 134.917 7.84 135.271C7.644 135.626 7.546 136.009 7.546 136.419C7.546 136.83 7.644 137.213 7.84 137.567C8.036 137.913 8.33 138.188 8.722 138.393C9.10467 138.599 9.576 138.701 10.136 138.701C10.9667 138.701 11.6107 138.491 12.068 138.071C12.516 137.642 12.74 137.105 12.74 136.461ZM7.588 127.646V129.074H14V130.684H7.588V131.594H6.286V130.684H5.74C4.85333 130.684 4.20933 130.45 3.808 129.984C3.39733 129.508 3.192 128.766 3.192 127.758H4.522C4.522 128.243 4.61533 128.584 4.802 128.78C4.97933 128.976 5.292 129.074 5.74 129.074H6.286V127.646H7.588ZM6.16 113.257C6.16 112.65 6.286 112.109 6.538 111.633C6.79 111.147 7.16333 110.769 7.658 110.499C8.15267 110.219 8.75 110.079 9.45 110.079H14V111.661H9.688C8.99733 111.661 8.47 111.833 8.106 112.179C7.73267 112.524 7.546 112.995 7.546 113.593C7.546 114.19 7.73267 114.666 8.106 115.021C8.47 115.366 8.99733 115.539 9.688 115.539H14V117.121H9.688C8.99733 117.121 8.47 117.293 8.106 117.639C7.73267 117.984 7.546 118.455 7.546 119.053C7.546 119.65 7.73267 120.126 8.106 120.481C8.47 120.826 8.99733 120.999 9.688 120.999H14V122.595H6.286V120.999H7.168C6.85067 120.737 6.60333 120.406 6.426 120.005C6.24867 119.603 6.16 119.174 6.16 118.717C6.16 118.101 6.29067 117.55 6.552 117.065C6.81333 116.579 7.19133 116.206 7.686 115.945C7.21933 115.711 6.85067 115.347 6.58 114.853C6.3 114.358 6.16 113.826 6.16 113.257ZM14.126 104.702C14.126 105.43 13.9627 106.088 13.636 106.676C13.3 107.264 12.8333 107.726 12.236 108.062C11.6293 108.398 10.9293 108.566 10.136 108.566C9.352 108.566 8.65667 108.393 8.05 108.048C7.44333 107.702 6.97667 107.231 6.65 106.634C6.32333 106.036 6.16 105.369 6.16 104.632C6.16 103.894 6.32333 103.227 6.65 102.63C6.97667 102.032 7.44333 101.561 8.05 101.216C8.65667 100.87 9.352 100.698 10.136 100.698C10.92 100.698 11.6153 100.875 12.222 101.23C12.8287 101.584 13.3 102.07 13.636 102.686C13.9627 103.292 14.126 103.964 14.126 104.702ZM12.74 104.702C12.74 104.291 12.642 103.908 12.446 103.554C12.25 103.19 11.956 102.896 11.564 102.672C11.172 102.448 10.696 102.336 10.136 102.336C9.576 102.336 9.10467 102.443 8.722 102.658C8.33 102.872 8.036 103.157 7.84 103.512C7.644 103.866 7.546 104.249 7.546 104.66C7.546 105.07 7.644 105.453 7.84 105.808C8.036 106.153 8.33 106.428 8.722 106.634C9.10467 106.839 9.576 106.942 10.136 106.942C10.9667 106.942 11.6107 106.732 12.068 106.312C12.516 105.882 12.74 105.346 12.74 104.702ZM6.286 92.1339H14V93.7299H13.09C13.4073 93.9819 13.6593 94.3133 13.846 94.7239C14.0233 95.1253 14.112 95.5546 14.112 96.0119C14.112 96.6186 13.986 97.1646 13.734 97.6499C13.482 98.1259 13.1087 98.5039 12.614 98.7839C12.1193 99.0546 11.522 99.1899 10.822 99.1899H6.286L6.286 97.6079H10.584C11.2747 97.6079 11.8067 97.4353 12.18 97.0899C12.544 96.7446 12.726 96.2733 12.726 95.6759C12.726 95.0786 12.544 94.6073 12.18 94.2619C11.8067 93.9073 11.2747 93.7299 10.584 93.7299H6.286V92.1339ZM6.16 86.1361C6.16 85.5295 6.286 84.9881 6.538 84.5121C6.79 84.0268 7.16333 83.6488 7.658 83.3781C8.15267 83.1075 8.75 82.9721 9.45 82.9721H14V84.5541H9.688C8.99733 84.5541 8.47 84.7268 8.106 85.0721C7.73267 85.4175 7.546 85.8888 7.546 86.4861C7.546 87.0835 7.73267 87.5595 8.106 87.9141C8.47 88.2595 8.99733 88.4321 9.688 88.4321H14V90.0281H6.286V88.4321H7.168C6.85067 88.1708 6.60333 87.8395 6.426 87.4381C6.24867 87.0275 6.16 86.5935 6.16 86.1361ZM7.588 79.0743H11.858C12.1473 79.0743 12.3573 79.009 12.488 78.8783C12.6093 78.7383 12.67 78.505 12.67 78.1783V77.1983H14V78.4583C14 79.177 13.832 79.7277 13.496 80.1103C13.16 80.493 12.614 80.6843 11.858 80.6843H7.588V81.5943H6.286V80.6843H4.368V79.0743H6.286V77.1983H7.588V79.0743ZM10.108 76.2593C9.33333 76.2593 8.64733 76.1007 8.05 75.7833C7.45267 75.4567 6.99067 75.018 6.664 74.4673C6.328 73.9073 6.16 73.2913 6.16 72.6193C6.16 72.0127 6.28133 71.4853 6.524 71.0373C6.75733 70.58 7.05133 70.216 7.406 69.9453H6.286L6.286 68.3353H14V69.9453H12.852C13.216 70.216 13.5193 70.5847 13.762 71.0513C14.0047 71.518 14.126 72.05 14.126 72.6473C14.126 73.31 13.958 73.9167 13.622 74.4673C13.2767 75.018 12.8007 75.4567 12.194 75.7833C11.578 76.1007 10.8827 76.2593 10.108 76.2593ZM10.136 69.9453C9.604 69.9453 9.142 70.0573 8.75 70.2813C8.358 70.496 8.05933 70.7807 7.854 71.1353C7.64867 71.49 7.546 71.8727 7.546 72.2833C7.546 72.694 7.64867 73.0767 7.854 73.4313C8.05 73.786 8.344 74.0753 8.736 74.2993C9.11867 74.514 9.576 74.6213 10.108 74.6213C10.64 74.6213 11.1067 74.514 11.508 74.2993C11.9093 74.0753 12.2173 73.786 12.432 73.4313C12.6373 73.0673 12.74 72.6847 12.74 72.2833C12.74 71.8727 12.6373 71.49 12.432 71.1353C12.2267 70.7807 11.928 70.496 11.536 70.2813C11.1347 70.0573 10.668 69.9453 10.136 69.9453ZM5.264 65.4271C5.264 65.7164 5.166 65.9591 4.97 66.1551C4.774 66.3511 4.53133 66.4491 4.242 66.4491C3.95267 66.4491 3.71 66.3511 3.514 66.1551C3.318 65.9591 3.22 65.7164 3.22 65.4271C3.22 65.1471 3.318 64.9091 3.514 64.7131C3.71 64.5171 3.95267 64.4191 4.242 64.4191C4.53133 64.4191 4.774 64.5171 4.97 64.7131C5.166 64.9091 5.264 65.1471 5.264 65.4271ZM6.286 64.6431H14V66.2391H6.286V64.6431ZM6.16 58.6557C6.16 58.049 6.286 57.5077 6.538 57.0317C6.79 56.5463 7.16333 56.1683 7.658 55.8977C8.15267 55.627 8.75 55.4917 9.45 55.4917H14V57.0737H9.688C8.99733 57.0737 8.47 57.2463 8.106 57.5917C7.73267 57.937 7.546 58.4083 7.546 59.0057C7.546 59.603 7.73267 60.079 8.106 60.4337C8.47 60.779 8.99733 60.9517 9.688 60.9517H14L14 62.5477H6.286V60.9517H7.168C6.85067 60.6903 6.60333 60.359 6.426 59.9577C6.24867 59.547 6.16 59.113 6.16 58.6557ZM6.286 39.4591L14 41.8531V43.5331L8.302 45.0871L14 46.6411V48.3211L6.286 50.7291V49.1051L12.488 47.4951L6.286 45.8571V44.1911L12.46 42.6231L6.286 41.0271L6.286 39.4591ZM5.264 37.4544C5.264 37.7437 5.166 37.9864 4.97 38.1824C4.774 38.3784 4.53133 38.4764 4.242 38.4764C3.95267 38.4764 3.71 38.3784 3.514 38.1824C3.318 37.9864 3.22 37.7437 3.22 37.4544C3.22 37.1744 3.318 36.9364 3.514 36.7404C3.71 36.5444 3.95267 36.4464 4.242 36.4464C4.53133 36.4464 4.774 36.5444 4.97 36.7404C5.166 36.9364 5.264 37.1744 5.264 37.4544ZM6.286 36.6704H14V38.2664H6.286V36.6704ZM6.16 30.683C6.16 30.0763 6.286 29.535 6.538 29.059C6.79 28.5737 7.16333 28.1957 7.658 27.925C8.15267 27.6543 8.75 27.519 9.45 27.519H14V29.101H9.688C8.99733 29.101 8.47 29.2737 8.106 29.619C7.73267 29.9643 7.546 30.4357 7.546 31.033C7.546 31.6303 7.73267 32.1063 8.106 32.461C8.47 32.8063 8.99733 32.979 9.688 32.979H14V34.575H6.286V32.979H7.168C6.85067 32.7177 6.60333 32.3863 6.426 31.985C6.24867 31.5743 6.16 31.1403 6.16 30.683ZM10.108 26.0152C9.33333 26.0152 8.64733 25.8565 8.05 25.5392C7.45267 25.2125 6.99067 24.7739 6.664 24.2232C6.328 23.6632 6.16 23.0425 6.16 22.3612C6.16 21.8572 6.272 21.3625 6.496 20.8772C6.71067 20.3825 7 19.9905 7.364 19.7012H3.64V18.0912H14V19.7012H12.838C13.2113 19.9625 13.5193 20.3265 13.762 20.7932C14.0047 21.2505 14.126 21.7779 14.126 22.3752C14.126 23.0472 13.958 23.6632 13.622 24.2232C13.2767 24.7739 12.8007 25.2125 12.194 25.5392C11.578 25.8565 10.8827 26.0152 10.108 26.0152ZM10.136 19.7012C9.604 19.7012 9.142 19.8132 8.75 20.0372C8.358 20.2519 8.05933 20.5365 7.854 20.8912C7.64867 21.2459 7.546 21.6285 7.546 22.0392C7.546 22.4499 7.64867 22.8325 7.854 23.1872C8.05 23.5419 8.344 23.8312 8.736 24.0552C9.11867 24.2699 9.576 24.3772 10.108 24.3772C10.64 24.3772 11.1067 24.2699 11.508 24.0552C11.9093 23.8312 12.2173 23.5419 12.432 23.1872C12.6373 22.8232 12.74 22.4405 12.74 22.0392C12.74 21.6285 12.6373 21.2459 12.432 20.8912C12.2267 20.5365 11.928 20.2519 11.536 20.0372C11.1347 19.8132 10.668 19.7012 10.136 19.7012ZM14.126 13.1949C14.126 13.8016 14.0187 14.3476 13.804 14.8329C13.58 15.3089 13.2813 15.6869 12.908 15.9669C12.5253 16.2469 12.1007 16.3963 11.634 16.4149V14.7629C11.9607 14.7349 12.236 14.5809 12.46 14.3009C12.6747 14.0116 12.782 13.6523 12.782 13.2229C12.782 12.7749 12.698 12.4296 12.53 12.1869C12.3527 11.9349 12.1287 11.8089 11.858 11.8089C11.5687 11.8089 11.354 11.9489 11.214 12.2289C11.074 12.4996 10.92 12.9336 10.752 13.5309C10.5933 14.1096 10.4393 14.5809 10.29 14.9449C10.1407 15.3089 9.912 15.6263 9.604 15.8969C9.296 16.1583 8.89 16.2889 8.386 16.2889C7.97533 16.2889 7.602 16.1676 7.266 15.9249C6.92067 15.6823 6.65 15.3369 6.454 14.8889C6.258 14.4316 6.16 13.9089 6.16 13.3209C6.16 12.4436 6.384 11.7389 6.832 11.2069C7.27067 10.6656 7.87267 10.3763 8.638 10.3389V11.9349C8.29267 11.9629 8.01733 12.1029 7.812 12.3549C7.60667 12.6069 7.504 12.9476 7.504 13.3769C7.504 13.7969 7.58333 14.1189 7.742 14.3429C7.90067 14.5669 8.11067 14.6789 8.372 14.6789C8.57733 14.6789 8.75 14.6043 8.89 14.4549C9.03 14.3056 9.142 14.1236 9.226 13.9089C9.30067 13.6943 9.39867 13.3769 9.52 12.9569C9.66933 12.3969 9.82333 11.9396 9.982 11.5849C10.1313 11.2209 10.3553 10.9083 10.654 10.6469C10.9527 10.3856 11.3493 10.2503 11.844 10.2409C12.2827 10.2409 12.6747 10.3623 13.02 10.6049C13.3653 10.8476 13.636 11.1929 13.832 11.6409C14.028 12.0796 14.126 12.5976 14.126 13.1949Z" fill="#344F10" fill-opacity="0.5"/>
<rect x="8" y="202" width="1" height="100" fill="#344F10" fill-opacity="0.5"/>
</svg>
