<svg width="18" height="229" viewBox="0 0 18 229" fill="none" xmlns="http://www.w3.org/2000/svg">
<path d="M10.108 131.482C9.33333 131.482 8.64733 131.323 8.05 131.006C7.45267 130.679 6.99067 130.241 6.664 129.69C6.328 129.13 6.16 128.514 6.16 127.842C6.16 127.235 6.28133 126.708 6.524 126.26C6.75733 125.803 7.05133 125.439 7.406 125.168H6.286V123.558H14V125.168H12.852C13.216 125.439 13.5193 125.807 13.762 126.274C14.0047 126.741 14.126 127.273 14.126 127.87C14.126 128.533 13.958 129.139 13.622 129.69C13.2767 130.241 12.8007 130.679 12.194 131.006C11.578 131.323 10.8827 131.482 10.108 131.482ZM10.136 125.168C9.604 125.168 9.142 125.28 8.75 125.504C8.358 125.719 8.05933 126.003 7.854 126.358C7.64867 126.713 7.546 127.095 7.546 127.506C7.546 127.917 7.64867 128.299 7.854 128.654C8.05 129.009 8.344 129.298 8.736 129.522C9.11867 129.737 9.576 129.844 10.108 129.844C10.64 129.844 11.1067 129.737 11.508 129.522C11.9093 129.298 12.2173 129.009 12.432 128.654C12.6373 128.29 12.74 127.907 12.74 127.506C12.74 127.095 12.6373 126.713 12.432 126.358C12.2267 126.003 11.928 125.719 11.536 125.504C11.1347 125.28 10.668 125.168 10.136 125.168ZM7.434 119.866C7.06067 119.595 6.75733 119.226 6.524 118.76C6.28133 118.284 6.16 117.756 6.16 117.178C6.16 116.496 6.32333 115.88 6.65 115.33C6.97667 114.779 7.44333 114.345 8.05 114.028C8.64733 113.71 9.33333 113.552 10.108 113.552C10.8827 113.552 11.578 113.71 12.194 114.028C12.8007 114.345 13.2767 114.784 13.622 115.344C13.958 115.894 14.126 116.506 14.126 117.178C14.126 117.775 14.0093 118.307 13.776 118.774C13.5427 119.231 13.244 119.595 12.88 119.866H14V121.462H3.64V119.866H7.434ZM10.108 115.176C9.576 115.176 9.11867 115.288 8.736 115.512C8.344 115.726 8.05 116.016 7.854 116.38C7.64867 116.734 7.546 117.117 7.546 117.528C7.546 117.929 7.64867 118.312 7.854 118.676C8.05933 119.03 8.358 119.32 8.75 119.544C9.142 119.758 9.604 119.866 10.136 119.866C10.668 119.866 11.1347 119.758 11.536 119.544C11.928 119.32 12.2267 119.03 12.432 118.676C12.6373 118.312 12.74 117.929 12.74 117.528C12.74 117.117 12.6373 116.734 12.432 116.38C12.2173 116.016 11.9093 115.726 11.508 115.512C11.1067 115.288 10.64 115.176 10.108 115.176ZM14.126 108.627C14.126 109.355 13.9627 110.013 13.636 110.601C13.3 111.189 12.8333 111.651 12.236 111.987C11.6293 112.323 10.9293 112.491 10.136 112.491C9.352 112.491 8.65667 112.319 8.05 111.973C7.44333 111.628 6.97667 111.157 6.65 110.559C6.32333 109.962 6.16 109.295 6.16 108.557C6.16 107.82 6.32333 107.153 6.65 106.555C6.97667 105.958 7.44333 105.487 8.05 105.141C8.65667 104.796 9.352 104.623 10.136 104.623C10.92 104.623 11.6153 104.801 12.222 105.155C12.8287 105.51 13.3 105.995 13.636 106.611C13.9627 107.218 14.126 107.89 14.126 108.627ZM12.74 108.627C12.74 108.217 12.642 107.834 12.446 107.479C12.25 107.115 11.956 106.821 11.564 106.597C11.172 106.373 10.696 106.261 10.136 106.261C9.576 106.261 9.10467 106.369 8.722 106.583C8.33 106.798 8.036 107.083 7.84 107.437C7.644 107.792 7.546 108.175 7.546 108.585C7.546 108.996 7.644 109.379 7.84 109.733C8.036 110.079 8.33 110.354 8.722 110.559C9.10467 110.765 9.576 110.867 10.136 110.867C10.9667 110.867 11.6107 110.657 12.068 110.237C12.516 109.808 12.74 109.271 12.74 108.627ZM6.286 96.0597H14V97.6557H13.09C13.4073 97.9077 13.6593 98.239 13.846 98.6497C14.0233 99.051 14.112 99.4804 14.112 99.9377C14.112 100.544 13.986 101.09 13.734 101.576C13.482 102.052 13.1087 102.43 12.614 102.71C12.1193 102.98 11.522 103.116 10.822 103.116H6.286V101.534H10.584C11.2747 101.534 11.8067 101.361 12.18 101.016C12.544 100.67 12.726 100.199 12.726 99.6017C12.726 99.0044 12.544 98.533 12.18 98.1877C11.8067 97.833 11.2747 97.6557 10.584 97.6557H6.286V96.0597ZM7.588 92.0919H11.858C12.1473 92.0919 12.3573 92.0266 12.488 91.8959C12.6093 91.7559 12.67 91.5226 12.67 91.1959V90.2159H14V91.4759C14 92.1946 13.832 92.7452 13.496 93.1279C13.16 93.5106 12.614 93.7019 11.858 93.7019H7.588V94.6119H6.286V93.7019H4.368V92.0919H6.286V90.2159H7.588V92.0919ZM7.588 83.2462H11.858C12.1473 83.2462 12.3573 83.1809 12.488 83.0502C12.6093 82.9102 12.67 82.6769 12.67 82.3502V81.3702H14V82.6302C14 83.3489 13.832 83.8995 13.496 84.2822C13.16 84.6649 12.614 84.8562 11.858 84.8562H7.588V85.7662H6.286V84.8562H4.368V83.2462H6.286V81.3702H7.588V83.2462ZM6.16 75.9092C6.16 75.3212 6.286 74.7986 6.538 74.3412C6.79 73.8746 7.16333 73.5106 7.658 73.2492C8.15267 72.9786 8.75 72.8432 9.45 72.8432H14V74.4252H9.688C8.99733 74.4252 8.47 74.5979 8.106 74.9432C7.73267 75.2886 7.546 75.7599 7.546 76.3572C7.546 76.9546 7.73267 77.4306 8.106 77.7852C8.47 78.1306 8.99733 78.3032 9.688 78.3032H14V79.8992H3.64V78.3032H7.182C6.85533 78.0326 6.60333 77.6919 6.426 77.2812C6.24867 76.8612 6.16 76.4039 6.16 75.9092ZM9.954 63.7374C10.2433 63.7374 10.5047 63.7561 10.738 63.7934L10.738 69.6874C11.354 69.6408 11.8487 69.4121 12.222 69.0014C12.5953 68.5908 12.782 68.0868 12.782 67.4894C12.782 66.6308 12.4227 66.0241 11.704 65.6694V63.9474C12.4133 64.1808 12.9967 64.6054 13.454 65.2214C13.902 65.8281 14.126 66.5841 14.126 67.4894C14.126 68.2268 13.9627 68.8894 13.636 69.4774C13.3 70.0561 12.8333 70.5134 12.236 70.8494C11.6293 71.1761 10.9293 71.3394 10.136 71.3394C9.34267 71.3394 8.64733 71.1808 8.05 70.8634C7.44333 70.5368 6.97667 70.0841 6.65 69.5054C6.32333 68.9174 6.16 68.2454 6.16 67.4894C6.16 66.7614 6.31867 66.1128 6.636 65.5434C6.95333 64.9741 7.40133 64.5308 7.98 64.2134C8.54933 63.8961 9.20733 63.7374 9.954 63.7374ZM9.45 65.4034C8.862 65.4128 8.39067 65.6228 8.036 66.0334C7.68133 66.4441 7.504 66.9528 7.504 67.5594C7.504 68.1101 7.68133 68.5814 8.036 68.9734C8.38133 69.3654 8.85267 69.5988 9.45 69.6734L9.45 65.4034ZM10.136 59.0621C9.34267 59.0621 8.64733 58.9034 8.05 58.5861C7.44333 58.2594 6.97667 57.8114 6.65 57.2421C6.32333 56.6727 6.16 56.0194 6.16 55.2821C6.16 54.3487 6.384 53.5787 6.832 52.9721C7.27067 52.3561 7.90067 51.9407 8.722 51.7261V53.4481C8.33933 53.5881 8.04067 53.8121 7.826 54.1201C7.61133 54.4281 7.504 54.8154 7.504 55.2821C7.504 55.9354 7.73733 56.4581 8.204 56.8501C8.66133 57.2327 9.30533 57.4241 10.136 57.4241C10.9667 57.4241 11.6153 57.2327 12.082 56.8501C12.5487 56.4581 12.782 55.9354 12.782 55.2821C12.782 54.3581 12.376 53.7467 11.564 53.4481V51.7261C12.348 51.9501 12.9733 52.3701 13.44 52.9861C13.8973 53.6021 14.126 54.3674 14.126 55.2821C14.126 56.0194 13.9627 56.6727 13.636 57.2421C13.3 57.8114 12.8333 58.2594 12.236 58.5861C11.6293 58.9034 10.9293 59.0621 10.136 59.0621ZM7.406 48.5395C7.014 48.3062 6.71067 47.9982 6.496 47.6155C6.272 47.2235 6.16 46.7615 6.16 46.2295H7.812V46.6355C7.812 47.2609 7.97067 47.7369 8.288 48.0635C8.60533 48.3809 9.156 48.5395 9.94 48.5395H14V50.1355H6.286L6.286 48.5395H7.406ZM9.954 37.6925C10.2433 37.6925 10.5047 37.7112 10.738 37.7485L10.738 43.6425C11.354 43.5958 11.8487 43.3672 12.222 42.9565C12.5953 42.5458 12.782 42.0418 12.782 41.4445C12.782 40.5858 12.4227 39.9792 11.704 39.6245V37.9025C12.4133 38.1358 12.9967 38.5605 13.454 39.1765C13.902 39.7832 14.126 40.5392 14.126 41.4445C14.126 42.1818 13.9627 42.8445 13.636 43.4325C13.3 44.0112 12.8333 44.4685 12.236 44.8045C11.6293 45.1312 10.9293 45.2945 10.136 45.2945C9.34267 45.2945 8.64733 45.1358 8.05 44.8185C7.44333 44.4918 6.97667 44.0392 6.65 43.4605C6.32333 42.8725 6.16 42.2005 6.16 41.4445C6.16 40.7165 6.31867 40.0678 6.636 39.4985C6.95333 38.9292 7.40133 38.4858 7.98 38.1685C8.54933 37.8512 9.20733 37.6925 9.954 37.6925ZM9.45 39.3585C8.862 39.3678 8.39067 39.5778 8.036 39.9885C7.68133 40.3992 7.504 40.9078 7.504 41.5145C7.504 42.0652 7.68133 42.5365 8.036 42.9285C8.38133 43.3205 8.85267 43.5538 9.45 43.6285L9.45 39.3585ZM10.108 36.6539C9.33333 36.6539 8.64733 36.4952 8.05 36.1779C7.45267 35.8512 6.99067 35.4125 6.664 34.8619C6.328 34.3019 6.16 33.6859 6.16 33.0139C6.16 32.4072 6.28133 31.8799 6.524 31.4319C6.75733 30.9745 7.05133 30.6105 7.406 30.3399H6.286V28.7299H14V30.3399H12.852C13.216 30.6105 13.5193 30.9792 13.762 31.4459C14.0047 31.9125 14.126 32.4445 14.126 33.0419C14.126 33.7045 13.958 34.3112 13.622 34.8619C13.2767 35.4125 12.8007 35.8512 12.194 36.1779C11.578 36.4952 10.8827 36.6539 10.108 36.6539ZM10.136 30.3399C9.604 30.3399 9.142 30.4519 8.75 30.6759C8.358 30.8905 8.05933 31.1752 7.854 31.5299C7.64867 31.8845 7.546 32.2672 7.546 32.6779C7.546 33.0885 7.64867 33.4712 7.854 33.8259C8.05 34.1805 8.344 34.4699 8.736 34.6939C9.11867 34.9085 9.576 35.0159 10.108 35.0159C10.64 35.0159 11.1067 34.9085 11.508 34.6939C11.9093 34.4699 12.2173 34.1805 12.432 33.8259C12.6373 33.4619 12.74 33.0792 12.74 32.6779C12.74 32.2672 12.6373 31.8845 12.432 31.5299C12.2267 31.1752 11.928 30.8905 11.536 30.6759C11.1347 30.4519 10.668 30.3399 10.136 30.3399ZM7.588 24.7716H11.858C12.1473 24.7716 12.3573 24.7063 12.488 24.5756C12.6093 24.4356 12.67 24.2023 12.67 23.8756V22.8956H14V24.1556C14 24.8743 13.832 25.4249 13.496 25.8076C13.16 26.1903 12.614 26.3816 11.858 26.3816H7.588V27.2916H6.286V26.3816H4.368V24.7716H6.286L6.286 22.8956H7.588L7.588 24.7716ZM14.126 18.0786C14.126 18.8066 13.9627 19.4646 13.636 20.0526C13.3 20.6406 12.8333 21.1026 12.236 21.4386C11.6293 21.7746 10.9293 21.9426 10.136 21.9426C9.352 21.9426 8.65667 21.7699 8.05 21.4246C7.44333 21.0793 6.97667 20.6079 6.65 20.0106C6.32333 19.4133 6.16 18.7459 6.16 18.0086C6.16 17.2713 6.32333 16.6039 6.65 16.0066C6.97667 15.4093 7.44333 14.9379 8.05 14.5926C8.65667 14.2473 9.352 14.0746 10.136 14.0746C10.92 14.0746 11.6153 14.2519 12.222 14.6066C12.8287 14.9613 13.3 15.4466 13.636 16.0626C13.9627 16.6693 14.126 17.3413 14.126 18.0786ZM12.74 18.0786C12.74 17.6679 12.642 17.2853 12.446 16.9306C12.25 16.5666 11.956 16.2726 11.564 16.0486C11.172 15.8246 10.696 15.7126 10.136 15.7126C9.576 15.7126 9.10467 15.8199 8.722 16.0346C8.33 16.2493 8.036 16.5339 7.84 16.8886C7.644 17.2433 7.546 17.6259 7.546 18.0366C7.546 18.4473 7.644 18.8299 7.84 19.1846C8.036 19.5299 8.33 19.8053 8.722 20.0106C9.10467 20.2159 9.576 20.3186 10.136 20.3186C10.9667 20.3186 11.6107 20.1086 12.068 19.6886C12.516 19.2593 12.74 18.7226 12.74 18.0786ZM7.406 10.9009C7.014 10.6675 6.71067 10.3595 6.496 9.97687C6.272 9.58487 6.16 9.12287 6.16 8.59087H7.812V8.99687C7.812 9.62221 7.97067 10.0982 8.288 10.4249C8.60533 10.7422 9.156 10.9009 9.94 10.9009H14V12.4969H6.286V10.9009H7.406ZM14.126 4.32383C14.126 4.93049 14.0187 5.47649 13.804 5.96183C13.58 6.43783 13.2813 6.81583 12.908 7.09583C12.5253 7.37583 12.1007 7.52516 11.634 7.54383V5.89183C11.9607 5.86383 12.236 5.70983 12.46 5.42983C12.6747 5.14049 12.782 4.78116 12.782 4.35183C12.782 3.90383 12.698 3.55849 12.53 3.31583C12.3527 3.06383 12.1287 2.93783 11.858 2.93783C11.5687 2.93783 11.354 3.07783 11.214 3.35783C11.074 3.62849 10.92 4.06249 10.752 4.65983C10.5933 5.23849 10.4393 5.70983 10.29 6.07383C10.1407 6.43783 9.912 6.75516 9.604 7.02583C9.296 7.28716 8.89 7.41783 8.386 7.41783C7.97533 7.41783 7.602 7.29649 7.266 7.05383C6.92067 6.81116 6.65 6.46583 6.454 6.01783C6.258 5.56049 6.16 5.03783 6.16 4.44983C6.16 3.57249 6.384 2.86783 6.832 2.33583C7.27067 1.79449 7.87267 1.50516 8.638 1.46783V3.06383C8.29267 3.09183 8.01733 3.23183 7.812 3.48383C7.60667 3.73583 7.504 4.07649 7.504 4.50583C7.504 4.92583 7.58333 5.24783 7.742 5.47183C7.90067 5.69583 8.11067 5.80783 8.372 5.80783C8.57733 5.80783 8.75 5.73316 8.89 5.58383C9.03 5.43449 9.142 5.25249 9.226 5.03783C9.30067 4.82316 9.39867 4.50583 9.52 4.08583C9.66933 3.52583 9.82333 3.06849 9.982 2.71383C10.1313 2.34983 10.3553 2.03716 10.654 1.77583C10.9527 1.51449 11.3493 1.37916 11.844 1.36983C12.2827 1.36983 12.6747 1.49116 13.02 1.73383C13.3653 1.97649 13.636 2.32183 13.832 2.76983C14.028 3.20849 14.126 3.72649 14.126 4.32383Z" fill="#344F10" fill-opacity="0.5"/>
<rect x="8" y="140.923" width="1" height="88.0769" fill="#344F10" fill-opacity="0.5"/>
</svg>
