<svg width="480" height="397" viewBox="0 0 480 397" fill="none" xmlns="http://www.w3.org/2000/svg">
<path fill-rule="evenodd" clip-rule="evenodd" d="M98.8684 14.875C242.779 -4.23708 325.726 -5.66674 479.133 14.8751L480 14.9912V15.8663V82.2515V83.2515H479H470.927V113.697V114.697H469.927H454.735C454.665 115.069 454.575 115.562 454.477 116.153C454.244 117.56 453.965 119.519 453.778 121.726C453.402 126.182 453.423 131.482 454.853 135.309C456.376 139.39 460.228 143.748 463.817 147.152C465.594 148.837 467.272 150.257 468.507 151.256C469.124 151.755 469.629 152.148 469.979 152.415C470.153 152.549 470.289 152.651 470.381 152.72L470.421 152.75L470.484 152.797L470.51 152.815L470.516 152.82L470.517 152.82L470.513 152.826L470.517 152.821L470.927 153.12V153.628V179.082H479H480V180.082V339.307V340.307H479H470.927V376.243V377.055L470.132 377.222C344.233 403.576 263.765 403.617 109.506 377.229L108.674 377.087V376.243V340.307H99H98V339.307V180.082V179.082H99H108.674V153.628V153.045L109.182 152.758C110.051 152.266 110.943 151.783 111.843 151.297C114.642 149.784 117.513 148.232 120.004 146.226C123.243 143.619 125.716 140.329 126.294 135.539L126.295 135.529L126.297 135.518C127.225 129.01 127.36 124.558 126.382 114.697H109.674H108.674V113.697V83.2515H99H98V82.2515V15.8663V14.9903L98.8684 14.875ZM110.674 340.419C257.407 356.01 336.271 356.026 468.927 340.432V375.43C344.002 401.51 263.87 401.556 110.674 375.399V340.419ZM128.392 114.697H452.701C452.642 115.019 452.575 115.398 452.504 115.827C452.265 117.272 451.977 119.286 451.785 121.558C451.537 124.497 451.442 127.94 451.851 131.165H128.824C129.226 126.57 129.123 122.128 128.392 114.697ZM128.62 133.165H452.178C452.382 134.159 452.645 135.115 452.979 136.009C454.675 140.552 458.829 145.178 462.441 148.603C464.265 150.333 465.985 151.788 467.249 152.811C467.882 153.322 468.401 153.727 468.763 154.004C468.822 154.049 468.877 154.09 468.927 154.128V179.707C329.559 186.462 250.512 185.947 110.674 179.626V154.214C111.314 153.858 111.98 153.498 112.662 153.13L112.666 153.128L112.667 153.127L112.675 153.123L112.678 153.121L112.678 153.121C115.509 151.591 118.61 149.916 121.259 147.784C124.773 144.955 127.618 141.235 128.278 135.79C128.407 134.883 128.521 134.014 128.62 133.165ZM453.916 112.697H468.927V83.2512H110.674V112.697L127.286 112.697L453.916 112.697ZM109.674 81.2515L109.674 81.2512H469.927L469.927 81.2515H478V16.7414C325.641 -3.61303 242.94 -2.20223 100 16.7424V81.2515H109.674ZM109.629 181.58L109.651 181.082H100V338.307H109.674H109.727L109.78 338.313C257.503 354.051 336.308 354.06 469.81 338.314L469.868 338.307H469.927H478V181.082H471.553L471.577 181.58C330.229 188.485 250.97 187.984 109.629 181.58Z" fill="#344F10"/>
<rect x="76" y="51.0017" width="76" height="1" transform="rotate(-180 76 51.0017)" fill="#333333"/>
<rect x="76" y="124.002" width="76" height="1" transform="rotate(-180 76 124.002)" fill="#333333"/>
<rect x="76" y="200.002" width="76" height="1" transform="rotate(-180 76 200.002)" fill="#333333"/>
<rect x="76" y="273.002" width="76" height="1" transform="rotate(-180 76 273.002)" fill="#333333"/>
<rect x="76" y="345.002" width="76" height="1" transform="rotate(-180 76 345.002)" fill="#333333"/>
</svg>
