<svg width="18" height="179" viewBox="0 0 18 179" fill="none" xmlns="http://www.w3.org/2000/svg">
<path d="M4.27 77.3557H14V78.9517H4.27V77.3557ZM6.16 71.3683C6.16 70.7616 6.286 70.2203 6.538 69.7443C6.79 69.259 7.16333 68.881 7.658 68.6103C8.15267 68.3396 8.75 68.2043 9.45 68.2043H14V69.7863H9.688C8.99733 69.7863 8.47 69.959 8.106 70.3043C7.73267 70.6496 7.546 71.121 7.546 71.7183C7.546 72.3156 7.73267 72.7916 8.106 73.1463C8.47 73.4916 8.99733 73.6643 9.688 73.6643H14V75.2603H6.286V73.6643H7.168C6.85067 73.403 6.60333 73.0716 6.426 72.6703C6.24867 72.2596 6.16 71.8256 6.16 71.3683ZM6.16 63.0605C6.16 62.4632 6.28133 61.9358 6.524 61.4785C6.75733 61.0118 7.05133 60.6478 7.406 60.3865H6.286V58.7765H14.126C14.8353 58.7765 15.4653 58.9258 16.016 59.2245C16.576 59.5232 17.0147 59.9572 17.332 60.5265C17.6493 61.0865 17.808 61.7585 17.808 62.5425C17.808 63.5878 17.5607 64.4558 17.066 65.1465C16.5807 65.8372 15.918 66.2292 15.078 66.3225V64.7405C15.4793 64.6192 15.8013 64.3625 16.044 63.9705C16.296 63.5692 16.422 63.0932 16.422 62.5425C16.422 61.8985 16.226 61.3805 15.834 60.9885C15.442 60.5872 14.8727 60.3865 14.126 60.3865H12.838C13.202 60.6572 13.51 61.0258 13.762 61.4925C14.0047 61.9498 14.126 62.4725 14.126 63.0605C14.126 63.7325 13.958 64.3485 13.622 64.9085C13.2767 65.4592 12.8007 65.8978 12.194 66.2245C11.578 66.5418 10.8827 66.7005 10.108 66.7005C9.33333 66.7005 8.64733 66.5418 8.05 66.2245C7.45267 65.8978 6.99067 65.4592 6.664 64.9085C6.328 64.3485 6.16 63.7325 6.16 63.0605ZM10.136 60.3865C9.604 60.3865 9.142 60.4985 8.75 60.7225C8.358 60.9372 8.05933 61.2218 7.854 61.5765C7.64867 61.9312 7.546 62.3138 7.546 62.7245C7.546 63.1352 7.64867 63.5178 7.854 63.8725C8.05 64.2272 8.344 64.5165 8.736 64.7405C9.11867 64.9552 9.576 65.0625 10.108 65.0625C10.64 65.0625 11.1067 64.9552 11.508 64.7405C11.9093 64.5165 12.2173 64.2272 12.432 63.8725C12.6373 63.5085 12.74 63.1258 12.74 62.7245C12.74 62.3138 12.6373 61.9312 12.432 61.5765C12.2267 61.2218 11.928 60.9372 11.536 60.7225C11.1347 60.4985 10.668 60.3865 10.136 60.3865ZM7.406 55.0842C7.014 54.8509 6.71067 54.5429 6.496 54.1602C6.272 53.7682 6.16 53.3062 6.16 52.7742H7.812V53.1802C7.812 53.8056 7.97067 54.2816 8.288 54.6082C8.60533 54.9256 9.156 55.0842 9.94 55.0842H14V56.6802H6.286V55.0842H7.406ZM9.954 44.2372C10.2433 44.2372 10.5047 44.2558 10.738 44.2932V50.1872C11.354 50.1405 11.8487 49.9118 12.222 49.5012C12.5953 49.0905 12.782 48.5865 12.782 47.9892C12.782 47.1305 12.4227 46.5238 11.704 46.1692V44.4472C12.4133 44.6805 12.9967 45.1052 13.454 45.7212C13.902 46.3278 14.126 47.0838 14.126 47.9892C14.126 48.7265 13.9627 49.3892 13.636 49.9772C13.3 50.5558 12.8333 51.0132 12.236 51.3492C11.6293 51.6758 10.9293 51.8392 10.136 51.8392C9.34267 51.8392 8.64733 51.6805 8.05 51.3632C7.44333 51.0365 6.97667 50.5838 6.65 50.0052C6.32333 49.4172 6.16 48.7452 6.16 47.9892C6.16 47.2612 6.31867 46.6125 6.636 46.0432C6.95333 45.4738 7.40133 45.0305 7.98 44.7132C8.54933 44.3958 9.20733 44.2372 9.954 44.2372ZM9.45 45.9032C8.862 45.9125 8.39067 46.1225 8.036 46.5332C7.68133 46.9438 7.504 47.4525 7.504 48.0592C7.504 48.6098 7.68133 49.0812 8.036 49.4732C8.38133 49.8652 8.85267 50.0985 9.45 50.1732V45.9032ZM10.108 43.1986C9.33333 43.1986 8.64733 43.0399 8.05 42.7226C7.45267 42.3959 6.99067 41.9572 6.664 41.4066C6.328 40.8466 6.16 40.2259 6.16 39.5446C6.16 39.0406 6.272 38.5459 6.496 38.0606C6.71067 37.5659 7 37.1739 7.364 36.8846H3.64V35.2746H14V36.8846H12.838C13.2113 37.1459 13.5193 37.5099 13.762 37.9766C14.0047 38.4339 14.126 38.9612 14.126 39.5586C14.126 40.2306 13.958 40.8466 13.622 41.4066C13.2767 41.9572 12.8007 42.3959 12.194 42.7226C11.578 43.0399 10.8827 43.1986 10.108 43.1986ZM10.136 36.8846C9.604 36.8846 9.142 36.9966 8.75 37.2206C8.358 37.4352 8.05933 37.7199 7.854 38.0746C7.64867 38.4292 7.546 38.8119 7.546 39.2226C7.546 39.6332 7.64867 40.0159 7.854 40.3706C8.05 40.7252 8.344 41.0146 8.736 41.2386C9.11867 41.4532 9.576 41.5606 10.108 41.5606C10.64 41.5606 11.1067 41.4532 11.508 41.2386C11.9093 41.0146 12.2173 40.7252 12.432 40.3706C12.6373 40.0066 12.74 39.6239 12.74 39.2226C12.74 38.8119 12.6373 38.4292 12.432 38.0746C12.2267 37.7199 11.928 37.4352 11.536 37.2206C11.1347 36.9966 10.668 36.8846 10.136 36.8846ZM5.264 32.3663C5.264 32.6556 5.166 32.8983 4.97 33.0943C4.774 33.2903 4.53133 33.3883 4.242 33.3883C3.95267 33.3883 3.71 33.2903 3.514 33.0943C3.318 32.8983 3.22 32.6556 3.22 32.3663C3.22 32.0863 3.318 31.8483 3.514 31.6523C3.71 31.4563 3.95267 31.3583 4.242 31.3583C4.53133 31.3583 4.774 31.4563 4.97 31.6523C5.166 31.8483 5.264 32.0863 5.264 32.3663ZM6.286 31.5823H14V33.1783H6.286V31.5823ZM9.954 22.4169C10.2433 22.4169 10.5047 22.4355 10.738 22.4729V28.3669C11.354 28.3202 11.8487 28.0915 12.222 27.6809C12.5953 27.2702 12.782 26.7662 12.782 26.1689C12.782 25.3102 12.4227 24.7035 11.704 24.3489V22.6269C12.4133 22.8602 12.9967 23.2849 13.454 23.9009C13.902 24.5075 14.126 25.2635 14.126 26.1689C14.126 26.9062 13.9627 27.5689 13.636 28.1569C13.3 28.7355 12.8333 29.1929 12.236 29.5289C11.6293 29.8555 10.9293 30.0189 10.136 30.0189C9.34267 30.0189 8.64733 29.8602 8.05 29.5429C7.44333 29.2162 6.97667 28.7635 6.65 28.1849C6.32333 27.5969 6.16 26.9249 6.16 26.1689C6.16 25.4409 6.31867 24.7922 6.636 24.2229C6.95333 23.6535 7.40133 23.2102 7.98 22.8929C8.54933 22.5755 9.20733 22.4169 9.954 22.4169ZM9.45 24.0829C8.862 24.0922 8.39067 24.3022 8.036 24.7129C7.68133 25.1235 7.504 25.6322 7.504 26.2389C7.504 26.7895 7.68133 27.2609 8.036 27.6529C8.38133 28.0449 8.85267 28.2782 9.45 28.3529V24.0829ZM6.16 16.9542C6.16 16.3476 6.286 15.8062 6.538 15.3302C6.79 14.8449 7.16333 14.4669 7.658 14.1962C8.15267 13.9256 8.75 13.7902 9.45 13.7902H14V15.3722H9.688C8.99733 15.3722 8.47 15.5449 8.106 15.8902C7.73267 16.2356 7.546 16.7069 7.546 17.3042C7.546 17.9016 7.73267 18.3776 8.106 18.7322C8.47 19.0776 8.99733 19.2502 9.688 19.2502H14V20.8462H6.286V19.2502H7.168C6.85067 18.9889 6.60333 18.6576 6.426 18.2562C6.24867 17.8456 6.16 17.4116 6.16 16.9542ZM7.588 9.89244H11.858C12.1473 9.89244 12.3573 9.82711 12.488 9.69644C12.6093 9.55644 12.67 9.32311 12.67 8.99644V8.01644H14V9.27644C14 9.99511 13.832 10.5458 13.496 10.9284C13.16 11.3111 12.614 11.5024 11.858 11.5024H7.588V12.4124H6.286V11.5024H4.368V9.89244H6.286L6.286 8.01644H7.588L7.588 9.89244ZM14.126 3.74546C14.126 4.35213 14.0187 4.89813 13.804 5.38346C13.58 5.85946 13.2813 6.23746 12.908 6.51746C12.5253 6.79746 12.1007 6.94679 11.634 6.96546V5.31346C11.9607 5.28546 12.236 5.13146 12.46 4.85146C12.6747 4.56213 12.782 4.20279 12.782 3.77346C12.782 3.32546 12.698 2.98013 12.53 2.73746C12.3527 2.48546 12.1287 2.35946 11.858 2.35946C11.5687 2.35946 11.354 2.49946 11.214 2.77946C11.074 3.05013 10.92 3.48413 10.752 4.08146C10.5933 4.66013 10.4393 5.13146 10.29 5.49546C10.1407 5.85946 9.912 6.17679 9.604 6.44746C9.296 6.70879 8.89 6.83946 8.386 6.83946C7.97533 6.83946 7.602 6.71813 7.266 6.47546C6.92067 6.23279 6.65 5.88746 6.454 5.43946C6.258 4.98213 6.16 4.45946 6.16 3.87146C6.16 2.99413 6.384 2.28946 6.832 1.75746C7.27067 1.21613 7.87267 0.926792 8.638 0.889459V2.48546C8.29267 2.51346 8.01733 2.65346 7.812 2.90546C7.60667 3.15746 7.504 3.49813 7.504 3.92746C7.504 4.34746 7.58333 4.66946 7.742 4.89346C7.90067 5.11746 8.11067 5.22946 8.372 5.22946C8.57733 5.22946 8.75 5.15479 8.89 5.00546C9.03 4.85613 9.142 4.67413 9.226 4.45946C9.30067 4.24479 9.39867 3.92746 9.52 3.50746C9.66933 2.94746 9.82333 2.49013 9.982 2.13546C10.1313 1.77146 10.3553 1.45879 10.654 1.19746C10.9527 0.936125 11.3493 0.800792 11.844 0.791459C12.2827 0.791459 12.6747 0.912792 13.02 1.15546C13.3653 1.39813 13.636 1.74346 13.832 2.19146C14.028 2.63013 14.126 3.14813 14.126 3.74546Z" fill="#344F10" fill-opacity="0.5"/>
<rect x="8" y="90.0017" width="1" height="88.0769" fill="#344F10" fill-opacity="0.5"/>
</svg>
