<svg width="18" height="132" viewBox="0 0 18 132" fill="none" xmlns="http://www.w3.org/2000/svg">
<path d="M6.16 29.962C6.16 29.374 6.286 28.8513 6.538 28.394C6.79 27.9273 7.16333 27.5633 7.658 27.302C8.15267 27.0313 8.75 26.896 9.45 26.896H14V28.478H9.688C8.99733 28.478 8.47 28.6506 8.106 28.996C7.73267 29.3413 7.546 29.8126 7.546 30.41C7.546 31.0073 7.73267 31.4833 8.106 31.838C8.47 32.1833 8.99733 32.356 9.688 32.356H14V33.952H3.64V32.356H7.182C6.85533 32.0853 6.60333 31.7446 6.426 31.334C6.24867 30.914 6.16 30.4566 6.16 29.962ZM9.954 17.7902C10.2433 17.7902 10.5047 17.8088 10.738 17.8462L10.738 23.7402C11.354 23.6935 11.8487 23.4648 12.222 23.0542C12.5953 22.6435 12.782 22.1395 12.782 21.5422C12.782 20.6835 12.4227 20.0768 11.704 19.7222V18.0002C12.4133 18.2335 12.9967 18.6582 13.454 19.2742C13.902 19.8808 14.126 20.6368 14.126 21.5422C14.126 22.2795 13.9627 22.9422 13.636 23.5302C13.3 24.1088 12.8333 24.5662 12.236 24.9022C11.6293 25.2288 10.9293 25.3922 10.136 25.3922C9.34267 25.3922 8.64733 25.2335 8.05 24.9162C7.44333 24.5895 6.97667 24.1368 6.65 23.5582C6.32333 22.9702 6.16 22.2982 6.16 21.5422C6.16 20.8142 6.31867 20.1655 6.636 19.5962C6.95333 19.0268 7.40133 18.5835 7.98 18.2662C8.54933 17.9488 9.20733 17.7902 9.954 17.7902ZM9.45 19.4562C8.862 19.4655 8.39067 19.6755 8.036 20.0862C7.68133 20.4968 7.504 21.0055 7.504 21.6122C7.504 22.1628 7.68133 22.6342 8.036 23.0262C8.38133 23.4182 8.85267 23.6515 9.45 23.7262L9.45 19.4562ZM3.64 14.6235H14V16.2195H3.64V14.6235ZM7.42 10.9321C7.06533 10.6615 6.76667 10.2928 6.524 9.82612C6.28133 9.35946 6.16 8.83212 6.16 8.24412C6.16 7.57212 6.328 6.96079 6.664 6.41012C6.99067 5.85012 7.45267 5.41146 8.05 5.09412C8.64733 4.77679 9.33333 4.61812 10.108 4.61812C10.8827 4.61812 11.578 4.77679 12.194 5.09412C12.8007 5.41146 13.2767 5.85012 13.622 6.41012C13.958 6.96079 14.126 7.57212 14.126 8.24412C14.126 8.83212 14.0093 9.35479 13.776 9.81212C13.5333 10.2695 13.2347 10.6428 12.88 10.9321H17.668V12.5281H6.286V10.9321H7.42ZM10.108 6.24212C9.576 6.24212 9.11867 6.35412 8.736 6.57812C8.344 6.79279 8.05 7.08212 7.854 7.44612C7.64867 7.80079 7.546 8.18346 7.546 8.59412C7.546 8.99546 7.64867 9.37812 7.854 9.74212C8.05933 10.0968 8.358 10.3861 8.75 10.6101C9.142 10.8248 9.604 10.9321 10.136 10.9321C10.668 10.9321 11.1347 10.8248 11.536 10.6101C11.928 10.3861 12.2267 10.0968 12.432 9.74212C12.6373 9.37812 12.74 8.99546 12.74 8.59412C12.74 8.18346 12.6373 7.80079 12.432 7.44612C12.2173 7.08212 11.9093 6.79279 11.508 6.57812C11.1067 6.35412 10.64 6.24212 10.108 6.24212Z" fill="#344F10" fill-opacity="0.5"/>
<rect x="8" y="43.9248" width="1" height="88.0769" fill="#344F10" fill-opacity="0.5"/>
</svg>
