<svg width="382" height="27" viewBox="0 0 382 27" fill="none" xmlns="http://www.w3.org/2000/svg">
<path d="M0.666 13.72C0.666 12.496 0.948 11.398 1.512 10.426C2.088 9.45395 2.862 8.69795 3.834 8.15795C4.818 7.60595 5.892 7.32995 7.056 7.32995C8.388 7.32995 9.57 7.65995 10.602 8.31995C11.646 8.96795 12.402 9.89195 12.87 11.092H10.404C10.08 10.432 9.63 9.93995 9.054 9.61595C8.478 9.29195 7.812 9.12995 7.056 9.12995C6.228 9.12995 5.49 9.31595 4.842 9.68795C4.194 10.06 3.684 10.594 3.312 11.29C2.952 11.986 2.772 12.796 2.772 13.72C2.772 14.644 2.952 15.454 3.312 16.15C3.684 16.846 4.194 17.386 4.842 17.77C5.49 18.142 6.228 18.328 7.056 18.328C7.812 18.328 8.478 18.166 9.054 17.842C9.63 17.518 10.08 17.026 10.404 16.366H12.87C12.402 17.566 11.646 18.49 10.602 19.138C9.57 19.786 8.388 20.11 7.056 20.11C5.88 20.11 4.806 19.84 3.834 19.3C2.862 18.748 2.088 17.986 1.512 17.014C0.948 16.042 0.666 14.944 0.666 13.72ZM19.5739 20.164C18.6379 20.164 17.7919 19.954 17.0359 19.534C16.2799 19.102 15.6859 18.502 15.2539 17.734C14.8219 16.954 14.6059 16.054 14.6059 15.034C14.6059 14.026 14.8279 13.132 15.2719 12.352C15.7159 11.572 16.3219 10.972 17.0899 10.552C17.8579 10.132 18.7159 9.92195 19.6639 9.92195C20.6119 9.92195 21.4699 10.132 22.2379 10.552C23.0059 10.972 23.6119 11.572 24.0559 12.352C24.4999 13.132 24.7219 14.026 24.7219 15.034C24.7219 16.042 24.4939 16.936 24.0379 17.716C23.5819 18.496 22.9579 19.102 22.1659 19.534C21.3859 19.954 20.5219 20.164 19.5739 20.164ZM19.5739 18.382C20.1019 18.382 20.5939 18.256 21.0499 18.004C21.5179 17.752 21.8959 17.374 22.1839 16.87C22.4719 16.366 22.6159 15.754 22.6159 15.034C22.6159 14.314 22.4779 13.708 22.2019 13.216C21.9259 12.712 21.5599 12.334 21.1039 12.082C20.6479 11.83 20.1559 11.704 19.6279 11.704C19.0999 11.704 18.6079 11.83 18.1519 12.082C17.7079 12.334 17.3539 12.712 17.0899 13.216C16.8259 13.708 16.6939 14.314 16.6939 15.034C16.6939 16.102 16.9639 16.93 17.5039 17.518C18.0559 18.094 18.7459 18.382 19.5739 18.382ZM28.8024 11.542C29.1504 11.086 29.6244 10.702 30.2244 10.39C30.8244 10.078 31.5024 9.92195 32.2584 9.92195C33.1224 9.92195 33.9084 10.138 34.6164 10.57C35.3364 10.99 35.9004 11.584 36.3084 12.352C36.7164 13.12 36.9204 14.002 36.9204 14.998C36.9204 15.994 36.7164 16.888 36.3084 17.68C35.9004 18.46 35.3364 19.072 34.6164 19.516C33.9084 19.948 33.1224 20.164 32.2584 20.164C31.5024 20.164 30.8304 20.014 30.2424 19.714C29.6544 19.402 29.1744 19.018 28.8024 18.562V24.718H26.7504V10.084H28.8024V11.542ZM34.8324 14.998C34.8324 14.314 34.6884 13.726 34.4004 13.234C34.1244 12.73 33.7524 12.352 33.2844 12.1C32.8284 11.836 32.3364 11.704 31.8084 11.704C31.2924 11.704 30.8004 11.836 30.3324 12.1C29.8764 12.364 29.5044 12.748 29.2164 13.252C28.9404 13.756 28.8024 14.35 28.8024 15.034C28.8024 15.718 28.9404 16.318 29.2164 16.834C29.5044 17.338 29.8764 17.722 30.3324 17.986C30.8004 18.25 31.2924 18.382 31.8084 18.382C32.3364 18.382 32.8284 18.25 33.2844 17.986C33.7524 17.71 34.1244 17.314 34.4004 16.798C34.6884 16.282 34.8324 15.682 34.8324 14.998ZM47.8776 10.084L41.7936 24.664H39.6696L41.6856 19.84L37.7796 10.084H40.0656L42.8556 17.644L45.7536 10.084H47.8776ZM51.4782 11.524C51.7782 11.02 52.1742 10.63 52.6662 10.354C53.1702 10.066 53.7642 9.92195 54.4482 9.92195V12.046H53.9262C53.1222 12.046 52.5102 12.25 52.0902 12.658C51.6822 13.066 51.4782 13.774 51.4782 14.782V20.002H49.4262V10.084H51.4782V11.524ZM57.3784 8.76995C57.0064 8.76995 56.6944 8.64395 56.4424 8.39195C56.1904 8.13995 56.0644 7.82795 56.0644 7.45595C56.0644 7.08395 56.1904 6.77195 56.4424 6.51995C56.6944 6.26795 57.0064 6.14195 57.3784 6.14195C57.7384 6.14195 58.0444 6.26795 58.2964 6.51995C58.5484 6.77195 58.6744 7.08395 58.6744 7.45595C58.6744 7.82795 58.5484 8.13995 58.2964 8.39195C58.0444 8.64395 57.7384 8.76995 57.3784 8.76995ZM58.3864 10.084V20.002H56.3344V10.084H58.3864ZM65.0765 9.92195C65.8445 9.92195 66.5225 10.078 67.1105 10.39C67.7105 10.69 68.1785 11.068 68.5145 11.524V10.084H70.5845V20.164C70.5845 21.076 70.3925 21.886 70.0085 22.594C69.6245 23.314 69.0665 23.878 68.3345 24.286C67.6145 24.694 66.7505 24.898 65.7425 24.898C64.3985 24.898 63.2825 24.58 62.3945 23.944C61.5065 23.32 61.0025 22.468 60.8825 21.388H62.9165C63.0725 21.904 63.4025 22.318 63.9065 22.63C64.4225 22.954 65.0345 23.116 65.7425 23.116C66.5705 23.116 67.2365 22.864 67.7405 22.36C68.2565 21.856 68.5145 21.124 68.5145 20.164V18.508C68.1665 18.976 67.6925 19.372 67.0925 19.696C66.5045 20.008 65.8325 20.164 65.0765 20.164C64.2125 20.164 63.4205 19.948 62.7005 19.516C61.9925 19.072 61.4285 18.46 61.0085 17.68C60.6005 16.888 60.3965 15.994 60.3965 14.998C60.3965 14.002 60.6005 13.12 61.0085 12.352C61.4285 11.584 61.9925 10.99 62.7005 10.57C63.4205 10.138 64.2125 9.92195 65.0765 9.92195ZM68.5145 15.034C68.5145 14.35 68.3705 13.756 68.0825 13.252C67.8065 12.748 67.4405 12.364 66.9845 12.1C66.5285 11.836 66.0365 11.704 65.5085 11.704C64.9805 11.704 64.4885 11.836 64.0325 12.1C63.5765 12.352 63.2045 12.73 62.9165 13.234C62.6405 13.726 62.5025 14.314 62.5025 14.998C62.5025 15.682 62.6405 16.282 62.9165 16.798C63.2045 17.314 63.5765 17.71 64.0325 17.986C64.5005 18.25 64.9925 18.382 65.5085 18.382C66.0365 18.382 66.5285 18.25 66.9845 17.986C67.4405 17.722 67.8065 17.338 68.0825 16.834C68.3705 16.318 68.5145 15.718 68.5145 15.034ZM78.4097 9.92195C79.1657 9.92195 79.8377 10.084 80.4257 10.408C81.0257 10.732 81.4937 11.212 81.8297 11.848C82.1777 12.484 82.3517 13.252 82.3517 14.152V20.002H80.3177V14.458C80.3177 13.57 80.0957 12.892 79.6517 12.424C79.2077 11.944 78.6017 11.704 77.8337 11.704C77.0657 11.704 76.4537 11.944 75.9977 12.424C75.5537 12.892 75.3317 13.57 75.3317 14.458V20.002H73.2797V6.68195H75.3317V11.236C75.6797 10.816 76.1177 10.492 76.6457 10.264C77.1857 10.036 77.7737 9.92195 78.4097 9.92195ZM87.3631 11.758V17.248C87.3631 17.62 87.4471 17.89 87.6151 18.058C87.7951 18.214 88.0951 18.292 88.5151 18.292H89.7751V20.002H88.1551C87.2311 20.002 86.5231 19.786 86.0311 19.354C85.5391 18.922 85.2931 18.22 85.2931 17.248V11.758H84.1231V10.084H85.2931V7.61795H87.3631V10.084H89.7751V11.758H87.3631Z" fill="#E4DFD3"/>
<g clip-path="url(#clip0_21779_58)">
<path d="M95.4837 8.01971C94.7527 8.05918 94.0956 8.22939 93.4139 8.55499C93.0111 8.74822 92.6477 8.98009 92.313 9.25883C92.1743 9.37394 91.8552 9.69708 91.7338 9.84344C91.0939 10.6188 90.6641 11.608 90.5377 12.5979C90.5057 12.8454 90.5 12.9474 90.5 13.264C90.5 13.6479 90.5172 13.8552 90.5788 14.1947C90.7231 14.9997 91.0915 15.8376 91.5919 16.5003C92.1949 17.2979 93.0571 17.9014 94.0809 18.2426C94.4566 18.3676 94.8077 18.4424 95.2335 18.4868C95.4082 18.5049 95.9603 18.5074 96.1276 18.4909C96.8504 18.4202 97.4287 18.2541 98.0637 17.9368C98.8808 17.5273 99.5198 16.9657 99.9997 16.2364C100.474 15.5153 100.781 14.679 100.873 13.856C100.979 12.9071 100.832 11.9722 100.435 11.085C100.015 10.1477 99.4189 9.4315 98.6215 8.90773C98.1318 8.58706 97.5042 8.31079 96.9464 8.17101C96.4656 8.05096 95.9299 7.99505 95.4837 8.01971ZM95.9759 8.89376C96.4295 8.92582 96.8816 9.03025 97.3065 9.2021C98.268 9.59184 98.9571 10.1847 99.4402 11.0357C99.9382 11.9147 100.129 12.8537 100.007 13.8272C99.889 14.7744 99.3992 15.7685 98.7364 16.4082C98.405 16.7272 98.067 16.9624 97.6289 17.1778C97.0932 17.4418 96.5756 17.584 96.0013 17.6268C95.8299 17.6391 95.4066 17.6325 95.2548 17.6144C94.7478 17.5544 94.313 17.4311 93.8618 17.2198C93.199 16.9098 92.6657 16.4814 92.2515 15.928C91.7896 15.3105 91.482 14.5467 91.3901 13.791C91.2908 12.9712 91.4229 12.1613 91.7806 11.3925C92.2342 10.4182 92.9274 9.72751 93.8922 9.29008C94.4172 9.05245 94.8988 8.92993 95.4673 8.89129C95.5591 8.88471 95.8684 8.88636 95.9759 8.89376Z" fill="#E4DFD3"/>
<path d="M95.5082 10.091C95.0939 10.1288 94.7608 10.2233 94.4212 10.4018C93.5869 10.8384 92.9856 11.6812 92.8059 12.6679C92.7649 12.894 92.7559 13.0058 92.7559 13.2928C92.7559 13.4991 92.76 13.5871 92.7706 13.6792C92.8666 14.4562 93.1824 15.1231 93.7034 15.6444C94.1554 16.0982 94.6927 16.3737 95.3072 16.4666C95.4557 16.4896 95.7731 16.4978 95.9241 16.4839C96.5467 16.4238 97.0939 16.1788 97.5804 15.7422C97.7986 15.5473 98.0176 15.2744 98.1776 15.0005C98.267 14.8476 98.3786 14.6092 98.4295 14.4628L98.4434 14.42L98.3975 14.4044C98.372 14.3954 98.1661 14.323 97.9405 14.2441C97.7149 14.1652 97.5238 14.0986 97.5156 14.0969C97.5041 14.0953 97.4934 14.1142 97.4614 14.1931C97.3466 14.4776 97.1924 14.7136 96.9815 14.9257C96.5057 15.4018 95.8781 15.5893 95.2694 15.4347C94.7067 15.2916 94.2202 14.8649 93.9618 14.2877C93.8174 13.967 93.7526 13.6554 93.7526 13.2886C93.7526 12.8874 93.8322 12.5453 94.0077 12.1992C94.1751 11.8678 94.4228 11.585 94.7165 11.3909C95.2415 11.0448 95.8863 10.9979 96.4475 11.2651C96.6427 11.358 96.8084 11.4781 96.9774 11.6475C97.0997 11.7708 97.212 11.9114 97.2842 12.0331L97.3244 12.0997L97.3499 12.0849C97.363 12.0767 97.5517 11.9665 97.7682 11.8415C97.9848 11.7157 98.1686 11.6088 98.176 11.6031C98.1883 11.5948 98.1834 11.5833 98.1259 11.4912C97.6821 10.7751 96.9905 10.285 96.212 10.1362C96.0512 10.1049 95.9257 10.0934 95.7338 10.0901C95.6304 10.0893 95.5287 10.0893 95.5082 10.091Z" fill="#E4DFD3"/>
</g>
<path d="M111.214 17.212C112.366 16.216 113.272 15.4 113.932 14.764C114.604 14.116 115.162 13.444 115.606 12.748C116.05 12.052 116.272 11.356 116.272 10.66C116.272 9.93995 116.098 9.37595 115.75 8.96795C115.414 8.55995 114.88 8.35595 114.148 8.35595C113.44 8.35595 112.888 8.58395 112.492 9.03995C112.108 9.48395 111.904 10.084 111.88 10.84H109.9C109.936 9.47195 110.344 8.42795 111.124 7.70795C111.916 6.97595 112.918 6.60995 114.13 6.60995C115.438 6.60995 116.458 6.96995 117.19 7.68995C117.934 8.40995 118.306 9.36995 118.306 10.57C118.306 11.434 118.084 12.268 117.64 13.072C117.208 13.864 116.686 14.578 116.074 15.214C115.474 15.838 114.706 16.564 113.77 17.392L112.96 18.112H118.666V19.822H109.918V18.328L111.214 17.212ZM120.469 13.27C120.469 11.194 120.817 9.57395 121.513 8.40995C122.221 7.23395 123.433 6.64595 125.149 6.64595C126.865 6.64595 128.071 7.23395 128.767 8.40995C129.475 9.57395 129.829 11.194 129.829 13.27C129.829 15.37 129.475 17.014 128.767 18.202C128.071 19.378 126.865 19.966 125.149 19.966C123.433 19.966 122.221 19.378 121.513 18.202C120.817 17.014 120.469 15.37 120.469 13.27ZM127.813 13.27C127.813 12.298 127.747 11.476 127.615 10.804C127.495 10.132 127.243 9.58595 126.859 9.16595C126.475 8.73395 125.905 8.51795 125.149 8.51795C124.393 8.51795 123.823 8.73395 123.439 9.16595C123.055 9.58595 122.797 10.132 122.665 10.804C122.545 11.476 122.485 12.298 122.485 13.27C122.485 14.278 122.545 15.124 122.665 15.808C122.785 16.492 123.037 17.044 123.421 17.464C123.817 17.884 124.393 18.094 125.149 18.094C125.905 18.094 126.475 17.884 126.859 17.464C127.255 17.044 127.513 16.492 127.633 15.808C127.753 15.124 127.813 14.278 127.813 13.27ZM131.73 8.75195V6.87995H135.474V20.002H133.404V8.75195H131.73ZM140.849 16.438C140.969 17.038 141.227 17.494 141.623 17.806C142.019 18.118 142.553 18.274 143.225 18.274C144.077 18.274 144.701 17.938 145.097 17.266C145.493 16.594 145.691 15.448 145.691 13.828C145.403 14.236 144.995 14.554 144.467 14.782C143.951 14.998 143.387 15.106 142.775 15.106C141.995 15.106 141.287 14.95 140.651 14.638C140.015 14.314 139.511 13.84 139.139 13.216C138.779 12.58 138.599 11.812 138.599 10.912C138.599 9.59195 138.983 8.54195 139.751 7.76195C140.531 6.96995 141.599 6.57395 142.955 6.57395C144.587 6.57395 145.745 7.11995 146.429 8.21195C147.125 9.29195 147.473 10.954 147.473 13.198C147.473 14.746 147.341 16.012 147.077 16.996C146.825 17.98 146.381 18.724 145.745 19.228C145.109 19.732 144.227 19.984 143.099 19.984C141.815 19.984 140.825 19.648 140.129 18.976C139.433 18.304 139.043 17.458 138.959 16.438H140.849ZM143.135 13.378C143.855 13.378 144.419 13.156 144.827 12.712C145.247 12.256 145.457 11.656 145.457 10.912C145.457 10.084 145.235 9.44195 144.791 8.98595C144.359 8.51795 143.765 8.28395 143.009 8.28395C142.253 8.28395 141.653 8.52395 141.209 9.00395C140.777 9.47195 140.561 10.09 140.561 10.858C140.561 11.59 140.771 12.196 141.191 12.676C141.623 13.144 142.271 13.378 143.135 13.378ZM170.954 7.49195L167.246 20.002H164.924L162.296 10.534L159.506 20.002L157.202 20.02L153.656 7.49195H155.834L158.426 17.68L161.234 7.49195H163.538L166.148 17.626L168.758 7.49195H170.954ZM173.691 8.76995C173.319 8.76995 173.007 8.64395 172.755 8.39195C172.503 8.13995 172.377 7.82795 172.377 7.45595C172.377 7.08395 172.503 6.77195 172.755 6.51995C173.007 6.26795 173.319 6.14195 173.691 6.14195C174.051 6.14195 174.357 6.26795 174.609 6.51995C174.861 6.77195 174.987 7.08395 174.987 7.45595C174.987 7.82795 174.861 8.13995 174.609 8.39195C174.357 8.64395 174.051 8.76995 173.691 8.76995ZM174.699 10.084V20.002H172.647V10.084H174.699ZM179.787 11.758V17.248C179.787 17.62 179.871 17.89 180.039 18.058C180.219 18.214 180.519 18.292 180.939 18.292H182.199V20.002H180.579C179.655 20.002 178.947 19.786 178.455 19.354C177.963 18.922 177.717 18.22 177.717 17.248V11.758H176.547V10.084H177.717V7.61795H179.787V10.084H182.199V11.758H179.787ZM183.406 15.034C183.406 14.014 183.61 13.12 184.018 12.352C184.438 11.572 185.014 10.972 185.746 10.552C186.478 10.132 187.318 9.92195 188.266 9.92195C189.466 9.92195 190.456 10.21 191.236 10.786C192.028 11.35 192.562 12.16 192.838 13.216H190.624C190.444 12.724 190.156 12.34 189.76 12.064C189.364 11.788 188.866 11.65 188.266 11.65C187.426 11.65 186.754 11.95 186.25 12.55C185.758 13.138 185.512 13.966 185.512 15.034C185.512 16.102 185.758 16.936 186.25 17.536C186.754 18.136 187.426 18.436 188.266 18.436C189.454 18.436 190.24 17.914 190.624 16.87H192.838C192.55 17.878 192.01 18.682 191.218 19.282C190.426 19.87 189.442 20.164 188.266 20.164C187.318 20.164 186.478 19.954 185.746 19.534C185.014 19.102 184.438 18.502 184.018 17.734C183.61 16.954 183.406 16.054 183.406 15.034ZM200.013 9.92195C200.769 9.92195 201.441 10.084 202.029 10.408C202.629 10.732 203.097 11.212 203.433 11.848C203.781 12.484 203.955 13.252 203.955 14.152V20.002H201.921V14.458C201.921 13.57 201.699 12.892 201.255 12.424C200.811 11.944 200.205 11.704 199.437 11.704C198.669 11.704 198.057 11.944 197.601 12.424C197.157 12.892 196.935 13.57 196.935 14.458V20.002H194.883V6.68195H196.935V11.236C197.283 10.816 197.721 10.492 198.249 10.264C198.789 10.036 199.377 9.92195 200.013 9.92195ZM216.954 20.128C215.79 20.128 214.716 19.858 213.732 19.318C212.76 18.766 211.986 18.004 211.41 17.032C210.846 16.048 210.564 14.944 210.564 13.72C210.564 12.496 210.846 11.398 211.41 10.426C211.986 9.45395 212.76 8.69795 213.732 8.15795C214.716 7.60595 215.79 7.32995 216.954 7.32995C218.13 7.32995 219.204 7.60595 220.176 8.15795C221.16 8.69795 221.934 9.45395 222.498 10.426C223.062 11.398 223.344 12.496 223.344 13.72C223.344 14.944 223.062 16.048 222.498 17.032C221.934 18.004 221.16 18.766 220.176 19.318C219.204 19.858 218.13 20.128 216.954 20.128ZM216.954 18.346C217.782 18.346 218.52 18.16 219.168 17.788C219.816 17.404 220.32 16.864 220.68 16.168C221.052 15.46 221.238 14.644 221.238 13.72C221.238 12.796 221.052 11.986 220.68 11.29C220.32 10.594 219.816 10.06 219.168 9.68795C218.52 9.31595 217.782 9.12995 216.954 9.12995C216.126 9.12995 215.388 9.31595 214.74 9.68795C214.092 10.06 213.582 10.594 213.21 11.29C212.85 11.986 212.67 12.796 212.67 13.72C212.67 14.644 212.85 15.46 213.21 16.168C213.582 16.864 214.092 17.404 214.74 17.788C215.388 18.16 216.126 18.346 216.954 18.346ZM229.522 11.758H227.686V20.002H225.616V11.758H224.446V10.084H225.616V9.38195C225.616 8.24195 225.916 7.41395 226.516 6.89795C227.128 6.36995 228.082 6.10595 229.378 6.10595V7.81595C228.754 7.81595 228.316 7.93595 228.064 8.17595C227.812 8.40395 227.686 8.80595 227.686 9.38195V10.084H229.522V11.758ZM249.192 7.49195V20.002H247.14V11.434L243.324 20.002H241.902L238.068 11.434V20.002H236.016V7.49195H238.23L242.622 17.302L246.996 7.49195H249.192ZM256.191 20.164C255.255 20.164 254.409 19.954 253.653 19.534C252.897 19.102 252.303 18.502 251.871 17.734C251.439 16.954 251.223 16.054 251.223 15.034C251.223 14.026 251.445 13.132 251.889 12.352C252.333 11.572 252.939 10.972 253.707 10.552C254.475 10.132 255.333 9.92195 256.281 9.92195C257.229 9.92195 258.087 10.132 258.855 10.552C259.623 10.972 260.229 11.572 260.673 12.352C261.117 13.132 261.339 14.026 261.339 15.034C261.339 16.042 261.111 16.936 260.655 17.716C260.199 18.496 259.575 19.102 258.783 19.534C258.003 19.954 257.139 20.164 256.191 20.164ZM256.191 18.382C256.719 18.382 257.211 18.256 257.667 18.004C258.135 17.752 258.513 17.374 258.801 16.87C259.089 16.366 259.233 15.754 259.233 15.034C259.233 14.314 259.095 13.708 258.819 13.216C258.543 12.712 258.177 12.334 257.721 12.082C257.265 11.83 256.773 11.704 256.245 11.704C255.717 11.704 255.225 11.83 254.769 12.082C254.325 12.334 253.971 12.712 253.707 13.216C253.443 13.708 253.311 14.314 253.311 15.034C253.311 16.102 253.581 16.93 254.121 17.518C254.673 18.094 255.363 18.382 256.191 18.382ZM272.35 10.084V20.002H270.298V18.832C269.974 19.24 269.548 19.564 269.02 19.804C268.504 20.032 267.952 20.146 267.364 20.146C266.584 20.146 265.882 19.984 265.258 19.66C264.646 19.336 264.16 18.856 263.8 18.22C263.452 17.584 263.278 16.816 263.278 15.916V10.084H265.312V15.61C265.312 16.498 265.534 17.182 265.978 17.662C266.422 18.13 267.028 18.364 267.796 18.364C268.564 18.364 269.17 18.13 269.614 17.662C270.07 17.182 270.298 16.498 270.298 15.61V10.084H272.35ZM280.061 9.92195C280.841 9.92195 281.537 10.084 282.149 10.408C282.773 10.732 283.259 11.212 283.607 11.848C283.955 12.484 284.129 13.252 284.129 14.152V20.002H282.095V14.458C282.095 13.57 281.873 12.892 281.429 12.424C280.985 11.944 280.379 11.704 279.611 11.704C278.843 11.704 278.231 11.944 277.775 12.424C277.331 12.892 277.109 13.57 277.109 14.458V20.002H275.057V10.084H277.109V11.218C277.445 10.81 277.871 10.492 278.387 10.264C278.915 10.036 279.473 9.92195 280.061 9.92195ZM289.14 11.758V17.248C289.14 17.62 289.224 17.89 289.392 18.058C289.572 18.214 289.872 18.292 290.292 18.292H291.552V20.002H289.932C289.008 20.002 288.3 19.786 287.808 19.354C287.316 18.922 287.07 18.22 287.07 17.248V11.758H285.9V10.084H287.07V7.61795H289.14V10.084H291.552V11.758H289.14ZM292.76 14.998C292.76 14.002 292.964 13.12 293.372 12.352C293.792 11.584 294.356 10.99 295.064 10.57C295.784 10.138 296.576 9.92195 297.44 9.92195C298.22 9.92195 298.898 10.078 299.474 10.39C300.062 10.69 300.53 11.068 300.878 11.524V10.084H302.948V20.002H300.878V18.526C300.53 18.994 300.056 19.384 299.456 19.696C298.856 20.008 298.172 20.164 297.404 20.164C296.552 20.164 295.772 19.948 295.064 19.516C294.356 19.072 293.792 18.46 293.372 17.68C292.964 16.888 292.76 15.994 292.76 14.998ZM300.878 15.034C300.878 14.35 300.734 13.756 300.446 13.252C300.17 12.748 299.804 12.364 299.348 12.1C298.892 11.836 298.4 11.704 297.872 11.704C297.344 11.704 296.852 11.836 296.396 12.1C295.94 12.352 295.568 12.73 295.28 13.234C295.004 13.726 294.866 14.314 294.866 14.998C294.866 15.682 295.004 16.282 295.28 16.798C295.568 17.314 295.94 17.71 296.396 17.986C296.864 18.25 297.356 18.382 297.872 18.382C298.4 18.382 298.892 18.25 299.348 17.986C299.804 17.722 300.17 17.338 300.446 16.834C300.734 16.318 300.878 15.718 300.878 15.034ZM306.687 8.76995C306.315 8.76995 306.003 8.64395 305.751 8.39195C305.499 8.13995 305.373 7.82795 305.373 7.45595C305.373 7.08395 305.499 6.77195 305.751 6.51995C306.003 6.26795 306.315 6.14195 306.687 6.14195C307.047 6.14195 307.353 6.26795 307.605 6.51995C307.857 6.77195 307.983 7.08395 307.983 7.45595C307.983 7.82795 307.857 8.13995 307.605 8.39195C307.353 8.64395 307.047 8.76995 306.687 8.76995ZM307.695 10.084V20.002H305.643V10.084H307.695ZM315.393 9.92195C316.173 9.92195 316.869 10.084 317.481 10.408C318.105 10.732 318.591 11.212 318.939 11.848C319.287 12.484 319.461 13.252 319.461 14.152V20.002H317.427V14.458C317.427 13.57 317.205 12.892 316.761 12.424C316.317 11.944 315.711 11.704 314.943 11.704C314.175 11.704 313.563 11.944 313.107 12.424C312.663 12.892 312.441 13.57 312.441 14.458V20.002H310.389V10.084H312.441V11.218C312.777 10.81 313.203 10.492 313.719 10.264C314.247 10.036 314.805 9.92195 315.393 9.92195ZM343.044 7.49195L339.336 20.002H337.014L334.386 10.534L331.596 20.002L329.292 20.02L325.746 7.49195H327.924L330.516 17.68L333.324 7.49195H335.628L338.238 17.626L340.848 7.49195H343.044ZM345.781 8.76995C345.409 8.76995 345.097 8.64395 344.845 8.39195C344.593 8.13995 344.467 7.82795 344.467 7.45595C344.467 7.08395 344.593 6.77195 344.845 6.51995C345.097 6.26795 345.409 6.14195 345.781 6.14195C346.141 6.14195 346.447 6.26795 346.699 6.51995C346.951 6.77195 347.077 7.08395 347.077 7.45595C347.077 7.82795 346.951 8.13995 346.699 8.39195C346.447 8.64395 346.141 8.76995 345.781 8.76995ZM346.789 10.084V20.002H344.737V10.084H346.789ZM354.487 9.92195C355.267 9.92195 355.963 10.084 356.575 10.408C357.199 10.732 357.685 11.212 358.033 11.848C358.381 12.484 358.555 13.252 358.555 14.152V20.002H356.521V14.458C356.521 13.57 356.299 12.892 355.855 12.424C355.411 11.944 354.805 11.704 354.037 11.704C353.269 11.704 352.657 11.944 352.201 12.424C351.757 12.892 351.535 13.57 351.535 14.458V20.002H349.483V10.084H351.535V11.218C351.871 10.81 352.297 10.492 352.813 10.264C353.341 10.036 353.899 9.92195 354.487 9.92195ZM360.488 14.998C360.488 14.002 360.692 13.12 361.1 12.352C361.52 11.584 362.084 10.99 362.792 10.57C363.512 10.138 364.31 9.92195 365.186 9.92195C365.834 9.92195 366.47 10.066 367.094 10.354C367.73 10.63 368.234 11.002 368.606 11.47V6.68195H370.676V20.002H368.606V18.508C368.27 18.988 367.802 19.384 367.202 19.696C366.614 20.008 365.936 20.164 365.168 20.164C364.304 20.164 363.512 19.948 362.792 19.516C362.084 19.072 361.52 18.46 361.1 17.68C360.692 16.888 360.488 15.994 360.488 14.998ZM368.606 15.034C368.606 14.35 368.462 13.756 368.174 13.252C367.898 12.748 367.532 12.364 367.076 12.1C366.62 11.836 366.128 11.704 365.6 11.704C365.072 11.704 364.58 11.836 364.124 12.1C363.668 12.352 363.296 12.73 363.008 13.234C362.732 13.726 362.594 14.314 362.594 14.998C362.594 15.682 362.732 16.282 363.008 16.798C363.296 17.314 363.668 17.71 364.124 17.986C364.592 18.25 365.084 18.382 365.6 18.382C366.128 18.382 366.62 18.25 367.076 17.986C367.532 17.722 367.898 17.338 368.174 16.834C368.462 16.318 368.606 15.718 368.606 15.034ZM376.971 20.164C376.191 20.164 375.489 20.026 374.865 19.75C374.253 19.462 373.767 19.078 373.407 18.598C373.047 18.106 372.855 17.56 372.831 16.96H374.955C374.991 17.38 375.189 17.734 375.549 18.022C375.921 18.298 376.383 18.436 376.935 18.436C377.511 18.436 377.955 18.328 378.267 18.112C378.591 17.884 378.753 17.596 378.753 17.248C378.753 16.876 378.573 16.6 378.213 16.42C377.865 16.24 377.307 16.042 376.539 15.826C375.795 15.622 375.189 15.424 374.721 15.232C374.253 15.04 373.845 14.746 373.497 14.35C373.161 13.954 372.993 13.432 372.993 12.784C372.993 12.256 373.149 11.776 373.461 11.344C373.773 10.9 374.217 10.552 374.793 10.3C375.381 10.048 376.053 9.92195 376.809 9.92195C377.937 9.92195 378.843 10.21 379.527 10.786C380.223 11.35 380.595 12.124 380.643 13.108H378.591C378.555 12.664 378.375 12.31 378.051 12.046C377.727 11.782 377.289 11.65 376.737 11.65C376.197 11.65 375.783 11.752 375.495 11.956C375.207 12.16 375.063 12.43 375.063 12.766C375.063 13.03 375.159 13.252 375.351 13.432C375.543 13.612 375.777 13.756 376.053 13.864C376.329 13.96 376.737 14.086 377.277 14.242C377.997 14.434 378.585 14.632 379.041 14.836C379.509 15.028 379.911 15.316 380.247 15.7C380.583 16.084 380.757 16.594 380.769 17.23C380.769 17.794 380.613 18.298 380.301 18.742C379.989 19.186 379.545 19.534 378.969 19.786C378.405 20.038 377.739 20.164 376.971 20.164Z" fill="#E4DFD3"/>
<defs>
<clipPath id="clip0_21779_58">
<rect width="15" height="15" fill="white" transform="translate(86 8.00195)"/>
</clipPath>
</defs>
</svg>
