<svg width="270" height="50" viewBox="0 0 270 50" fill="none" xmlns="http://www.w3.org/2000/svg">
<path d="M75.342 19.242L72.514 29H71.086L68.818 21.146L66.466 29L65.052 29.014L62.322 19.242H63.68L65.808 27.516L68.16 19.242H69.588L71.828 27.488L73.97 19.242H75.342ZM78.7102 19.242V29H77.4362V19.242H78.7102ZM87.5875 19.242V20.278H84.9275V29H83.6535V20.278H80.9795V19.242H87.5875ZM89.3797 24.114C89.3797 23.162 89.5944 22.308 90.0237 21.552C90.4531 20.7867 91.0364 20.1893 91.7737 19.76C92.5204 19.3307 93.3464 19.116 94.2517 19.116C95.3157 19.116 96.2444 19.3727 97.0377 19.886C97.8311 20.3993 98.4097 21.1273 98.7737 22.07H97.2477C96.9771 21.482 96.5851 21.0293 96.0717 20.712C95.5677 20.3947 94.9611 20.236 94.2517 20.236C93.5704 20.236 92.9591 20.3947 92.4177 20.712C91.8764 21.0293 91.4517 21.482 91.1437 22.07C90.8357 22.6487 90.6817 23.33 90.6817 24.114C90.6817 24.8887 90.8357 25.57 91.1437 26.158C91.4517 26.7367 91.8764 27.1847 92.4177 27.502C92.9591 27.8193 93.5704 27.978 94.2517 27.978C94.9611 27.978 95.5677 27.824 96.0717 27.516C96.5851 27.1987 96.9771 26.746 97.2477 26.158H98.7737C98.4097 27.0913 97.8311 27.8147 97.0377 28.328C96.2444 28.832 95.3157 29.084 94.2517 29.084C93.3464 29.084 92.5204 28.874 91.7737 28.454C91.0364 28.0247 90.4531 27.432 90.0237 26.676C89.5944 25.92 89.3797 25.066 89.3797 24.114ZM108.888 19.242V29H107.614V24.576H102.644V29H101.37V19.242H102.644V23.526H107.614V19.242H108.888ZM120.62 29.098C119.715 29.098 118.889 28.888 118.142 28.468C117.395 28.0387 116.803 27.446 116.364 26.69C115.935 25.9247 115.72 25.066 115.72 24.114C115.72 23.162 115.935 22.308 116.364 21.552C116.803 20.7867 117.395 20.194 118.142 19.774C118.889 19.3447 119.715 19.13 120.62 19.13C121.535 19.13 122.365 19.3447 123.112 19.774C123.859 20.194 124.447 20.782 124.876 21.538C125.305 22.294 125.52 23.1527 125.52 24.114C125.52 25.0753 125.305 25.934 124.876 26.69C124.447 27.446 123.859 28.0387 123.112 28.468C122.365 28.888 121.535 29.098 120.62 29.098ZM120.62 27.992C121.301 27.992 121.913 27.8333 122.454 27.516C123.005 27.1987 123.434 26.746 123.742 26.158C124.059 25.57 124.218 24.8887 124.218 24.114C124.218 23.33 124.059 22.6487 123.742 22.07C123.434 21.482 123.009 21.0293 122.468 20.712C121.927 20.3947 121.311 20.236 120.62 20.236C119.929 20.236 119.313 20.3947 118.772 20.712C118.231 21.0293 117.801 21.482 117.484 22.07C117.176 22.6487 117.022 23.33 117.022 24.114C117.022 24.8887 117.176 25.57 117.484 26.158C117.801 26.746 118.231 27.1987 118.772 27.516C119.323 27.8333 119.939 27.992 120.62 27.992ZM133.418 19.242V20.278H129.176V23.568H132.62V24.604H129.176V29H127.902V19.242H133.418ZM149.987 19.312V29H148.713V21.776L145.493 29H144.597L141.363 21.762V29H140.089V19.312H141.461L145.045 27.32L148.629 19.312H149.987ZM157.272 29.098C156.366 29.098 155.54 28.888 154.794 28.468C154.047 28.0387 153.454 27.446 153.016 26.69C152.586 25.9247 152.372 25.066 152.372 24.114C152.372 23.162 152.586 22.308 153.016 21.552C153.454 20.7867 154.047 20.194 154.794 19.774C155.54 19.3447 156.366 19.13 157.272 19.13C158.186 19.13 159.017 19.3447 159.764 19.774C160.51 20.194 161.098 20.782 161.528 21.538C161.957 22.294 162.172 23.1527 162.172 24.114C162.172 25.0753 161.957 25.934 161.528 26.69C161.098 27.446 160.51 28.0387 159.764 28.468C159.017 28.888 158.186 29.098 157.272 29.098ZM157.272 27.992C157.953 27.992 158.564 27.8333 159.106 27.516C159.656 27.1987 160.086 26.746 160.394 26.158C160.711 25.57 160.87 24.8887 160.87 24.114C160.87 23.33 160.711 22.6487 160.394 22.07C160.086 21.482 159.661 21.0293 159.12 20.712C158.578 20.3947 157.962 20.236 157.272 20.236C156.581 20.236 155.965 20.3947 155.424 20.712C154.882 21.0293 154.453 21.482 154.136 22.07C153.828 22.6487 153.674 23.33 153.674 24.114C153.674 24.8887 153.828 25.57 154.136 26.158C154.453 26.746 154.882 27.1987 155.424 27.516C155.974 27.8333 156.59 27.992 157.272 27.992ZM165.799 19.242V25.416C165.799 26.284 166.009 26.928 166.429 27.348C166.859 27.768 167.451 27.978 168.207 27.978C168.954 27.978 169.537 27.768 169.957 27.348C170.387 26.928 170.601 26.284 170.601 25.416V19.242H171.875V25.402C171.875 26.214 171.712 26.9 171.385 27.46C171.059 28.0107 170.615 28.4213 170.055 28.692C169.505 28.9627 168.884 29.098 168.193 29.098C167.503 29.098 166.877 28.9627 166.317 28.692C165.767 28.4213 165.328 28.0107 165.001 27.46C164.684 26.9 164.525 26.214 164.525 25.402V19.242H165.799ZM182.373 29H181.099L175.975 21.23V29H174.701V19.228H175.975L181.099 26.984V19.228H182.373V29ZM191.25 19.242V20.278H188.59V29H187.316V20.278H184.642V19.242H191.25ZM199.287 26.83H195.031L194.247 29H192.903L196.431 19.298H197.901L201.415 29H200.071L199.287 26.83ZM198.923 25.794L197.159 20.866L195.395 25.794H198.923ZM204.926 19.242V29H203.652V19.242H204.926ZM215.47 29H214.196L209.072 21.23V29H207.798V19.228H209.072L214.196 26.984V19.228H215.47V29ZM235.038 19.242L232.21 29H230.782L228.514 21.146L226.162 29L224.748 29.014L222.018 19.242H223.376L225.504 27.516L227.856 19.242H229.284L231.524 27.488L233.666 19.242H235.038ZM238.406 19.242V29H237.132V19.242H238.406ZM248.949 29H247.675L242.551 21.23V29H241.277V19.228H242.551L247.675 26.984V19.228H248.949V29ZM254.859 19.242C255.923 19.242 256.842 19.4427 257.617 19.844C258.401 20.236 258.998 20.8007 259.409 21.538C259.829 22.2753 260.039 23.1433 260.039 24.142C260.039 25.1407 259.829 26.0087 259.409 26.746C258.998 27.474 258.401 28.034 257.617 28.426C256.842 28.8087 255.923 29 254.859 29H251.821V19.242H254.859ZM254.859 27.95C256.119 27.95 257.08 27.6187 257.743 26.956C258.406 26.284 258.737 25.346 258.737 24.142C258.737 22.9287 258.401 21.9813 257.729 21.3C257.066 20.6187 256.11 20.278 254.859 20.278H253.095V27.95H254.859ZM265.513 29.098C264.869 29.098 264.291 28.986 263.777 28.762C263.273 28.5287 262.877 28.2113 262.587 27.81C262.298 27.3993 262.149 26.928 262.139 26.396H263.497C263.544 26.8533 263.731 27.2407 264.057 27.558C264.393 27.866 264.879 28.02 265.513 28.02C266.12 28.02 266.596 27.8707 266.941 27.572C267.296 27.264 267.473 26.872 267.473 26.396C267.473 26.0227 267.371 25.7193 267.165 25.486C266.96 25.2527 266.703 25.0753 266.395 24.954C266.087 24.8327 265.672 24.702 265.149 24.562C264.505 24.394 263.987 24.226 263.595 24.058C263.213 23.89 262.881 23.6287 262.601 23.274C262.331 22.91 262.195 22.4247 262.195 21.818C262.195 21.286 262.331 20.8147 262.601 20.404C262.872 19.9933 263.25 19.676 263.735 19.452C264.23 19.228 264.795 19.116 265.429 19.116C266.344 19.116 267.091 19.3447 267.669 19.802C268.257 20.2593 268.589 20.866 268.663 21.622H267.263C267.217 21.2487 267.021 20.922 266.675 20.642C266.33 20.3527 265.873 20.208 265.303 20.208C264.771 20.208 264.337 20.348 264.001 20.628C263.665 20.8987 263.497 21.2813 263.497 21.776C263.497 22.1307 263.595 22.42 263.791 22.644C263.997 22.868 264.244 23.0407 264.533 23.162C264.832 23.274 265.247 23.4047 265.779 23.554C266.423 23.7313 266.941 23.9087 267.333 24.086C267.725 24.254 268.061 24.52 268.341 24.884C268.621 25.2387 268.761 25.724 268.761 26.34C268.761 26.816 268.635 27.264 268.383 27.684C268.131 28.104 267.758 28.4447 267.263 28.706C266.769 28.9673 266.185 29.098 265.513 29.098Z" fill="#344F10"/>
<circle cx="25" cy="25" r="24.5" fill="#E4DFD3" stroke="#344F10"/>
<path fill-rule="evenodd" clip-rule="evenodd" d="M24.9533 15.052L27.4066 21.9999H22.5365L24.9806 23.5731L34.2056 17.6353L45 24.5832H27.4268L24.9894 30.4999L22.5624 24.6082H5L15.7944 17.6603L22.5068 21.9808L24.9533 15.052ZM26.9521 34.4999L24.9894 30.5297L23.0268 34.4999H26.9521Z" fill="#344F10"/>
<path d="M25 24L27.5 22H22.5L25 24Z" fill="#344F10"/>
</svg>
