<svg width="1180" height="161" viewBox="0 0 1180 161" fill="none" xmlns="http://www.w3.org/2000/svg">
<path d="M63.4258 139.002H62.1518L57.0278 131.232V139.002H55.7538V129.23H57.0278L62.1518 136.986V129.23H63.4258V139.002ZM70.7215 139.1C69.8162 139.1 68.9902 138.89 68.2435 138.47C67.4969 138.041 66.9042 137.448 66.4655 136.692C66.0362 135.927 65.8215 135.068 65.8215 134.116C65.8215 133.164 66.0362 132.31 66.4655 131.554C66.9042 130.789 67.4969 130.196 68.2435 129.776C68.9902 129.347 69.8162 129.132 70.7215 129.132C71.6362 129.132 72.4669 129.347 73.2135 129.776C73.9602 130.196 74.5482 130.784 74.9775 131.54C75.4069 132.296 75.6215 133.155 75.6215 134.116C75.6215 135.077 75.4069 135.936 74.9775 136.692C74.5482 137.448 73.9602 138.041 73.2135 138.47C72.4669 138.89 71.6362 139.1 70.7215 139.1ZM70.7215 137.994C71.4029 137.994 72.0142 137.835 72.5555 137.518C73.1062 137.201 73.5355 136.748 73.8435 136.16C74.1609 135.572 74.3195 134.891 74.3195 134.116C74.3195 133.332 74.1609 132.651 73.8435 132.072C73.5355 131.484 73.1109 131.031 72.5695 130.714C72.0282 130.397 71.4122 130.238 70.7215 130.238C70.0309 130.238 69.4149 130.397 68.8735 130.714C68.3322 131.031 67.9029 131.484 67.5855 132.072C67.2775 132.651 67.1235 133.332 67.1235 134.116C67.1235 134.891 67.2775 135.572 67.5855 136.16C67.9029 136.748 68.3322 137.201 68.8735 137.518C69.4242 137.835 70.0402 137.994 70.7215 137.994ZM85.5298 139.1C84.8858 139.1 84.3071 138.988 83.7938 138.764C83.2898 138.531 82.8931 138.213 82.6038 137.812C82.3145 137.401 82.1651 136.93 82.1558 136.398H83.5138C83.5605 136.855 83.7471 137.243 84.0738 137.56C84.4098 137.868 84.8951 138.022 85.5298 138.022C86.1365 138.022 86.6125 137.873 86.9578 137.574C87.3125 137.266 87.4898 136.874 87.4898 136.398C87.4898 136.025 87.3871 135.721 87.1818 135.488C86.9765 135.255 86.7198 135.077 86.4118 134.956C86.1038 134.835 85.6885 134.704 85.1658 134.564C84.5218 134.396 84.0038 134.228 83.6118 134.06C83.2291 133.892 82.8978 133.631 82.6178 133.276C82.3471 132.912 82.2118 132.427 82.2118 131.82C82.2118 131.288 82.3471 130.817 82.6178 130.406C82.8885 129.995 83.2665 129.678 83.7518 129.454C84.2465 129.23 84.8111 129.118 85.4458 129.118C86.3605 129.118 87.1071 129.347 87.6858 129.804C88.2738 130.261 88.6051 130.868 88.6798 131.624H87.2798C87.2331 131.251 87.0371 130.924 86.6918 130.644C86.3465 130.355 85.8891 130.21 85.3198 130.21C84.7878 130.21 84.3538 130.35 84.0178 130.63C83.6818 130.901 83.5138 131.283 83.5138 131.778C83.5138 132.133 83.6118 132.422 83.8078 132.646C84.0131 132.87 84.2605 133.043 84.5498 133.164C84.8485 133.276 85.2638 133.407 85.7958 133.556C86.4398 133.733 86.9578 133.911 87.3498 134.088C87.7418 134.256 88.0778 134.522 88.3578 134.886C88.6378 135.241 88.7778 135.726 88.7778 136.342C88.7778 136.818 88.6518 137.266 88.3998 137.686C88.1478 138.106 87.7745 138.447 87.2798 138.708C86.7851 138.969 86.2018 139.1 85.5298 139.1ZM98.1846 129.244L95.0066 135.32V139.002H93.7326V135.32L90.5406 129.244H91.9546L94.3626 134.186L96.7706 129.244H98.1846ZM107.9 139.002H106.626L101.502 131.232V139.002H100.228V129.23H101.502L106.626 136.986V129.23H107.9V139.002ZM116.778 129.244V130.28H114.118V139.002H112.844V130.28H110.17V129.244H116.778ZM126.564 129.244V139.002H125.29V134.578H120.32V139.002H119.046V129.244H120.32V133.528H125.29V129.244H126.564ZM130.714 130.28V133.542H134.27V134.592H130.714V137.952H134.69V139.002H129.44V129.23H134.69V130.28H130.714ZM143.323 129.244V130.28H140.663V139.002H139.389V130.28H136.715V129.244H143.323ZM146.866 129.244V139.002H145.592V129.244H146.866ZM149.261 134.116C149.261 133.164 149.476 132.31 149.905 131.554C150.334 130.789 150.918 130.191 151.655 129.762C152.402 129.333 153.228 129.118 154.133 129.118C155.197 129.118 156.126 129.375 156.919 129.888C157.712 130.401 158.291 131.129 158.655 132.072H157.129C156.858 131.484 156.466 131.031 155.953 130.714C155.449 130.397 154.842 130.238 154.133 130.238C153.452 130.238 152.84 130.397 152.299 130.714C151.758 131.031 151.333 131.484 151.025 132.072C150.717 132.651 150.563 133.332 150.563 134.116C150.563 134.891 150.717 135.572 151.025 136.16C151.333 136.739 151.758 137.187 152.299 137.504C152.84 137.821 153.452 137.98 154.133 137.98C154.842 137.98 155.449 137.826 155.953 137.518C156.466 137.201 156.858 136.748 157.129 136.16H158.655C158.291 137.093 157.712 137.817 156.919 138.33C156.126 138.834 155.197 139.086 154.133 139.086C153.228 139.086 152.402 138.876 151.655 138.456C150.918 138.027 150.334 137.434 149.905 136.678C149.476 135.922 149.261 135.068 149.261 134.116ZM164.345 139.1C163.701 139.1 163.123 138.988 162.609 138.764C162.105 138.531 161.709 138.213 161.419 137.812C161.13 137.401 160.981 136.93 160.971 136.398H162.329C162.376 136.855 162.563 137.243 162.889 137.56C163.225 137.868 163.711 138.022 164.345 138.022C164.952 138.022 165.428 137.873 165.773 137.574C166.128 137.266 166.305 136.874 166.305 136.398C166.305 136.025 166.203 135.721 165.997 135.488C165.792 135.255 165.535 135.077 165.227 134.956C164.919 134.835 164.504 134.704 163.981 134.564C163.337 134.396 162.819 134.228 162.427 134.06C162.045 133.892 161.713 133.631 161.433 133.276C161.163 132.912 161.027 132.427 161.027 131.82C161.027 131.288 161.163 130.817 161.433 130.406C161.704 129.995 162.082 129.678 162.567 129.454C163.062 129.23 163.627 129.118 164.261 129.118C165.176 129.118 165.923 129.347 166.501 129.804C167.089 130.261 167.421 130.868 167.495 131.624H166.095C166.049 131.251 165.853 130.924 165.507 130.644C165.162 130.355 164.705 130.21 164.135 130.21C163.603 130.21 163.169 130.35 162.833 130.63C162.497 130.901 162.329 131.283 162.329 131.778C162.329 132.133 162.427 132.422 162.623 132.646C162.829 132.87 163.076 133.043 163.365 133.164C163.664 133.276 164.079 133.407 164.611 133.556C165.255 133.733 165.773 133.911 166.165 134.088C166.557 134.256 166.893 134.522 167.173 134.886C167.453 135.241 167.593 135.726 167.593 136.342C167.593 136.818 167.467 137.266 167.215 137.686C166.963 138.106 166.59 138.447 166.095 138.708C165.601 138.969 165.017 139.1 164.345 139.1ZM180.369 136.832H176.113L175.329 139.002H173.985L177.513 129.3H178.983L182.497 139.002H181.153L180.369 136.832ZM180.005 135.796L178.241 130.868L176.477 135.796H180.005ZM192.406 139.002H191.132L186.008 131.232V139.002H184.734V129.23H186.008L191.132 136.986V129.23H192.406V139.002ZM198.316 129.244C199.38 129.244 200.299 129.445 201.074 129.846C201.858 130.238 202.455 130.803 202.866 131.54C203.286 132.277 203.496 133.145 203.496 134.144C203.496 135.143 203.286 136.011 202.866 136.748C202.455 137.476 201.858 138.036 201.074 138.428C200.299 138.811 199.38 139.002 198.316 139.002H195.278V129.244H198.316ZM198.316 137.952C199.576 137.952 200.537 137.621 201.2 136.958C201.863 136.286 202.194 135.348 202.194 134.144C202.194 132.931 201.858 131.983 201.186 131.302C200.523 130.621 199.567 130.28 198.316 130.28H196.552V137.952H198.316ZM220.207 129.314V139.002H218.933V131.778L215.713 139.002H214.817L211.583 131.764V139.002H210.309V129.314H211.681L215.265 137.322L218.849 129.314H220.207ZM224.341 129.244V139.002H223.067V129.244H224.341ZM226.737 134.116C226.737 133.164 226.951 132.31 227.381 131.554C227.81 130.789 228.393 130.191 229.131 129.762C229.877 129.333 230.703 129.118 231.609 129.118C232.673 129.118 233.601 129.375 234.395 129.888C235.188 130.401 235.767 131.129 236.131 132.072H234.605C234.334 131.484 233.942 131.031 233.429 130.714C232.925 130.397 232.318 130.238 231.609 130.238C230.927 130.238 230.316 130.397 229.775 130.714C229.233 131.031 228.809 131.484 228.501 132.072C228.193 132.651 228.039 133.332 228.039 134.116C228.039 134.891 228.193 135.572 228.501 136.16C228.809 136.739 229.233 137.187 229.775 137.504C230.316 137.821 230.927 137.98 231.609 137.98C232.318 137.98 232.925 137.826 233.429 137.518C233.942 137.201 234.334 136.748 234.605 136.16H236.131C235.767 137.093 235.188 137.817 234.395 138.33C233.601 138.834 232.673 139.086 231.609 139.086C230.703 139.086 229.877 138.876 229.131 138.456C228.393 138.027 227.81 137.434 227.381 136.678C226.951 135.922 226.737 135.068 226.737 134.116ZM243.865 139.002L241.541 135.012H240.001V139.002H238.727V129.244H241.877C242.615 129.244 243.235 129.37 243.739 129.622C244.253 129.874 244.635 130.215 244.887 130.644C245.139 131.073 245.265 131.563 245.265 132.114C245.265 132.786 245.069 133.379 244.677 133.892C244.295 134.405 243.716 134.746 242.941 134.914L245.391 139.002H243.865ZM240.001 133.99H241.877C242.568 133.99 243.086 133.822 243.431 133.486C243.777 133.141 243.949 132.683 243.949 132.114C243.949 131.535 243.777 131.087 243.431 130.77C243.095 130.453 242.577 130.294 241.877 130.294H240.001V133.99ZM252.369 139.1C251.463 139.1 250.637 138.89 249.891 138.47C249.144 138.041 248.551 137.448 248.113 136.692C247.683 135.927 247.469 135.068 247.469 134.116C247.469 133.164 247.683 132.31 248.113 131.554C248.551 130.789 249.144 130.196 249.891 129.776C250.637 129.347 251.463 129.132 252.369 129.132C253.283 129.132 254.114 129.347 254.861 129.776C255.607 130.196 256.195 130.784 256.625 131.54C257.054 132.296 257.269 133.155 257.269 134.116C257.269 135.077 257.054 135.936 256.625 136.692C256.195 137.448 255.607 138.041 254.861 138.47C254.114 138.89 253.283 139.1 252.369 139.1ZM252.369 137.994C253.05 137.994 253.661 137.835 254.203 137.518C254.753 137.201 255.183 136.748 255.491 136.16C255.808 135.572 255.967 134.891 255.967 134.116C255.967 133.332 255.808 132.651 255.491 132.072C255.183 131.484 254.758 131.031 254.217 130.714C253.675 130.397 253.059 130.238 252.369 130.238C251.678 130.238 251.062 130.397 250.521 130.714C249.979 131.031 249.55 131.484 249.233 132.072C248.925 132.651 248.771 133.332 248.771 134.116C248.771 134.891 248.925 135.572 249.233 136.16C249.55 136.748 249.979 137.201 250.521 137.518C251.071 137.835 251.687 137.994 252.369 137.994ZM266.175 132.1C266.175 132.912 265.895 133.589 265.335 134.13C264.784 134.662 263.939 134.928 262.801 134.928H260.925V139.002H259.651V129.244H262.801C263.902 129.244 264.737 129.51 265.307 130.042C265.885 130.574 266.175 131.26 266.175 132.1ZM262.801 133.878C263.51 133.878 264.033 133.724 264.369 133.416C264.705 133.108 264.873 132.669 264.873 132.1C264.873 130.896 264.182 130.294 262.801 130.294H260.925V133.878H262.801ZM269.732 137.966H273.148V139.002H268.458V129.244H269.732V137.966ZM280.969 136.832H276.713L275.929 139.002H274.585L278.113 129.3H279.583L283.097 139.002H281.753L280.969 136.832ZM280.605 135.796L278.841 130.868L277.077 135.796H280.605ZM288.429 139.1C287.785 139.1 287.206 138.988 286.693 138.764C286.189 138.531 285.792 138.213 285.503 137.812C285.213 137.401 285.064 136.93 285.055 136.398H286.413C286.459 136.855 286.646 137.243 286.973 137.56C287.309 137.868 287.794 138.022 288.429 138.022C289.035 138.022 289.511 137.873 289.857 137.574C290.211 137.266 290.389 136.874 290.389 136.398C290.389 136.025 290.286 135.721 290.081 135.488C289.875 135.255 289.619 135.077 289.311 134.956C289.003 134.835 288.587 134.704 288.065 134.564C287.421 134.396 286.903 134.228 286.511 134.06C286.128 133.892 285.797 133.631 285.517 133.276C285.246 132.912 285.111 132.427 285.111 131.82C285.111 131.288 285.246 130.817 285.517 130.406C285.787 129.995 286.165 129.678 286.651 129.454C287.145 129.23 287.71 129.118 288.345 129.118C289.259 129.118 290.006 129.347 290.585 129.804C291.173 130.261 291.504 130.868 291.579 131.624H290.179C290.132 131.251 289.936 130.924 289.591 130.644C289.245 130.355 288.788 130.21 288.219 130.21C287.687 130.21 287.253 130.35 286.917 130.63C286.581 130.901 286.413 131.283 286.413 131.778C286.413 132.133 286.511 132.422 286.707 132.646C286.912 132.87 287.159 133.043 287.449 133.164C287.747 133.276 288.163 133.407 288.695 133.556C289.339 133.733 289.857 133.911 290.249 134.088C290.641 134.256 290.977 134.522 291.257 134.886C291.537 135.241 291.677 135.726 291.677 136.342C291.677 136.818 291.551 137.266 291.299 137.686C291.047 138.106 290.673 138.447 290.179 138.708C289.684 138.969 289.101 139.1 288.429 139.1ZM300.257 129.244V130.28H297.597V139.002H296.323V130.28H293.649V129.244H300.257ZM303.8 129.244V139.002H302.526V129.244H303.8ZM306.195 134.116C306.195 133.164 306.41 132.31 306.839 131.554C307.268 130.789 307.852 130.191 308.589 129.762C309.336 129.333 310.162 129.118 311.067 129.118C312.131 129.118 313.06 129.375 313.853 129.888C314.646 130.401 315.225 131.129 315.589 132.072H314.063C313.792 131.484 313.4 131.031 312.887 130.714C312.383 130.397 311.776 130.238 311.067 130.238C310.386 130.238 309.774 130.397 309.233 130.714C308.692 131.031 308.267 131.484 307.959 132.072C307.651 132.651 307.497 133.332 307.497 134.116C307.497 134.891 307.651 135.572 307.959 136.16C308.267 136.739 308.692 137.187 309.233 137.504C309.774 137.821 310.386 137.98 311.067 137.98C311.776 137.98 312.383 137.826 312.887 137.518C313.4 137.201 313.792 136.748 314.063 136.16H315.589C315.225 137.093 314.646 137.817 313.853 138.33C313.06 138.834 312.131 139.086 311.067 139.086C310.162 139.086 309.336 138.876 308.589 138.456C307.852 138.027 307.268 137.434 306.839 136.678C306.41 135.922 306.195 135.068 306.195 134.116ZM321.279 139.1C320.635 139.1 320.057 138.988 319.543 138.764C319.039 138.531 318.643 138.213 318.353 137.812C318.064 137.401 317.915 136.93 317.905 136.398H319.263C319.31 136.855 319.497 137.243 319.823 137.56C320.159 137.868 320.645 138.022 321.279 138.022C321.886 138.022 322.362 137.873 322.707 137.574C323.062 137.266 323.239 136.874 323.239 136.398C323.239 136.025 323.137 135.721 322.931 135.488C322.726 135.255 322.469 135.077 322.161 134.956C321.853 134.835 321.438 134.704 320.915 134.564C320.271 134.396 319.753 134.228 319.361 134.06C318.979 133.892 318.647 133.631 318.367 133.276C318.097 132.912 317.961 132.427 317.961 131.82C317.961 131.288 318.097 130.817 318.367 130.406C318.638 129.995 319.016 129.678 319.501 129.454C319.996 129.23 320.561 129.118 321.195 129.118C322.11 129.118 322.857 129.347 323.435 129.804C324.023 130.261 324.355 130.868 324.429 131.624H323.029C322.983 131.251 322.787 130.924 322.441 130.644C322.096 130.355 321.639 130.21 321.069 130.21C320.537 130.21 320.103 130.35 319.767 130.63C319.431 130.901 319.263 131.283 319.263 131.778C319.263 132.133 319.361 132.422 319.557 132.646C319.763 132.87 320.01 133.043 320.299 133.164C320.598 133.276 321.013 133.407 321.545 133.556C322.189 133.733 322.707 133.911 323.099 134.088C323.491 134.256 323.827 134.522 324.107 134.886C324.387 135.241 324.527 135.726 324.527 136.342C324.527 136.818 324.401 137.266 324.149 137.686C323.897 138.106 323.524 138.447 323.029 138.708C322.535 138.969 321.951 139.1 321.279 139.1Z" fill="black"/>
<path d="M162.926 57.3918H151V55.3579C151.66 19.5796 200.944 23.2104 207.001 39.5952C211.474 39.3645 212.925 38.7249 214.26 35.5274C217.531 34.2477 219.537 34.2053 221.519 35.5274C223.401 31.2298 224.34 29.2319 225.667 26.8833H229.297L225.667 37.5613C236.514 52.2567 228.589 56.7143 221.519 57.3918C216.645 57.5489 212.267 57.5397 207.001 57.3918M162.926 57.3918C161.278 59.9721 161.187 61.4227 162.926 64.0019H190.408C197.61 62.7326 201.276 61.3495 207.001 57.3918M162.926 57.3918H207.001" stroke="#344F10"/>
<path d="M162.408 32.985L165 26.3748M165 26.3748L159.815 15.1884M165 26.3748L172.26 28.4087L176.926 22.8155M159.815 15.1884L162.408 8.06972M159.815 15.1884L167.593 12.646M176.926 22.8155V12.646M176.926 22.8155L183.667 27.9002M176.926 12.646L182.111 5.52734M176.926 12.646H184.704" stroke="#344F10"/>
<path d="M219.445 42.6462L221.779 45.4428M224.112 48.2394L221.779 45.4428M221.779 45.4428L224.112 42.6462M221.779 45.4428L218.408 48.2394M193.001 41.1207H183.149V46.714H193.001V51.2902H169.148V35.019L194.038 36.036L193.001 41.1207Z" stroke="#344F10"/>
<path d="M214.26 35.5272L215.988 27.3916H219.445V34.7032" stroke="#344F10"/>
<path d="M217.371 19.7647C218.518 18.0683 217.931 17.1846 215.297 15.6969C214.464 14.1121 215.17 13.2223 217.371 11.6291C218.179 10.1793 217.642 9.27306 215.297 7.56128C214.732 5.78172 215.175 5.01828 217.371 4.00195" stroke="#344F10"/>
<path d="M227.223 20.2731C228.167 18.4876 227.894 17.4857 225.149 15.6969C224.576 14.5098 224.822 13.6768 227.223 11.6291C227.318 10.0419 227.102 9.15431 225.149 7.56128C225.069 5.71825 225.416 4.88166 227.223 4.00195" stroke="#344F10"/>
<path d="M186.26 41.6289V46.7137" stroke="#344F10"/>
<path d="M163.963 42.646L159.815 49.2562" stroke="#344F10"/>
<path d="M200.278 42.646C200.278 43.2032 199.815 43.6715 199.223 43.6715C198.63 43.6715 198.167 43.2032 198.167 42.646C198.167 42.0889 198.63 41.6206 199.223 41.6206C199.815 41.6206 200.278 42.0889 200.278 42.646Z" stroke="#344F10"/>
<path d="M893.52 139.1C892.615 139.1 891.789 138.89 891.042 138.47C890.296 138.041 889.703 137.448 889.264 136.692C888.835 135.927 888.62 135.068 888.62 134.116C888.62 133.164 888.835 132.31 889.264 131.554C889.703 130.789 890.296 130.196 891.042 129.776C891.789 129.347 892.615 129.132 893.52 129.132C894.435 129.132 895.266 129.347 896.012 129.776C896.759 130.196 897.347 130.784 897.776 131.54C898.206 132.296 898.42 133.155 898.42 134.116C898.42 135.077 898.206 135.936 897.776 136.692C897.347 137.448 896.759 138.041 896.012 138.47C895.266 138.89 894.435 139.1 893.52 139.1ZM893.52 137.994C894.202 137.994 894.813 137.835 895.354 137.518C895.905 137.201 896.334 136.748 896.642 136.16C896.96 135.572 897.118 134.891 897.118 134.116C897.118 133.332 896.96 132.651 896.642 132.072C896.334 131.484 895.91 131.031 895.368 130.714C894.827 130.397 894.211 130.238 893.52 130.238C892.83 130.238 892.214 130.397 891.672 130.714C891.131 131.031 890.702 131.484 890.384 132.072C890.076 132.651 889.922 133.332 889.922 134.116C889.922 134.891 890.076 135.572 890.384 136.16C890.702 136.748 891.131 137.201 891.672 137.518C892.223 137.835 892.839 137.994 893.52 137.994ZM908.474 139.002H907.2L902.076 131.232V139.002H900.802V129.23H902.076L907.2 136.986V129.23H908.474V139.002ZM912.62 137.966H916.036V139.002H911.346V129.244H912.62V137.966ZM924.921 129.244L921.743 135.32V139.002H920.469V135.32L917.277 129.244H918.691L921.099 134.186L923.507 129.244H924.921ZM939.069 139.002H937.795L932.671 131.232V139.002H931.397V129.23H932.671L937.795 136.986V129.23H939.069V139.002ZM947.709 136.832H943.453L942.669 139.002H941.325L944.853 129.3H946.323L949.837 139.002H948.493L947.709 136.832ZM947.345 135.796L945.581 130.868L943.817 135.796H947.345ZM958.08 129.244V130.28H955.42V139.002H954.146V130.28H951.472V129.244H958.08ZM961.595 129.244V135.418C961.595 136.286 961.805 136.93 962.225 137.35C962.654 137.77 963.247 137.98 964.003 137.98C964.749 137.98 965.333 137.77 965.753 137.35C966.182 136.93 966.397 136.286 966.397 135.418V129.244H967.671V135.404C967.671 136.216 967.507 136.902 967.181 137.462C966.854 138.013 966.411 138.423 965.851 138.694C965.3 138.965 964.679 139.1 963.989 139.1C963.298 139.1 962.673 138.965 962.113 138.694C961.562 138.423 961.123 138.013 960.797 137.462C960.479 136.902 960.321 136.216 960.321 135.404V129.244H961.595ZM975.634 139.002L973.31 135.012H971.77V139.002H970.496V129.244H973.646C974.383 129.244 975.004 129.37 975.508 129.622C976.021 129.874 976.404 130.215 976.656 130.644C976.908 131.073 977.034 131.563 977.034 132.114C977.034 132.786 976.838 133.379 976.446 133.892C976.063 134.405 975.485 134.746 974.71 134.914L977.16 139.002H975.634ZM971.77 133.99H973.646C974.337 133.99 974.855 133.822 975.2 133.486C975.545 133.141 975.718 132.683 975.718 132.114C975.718 131.535 975.545 131.087 975.2 130.77C974.864 130.453 974.346 130.294 973.646 130.294H971.77V133.99ZM985.482 136.832H981.226L980.442 139.002H979.098L982.626 129.3H984.096L987.61 139.002H986.266L985.482 136.832ZM985.118 135.796L983.354 130.868L981.59 135.796H985.118ZM991.121 137.966H994.537V139.002H989.847V129.244H991.121V137.966ZM1002.3 129.244V139.002H1001.02V129.244H1002.3ZM1012.84 139.002H1011.57L1006.44 131.232V139.002H1005.17V129.23H1006.44L1011.57 136.986V129.23H1012.84V139.002ZM1023.1 132.072C1022.83 131.503 1022.44 131.064 1021.93 130.756C1021.41 130.439 1020.82 130.28 1020.14 130.28C1019.45 130.28 1018.84 130.439 1018.29 130.756C1017.75 131.064 1017.32 131.512 1017 132.1C1016.69 132.679 1016.54 133.351 1016.54 134.116C1016.54 134.881 1016.69 135.553 1017 136.132C1017.32 136.711 1017.75 137.159 1018.29 137.476C1018.84 137.784 1019.45 137.938 1020.14 137.938C1021.09 137.938 1021.87 137.653 1022.49 137.084C1023.1 136.515 1023.46 135.745 1023.57 134.774H1019.67V133.738H1024.92V134.718C1024.85 135.521 1024.6 136.258 1024.17 136.93C1023.74 137.593 1023.17 138.12 1022.47 138.512C1021.77 138.895 1020.99 139.086 1020.14 139.086C1019.23 139.086 1018.4 138.876 1017.66 138.456C1016.91 138.027 1016.32 137.434 1015.88 136.678C1015.45 135.922 1015.24 135.068 1015.24 134.116C1015.24 133.164 1015.45 132.31 1015.88 131.554C1016.32 130.789 1016.91 130.196 1017.66 129.776C1018.4 129.347 1019.23 129.132 1020.14 129.132C1021.17 129.132 1022.09 129.389 1022.88 129.902C1023.68 130.415 1024.27 131.139 1024.63 132.072H1023.1ZM1032.45 139.002L1030.12 135.012H1028.58V139.002H1027.31V129.244H1030.46C1031.2 129.244 1031.82 129.37 1032.32 129.622C1032.83 129.874 1033.22 130.215 1033.47 130.644C1033.72 131.073 1033.85 131.563 1033.85 132.114C1033.85 132.786 1033.65 133.379 1033.26 133.892C1032.88 134.405 1032.3 134.746 1031.52 134.914L1033.97 139.002H1032.45ZM1028.58 133.99H1030.46C1031.15 133.99 1031.67 133.822 1032.01 133.486C1032.36 133.141 1032.53 132.683 1032.53 132.114C1032.53 131.535 1032.36 131.087 1032.01 130.77C1031.68 130.453 1031.16 130.294 1030.46 130.294H1028.58V133.99ZM1037.8 130.28V133.542H1041.36V134.592H1037.8V137.952H1041.78V139.002H1036.53V129.23H1041.78V130.28H1037.8ZM1047.44 129.244C1048.51 129.244 1049.42 129.445 1050.2 129.846C1050.98 130.238 1051.58 130.803 1051.99 131.54C1052.41 132.277 1052.62 133.145 1052.62 134.144C1052.62 135.143 1052.41 136.011 1051.99 136.748C1051.58 137.476 1050.98 138.036 1050.2 138.428C1049.42 138.811 1048.51 139.002 1047.44 139.002H1044.4V129.244H1047.44ZM1047.44 137.952C1048.7 137.952 1049.66 137.621 1050.33 136.958C1050.99 136.286 1051.32 135.348 1051.32 134.144C1051.32 132.931 1050.98 131.983 1050.31 131.302C1049.65 130.621 1048.69 130.28 1047.44 130.28H1045.68V137.952H1047.44ZM1056.28 129.244V139.002H1055V129.244H1056.28ZM1060.42 130.28V133.542H1063.98V134.592H1060.42V137.952H1064.4V139.002H1059.15V129.23H1064.4V130.28H1060.42ZM1074.7 139.002H1073.42L1068.3 131.232V139.002H1067.02V129.23H1068.3L1073.42 136.986V129.23H1074.7V139.002ZM1083.57 129.244V130.28H1080.91V139.002H1079.64V130.28H1076.97V129.244H1083.57ZM1088.94 139.1C1088.29 139.1 1087.71 138.988 1087.2 138.764C1086.7 138.531 1086.3 138.213 1086.01 137.812C1085.72 137.401 1085.57 136.93 1085.56 136.398H1086.92C1086.97 136.855 1087.15 137.243 1087.48 137.56C1087.82 137.868 1088.3 138.022 1088.94 138.022C1089.54 138.022 1090.02 137.873 1090.36 137.574C1090.72 137.266 1090.9 136.874 1090.9 136.398C1090.9 136.025 1090.79 135.721 1090.59 135.488C1090.38 135.255 1090.13 135.077 1089.82 134.956C1089.51 134.835 1089.1 134.704 1088.57 134.564C1087.93 134.396 1087.41 134.228 1087.02 134.06C1086.64 133.892 1086.3 133.631 1086.02 133.276C1085.75 132.912 1085.62 132.427 1085.62 131.82C1085.62 131.288 1085.75 130.817 1086.02 130.406C1086.3 129.995 1086.67 129.678 1087.16 129.454C1087.65 129.23 1088.22 129.118 1088.85 129.118C1089.77 129.118 1090.51 129.347 1091.09 129.804C1091.68 130.261 1092.01 130.868 1092.09 131.624H1090.69C1090.64 131.251 1090.44 130.924 1090.1 130.644C1089.75 130.355 1089.3 130.21 1088.73 130.21C1088.19 130.21 1087.76 130.35 1087.42 130.63C1087.09 130.901 1086.92 131.283 1086.92 131.778C1086.92 132.133 1087.02 132.422 1087.21 132.646C1087.42 132.87 1087.67 133.043 1087.96 133.164C1088.26 133.276 1088.67 133.407 1089.2 133.556C1089.85 133.733 1090.36 133.911 1090.76 134.088C1091.15 134.256 1091.48 134.522 1091.76 134.886C1092.04 135.241 1092.18 135.726 1092.18 136.342C1092.18 136.818 1092.06 137.266 1091.81 137.686C1091.55 138.106 1091.18 138.447 1090.69 138.708C1090.19 138.969 1089.61 139.1 1088.94 139.1Z" fill="black"/>
<path d="M992.616 80.0017L989.689 74.5608M963.639 26.137L970.957 39.7392M970.957 39.7392L974.315 28.3133M970.957 39.7392L959.572 36.4746M970.957 39.7392L977.396 51.7091M977.396 51.7091L981.94 34.2983M977.396 51.7091L962.114 47.3564M977.396 51.7091L985.006 65.8554M985.006 65.8554L991.091 43.0037M985.006 65.8554L963.639 59.8704M985.006 65.8554L989.689 74.5608M989.689 74.5608C1011.79 45.306 1015.44 29.5625 953.98 6.5498" stroke="#344F10"/>
<path d="M953.966 6.00195C940.117 72.0977 956.267 75.6472 989.567 74.5611M1003.29 52.7976L1005.33 49.6168M1016.51 32.1222L1009.9 42.4599M1009.9 42.4599H1018.54M1009.9 42.4599L1007.36 34.2986M1009.9 42.4599L1005.33 49.6168M1005.33 49.6168H1016.51M1005.33 49.6168L999.734 59.8707L1012.95 60.9589" stroke="#344F10"/>
<path d="M992.108 71.2963C1022.97 70.8662 1034.67 64.3022 1024.32 18.061" stroke="#344F10"/>
<path d="M1024.64 18.52C1013.48 21.1036 1007.69 23.3197 1000.24 32.1222" stroke="#344F10"/>
<path d="M435.363 132.1C435.363 132.912 435.083 133.589 434.523 134.13C433.973 134.662 433.128 134.928 431.989 134.928H430.113V139.002H428.839V129.244H431.989C433.091 129.244 433.926 129.51 434.495 130.042C435.074 130.574 435.363 131.26 435.363 132.1ZM431.989 133.878C432.699 133.878 433.221 133.724 433.557 133.416C433.893 133.108 434.061 132.669 434.061 132.1C434.061 130.896 433.371 130.294 431.989 130.294H430.113V133.878H431.989ZM442.785 139.002L440.461 135.012H438.921V139.002H437.647V129.244H440.797C441.534 129.244 442.155 129.37 442.659 129.622C443.172 129.874 443.555 130.215 443.807 130.644C444.059 131.073 444.185 131.563 444.185 132.114C444.185 132.786 443.989 133.379 443.597 133.892C443.214 134.405 442.635 134.746 441.861 134.914L444.311 139.002H442.785ZM438.921 133.99H440.797C441.487 133.99 442.005 133.822 442.351 133.486C442.696 133.141 442.869 132.683 442.869 132.114C442.869 131.535 442.696 131.087 442.351 130.77C442.015 130.453 441.497 130.294 440.797 130.294H438.921V133.99ZM451.288 139.1C450.383 139.1 449.557 138.89 448.81 138.47C448.064 138.041 447.471 137.448 447.032 136.692C446.603 135.927 446.388 135.068 446.388 134.116C446.388 133.164 446.603 132.31 447.032 131.554C447.471 130.789 448.064 130.196 448.81 129.776C449.557 129.347 450.383 129.132 451.288 129.132C452.203 129.132 453.034 129.347 453.78 129.776C454.527 130.196 455.115 130.784 455.544 131.54C455.974 132.296 456.188 133.155 456.188 134.116C456.188 135.077 455.974 135.936 455.544 136.692C455.115 137.448 454.527 138.041 453.78 138.47C453.034 138.89 452.203 139.1 451.288 139.1ZM451.288 137.994C451.97 137.994 452.581 137.835 453.122 137.518C453.673 137.201 454.102 136.748 454.41 136.16C454.728 135.572 454.886 134.891 454.886 134.116C454.886 133.332 454.728 132.651 454.41 132.072C454.102 131.484 453.678 131.031 453.136 130.714C452.595 130.397 451.979 130.238 451.288 130.238C450.598 130.238 449.982 130.397 449.44 130.714C448.899 131.031 448.47 131.484 448.152 132.072C447.844 132.651 447.69 133.332 447.69 134.116C447.69 134.891 447.844 135.572 448.152 136.16C448.47 136.748 448.899 137.201 449.44 137.518C449.991 137.835 450.607 137.994 451.288 137.994ZM461.608 129.244C462.672 129.244 463.592 129.445 464.366 129.846C465.15 130.238 465.748 130.803 466.158 131.54C466.578 132.277 466.788 133.145 466.788 134.144C466.788 135.143 466.578 136.011 466.158 136.748C465.748 137.476 465.15 138.036 464.366 138.428C463.592 138.811 462.672 139.002 461.608 139.002H458.57V129.244H461.608ZM461.608 137.952C462.868 137.952 463.83 137.621 464.492 136.958C465.155 136.286 465.486 135.348 465.486 134.144C465.486 132.931 465.15 131.983 464.478 131.302C463.816 130.621 462.859 130.28 461.608 130.28H459.844V137.952H461.608ZM470.415 129.244V135.418C470.415 136.286 470.625 136.93 471.045 137.35C471.474 137.77 472.067 137.98 472.823 137.98C473.569 137.98 474.153 137.77 474.573 137.35C475.002 136.93 475.217 136.286 475.217 135.418V129.244H476.491V135.404C476.491 136.216 476.327 136.902 476.001 137.462C475.674 138.013 475.231 138.423 474.671 138.694C474.12 138.965 473.499 139.1 472.809 139.1C472.118 139.1 471.493 138.965 470.933 138.694C470.382 138.423 469.943 138.013 469.617 137.462C469.299 136.902 469.141 136.216 469.141 135.404V129.244H470.415ZM478.84 134.116C478.84 133.164 479.055 132.31 479.484 131.554C479.913 130.789 480.497 130.191 481.234 129.762C481.981 129.333 482.807 129.118 483.712 129.118C484.776 129.118 485.705 129.375 486.498 129.888C487.291 130.401 487.87 131.129 488.234 132.072H486.708C486.437 131.484 486.045 131.031 485.532 130.714C485.028 130.397 484.421 130.238 483.712 130.238C483.031 130.238 482.419 130.397 481.878 130.714C481.337 131.031 480.912 131.484 480.604 132.072C480.296 132.651 480.142 133.332 480.142 134.116C480.142 134.891 480.296 135.572 480.604 136.16C480.912 136.739 481.337 137.187 481.878 137.504C482.419 137.821 483.031 137.98 483.712 137.98C484.421 137.98 485.028 137.826 485.532 137.518C486.045 137.201 486.437 136.748 486.708 136.16H488.234C487.87 137.093 487.291 137.817 486.498 138.33C485.705 138.834 484.776 139.086 483.712 139.086C482.807 139.086 481.981 138.876 481.234 138.456C480.497 138.027 479.913 137.434 479.484 136.678C479.055 135.922 478.84 135.068 478.84 134.116ZM496.836 129.244V130.28H494.176V139.002H492.902V130.28H490.228V129.244H496.836ZM510.061 132.1C510.061 132.912 509.781 133.589 509.221 134.13C508.67 134.662 507.826 134.928 506.687 134.928H504.811V139.002H503.537V129.244H506.687C507.788 129.244 508.624 129.51 509.193 130.042C509.772 130.574 510.061 131.26 510.061 132.1ZM506.687 133.878C507.396 133.878 507.919 133.724 508.255 133.416C508.591 133.108 508.759 132.669 508.759 132.1C508.759 130.896 508.068 130.294 506.687 130.294H504.811V133.878H506.687ZM518.112 136.832H513.856L513.072 139.002H511.728L515.256 129.3H516.726L520.24 139.002H518.896L518.112 136.832ZM517.748 135.796L515.984 130.868L514.22 135.796H517.748ZM522.002 134.116C522.002 133.164 522.217 132.31 522.646 131.554C523.075 130.789 523.659 130.191 524.396 129.762C525.143 129.333 525.969 129.118 526.874 129.118C527.938 129.118 528.867 129.375 529.66 129.888C530.453 130.401 531.032 131.129 531.396 132.072H529.87C529.599 131.484 529.207 131.031 528.694 130.714C528.19 130.397 527.583 130.238 526.874 130.238C526.193 130.238 525.581 130.397 525.04 130.714C524.499 131.031 524.074 131.484 523.766 132.072C523.458 132.651 523.304 133.332 523.304 134.116C523.304 134.891 523.458 135.572 523.766 136.16C524.074 136.739 524.499 137.187 525.04 137.504C525.581 137.821 526.193 137.98 526.874 137.98C527.583 137.98 528.19 137.826 528.694 137.518C529.207 137.201 529.599 136.748 529.87 136.16H531.396C531.032 137.093 530.453 137.817 529.66 138.33C528.867 138.834 527.938 139.086 526.874 139.086C525.969 139.086 525.143 138.876 524.396 138.456C523.659 138.027 523.075 137.434 522.646 136.678C522.217 135.922 522.002 135.068 522.002 134.116ZM539.284 139.002L535.266 134.55V139.002H533.992V129.244H535.266V133.766L539.298 129.244H540.908L536.484 134.13L540.95 139.002H539.284ZM548.841 136.832H544.585L543.801 139.002H542.457L545.985 129.3H547.455L550.969 139.002H549.625L548.841 136.832ZM548.477 135.796L546.713 130.868L544.949 135.796H548.477ZM560.599 132.072C560.328 131.503 559.936 131.064 559.423 130.756C558.91 130.439 558.312 130.28 557.631 130.28C556.95 130.28 556.334 130.439 555.783 130.756C555.242 131.064 554.812 131.512 554.495 132.1C554.187 132.679 554.033 133.351 554.033 134.116C554.033 134.881 554.187 135.553 554.495 136.132C554.812 136.711 555.242 137.159 555.783 137.476C556.334 137.784 556.95 137.938 557.631 137.938C558.583 137.938 559.367 137.653 559.983 137.084C560.599 136.515 560.958 135.745 561.061 134.774H557.169V133.738H562.419V134.718C562.344 135.521 562.092 136.258 561.663 136.93C561.234 137.593 560.669 138.12 559.969 138.512C559.269 138.895 558.49 139.086 557.631 139.086C556.726 139.086 555.9 138.876 555.153 138.456C554.406 138.027 553.814 137.434 553.375 136.678C552.946 135.922 552.731 135.068 552.731 134.116C552.731 133.164 552.946 132.31 553.375 131.554C553.814 130.789 554.406 130.196 555.153 129.776C555.9 129.347 556.726 129.132 557.631 129.132C558.667 129.132 559.582 129.389 560.375 129.902C561.178 130.415 561.761 131.139 562.125 132.072H560.599ZM566.077 129.244V139.002H564.803V129.244H566.077ZM576.621 139.002H575.347L570.223 131.232V139.002H568.949V129.23H570.223L575.347 136.986V129.23H576.621V139.002ZM586.884 132.072C586.614 131.503 586.222 131.064 585.708 130.756C585.195 130.439 584.598 130.28 583.916 130.28C583.235 130.28 582.619 130.439 582.068 130.756C581.527 131.064 581.098 131.512 580.78 132.1C580.472 132.679 580.318 133.351 580.318 134.116C580.318 134.881 580.472 135.553 580.78 136.132C581.098 136.711 581.527 137.159 582.068 137.476C582.619 137.784 583.235 137.938 583.916 137.938C584.868 137.938 585.652 137.653 586.268 137.084C586.884 136.515 587.244 135.745 587.346 134.774H583.454V133.738H588.704V134.718C588.63 135.521 588.378 136.258 587.948 136.93C587.519 137.593 586.954 138.12 586.254 138.512C585.554 138.895 584.775 139.086 583.916 139.086C583.011 139.086 582.185 138.876 581.438 138.456C580.692 138.027 580.099 137.434 579.66 136.678C579.231 135.922 579.016 135.068 579.016 134.116C579.016 133.164 579.231 132.31 579.66 131.554C580.099 130.789 580.692 130.196 581.438 129.776C582.185 129.347 583.011 129.132 583.916 129.132C584.952 129.132 585.867 129.389 586.66 129.902C587.463 130.415 588.046 131.139 588.41 132.072H586.884ZM595.045 134.116C595.045 133.164 595.26 132.31 595.689 131.554C596.119 130.789 596.702 130.191 597.439 129.762C598.186 129.333 599.012 129.118 599.917 129.118C600.981 129.118 601.91 129.375 602.703 129.888C603.497 130.401 604.075 131.129 604.439 132.072H602.913C602.643 131.484 602.251 131.031 601.737 130.714C601.233 130.397 600.627 130.238 599.917 130.238C599.236 130.238 598.625 130.397 598.083 130.714C597.542 131.031 597.117 131.484 596.809 132.072C596.501 132.651 596.347 133.332 596.347 134.116C596.347 134.891 596.501 135.572 596.809 136.16C597.117 136.739 597.542 137.187 598.083 137.504C598.625 137.821 599.236 137.98 599.917 137.98C600.627 137.98 601.233 137.826 601.737 137.518C602.251 137.201 602.643 136.748 602.913 136.16H604.439C604.075 137.093 603.497 137.817 602.703 138.33C601.91 138.834 600.981 139.086 599.917 139.086C599.012 139.086 598.186 138.876 597.439 138.456C596.702 138.027 596.119 137.434 595.689 136.678C595.26 135.922 595.045 135.068 595.045 134.116ZM612.804 136.832H608.548L607.764 139.002H606.42L609.948 129.3H611.418L614.932 139.002H613.588L612.804 136.832ZM612.44 135.796L610.676 130.868L608.912 135.796H612.44ZM624.841 139.002H623.567L618.443 131.232V139.002H617.169V129.23H618.443L623.567 136.986V129.23H624.841V139.002ZM637.032 133.976C637.386 134.032 637.708 134.177 637.998 134.41C638.296 134.643 638.53 134.933 638.698 135.278C638.875 135.623 638.964 135.992 638.964 136.384C638.964 136.879 638.838 137.327 638.586 137.728C638.334 138.12 637.965 138.433 637.48 138.666C637.004 138.89 636.439 139.002 635.786 139.002H632.146V129.244H635.646C636.308 129.244 636.873 129.356 637.34 129.58C637.806 129.795 638.156 130.089 638.39 130.462C638.623 130.835 638.74 131.255 638.74 131.722C638.74 132.301 638.581 132.781 638.264 133.164C637.956 133.537 637.545 133.808 637.032 133.976ZM633.42 133.458H635.562C636.159 133.458 636.621 133.318 636.948 133.038C637.274 132.758 637.438 132.371 637.438 131.876C637.438 131.381 637.274 130.994 636.948 130.714C636.621 130.434 636.15 130.294 635.534 130.294H633.42V133.458ZM635.674 137.952C636.308 137.952 636.803 137.803 637.158 137.504C637.512 137.205 637.69 136.79 637.69 136.258C637.69 135.717 637.503 135.292 637.13 134.984C636.756 134.667 636.257 134.508 635.632 134.508H633.42V137.952H635.674ZM642.706 130.28V133.542H646.262V134.592H642.706V137.952H646.682V139.002H641.432V129.23H646.682V130.28H642.706ZM658.88 139.002L656.556 135.012H655.016V139.002H653.742V129.244H656.892C657.629 129.244 658.25 129.37 658.754 129.622C659.267 129.874 659.65 130.215 659.902 130.644C660.154 131.073 660.28 131.563 660.28 132.114C660.28 132.786 660.084 133.379 659.692 133.892C659.309 134.405 658.73 134.746 657.956 134.914L660.406 139.002H658.88ZM655.016 133.99H656.892C657.582 133.99 658.1 133.822 658.446 133.486C658.791 133.141 658.964 132.683 658.964 132.114C658.964 131.535 658.791 131.087 658.446 130.77C658.11 130.453 657.592 130.294 656.892 130.294H655.016V133.99ZM664.233 130.28V133.542H667.789V134.592H664.233V137.952H668.209V139.002H662.959V129.23H668.209V130.28H664.233ZM670.361 134.116C670.361 133.164 670.576 132.31 671.005 131.554C671.434 130.789 672.018 130.191 672.755 129.762C673.502 129.333 674.328 129.118 675.233 129.118C676.297 129.118 677.226 129.375 678.019 129.888C678.812 130.401 679.391 131.129 679.755 132.072H678.229C677.958 131.484 677.566 131.031 677.053 130.714C676.549 130.397 675.942 130.238 675.233 130.238C674.552 130.238 673.94 130.397 673.399 130.714C672.858 131.031 672.433 131.484 672.125 132.072C671.817 132.651 671.663 133.332 671.663 134.116C671.663 134.891 671.817 135.572 672.125 136.16C672.433 136.739 672.858 137.187 673.399 137.504C673.94 137.821 674.552 137.98 675.233 137.98C675.942 137.98 676.549 137.826 677.053 137.518C677.566 137.201 677.958 136.748 678.229 136.16H679.755C679.391 137.093 678.812 137.817 678.019 138.33C677.226 138.834 676.297 139.086 675.233 139.086C674.328 139.086 673.502 138.876 672.755 138.456C672.018 138.027 671.434 137.434 671.005 136.678C670.576 135.922 670.361 135.068 670.361 134.116ZM689.183 129.244L686.005 135.32V139.002H684.731V135.32L681.539 129.244H682.953L685.361 134.186L687.769 129.244H689.183ZM690.751 134.116C690.751 133.164 690.966 132.31 691.395 131.554C691.825 130.789 692.408 130.191 693.145 129.762C693.892 129.333 694.718 129.118 695.623 129.118C696.687 129.118 697.616 129.375 698.409 129.888C699.203 130.401 699.781 131.129 700.145 132.072H698.619C698.349 131.484 697.957 131.031 697.443 130.714C696.939 130.397 696.333 130.238 695.623 130.238C694.942 130.238 694.331 130.397 693.789 130.714C693.248 131.031 692.823 131.484 692.515 132.072C692.207 132.651 692.053 133.332 692.053 134.116C692.053 134.891 692.207 135.572 692.515 136.16C692.823 136.739 693.248 137.187 693.789 137.504C694.331 137.821 694.942 137.98 695.623 137.98C696.333 137.98 696.939 137.826 697.443 137.518C697.957 137.201 698.349 136.748 698.619 136.16H700.145C699.781 137.093 699.203 137.817 698.409 138.33C697.616 138.834 696.687 139.086 695.623 139.086C694.718 139.086 693.892 138.876 693.145 138.456C692.408 138.027 691.825 137.434 691.395 136.678C690.966 135.922 690.751 135.068 690.751 134.116ZM704.016 137.966H707.432V139.002H702.742V129.244H704.016V137.966ZM710.759 130.28V133.542H714.315V134.592H710.759V137.952H714.735V139.002H709.485V129.23H714.735V130.28H710.759ZM720.4 129.244C721.464 129.244 722.384 129.445 723.158 129.846C723.942 130.238 724.54 130.803 724.95 131.54C725.37 132.277 725.58 133.145 725.58 134.144C725.58 135.143 725.37 136.011 724.95 136.748C724.54 137.476 723.942 138.036 723.158 138.428C722.384 138.811 721.464 139.002 720.4 139.002H717.362V129.244H720.4ZM720.4 137.952C721.66 137.952 722.622 137.621 723.284 136.958C723.947 136.286 724.278 135.348 724.278 134.144C724.278 132.931 723.942 131.983 723.27 131.302C722.608 130.621 721.651 130.28 720.4 130.28H718.636V137.952H720.4ZM736.817 139.1C735.912 139.1 735.086 138.89 734.339 138.47C733.593 138.041 733 137.448 732.561 136.692C732.132 135.927 731.917 135.068 731.917 134.116C731.917 133.164 732.132 132.31 732.561 131.554C733 130.789 733.593 130.196 734.339 129.776C735.086 129.347 735.912 129.132 736.817 129.132C737.732 129.132 738.563 129.347 739.309 129.776C740.056 130.196 740.644 130.784 741.073 131.54C741.503 132.296 741.717 133.155 741.717 134.116C741.717 135.077 741.503 135.936 741.073 136.692C740.644 137.448 740.056 138.041 739.309 138.47C738.563 138.89 737.732 139.1 736.817 139.1ZM736.817 137.994C737.499 137.994 738.11 137.835 738.651 137.518C739.202 137.201 739.631 136.748 739.939 136.16C740.257 135.572 740.415 134.891 740.415 134.116C740.415 133.332 740.257 132.651 739.939 132.072C739.631 131.484 739.207 131.031 738.665 130.714C738.124 130.397 737.508 130.238 736.817 130.238C736.127 130.238 735.511 130.397 734.969 130.714C734.428 131.031 733.999 131.484 733.681 132.072C733.373 132.651 733.219 133.332 733.219 134.116C733.219 134.891 733.373 135.572 733.681 136.16C733.999 136.748 734.428 137.201 734.969 137.518C735.52 137.835 736.136 137.994 736.817 137.994ZM749.237 139.002L746.913 135.012H745.373V139.002H744.099V129.244H747.249C747.986 129.244 748.607 129.37 749.111 129.622C749.624 129.874 750.007 130.215 750.259 130.644C750.511 131.073 750.637 131.563 750.637 132.114C750.637 132.786 750.441 133.379 750.049 133.892C749.666 134.405 749.088 134.746 748.313 134.914L750.763 139.002H749.237ZM745.373 133.99H747.249C747.94 133.99 748.458 133.822 748.803 133.486C749.148 133.141 749.321 132.683 749.321 132.114C749.321 131.535 749.148 131.087 748.803 130.77C748.467 130.453 747.949 130.294 747.249 130.294H745.373V133.99ZM569.248 157.002L566.924 153.012H565.384V157.002H564.11V147.244H567.26C567.998 147.244 568.618 147.37 569.122 147.622C569.636 147.874 570.018 148.215 570.27 148.644C570.522 149.073 570.648 149.563 570.648 150.114C570.648 150.786 570.452 151.379 570.06 151.892C569.678 152.405 569.099 152.746 568.324 152.914L570.774 157.002H569.248ZM565.384 151.99H567.26C567.951 151.99 568.469 151.822 568.814 151.486C569.16 151.141 569.332 150.683 569.332 150.114C569.332 149.535 569.16 149.087 568.814 148.77C568.478 148.453 567.96 148.294 567.26 148.294H565.384V151.99ZM574.602 148.28V151.542H578.158V152.592H574.602V155.952H578.578V157.002H573.328V147.23H578.578V148.28H574.602ZM582.452 147.244V153.418C582.452 154.286 582.662 154.93 583.082 155.35C583.511 155.77 584.104 155.98 584.86 155.98C585.606 155.98 586.19 155.77 586.61 155.35C587.039 154.93 587.254 154.286 587.254 153.418V147.244H588.528V153.404C588.528 154.216 588.364 154.902 588.038 155.462C587.711 156.013 587.268 156.423 586.708 156.694C586.157 156.965 585.536 157.1 584.846 157.1C584.155 157.1 583.53 156.965 582.97 156.694C582.419 156.423 581.98 156.013 581.654 155.462C581.336 154.902 581.178 154.216 581.178 153.404V147.244H582.452ZM594.447 157.1C593.803 157.1 593.224 156.988 592.711 156.764C592.207 156.531 591.81 156.213 591.521 155.812C591.231 155.401 591.082 154.93 591.073 154.398H592.431C592.477 154.855 592.664 155.243 592.991 155.56C593.327 155.868 593.812 156.022 594.447 156.022C595.053 156.022 595.529 155.873 595.875 155.574C596.229 155.266 596.407 154.874 596.407 154.398C596.407 154.025 596.304 153.721 596.099 153.488C595.893 153.255 595.637 153.077 595.329 152.956C595.021 152.835 594.605 152.704 594.083 152.564C593.439 152.396 592.921 152.228 592.529 152.06C592.146 151.892 591.815 151.631 591.535 151.276C591.264 150.912 591.129 150.427 591.129 149.82C591.129 149.288 591.264 148.817 591.535 148.406C591.805 147.995 592.183 147.678 592.669 147.454C593.163 147.23 593.728 147.118 594.363 147.118C595.277 147.118 596.024 147.347 596.603 147.804C597.191 148.261 597.522 148.868 597.597 149.624H596.197C596.15 149.251 595.954 148.924 595.609 148.644C595.263 148.355 594.806 148.21 594.237 148.21C593.705 148.21 593.271 148.35 592.935 148.63C592.599 148.901 592.431 149.283 592.431 149.778C592.431 150.133 592.529 150.422 592.725 150.646C592.93 150.87 593.177 151.043 593.467 151.164C593.765 151.276 594.181 151.407 594.713 151.556C595.357 151.733 595.875 151.911 596.267 152.088C596.659 152.256 596.995 152.522 597.275 152.886C597.555 153.241 597.695 153.726 597.695 154.342C597.695 154.818 597.569 155.266 597.317 155.686C597.065 156.106 596.691 156.447 596.197 156.708C595.702 156.969 595.119 157.1 594.447 157.1ZM601.544 148.28V151.542H605.1V152.592H601.544V155.952H605.52V157.002H600.27V147.23H605.52V148.28H601.544ZM611.185 147.244C612.249 147.244 613.169 147.445 613.943 147.846C614.727 148.238 615.325 148.803 615.735 149.54C616.155 150.277 616.365 151.145 616.365 152.144C616.365 153.143 616.155 154.011 615.735 154.748C615.325 155.476 614.727 156.036 613.943 156.428C613.169 156.811 612.249 157.002 611.185 157.002H608.147V147.244H611.185ZM611.185 155.952C612.445 155.952 613.407 155.621 614.069 154.958C614.732 154.286 615.063 153.348 615.063 152.144C615.063 150.931 614.727 149.983 614.055 149.302C613.393 148.621 612.436 148.28 611.185 148.28H609.421V155.952H611.185Z" fill="black"/>
<path d="M615.117 14.4124L609.977 18.1198C596.109 -0.45412 588.597 -10.3656 564.652 22.7541L581.474 32.9496C583.865 24.9778 585.877 20.9163 590.819 14.4124L596.426 25.5347L590.819 29.7056C597.602 30.3542 601.235 30.4391 607.174 29.7056C611.199 24.8744 613.057 21.6668 615.117 14.4124Z" stroke="#344F10"/>
<path d="M603.29 76.329L602.512 69.9962C625.281 66.5233 637.483 64.5718 620.073 27.5196L603.188 37.6075C608.985 43.5295 611.561 47.2523 614.865 54.7416L602.516 54.4246L601.558 47.4558C597.763 53.173 595.958 56.3599 593.767 61.9858C596.053 67.8641 597.959 71.0427 603.29 76.329Z" stroke="#344F10"/>
<path d="M551.187 34.8017L557.045 37.1853C549.012 58.9909 544.784 70.7212 585.295 73.2996L584.751 53.4861C576.814 55.7382 572.344 56.2091 564.259 55.4985L570.521 44.7386L577.017 47.271C573.909 41.1445 572.025 38.0047 568.218 33.3404C562.022 32.5104 558.347 32.6537 551.187 34.8017Z" stroke="#344F10"/>
</svg>
