<svg width="32" height="32" viewBox="0 0 32 32" fill="none" xmlns="http://www.w3.org/2000/svg">
<path d="M16 3C13.254 3 11 5.254 11 8V9H6.06201L6.00001 9.938L5.00001 27.938L4.93701 29H27.062L27 27.937L26 9.937L25.937 9H21V8C21 5.254 18.746 3 16 3ZM16 5C16.7957 5 17.5587 5.31607 18.1213 5.87868C18.6839 6.44129 19 7.20435 19 8V9H13V8C13 7.20435 13.3161 6.44129 13.8787 5.87868C14.4413 5.31607 15.2044 5 16 5ZM7.93701 11H11V14H13V11H19V14H21V11H24.063L24.938 27H7.06301L7.93701 11Z" fill="#344F10"/>
</svg>
