<svg width="18" height="145" viewBox="0 0 18 145" fill="none" xmlns="http://www.w3.org/2000/svg">
<path d="M14.126 31.15C14.126 31.7567 14.0187 32.3027 13.804 32.788C13.58 33.264 13.2813 33.642 12.908 33.922C12.5253 34.202 12.1007 34.3513 11.634 34.37V32.718C11.9607 32.69 12.236 32.536 12.46 32.256C12.6747 31.9667 12.782 31.6073 12.782 31.178C12.782 30.73 12.698 30.3847 12.53 30.142C12.3527 29.89 12.1287 29.764 11.858 29.764C11.5687 29.764 11.354 29.904 11.214 30.184C11.074 30.4547 10.92 30.8887 10.752 31.486C10.5933 32.0647 10.4393 32.536 10.29 32.9C10.1407 33.264 9.912 33.5813 9.604 33.852C9.296 34.1133 8.89 34.244 8.386 34.244C7.97533 34.244 7.602 34.1227 7.266 33.88C6.92067 33.6373 6.65 33.292 6.454 32.844C6.258 32.3867 6.16 31.864 6.16 31.276C6.16 30.3987 6.384 29.694 6.832 29.162C7.27067 28.6207 7.87267 28.3313 8.638 28.294V29.89C8.29267 29.918 8.01733 30.058 7.812 30.31C7.60667 30.562 7.504 30.9027 7.504 31.332C7.504 31.752 7.58333 32.074 7.742 32.298C7.90067 32.522 8.11067 32.634 8.372 32.634C8.57733 32.634 8.75 32.5593 8.89 32.41C9.03 32.2607 9.142 32.0787 9.226 31.864C9.30067 31.6493 9.39867 31.332 9.52 30.912C9.66933 30.352 9.82333 29.8947 9.982 29.54C10.1313 29.176 10.3553 28.8633 10.654 28.602C10.9527 28.3407 11.3493 28.2053 11.844 28.196C12.2827 28.196 12.6747 28.3173 13.02 28.56C13.3653 28.8027 13.636 29.148 13.832 29.596C14.028 30.0347 14.126 30.5527 14.126 31.15ZM6.16 22.4815C6.16 21.8935 6.286 21.3708 6.538 20.9135C6.79 20.4468 7.16333 20.0828 7.658 19.8215C8.15267 19.5508 8.75 19.4155 9.45 19.4155H14L14 20.9975H9.688C8.99733 20.9975 8.47 21.1702 8.106 21.5155C7.73267 21.8608 7.546 22.3322 7.546 22.9295C7.546 23.5268 7.73267 24.0028 8.106 24.3575C8.47 24.7028 8.99733 24.8755 9.688 24.8755H14V26.4715H3.64V24.8755H7.182C6.85533 24.6048 6.60333 24.2642 6.426 23.8535C6.24867 23.4335 6.16 22.9762 6.16 22.4815ZM14.126 14.0337C14.126 14.7617 13.9627 15.4197 13.636 16.0077C13.3 16.5957 12.8333 17.0577 12.236 17.3937C11.6293 17.7297 10.9293 17.8977 10.136 17.8977C9.352 17.8977 8.65667 17.725 8.05 17.3797C7.44333 17.0344 6.97667 16.563 6.65 15.9657C6.32333 15.3684 6.16 14.701 6.16 13.9637C6.16 13.2264 6.32333 12.559 6.65 11.9617C6.97667 11.3644 7.44333 10.893 8.05 10.5477C8.65667 10.2024 9.352 10.0297 10.136 10.0297C10.92 10.0297 11.6153 10.207 12.222 10.5617C12.8287 10.9164 13.3 11.4017 13.636 12.0177C13.9627 12.6244 14.126 13.2964 14.126 14.0337ZM12.74 14.0337C12.74 13.623 12.642 13.2404 12.446 12.8857C12.25 12.5217 11.956 12.2277 11.564 12.0037C11.172 11.7797 10.696 11.6677 10.136 11.6677C9.576 11.6677 9.10467 11.775 8.722 11.9897C8.33 12.2044 8.036 12.489 7.84 12.8437C7.644 13.1984 7.546 13.581 7.546 13.9917C7.546 14.4024 7.644 14.785 7.84 15.1397C8.036 15.485 8.33 15.7604 8.722 15.9657C9.10467 16.171 9.576 16.2737 10.136 16.2737C10.9667 16.2737 11.6107 16.0637 12.068 15.6437C12.516 15.2144 12.74 14.6777 12.74 14.0337ZM7.42 6.85595C7.06533 6.58529 6.76667 6.21662 6.524 5.74995C6.28133 5.28329 6.16 4.75595 6.16 4.16795C6.16 3.49595 6.328 2.88462 6.664 2.33395C6.99067 1.77395 7.45267 1.33529 8.05 1.01795C8.64733 0.700619 9.33333 0.541952 10.108 0.541952C10.8827 0.541952 11.578 0.700619 12.194 1.01795C12.8007 1.33529 13.2767 1.77395 13.622 2.33395C13.958 2.88462 14.126 3.49595 14.126 4.16795C14.126 4.75595 14.0093 5.27862 13.776 5.73595C13.5333 6.19329 13.2347 6.56662 12.88 6.85595H17.668V8.45195H6.286V6.85595H7.42ZM10.108 2.16595C9.576 2.16595 9.11867 2.27795 8.736 2.50195C8.344 2.71662 8.05 3.00595 7.854 3.36995C7.64867 3.72462 7.546 4.10729 7.546 4.51795C7.546 4.91929 7.64867 5.30195 7.854 5.66595C8.05933 6.02062 8.358 6.30995 8.75 6.53395C9.142 6.74862 9.604 6.85595 10.136 6.85595C10.668 6.85595 11.1347 6.74862 11.536 6.53395C11.928 6.30995 12.2267 6.02062 12.432 5.66595C12.6373 5.30195 12.74 4.91929 12.74 4.51795C12.74 4.10729 12.6373 3.72462 12.432 3.36995C12.2173 3.00595 11.9093 2.71662 11.508 2.50195C11.1067 2.27795 10.64 2.16595 10.108 2.16595Z" fill="#344F10" fill-opacity="0.5"/>
<rect x="8" y="45" width="1" height="100" fill="#344F10" fill-opacity="0.5"/>
</svg>
