<svg xmlns="http://www.w3.org/2000/svg" width="49" height="52" fill="none"><path fill="#0F0E08" d="M22.651 0v21h-3.99L8.191 8.25V21h-4.8V0h4.02l10.44 12.75V0zM41.45 16.5H31.7L29.84 21h-4.98l9.36-21h4.8l9.39 21h-5.1zm-1.53-3.69-3.33-8.04-3.33 8.04zM19.953 51l-.03-12.6-6.18 10.38h-2.19l-6.15-10.11V51H.843V30h4.02l7.86 13.05L20.463 30h3.99l.06 21zm18.872.36q-4.5 0-7.02-2.49-2.49-2.49-2.49-7.11V30h4.86v11.58q0 5.64 4.68 5.64 2.28 0 3.48-1.35 1.2-1.38 1.2-4.29V30h4.8v11.76q0 4.62-2.52 7.11-2.49 2.49-6.99 2.49"/></svg>