<?xml version="1.0" encoding="utf-8"?>
<!-- Svg Vector Icons : http://www.onlinewebfonts.com/icon -->
<!DOCTYPE svg PUBLIC "-//W3C//DTD SVG 1.1//EN" "http://www.w3.org/Graphics/SVG/1.1/DTD/svg11.dtd">
<svg version="1.1" xmlns="http://www.w3.org/2000/svg" xmlns:xlink="http://www.w3.org/1999/xlink" x="0px" y="0px" viewBox="0 0 256 256" enable-background="new 0 0 256 256" xml:space="preserve">
<metadata> Svg Vector Icons : http://www.onlinewebfonts.com/icon </metadata>
<g><g><g><path fill="#000000" d="M161.6,10.9c-3.7,1.4,5.6-7.6-97.4,94.7c-58.2,57.8-54.4,53.5-54,60.1c0.1,2.1,0.6,4,1.3,5.3c1.2,2.3,16,17.6,18.2,18.8c1.9,1,3.8,0.6,7.1-1.7c8.8-5.7,18-5.6,25.8,0.3c6.1,4.6,9.3,11.7,8.7,19.3c-0.3,4-1.5,7.4-4,10.9c-2.1,3.1-2.5,4.3-2.1,6.2C65.6,226.7,81,242,84,243.7c2.1,1.2,2.8,1.3,6.3,1.3c3.2,0,4.3-0.2,6-1.1c2.3-1.2,36.4-34.8,37.6-37c1.1-2,0.8-3.8-0.8-5.4c-1.6-1.6-3.4-1.8-5.4-0.8c-0.7,0.4-8.9,8.3-18.3,17.7C97.9,230,92,235.6,91.1,235.8c-1.9,0.4-3.4-0.6-9.5-6.8l-5.7-5.7l1.4-2.8c2.3-4.6,3.4-9.3,3.4-14.6c0-5.5-0.8-8.8-3.3-13.8c-3.2-6.5-7.8-11.1-14.6-14.3c-4.9-2.4-8.2-3.1-13.6-3.1c-4.7,0-8.6,1-13.5,3.2l-3.6,1.7l-5.8-5.8c-6.3-6.2-7.3-7.6-6.9-9.6c0.2-0.9,16.4-17.3,55.8-56.4c44.1-43.9,55.7-55.1,56.3-54.8c0.4,0.2,1.5,0.4,2.4,0.5c2.4,0.3,4.6-1.8,4.6-4.3c0-1-0.2-2.1-0.5-2.4c-0.3-0.6,2.4-3.5,12.5-13.7c13.3-13.4,14.4-14.1,16.6-13c0.6,0.3,3.8,3.2,7,6.5l6,6l-1.5,3c-4.3,8.8-4.1,19.4,0.6,28.5c2.5,4.9,8.4,10.6,13.5,13c5.3,2.6,8.5,3.4,14.1,3.4c5.3,0,9-0.8,13.7-2.9l3.1-1.5l5.8,5.8c6.3,6.2,7.3,7.7,6.9,9.6c-0.2,0.7-5.1,6-13.2,14.2c-12.3,12.3-13,12.9-13.9,12.3c-0.5-0.4-1.8-0.6-2.7-0.6c-3.4,0-5.5,3.8-3.8,6.9c0.6,1,0.5,1.3-0.2,2.5c-2.6,4.2,1.6,8.8,5.9,6.5c0.7-0.4,8.9-8.4,18.3-17.9c19.4-19.5,19.4-19.4,19-25.5c-0.1-2.1-0.6-4-1.3-5.3c-1.2-2.3-16-17.6-18.2-18.8c-1.8-1-3.8-0.6-6.8,1.5c-6.8,4.5-14.8,5.1-21.9,1.7c-1.4-0.6-3.9-2.4-5.5-3.9c-7.8-7.4-9.2-18.8-3.3-28c2.2-3.4,2.6-5.3,1.7-7.2c-1.2-2.2-16.4-17-18.8-18.2C169.2,10.3,164.1,9.9,161.6,10.9z"/><path fill="#000000" d="M144.1,59.1c-1.5,1.6-1.7,3.4-0.7,5.4c0.7,1.3,6.2,6.9,8.1,8.1c1.8,1.2,3.8,0.9,5.5-0.6c1.2-1.1,1.4-1.7,1.4-3.3c0-1.9-0.2-2.2-4.5-6.5c-4.3-4.3-4.6-4.5-6.5-4.5C145.8,57.7,145.2,58,144.1,59.1z"/><path fill="#000000" d="M164,79c-1.5,1.5-1.8,3.3-0.9,5.2c0.7,1.5,6.9,7.6,8.3,8.4c3.3,1.8,6.8-0.3,6.8-4c0-1.9-0.2-2.2-4.5-6.5c-4.2-4.2-4.7-4.5-6.4-4.5C165.8,77.5,165.1,77.8,164,79z"/><path fill="#000000" d="M184.9,97.8c-2,1-3,4.1-2,6.1c0.7,1.5,6.9,7.6,8.3,8.4c3,1.6,6.4,0.1,7-3.2c0.4-1.9-0.6-3.4-5.2-7.8c-3.5-3.4-4.4-4-5.7-4C186.6,97.4,185.5,97.6,184.9,97.8z"/><path fill="#000000" d="M185.3,142.7c-11.1,2.1-20,6.8-27.7,14.6c-6.8,6.7-11.1,14.4-13.7,23.9c-1.1,4.1-1.2,5.3-1.2,12.8c0,7.6,0.1,8.7,1.2,12.9c7,25.9,32.3,42.4,58.4,38.2c11.5-1.9,21.1-7,29.3-15.5c5.7-5.9,9.2-11.7,11.7-19.2c7.1-21.3-0.1-44.3-18.2-58.1c-4.4-3.3-12.3-7.1-18-8.6C201.4,142.1,190.7,141.7,185.3,142.7z M204.1,152.6c14.2,3.4,25.5,13.8,30.3,27.9c2.8,8.2,2.6,19.4-0.6,28.1c-2.1,5.7-4.8,9.8-10,14.9c-5.1,5.1-9.3,7.9-14.9,10c-8.7,3.1-19.9,3.4-28.1,0.6c-19.1-6.5-31.1-25.3-28.8-44.9c1.2-10,5.2-18.2,12.2-25.2C174.8,153.3,189.5,149.2,204.1,152.6z"/><path fill="#000000" d="M192.3,165.9c-0.5,0.2-1.3,0.9-1.8,1.4c-0.9,0.9-0.9,1.8-1.1,11.3l-0.1,10.3l-10.3,0.1c-10.1,0.1-10.3,0.1-11.5,1.2c-2.4,2.3-1.9,6,1.1,7.5c1.4,0.7,3,0.8,11.2,0.8h9.5l0,9.5c0,5.3,0.2,10.1,0.4,10.7c0.7,2.7,4.7,3.8,7.1,2.1c1.8-1.4,2.2-3.5,2.2-13.2v-9l10.1-0.1l10.1-0.1l1.4-1.3c1.8-1.7,2.1-3.1,1.2-5.1c-1.2-2.7-2.5-3-13.4-3H199v-9.1c0-9.4-0.3-11.8-1.8-13.2C196.2,165.8,193.6,165.4,192.3,165.9z"/></g></g></g>
</svg>