<svg width="25" height="24" viewBox="0 0 25 24" fill="none" xmlns="http://www.w3.org/2000/svg">
<g clip-path="url(#clip0_12665_556)">
<path d="M9.7198 4.64902C9.7198 5.25383 9.7198 7.95334 9.7198 7.95334H7.30273V11.9939H9.7198V24.0009H14.685V11.9942H18.0168C18.0168 11.9942 18.3289 10.0568 18.4801 7.93844C18.0465 7.93844 14.7038 7.93844 14.7038 7.93844C14.7038 7.93844 14.7038 5.58779 14.7038 5.17576C14.7038 4.76285 15.2451 4.20743 15.7802 4.20743C16.3142 4.20743 17.4414 4.20743 18.4854 4.20743C18.4854 3.6573 18.4854 1.7565 18.4854 0.00100709C17.0917 0.00100709 15.5061 0.00100709 14.8072 0.00100709C9.59707 0.000728099 9.7198 4.04527 9.7198 4.64902Z" fill="black"/>
</g>
<defs>
<clipPath id="clip0_12665_556">
<rect width="23.9626" height="24" fill="white" transform="translate(0.912598)"/>
</clipPath>
</defs>
</svg>
