<svg width="24" height="24" viewBox="0 0 24 24" fill="none" xmlns="http://www.w3.org/2000/svg">
<path d="M12.0027 5.8467C8.59743 5.8467 5.85075 8.594 5.85075 12C5.85075 15.406 8.59743 18.1533 12.0027 18.1533C15.4079 18.1533 18.1546 15.406 18.1546 12C18.1546 8.594 15.4079 5.8467 12.0027 5.8467ZM12.0027 16.0004C9.80212 16.0004 8.00312 14.2064 8.00312 12C8.00312 9.7936 9.79677 7.99955 12.0027 7.99955C14.2086 7.99955 16.0022 9.7936 16.0022 12C16.0022 14.2064 14.2032 16.0004 12.0027 16.0004ZM19.8412 5.595C19.8412 6.39295 19.1987 7.03024 18.4062 7.03024C17.6085 7.03024 16.9713 6.38759 16.9713 5.595C16.9713 4.80241 17.6138 4.15977 18.4062 4.15977C19.1987 4.15977 19.8412 4.80241 19.8412 5.595ZM23.9157 7.05166C23.8247 5.12909 23.3856 3.42608 21.9775 2.02298C20.5747 0.619882 18.8721 0.180743 16.9499 0.0843468C14.9689 -0.0281156 9.03112 -0.0281156 7.05008 0.0843468C5.1333 0.175388 3.43068 0.614526 2.02253 2.01763C0.614389 3.42073 0.180703 5.12373 0.0843279 7.0463C-0.0281093 9.02778 -0.0281093 14.9669 0.0843279 16.9483C0.175349 18.8709 0.614389 20.5739 2.02253 21.977C3.43068 23.3801 5.12794 23.8193 7.05008 23.9157C9.03112 24.0281 14.9689 24.0281 16.9499 23.9157C18.8721 23.8246 20.5747 23.3855 21.9775 21.977C23.3803 20.5739 23.8193 18.8709 23.9157 16.9483C24.0281 14.9669 24.0281 9.03314 23.9157 7.05166ZM21.3564 19.0744C20.9388 20.1241 20.1303 20.9327 19.0755 21.3558C17.496 21.9824 13.7481 21.8378 12.0027 21.8378C10.2572 21.8378 6.50396 21.977 4.92984 21.3558C3.88042 20.9381 3.07195 20.1294 2.64897 19.0744C2.02253 17.4946 2.16709 13.7458 2.16709 12C2.16709 10.2542 2.02789 6.50006 2.64897 4.92558C3.06659 3.87593 3.87507 3.06728 4.92984 2.6442C6.50931 2.01763 10.2572 2.16222 12.0027 2.16222C13.7481 2.16222 17.5014 2.02298 19.0755 2.6442C20.1249 3.06192 20.9334 3.87058 21.3564 4.92558C21.9828 6.50541 21.8383 10.2542 21.8383 12C21.8383 13.7458 21.9828 17.4999 21.3564 19.0744Z" fill="black"/>
</svg>
