<svg width="24" height="24" viewBox="0 0 24 24" fill="none" xmlns="http://www.w3.org/2000/svg">
<g clip-path="url(#clip0_12665_588)">
<path d="M8.82075 4.64902C8.82075 5.25383 8.82075 7.95334 8.82075 7.95334H6.3999V11.9939H8.82075V24.0009H13.7937V11.9942H17.1308C17.1308 11.9942 17.4433 10.0568 17.5948 7.93844C17.1604 7.93844 13.8125 7.93844 13.8125 7.93844C13.8125 7.93844 13.8125 5.58779 13.8125 5.17577C13.8125 4.76285 14.3547 4.20743 14.8906 4.20743C15.4255 4.20743 16.5544 4.20743 17.6 4.20743C17.6 3.6573 17.6 1.7565 17.6 0.00100709C16.2042 0.00100709 14.6161 0.00100709 13.9161 0.00100709C8.69782 0.000728099 8.82075 4.04527 8.82075 4.64902Z" fill="black"/>
</g>
<defs>
<clipPath id="clip0_12665_588">
<rect width="24" height="24" fill="white"/>
</clipPath>
</defs>
</svg>
