<svg width="81" height="76" viewBox="0 0 81 76" fill="none" xmlns="http://www.w3.org/2000/svg">
<path d="M44.6163 74.9997L41.6893 69.5588M15.6391 21.135L22.9565 34.7372M22.9565 34.7372L26.3149 23.3114M22.9565 34.7372L11.5721 31.4727M22.9565 34.7372L29.3959 46.7071M29.3959 46.7071L33.9405 29.2963M29.3959 46.7071L14.1139 42.3544M29.3959 46.7071L37.0061 60.8534M37.0061 60.8534L43.0912 38.0017M37.0061 60.8534L15.6391 54.8685M37.0061 60.8534L41.6893 69.5588M41.6893 69.5588C63.7882 40.3041 67.4409 24.5606 5.97998 1.54785" stroke="#344F10"/>
<path d="M5.96631 1C-7.88296 67.0958 8.26651 70.6453 41.5665 69.5591M55.2924 47.7956L57.3258 44.6148M68.51 27.1203L61.9012 37.4579M61.9012 37.4579H70.5435M61.9012 37.4579L59.3593 29.2966M61.9012 37.4579L57.3258 44.6148M57.3258 44.6148H68.51M57.3258 44.6148L51.7337 54.8688L64.9514 55.9569" stroke="#344F10"/>
<path d="M44.1084 66.2944C74.9692 65.8643 86.6692 59.3002 76.3173 13.0591" stroke="#344F10"/>
<path d="M76.6441 13.5181C65.4846 16.1016 59.686 18.3177 52.2422 27.1203" stroke="#344F10"/>
</svg>
