<svg width="64" height="62" viewBox="0 0 64 62" fill="none" xmlns="http://www.w3.org/2000/svg">
<path d="M10.2427 54.3898H1V52.3559C1.51149 16.5776 39.707 20.2084 44.4004 36.5932C47.8675 36.3626 48.992 35.7229 50.0264 32.5254C52.5617 31.2458 54.116 31.2033 55.6524 32.5254C57.1111 28.2279 57.8383 26.2299 58.8672 23.8813H61.6802L58.8672 34.5593C67.2734 49.2548 61.1312 53.7123 55.6524 54.3898C51.8751 54.5469 48.4822 54.5378 44.4004 54.3898M10.2427 54.3898C8.96517 56.9702 8.89509 58.4207 10.2427 61H31.541C37.1224 59.7307 39.9638 58.3476 44.4004 54.3898M10.2427 54.3898H44.4004" stroke="#344F10"/>
<path d="M9.84082 29.983L11.8501 23.3729M11.8501 23.3729L7.83154 12.1864M11.8501 23.3729L17.4761 25.4067L21.0928 19.8135M7.83154 12.1864L9.84082 5.06776M7.83154 12.1864L13.8594 9.64404M21.0928 19.8135V9.64404M21.0928 19.8135L26.3169 24.8983M21.0928 9.64404L25.1113 2.52539M21.0928 9.64404H27.1206" stroke="#344F10"/>
<path d="M54.045 39.644L55.8533 42.4406M57.6617 45.2372L55.8533 42.4406M55.8533 42.4406L57.6617 39.644M55.8533 42.4406L53.2412 45.2372M33.5503 38.1185H25.915V43.7118H33.5503V48.288H15.0649V32.0168L34.354 33.0338L33.5503 38.1185Z" stroke="#344F10"/>
<path d="M50.0264 32.5255L51.3659 24.3899H54.0449V31.7015" stroke="#344F10"/>
<path d="M52.4374 16.7627C53.3266 15.0663 52.8718 14.1826 50.83 12.6949C50.1848 11.1102 50.7313 10.2203 52.4374 8.62712C53.0637 7.1773 52.6477 6.27111 50.83 4.55932C50.3924 2.77976 50.7354 2.01632 52.4374 1" stroke="#344F10"/>
<path d="M60.0728 17.2712C60.8049 15.4856 60.5928 14.4838 58.4654 12.6949C58.0218 11.5079 58.2126 10.6748 60.0728 8.62712C60.1465 7.03999 59.9789 6.15235 58.4654 4.55932C58.4035 2.7163 58.6727 1.87971 60.0728 1" stroke="#344F10"/>
<path d="M28.3262 38.6272V43.7119" stroke="#344F10"/>
<path d="M11.0464 39.644L7.83154 46.2542" stroke="#344F10"/>
<path d="M39.0781 39.6441C39.0781 40.3265 38.659 40.6695 38.3726 40.6695C38.0862 40.6695 37.667 40.3265 37.667 39.6441C37.667 38.9617 38.0862 38.6187 38.3726 38.6187C38.659 38.6187 39.0781 38.9617 39.0781 39.6441Z" stroke="#344F10"/>
</svg>
