<svg width="100" height="85" viewBox="0 0 100 85" fill="none" xmlns="http://www.w3.org/2000/svg">
<path d="M75.8761 14.4104L70.6842 18.1179C56.6754 -0.456073 49.0881 -10.3675 24.9009 22.7522L41.8926 32.9477C44.3077 24.9759 46.3404 20.9144 51.3325 14.4104L56.9964 25.5328L51.3325 29.7037C58.1838 30.3523 61.8531 30.4371 67.8522 29.7037C71.9187 24.8725 73.7952 21.6649 75.8761 14.4104Z" stroke="#344F10"/>
<path d="M63.9289 76.327L63.1438 69.9942C86.1423 66.5214 98.4681 64.5698 80.8819 27.5176L63.8262 37.6056C69.6821 43.5276 72.2833 47.2503 75.6215 54.7396L63.1477 54.4226L62.1802 47.4539C58.3461 53.171 56.5235 56.3579 54.3102 61.9839C56.6191 67.8621 58.5443 71.0407 63.9289 76.327Z" stroke="#344F10"/>
<path d="M11.3002 34.7997L17.2174 37.1833C9.10271 58.989 4.83272 70.7193 45.7532 73.2977L45.2031 53.4841C37.1864 55.7362 32.6705 56.2071 24.5043 55.4965L30.8294 44.7367L37.391 47.269C34.2517 41.1426 32.3492 38.0027 28.5037 33.3385C22.245 32.5085 18.5326 32.6517 11.3002 34.7997Z" stroke="#344F10"/>
</svg>
