<svg width="24" height="24" viewBox="0 0 24 24" fill="none" xmlns="http://www.w3.org/2000/svg">
<g clip-path="url(#clip0_12665_559)">
<path d="M17.5034 0H6.49657C2.9143 0 0 2.9143 0 6.49657V17.5036C0 21.0857 2.9143 24 6.49657 24H17.5036C21.0857 24 24 21.0857 24 17.5036V6.49657C24 2.9143 21.0857 0 17.5034 0V0ZM12 18.5623C8.38145 18.5623 5.43767 15.6185 5.43767 12C5.43767 8.38145 8.38145 5.43767 12 5.43767C15.6185 5.43767 18.5623 8.38145 18.5623 12C18.5623 15.6185 15.6185 18.5623 12 18.5623ZM18.7192 6.98528C17.6499 6.98528 16.7801 6.11553 16.7801 5.04619C16.7801 3.97686 17.6499 3.10693 18.7192 3.10693C19.7885 3.10693 20.6585 3.97686 20.6585 5.04619C20.6585 6.11553 19.7885 6.98528 18.7192 6.98528Z" fill="black"/>
<path d="M12.0001 6.84465C9.15753 6.84465 6.84473 9.15727 6.84473 12C6.84473 14.8425 9.15753 17.1553 12.0001 17.1553C14.8428 17.1553 17.1554 14.8425 17.1554 12C17.1554 9.15727 14.8428 6.84465 12.0001 6.84465Z" fill="black"/>
<path d="M18.7191 4.51408C18.4258 4.51408 18.187 4.75285 18.187 5.04619C18.187 5.33952 18.4258 5.57829 18.7191 5.57829C19.0126 5.57829 19.2514 5.3397 19.2514 5.04619C19.2514 4.75267 19.0126 4.51408 18.7191 4.51408Z" fill="black"/>
</g>
<defs>
<clipPath id="clip0_12665_559">
<rect width="24" height="24" fill="white"/>
</clipPath>
</defs>
</svg>
