<?xml version="1.0" standalone="no"?>
<!DOCTYPE svg PUBLIC "-//W3C//DTD SVG 20010904//EN"
 "http://www.w3.org/TR/2001/REC-SVG-20010904/DTD/svg10.dtd">
<svg version="1.0" xmlns="http://www.w3.org/2000/svg"
 width="192.000000pt" height="192.000000pt" viewBox="0 0 192.000000 192.000000"
 preserveAspectRatio="xMidYMid meet">

<g transform="translate(0.000000,192.000000) scale(0.100000,-0.100000)"
fill="#1a5a4c" stroke="none">
<path d="M226 1778 c4 -6 54 -72 111 -147 60 -79 101 -142 98 -151 -2 -8 -65
-280 -139 -605 -74 -324 -142 -619 -150 -655 -23 -98 -31 -91 101 -88 l117 3
126 557 c69 307 127 558 130 558 3 0 194 -251 426 -558 l421 -557 131 -3 132
-3 0 831 0 831 -117 -3 -118 -3 -5 -647 -5 -648 -484 650 -485 650 -149 0
c-111 0 -146 -3 -141 -12z"/>
</g>
</svg>
