<svg width="15" height="16" viewBox="0 0 15 16" fill="none" xmlns="http://www.w3.org/2000/svg">
<path d="M7.26129 0V6.54206H6.08696L3.00543 2.57009V6.54206H1.5927V0H2.77586L5.84856 3.97196V0H7.26129Z" fill="#0F0E08"/>
<path d="M12.7941 5.14019H9.92445L9.37702 6.54206H7.9113L10.6661 0H12.0789L14.8425 6.54206H13.3415L12.7941 5.14019ZM12.3438 3.99065L11.3637 1.48598L10.3836 3.99065H12.3438Z" fill="#0F0E08"/>
<path d="M6.46698 15.8879L6.45815 11.9626L4.63925 15.1963H3.99469L2.18463 12.0467V15.8879H0.842529V9.34579H2.02569L4.33905 13.4112L6.61708 9.34579H7.79142L7.80907 15.8879H6.46698Z" fill="#0F0E08"/>
<path d="M12.0215 16C11.1385 16 10.4498 15.7414 9.95535 15.2243C9.46678 14.7072 9.2225 13.9688 9.2225 13.0093V9.34579H10.6529V12.9533C10.6529 14.1246 11.112 14.7103 12.0303 14.7103C12.4777 14.7103 12.8191 14.5701 13.0545 14.2897C13.29 14.0031 13.4077 13.5576 13.4077 12.9533V9.34579H14.8205V13.0093C14.8205 13.9688 14.5732 14.7072 14.0788 15.2243C13.5902 15.7414 12.9044 16 12.0215 16Z" fill="#0F0E08"/>
</svg>
