<svg width="129" height="50" viewBox="0 0 129 50" fill="none" xmlns="http://www.w3.org/2000/svg">
<path d="M15.39 38.965L14.6618 39.6504L14.6722 39.6614L14.6829 39.6721L15.39 38.965ZM18.47 39.845H19.47V38.845H18.47V39.845ZM18.47 41L18.433 41.9993L19.47 42.0377V41H18.47ZM2.96 40.945L2.93298 39.9453L2.92431 39.9456L2.96 40.945ZM1.42 41H0.42V42.0364L1.45569 41.9994L1.42 41ZM1.42 39.845V38.845H0.42V39.845H1.42ZM5.27 38.855L4.67 38.055L4.66178 38.0612L4.65369 38.0675L5.27 38.855ZM6.095 18.065L5.1505 18.3935L5.15931 18.4188L5.16945 18.4436L6.095 18.065ZM4.555 16.415L4.18361 17.3435L4.20396 17.3516L4.22465 17.3589L4.555 16.415ZM1.2 15.975H0.2V16.975H1.2V15.975ZM1.2 14.765L1.17702 13.7653L0.2 13.7877V14.765H1.2ZM9.065 14.05L9.25775 15.0312L9.26615 15.0296L9.27453 15.0278L9.065 14.05ZM14.51 11.96H15.51V10.1868L13.9926 11.1043L14.51 11.96ZM13.51 35.665C13.51 37.3043 13.8028 38.7376 14.6618 39.6504L16.1182 38.2796C15.8039 37.9457 15.51 37.179 15.51 35.665H13.51ZM14.6829 39.6721C15.5575 40.5467 16.9256 40.845 18.47 40.845V38.845C17.081 38.845 16.3959 38.5566 16.0971 38.2579L14.6829 39.6721ZM17.47 39.845V41H19.47V39.845H17.47ZM18.507 40.0007C14.5526 39.8542 12.0024 39.78 10.88 39.78V41.78C11.9576 41.78 14.4674 41.8524 18.433 41.9993L18.507 40.0007ZM10.88 39.78C9.65388 39.78 6.99959 39.8355 2.93298 39.9454L2.98702 41.9446C7.06041 41.8345 9.68612 41.78 10.88 41.78V39.78ZM2.92431 39.9456L1.38431 40.0006L1.45569 41.9994L2.99569 41.9444L2.92431 39.9456ZM2.42 41V39.845H0.42V41H2.42ZM1.42 40.845C3.24037 40.845 4.7883 40.5018 5.88631 39.6425L4.65369 38.0675C4.06503 38.5282 3.0463 38.845 1.42 38.845V40.845ZM5.87 39.655C7.11355 38.7223 7.59 37.164 7.59 35.335H5.59C5.59 36.8793 5.18646 37.6677 4.67 38.055L5.87 39.655ZM7.59 35.335V21.915H5.59V35.335H7.59ZM7.59 21.915C7.59 20.1303 7.42805 18.6825 7.02055 17.6864L5.16945 18.4436C5.42195 19.0609 5.59 20.1797 5.59 21.915H7.59ZM7.0395 17.7365C6.66284 16.6536 5.95169 15.8444 4.88535 15.4711L4.22465 17.3589C4.62497 17.499 4.9405 17.7897 5.1505 18.3935L7.0395 17.7365ZM4.92639 15.4865C4.01125 15.1205 2.73671 14.975 1.2 14.975V16.975C2.66996 16.975 3.63208 17.1229 4.18361 17.3435L4.92639 15.4865ZM2.2 15.975V14.765H0.2V15.975H2.2ZM1.22298 15.7647C4.44369 15.6907 7.1275 15.4497 9.25775 15.0312L8.87226 13.0688C6.89584 13.457 4.33631 13.6926 1.17702 13.7653L1.22298 15.7647ZM9.27453 15.0278C11.4216 14.5677 13.3433 13.834 15.0274 12.8157L13.9926 11.1043C12.5233 11.9927 10.8151 12.6523 8.85547 13.0722L9.27453 15.0278ZM13.51 11.96V35.665H15.51V11.96H13.51ZM47.3897 39.295L47.1472 40.2651L48.5048 40.6045L48.3861 39.2102L47.3897 39.295ZM41.8897 39.02L41.9124 38.0203L40.8897 37.997V39.02H41.8897ZM41.8897 48.755V49.755H42.8897V48.755H41.8897ZM35.5097 48.755H34.5097V49.755H35.5097V48.755ZM35.5097 39.02H36.5097V38.02H35.5097V39.02ZM20.4947 39.02H19.4947V40.02H20.4947V39.02ZM20.4947 37.865L19.7088 37.2466L19.4947 37.5187V37.865H20.4947ZM41.0097 11.795V10.795H40.5241L40.2238 11.1766L41.0097 11.795ZM41.8897 11.795H42.8897V10.795H41.8897V11.795ZM41.8897 33.355H40.8897V34.355H41.8897V33.355ZM44.5297 33.135L44.255 32.1735L44.2453 32.1763L44.2356 32.1792L44.5297 33.135ZM46.0147 30.88V29.88H45.1602L45.0269 30.724L46.0147 30.88ZM47.1697 30.88H48.1697V29.88H47.1697V30.88ZM35.5097 33.355V34.355H36.5097V33.355H35.5097ZM35.5097 20.54H36.5097V17.6226L34.72 19.9265L35.5097 20.54ZM25.5547 33.355L24.765 32.7415L23.5116 34.355H25.5547V33.355ZM47.6322 38.3249C47.2956 38.2407 46.6136 38.1889 45.7346 38.145C44.8046 38.0985 43.5291 38.057 41.9124 38.0203L41.867 40.0197C43.4769 40.0563 44.7315 40.0973 45.6348 40.1425C46.0869 40.1651 46.444 40.1884 46.7101 40.212C46.8431 40.2238 46.9478 40.2352 47.0268 40.2458C47.0661 40.251 47.0961 40.2557 47.1181 40.2596C47.1411 40.2636 47.1495 40.2657 47.1472 40.2651L47.6322 38.3249ZM40.8897 39.02V48.755H42.8897V39.02H40.8897ZM41.8897 47.755H35.5097V49.755H41.8897V47.755ZM36.5097 48.755V39.02H34.5097V48.755H36.5097ZM35.5097 38.02H20.4947V40.02H35.5097V38.02ZM21.4947 39.02V37.865H19.4947V39.02H21.4947ZM21.2805 38.4834L41.7955 12.4134L40.2238 11.1766L19.7088 37.2466L21.2805 38.4834ZM41.0097 12.795H41.8897V10.795H41.0097V12.795ZM40.8897 11.795V33.355H42.8897V11.795H40.8897ZM41.8897 34.355H42.3297V32.355H41.8897V34.355ZM42.3297 34.355C43.3415 34.355 44.1985 34.2832 44.8238 34.0908L44.2356 32.1792C43.9076 32.2802 43.2978 32.355 42.3297 32.355V34.355ZM44.8044 34.0965C45.466 33.9075 46.0913 33.5493 46.4488 32.9056L44.7005 31.9344C44.6914 31.9507 44.6201 32.0692 44.255 32.1735L44.8044 34.0965ZM46.4488 32.9056C46.7189 32.4195 46.8872 31.7659 47.0025 31.036L45.0269 30.724C44.9222 31.3874 44.7971 31.7605 44.7005 31.9344L46.4488 32.9056ZM46.0147 31.88H47.1697V29.88H46.0147V31.88ZM46.1697 30.88C46.1697 34.769 46.2427 37.6107 46.3933 39.3798L48.3861 39.2102C48.2433 37.5326 48.1697 34.7643 48.1697 30.88H46.1697ZM36.5097 33.355V20.54H34.5097V33.355H36.5097ZM34.72 19.9265L24.765 32.7415L26.3444 33.9685L36.2994 21.1535L34.72 19.9265ZM25.5547 34.355H35.5097V32.355H25.5547V34.355ZM59.9473 34.455L59.273 35.1935L59.282 35.2017L59.2911 35.2096L59.9473 34.455ZM59.9473 40.67L60.6035 41.4246L60.6126 41.4167L60.6216 41.4085L59.9473 40.67ZM53.1273 40.67L52.453 41.4085L52.462 41.4167L52.4711 41.4246L53.1273 40.67ZM53.1273 34.455L53.7835 35.2096L53.7926 35.2017L53.8016 35.1935L53.1273 34.455ZM56.5373 34.3C57.7833 34.3 58.6572 34.6312 59.273 35.1935L60.6216 33.7165C59.5507 32.7388 58.1513 32.3 56.5373 32.3V34.3ZM59.2911 35.2096C59.876 35.7182 60.2123 36.4467 60.2123 37.535H62.2123C62.2123 35.9833 61.7053 34.6585 60.6035 33.7004L59.2911 35.2096ZM60.2123 37.535C60.2123 38.6221 59.8758 39.3812 59.273 39.9315L60.6216 41.4085C61.7055 40.4188 62.2123 39.0879 62.2123 37.535H60.2123ZM59.2911 39.9154C58.676 40.4503 57.7954 40.77 56.5373 40.77V42.77C58.1393 42.77 59.532 42.3564 60.6035 41.4246L59.2911 39.9154ZM56.5373 40.77C55.2793 40.77 54.3986 40.4503 53.7835 39.9154L52.4711 41.4246C53.5426 42.3564 54.9354 42.77 56.5373 42.77V40.77ZM53.8016 39.9315C53.1988 39.3812 52.8623 38.6221 52.8623 37.535H50.8623C50.8623 39.0879 51.3691 40.4188 52.453 41.4085L53.8016 39.9315ZM52.8623 37.535C52.8623 36.4467 53.1986 35.7182 53.7835 35.2096L52.4711 33.7004C51.3693 34.6585 50.8623 35.9833 50.8623 37.535H52.8623ZM53.8016 35.1935C54.4174 34.6312 55.2913 34.3 56.5373 34.3V32.3C54.9233 32.3 53.5239 32.7388 52.453 33.7165L53.8016 35.1935ZM95.0115 18.725L94.1414 19.2181L94.1477 19.2289L95.0115 18.725ZM94.9565 34.235L94.0849 33.7447L94.0792 33.7552L94.9565 34.235ZM89.4565 39.79L89.9468 40.6616L89.9512 40.6591L89.4565 39.79ZM73.6715 39.955L73.2017 40.8377L73.6715 39.955ZM68.3365 34.84L69.2003 34.3361L68.3365 34.84ZM68.3365 19.33L67.4649 18.8397L67.4592 18.8502L68.3365 19.33ZM73.8365 13.83L74.3268 14.7016L74.337 14.6957L73.8365 13.83ZM77.9615 14.49L78.7036 15.1603L77.9615 14.49ZM75.5415 19.44L74.5763 19.1782L74.5734 19.1896L75.5415 19.44ZM76.6965 37.425L75.8317 37.9271L75.8365 37.9354L75.8415 37.9436L76.6965 37.425ZM85.3315 39.075L84.5789 38.4165L84.5774 38.4182L85.3315 39.075ZM87.7515 34.125L88.7155 34.3909L88.7167 34.3867L87.7515 34.125ZM86.5965 16.14L85.7353 16.6483L85.7415 16.6586L86.5965 16.14ZM81.9765 12.795C84.7301 12.795 87.1502 13.3689 89.2617 14.4927L90.2014 12.7273C87.7661 11.4311 85.0163 10.795 81.9765 10.795V12.795ZM89.2617 14.4927C91.3706 15.6152 92.9903 17.1865 94.1415 19.218L95.8815 18.232C94.5394 15.8635 92.6391 14.0248 90.2014 12.7273L89.2617 14.4927ZM94.1477 19.2289C95.3313 21.2578 95.9365 23.6098 95.9365 26.315H97.9365C97.9365 23.3002 97.2584 20.5922 95.8753 18.2211L94.1477 19.2289ZM95.9365 26.315C95.9365 29.0924 95.3133 31.5609 94.0849 33.7447L95.8281 34.7253C97.2397 32.2157 97.9365 29.4043 97.9365 26.315H95.9365ZM94.0792 33.7552C92.8872 35.9348 91.1883 37.6536 88.9618 38.9209L89.9512 40.6591C92.4914 39.2131 94.4592 37.2285 95.8339 34.7148L94.0792 33.7552ZM88.9663 38.9184C86.7879 40.1437 84.2659 40.77 81.3715 40.77V42.77C84.5638 42.77 87.4318 42.0763 89.9468 40.6616L88.9663 38.9184ZM81.3715 40.77C78.657 40.77 76.2546 40.197 74.1414 39.0723L73.2017 40.8377C75.6351 42.133 78.3661 42.77 81.3715 42.77V40.77ZM74.1414 39.0723C72.0301 37.9485 70.389 36.3738 69.2003 34.3361L67.4727 35.3439C68.8508 37.7062 70.7663 39.5415 73.2017 40.8377L74.1414 39.0723ZM69.2003 34.3361C68.0179 32.3091 67.4115 29.9394 67.4115 27.195H65.4115C65.4115 30.244 66.0885 32.9709 67.4727 35.3439L69.2003 34.3361ZM67.4115 27.195C67.4115 24.4517 68.0176 21.9973 69.2139 19.8098L67.4592 18.8502C66.0888 21.356 65.4115 24.1449 65.4115 27.195H67.4115ZM69.2081 19.8203C70.4383 17.6332 72.1397 15.9318 74.3268 14.7016L73.3463 12.9584C70.84 14.3682 68.8747 16.3334 67.465 18.8397L69.2081 19.8203ZM74.337 14.6957C76.5118 13.4385 79.0479 12.795 81.9765 12.795V10.795C78.7452 10.795 75.8546 11.5082 73.336 12.9643L74.337 14.6957ZM81.4815 11.785C79.8324 11.785 78.4023 12.5101 77.2194 13.8197L78.7036 15.1603C79.5741 14.1965 80.4907 13.785 81.4815 13.785V11.785ZM77.2194 13.8197C76.0499 15.1146 75.1866 16.9282 74.5764 19.1783L76.5067 19.7017C77.0698 17.6251 77.8198 16.1388 78.7036 15.1603L77.2194 13.8197ZM74.5734 19.1896C73.9965 21.4201 73.7165 24.0385 73.7165 27.03H75.7165C75.7165 24.1548 75.9865 21.7132 76.5097 19.6904L74.5734 19.1896ZM73.7165 27.03C73.7165 31.7455 74.3785 35.4244 75.8317 37.9271L77.5613 36.9229C76.3745 34.8789 75.7165 31.6278 75.7165 27.03H73.7165ZM75.8415 37.9436C77.3268 40.3924 79.3362 41.78 81.8665 41.78V39.78C80.2168 39.78 78.7795 38.9309 77.5515 36.9064L75.8415 37.9436ZM81.8665 41.78C83.5184 41.78 84.9357 41.0521 86.0856 39.7318L84.5774 38.4182C83.7474 39.3712 82.8547 39.78 81.8665 39.78V41.78ZM86.0841 39.7335C87.2422 38.4099 88.1043 36.6065 88.7155 34.3909L86.7875 33.8591C86.2254 35.8969 85.4742 37.3934 84.5789 38.4165L86.0841 39.7335ZM88.7167 34.3867C89.3323 32.1165 89.6315 29.4762 89.6315 26.48H87.6315C87.6315 29.3505 87.3441 31.8068 86.7864 33.8633L88.7167 34.3867ZM89.6315 26.48C89.6315 21.7639 88.9513 18.094 87.4515 15.6214L85.7415 16.6586C86.9551 18.6593 87.6315 21.8828 87.6315 26.48H89.6315ZM87.4577 15.6317C86.0086 13.1763 84.0149 11.785 81.4815 11.785V13.785C83.1281 13.785 84.5444 14.6304 85.7353 16.6483L87.4577 15.6317ZM118.471 17.9L118.003 17.0162L116.703 17.7044L117.821 18.6601L118.471 17.9ZM123.586 22.52L122.879 23.2271L122.89 23.2385L122.902 23.2495L123.586 22.52ZM126.666 26.48L125.797 26.9762L125.803 26.9852L126.666 26.48ZM126.226 36.765L125.424 36.168L125.419 36.1741L125.415 36.1802L126.226 36.765ZM108.131 40.725L107.778 41.6606L107.785 41.6635L107.793 41.6663L108.131 40.725ZM103.456 37.48L102.673 38.1022L102.678 38.1083L102.683 38.1143L103.456 37.48ZM104.171 26.15L104.908 26.8257L104.171 26.15ZM110.716 21.695L111.118 22.6103L112.576 21.9692L111.366 20.9349L110.716 21.695ZM105.436 16.195L104.62 16.773L104.626 16.7811L105.436 16.195ZM105.161 5.36L105.948 5.97688V5.97688L105.161 5.36ZM109.396 2.335L109.747 3.27133L109.755 3.26814L109.764 3.26481L109.396 2.335ZM122.981 3.435L122.402 4.25079L122.412 4.25773L122.981 3.435ZM124.081 13.83L123.337 13.1621L123.336 13.1632L124.081 13.83ZM111.871 3.545L111.116 2.88881L111.114 2.89138L111.871 3.545ZM112.531 11.96L111.72 12.5448L111.724 12.5509L111.729 12.557L112.531 11.96ZM117.591 17.185L116.936 17.9407L117.772 18.6653L118.409 17.7605L117.591 17.185ZM119.131 13.61L120.104 13.8405L120.105 13.8349L119.131 13.61ZM118.306 4.205L117.47 4.75418L117.479 4.76808L117.489 4.78168L118.306 4.205ZM118.856 39.185L119.588 39.8664L119.593 39.8602L119.599 39.854L118.856 39.185ZM119.131 30.275L119.996 29.774L119.131 30.275ZM116.271 26.59L116.966 25.871L116.271 26.59ZM111.541 22.41L112.184 21.644L111.462 21.0387L110.815 21.7223L111.541 22.41ZM110.001 38.195L109.121 38.6713L109.127 38.6823L109.134 38.6931L110.001 38.195ZM117.821 18.6601C120.088 20.5983 121.77 22.1183 122.879 23.2271L124.293 21.8129C123.128 20.6484 121.4 19.0884 119.121 17.1399L117.821 18.6601ZM122.902 23.2495C123.995 24.2747 124.962 25.5139 125.798 26.9761L127.534 25.9839C126.61 24.3661 125.523 22.9653 124.27 21.7905L122.902 23.2495ZM125.803 26.9852C126.592 28.3336 126.986 29.7906 126.986 31.375H128.986C128.986 29.4394 128.499 27.6331 127.529 25.9748L125.803 26.9852ZM126.986 31.375C126.986 33.1826 126.465 34.7687 125.424 36.168L127.028 37.362C128.333 35.608 128.986 33.6007 128.986 31.375H126.986ZM125.415 36.1802C124.399 37.5887 122.959 38.7115 121.047 39.5309L121.835 41.3691C124.029 40.4285 125.779 39.0946 127.037 37.3498L125.415 36.1802ZM121.047 39.5309C119.135 40.3501 116.962 40.77 114.511 40.77V42.77C117.193 42.77 119.64 42.3099 121.835 41.3691L121.047 39.5309ZM114.511 40.77C112.302 40.77 110.291 40.4372 108.468 39.7837L107.793 41.6663C109.857 42.4062 112.099 42.77 114.511 42.77V40.77ZM108.484 39.7894C106.684 39.1102 105.278 38.1241 104.229 36.8457L102.683 38.1143C103.98 39.6959 105.691 40.8731 107.778 41.6606L108.484 39.7894ZM104.239 36.8578C103.255 35.6199 102.751 34.1392 102.751 32.365H100.751C100.751 34.5508 101.384 36.4801 102.673 38.1022L104.239 36.8578ZM102.751 32.365C102.751 30.2323 103.463 28.4017 104.908 26.8257L103.434 25.4743C101.652 27.4183 100.751 29.731 100.751 32.365H102.751ZM104.908 26.8257C106.407 25.1907 108.464 23.7784 111.118 22.6103L110.313 20.7797C107.468 22.0316 105.161 23.5893 103.434 25.4743L104.908 26.8257ZM111.366 20.9349C109.13 19.024 107.432 17.248 106.246 15.6089L104.626 16.7811C105.933 18.5886 107.755 20.4794 110.066 22.4551L111.366 20.9349ZM106.252 15.617C105.127 14.0295 104.566 12.2524 104.566 10.255H102.566C102.566 12.6576 103.251 14.8405 104.62 16.773L106.252 15.617ZM104.566 10.255C104.566 8.54684 105.037 7.1387 105.948 5.97688L104.374 4.74312C103.158 6.29464 102.566 8.14983 102.566 10.255H104.566ZM105.948 5.97688C106.888 4.77764 108.143 3.87291 109.747 3.27133L109.045 1.39867C107.129 2.11709 105.56 3.22902 104.374 4.74312L105.948 5.97688ZM109.764 3.26481C111.393 2.61989 113.21 2.29 115.226 2.29V0.289996C112.989 0.289996 110.918 0.656766 109.028 1.40519L109.764 3.26481ZM115.226 2.29C118.229 2.29 120.596 2.96992 122.402 4.25073L123.559 2.61927C121.332 1.04008 118.529 0.289996 115.226 0.289996V2.29ZM122.412 4.25773C124.178 5.47785 125.006 7.03155 125.006 8.99H127.006C127.006 6.32845 125.817 4.17881 123.549 2.61227L122.412 4.25773ZM125.006 8.99C125.006 10.5221 124.468 11.9017 123.337 13.1621L124.825 14.4979C126.261 12.8983 127.006 11.0513 127.006 8.99H125.006ZM123.336 13.1632C122.197 14.4355 120.439 15.7263 118.003 17.0162L118.939 18.7838C121.489 17.4337 123.471 16.0112 124.826 14.4968L123.336 13.1632ZM114.786 1.28C113.313 1.28 112.056 1.80747 111.116 2.88882L112.625 4.20118C113.152 3.59586 113.838 3.28 114.786 3.28V1.28ZM111.114 2.89138C110.217 3.92941 109.826 5.28675 109.826 6.845H111.826C111.826 5.61658 112.131 4.77392 112.628 4.19862L111.114 2.89138ZM109.826 6.845C109.826 8.90128 110.468 10.8087 111.72 12.5448L113.342 11.3752C112.32 9.95794 111.826 8.45539 111.826 6.845H109.826ZM111.729 12.557C112.96 14.2123 114.705 16.007 116.936 17.9407L118.246 16.4293C116.077 14.5497 114.448 12.8611 113.333 11.363L111.729 12.557ZM118.409 17.7605C119.191 16.6492 119.75 15.3354 120.104 13.8405L118.158 13.3795C117.852 14.6712 117.384 15.7408 116.773 16.6095L118.409 17.7605ZM120.105 13.8349C120.451 12.3371 120.626 10.8682 120.626 9.43H118.626C118.626 10.7051 118.471 12.0229 118.156 13.3851L120.105 13.8349ZM120.626 9.43C120.626 7.07843 120.166 5.10563 119.123 3.62831L117.489 4.78168C118.206 5.79769 118.626 7.30824 118.626 9.43H120.626ZM119.141 3.65582C118.118 2.0984 116.634 1.28 114.786 1.28V3.28C115.944 3.28 116.807 3.74493 117.47 4.75418L119.141 3.65582ZM114.786 41.78C116.731 41.78 118.373 41.1707 119.588 39.8664L118.124 38.5036C117.358 39.326 116.288 39.78 114.786 39.78V41.78ZM119.599 39.854C120.788 38.5329 121.341 36.8282 121.341 34.84H119.341C119.341 36.4451 118.903 37.6371 118.112 38.516L119.599 39.854ZM121.341 34.84C121.341 33.0186 120.893 31.3235 119.996 29.774L118.265 30.776C118.982 32.0132 119.341 33.3614 119.341 34.84H121.341ZM119.996 29.774C119.146 28.3046 118.136 27.002 116.966 25.871L115.576 27.309C116.606 28.3046 117.503 29.4587 118.265 30.776L119.996 29.774ZM116.966 25.871C115.841 24.7837 114.244 23.373 112.184 21.644L110.898 23.176C112.944 24.8936 114.5 26.2696 115.576 27.309L116.966 25.871ZM110.815 21.7223C108.605 24.0551 107.571 27.3238 107.571 31.375H109.571C109.571 27.6528 110.517 24.9449 112.267 23.0977L110.815 21.7223ZM107.571 31.375C107.571 34.2662 108.064 36.7189 109.121 38.6713L110.88 37.7187C110.031 36.1511 109.571 34.0571 109.571 31.375H107.571ZM109.134 38.6931C110.324 40.7651 112.274 41.78 114.786 41.78V39.78C112.897 39.78 111.658 39.0715 110.868 37.6969L109.134 38.6931Z" fill="#CD4D31"/>
</svg>
