<svg width="131" height="43" viewBox="0 0 131 43" fill="none" xmlns="http://www.w3.org/2000/svg">
<path d="M15.39 38.965L14.6618 39.6504L14.6722 39.6614L14.6829 39.6721L15.39 38.965ZM18.47 39.845H19.47V38.845H18.47V39.845ZM18.47 41L18.433 41.9993L19.47 42.0377V41H18.47ZM2.96 40.945L2.93298 39.9453L2.92431 39.9456L2.96 40.945ZM1.42 41H0.42V42.0364L1.45569 41.9994L1.42 41ZM1.42 39.845V38.845H0.42V39.845H1.42ZM5.27 38.855L4.67 38.055L4.66178 38.0612L4.65369 38.0675L5.27 38.855ZM6.095 18.065L5.1505 18.3935L5.15931 18.4188L5.16945 18.4436L6.095 18.065ZM4.555 16.415L4.18361 17.3435L4.20396 17.3516L4.22465 17.3589L4.555 16.415ZM1.2 15.975H0.2V16.975H1.2V15.975ZM1.2 14.765L1.17702 13.7653L0.2 13.7877V14.765H1.2ZM9.065 14.05L9.25775 15.0312L9.26615 15.0296L9.27453 15.0278L9.065 14.05ZM14.51 11.96H15.51V10.1868L13.9926 11.1043L14.51 11.96ZM13.51 35.665C13.51 37.3043 13.8028 38.7376 14.6618 39.6504L16.1182 38.2796C15.8039 37.9457 15.51 37.179 15.51 35.665H13.51ZM14.6829 39.6721C15.5575 40.5467 16.9256 40.845 18.47 40.845V38.845C17.081 38.845 16.3959 38.5566 16.0971 38.2579L14.6829 39.6721ZM17.47 39.845V41H19.47V39.845H17.47ZM18.507 40.0007C14.5526 39.8542 12.0024 39.78 10.88 39.78V41.78C11.9576 41.78 14.4674 41.8524 18.433 41.9993L18.507 40.0007ZM10.88 39.78C9.65388 39.78 6.99959 39.8355 2.93298 39.9454L2.98702 41.9446C7.06041 41.8345 9.68612 41.78 10.88 41.78V39.78ZM2.92431 39.9456L1.38431 40.0006L1.45569 41.9994L2.99569 41.9444L2.92431 39.9456ZM2.42 41V39.845H0.42V41H2.42ZM1.42 40.845C3.24037 40.845 4.7883 40.5018 5.88631 39.6425L4.65369 38.0675C4.06503 38.5282 3.0463 38.845 1.42 38.845V40.845ZM5.87 39.655C7.11355 38.7223 7.59 37.164 7.59 35.335H5.59C5.59 36.8793 5.18646 37.6677 4.67 38.055L5.87 39.655ZM7.59 35.335V21.915H5.59V35.335H7.59ZM7.59 21.915C7.59 20.1303 7.42805 18.6825 7.02055 17.6864L5.16945 18.4436C5.42195 19.0609 5.59 20.1797 5.59 21.915H7.59ZM7.0395 17.7365C6.66284 16.6536 5.95169 15.8444 4.88535 15.4711L4.22465 17.3589C4.62497 17.499 4.9405 17.7897 5.1505 18.3935L7.0395 17.7365ZM4.92639 15.4865C4.01125 15.1205 2.73671 14.975 1.2 14.975V16.975C2.66996 16.975 3.63208 17.1229 4.18361 17.3435L4.92639 15.4865ZM2.2 15.975V14.765H0.2V15.975H2.2ZM1.22298 15.7647C4.44369 15.6907 7.1275 15.4497 9.25775 15.0312L8.87226 13.0688C6.89584 13.457 4.33631 13.6926 1.17702 13.7653L1.22298 15.7647ZM9.27453 15.0278C11.4216 14.5677 13.3433 13.834 15.0274 12.8157L13.9926 11.1043C12.5233 11.9927 10.8151 12.6523 8.85547 13.0722L9.27453 15.0278ZM13.51 11.96V35.665H15.51V11.96H13.51ZM39.1397 17.9L38.6718 17.0162L37.3719 17.7044L38.4899 18.6601L39.1397 17.9ZM44.2547 22.52L43.5476 23.2271L43.559 23.2385L43.5707 23.2495L44.2547 22.52ZM47.3347 26.48L46.4664 26.9762L46.4717 26.9852L47.3347 26.48ZM46.8947 36.765L46.0925 36.168L46.0879 36.1741L46.0835 36.1802L46.8947 36.765ZM28.7997 40.725L28.4466 41.6606L28.4544 41.6635L28.4622 41.6663L28.7997 40.725ZM24.1247 37.48L23.3419 38.1022L23.3467 38.1083L23.3516 38.1143L24.1247 37.48ZM24.8397 26.15L25.5768 26.8257L24.8397 26.15ZM31.3847 21.695L31.7874 22.6103L33.2445 21.9692L32.0345 20.9349L31.3847 21.695ZM26.1047 16.195L25.2886 16.773L25.2945 16.7811L26.1047 16.195ZM25.8297 5.36L26.6167 5.97688L26.6167 5.97688L25.8297 5.36ZM30.0647 2.335L30.4158 3.27133L30.4243 3.26814L30.4327 3.26481L30.0647 2.335ZM43.6497 3.435L43.0712 4.25079L43.0813 4.25773L43.6497 3.435ZM44.7497 13.83L44.0054 13.1621L44.0044 13.1632L44.7497 13.83ZM32.5397 3.545L31.7851 2.88881L31.7829 2.89138L32.5397 3.545ZM33.1997 11.96L32.3885 12.5448L32.3929 12.5509L32.3975 12.557L33.1997 11.96ZM38.2597 17.185L37.6048 17.9407L38.4408 18.6653L39.0775 17.7605L38.2597 17.185ZM39.7997 13.61L40.7728 13.8405L40.7741 13.8349L39.7997 13.61ZM38.9747 4.205L38.139 4.75418L38.1481 4.76808L38.1577 4.78168L38.9747 4.205ZM39.5247 39.185L40.2566 39.8664L40.2623 39.8602L40.268 39.854L39.5247 39.185ZM39.7997 30.275L40.6651 29.774L39.7997 30.275ZM36.9397 26.59L37.6347 25.871H37.6347L36.9397 26.59ZM32.2097 22.41L32.8526 21.644L32.1313 21.0387L31.4837 21.7223L32.2097 22.41ZM30.6697 38.195L29.7904 38.6713L29.7964 38.6823L29.8026 38.6931L30.6697 38.195ZM38.4899 18.6601C40.7572 20.5983 42.4387 22.1183 43.5476 23.2271L44.9618 21.8129C43.7973 20.6484 42.0689 19.0884 39.7895 17.1399L38.4899 18.6601ZM43.5707 23.2495C44.6643 24.2747 45.6309 25.5139 46.4664 26.9761L48.2029 25.9839C47.2785 24.3661 46.1917 22.9653 44.9386 21.7905L43.5707 23.2495ZM46.4717 26.9852C47.261 28.3336 47.6547 29.7906 47.6547 31.375H49.6547C49.6547 29.4394 49.1684 27.6331 48.1977 25.9748L46.4717 26.9852ZM47.6547 31.375C47.6547 33.1826 47.1338 34.7687 46.0925 36.168L47.6969 37.362C49.0022 35.608 49.6547 33.6007 49.6547 31.375H47.6547ZM46.0835 36.1802C45.0681 37.5887 43.6276 38.7115 41.7158 39.5309L42.5036 41.3691C44.6984 40.4285 46.448 39.0946 47.7059 37.3498L46.0835 36.1802ZM41.7158 39.5309C39.8041 40.3501 37.631 40.77 35.1797 40.77V42.77C37.8618 42.77 40.3086 42.3099 42.5036 41.3691L41.7158 39.5309ZM35.1797 40.77C32.9711 40.77 30.9601 40.4372 29.1371 39.7837L28.4622 41.6663C30.5259 42.4062 32.7682 42.77 35.1797 42.77V40.77ZM29.1527 39.7894C27.3528 39.1102 25.9467 38.1241 24.8978 36.8457L23.3516 38.1143C24.6493 39.6959 26.3599 40.8731 28.4466 41.6606L29.1527 39.7894ZM24.9075 36.8578C23.9236 35.6199 23.4197 34.1392 23.4197 32.365H21.4197C21.4197 34.5508 22.0525 36.4801 23.3419 38.1022L24.9075 36.8578ZM23.4197 32.365C23.4197 30.2323 24.1322 28.4017 25.5768 26.8257L24.1025 25.4743C22.3205 27.4183 21.4197 29.731 21.4197 32.365H23.4197ZM25.5768 26.8257C27.0756 25.1907 29.1326 23.7784 31.7874 22.6103L30.982 20.7797C28.1368 22.0316 25.8304 23.5893 24.1025 25.4743L25.5768 26.8257ZM32.0345 20.9349C29.7991 19.024 28.1007 17.248 26.9149 15.6089L25.2945 16.7811C26.602 18.5886 28.4237 20.4794 30.7349 22.4551L32.0345 20.9349ZM26.9207 15.617C25.7963 14.0295 25.2347 12.2524 25.2347 10.255H23.2347C23.2347 12.6576 23.9198 14.8405 25.2887 16.773L26.9207 15.617ZM25.2347 10.255C25.2347 8.54684 25.7061 7.1387 26.6167 5.97688L25.0426 4.74312C23.8266 6.29464 23.2347 8.14983 23.2347 10.255H25.2347ZM26.6167 5.97688C27.5567 4.77764 28.8116 3.87291 30.4158 3.27133L29.7136 1.39867C27.7978 2.11709 26.2294 3.22902 25.0426 4.74312L26.6167 5.97688ZM30.4327 3.26481C32.062 2.61989 33.8785 2.29 35.8947 2.29V0.289996C33.6575 0.289996 31.5874 0.656766 29.6966 1.40519L30.4327 3.26481ZM35.8947 2.29C38.898 2.29 41.265 2.96992 43.0713 4.25073L44.2281 2.61927C42.0011 1.04008 39.1981 0.289996 35.8947 0.289996V2.29ZM43.0813 4.25773C44.8472 5.47785 45.6747 7.03155 45.6747 8.99H47.6747C47.6747 6.32845 46.4855 4.17881 44.2181 2.61227L43.0813 4.25773ZM45.6747 8.99C45.6747 10.5221 45.1366 11.9017 44.0054 13.1621L45.4939 14.4979C46.9295 12.8983 47.6747 11.0513 47.6747 8.99H45.6747ZM44.0044 13.1632C42.8661 14.4355 41.1084 15.7263 38.6718 17.0162L39.6076 18.7838C42.1577 17.4337 44.1399 16.0112 45.4949 14.4968L44.0044 13.1632ZM35.4547 1.28C33.9823 1.28 32.7254 1.80747 31.7851 2.88882L33.2943 4.20118C33.8207 3.59586 34.5071 3.28 35.4547 3.28V1.28ZM31.7829 2.89138C30.8864 3.92941 30.4947 5.28675 30.4947 6.845H32.4947C32.4947 5.61658 32.7997 4.77392 33.2965 4.19862L31.7829 2.89138ZM30.4947 6.845C30.4947 8.90128 31.1369 10.8087 32.3885 12.5448L34.0109 11.3752C32.9891 9.95794 32.4947 8.45539 32.4947 6.845H30.4947ZM32.3975 12.557C33.6293 14.2123 35.3735 16.007 37.6048 17.9407L38.9146 16.4293C36.7458 14.5497 35.1168 12.8611 34.0019 11.363L32.3975 12.557ZM39.0775 17.7605C39.8595 16.6492 40.4187 15.3354 40.7728 13.8405L38.8266 13.3795C38.5207 14.6712 38.0532 15.7408 37.4419 16.6095L39.0775 17.7605ZM40.7741 13.8349C41.1197 12.3371 41.2947 10.8682 41.2947 9.43H39.2947C39.2947 10.7051 39.1397 12.0229 38.8253 13.3851L40.7741 13.8349ZM41.2947 9.43C41.2947 7.07843 40.8345 5.10563 39.7917 3.62831L38.1577 4.78168C38.8749 5.79769 39.2947 7.30824 39.2947 9.43H41.2947ZM39.8104 3.65582C38.7869 2.0984 37.3034 1.28 35.4547 1.28V3.28C36.6127 3.28 37.4758 3.74493 38.139 4.75418L39.8104 3.65582ZM35.4547 41.78C37.3995 41.78 39.0423 41.1707 40.2566 39.8664L38.7928 38.5036C38.0271 39.326 36.9566 39.78 35.4547 39.78V41.78ZM40.268 39.854C41.457 38.5329 42.0097 36.8282 42.0097 34.84H40.0097C40.0097 36.4451 39.5724 37.6371 38.7814 38.516L40.268 39.854ZM42.0097 34.84C42.0097 33.0186 41.5622 31.3235 40.6651 29.774L38.9343 30.776C39.6505 32.0132 40.0097 33.3614 40.0097 34.84H42.0097ZM40.6651 29.774C39.8145 28.3046 38.8047 27.002 37.6347 25.871L36.2447 27.309C37.2746 28.3046 38.1716 29.4587 38.9343 30.776L40.6651 29.774ZM37.6347 25.871C36.5099 24.7837 34.9127 23.373 32.8526 21.644L31.5668 23.176C33.6134 24.8936 35.1694 26.2696 36.2447 27.309L37.6347 25.871ZM31.4837 21.7223C29.2736 24.0551 28.2397 27.3238 28.2397 31.375H30.2397C30.2397 27.6528 31.1857 24.9449 32.9356 23.0977L31.4837 21.7223ZM28.2397 31.375C28.2397 34.2662 28.7329 36.7189 29.7904 38.6713L31.549 37.7187C30.6998 36.1511 30.2397 34.0571 30.2397 31.375H28.2397ZM29.8026 38.6931C30.9929 40.7651 32.943 41.78 35.4547 41.78V39.78C33.5663 39.78 32.3265 39.0715 31.5368 37.6969L29.8026 38.6931ZM61.7198 34.455L61.0455 35.1935L61.0544 35.2017L61.0636 35.2096L61.7198 34.455ZM61.7198 40.67L62.3759 41.4246L62.3851 41.4167L62.394 41.4085L61.7198 40.67ZM54.8998 40.67L54.2255 41.4085L54.2344 41.4167L54.2436 41.4246L54.8998 40.67ZM54.8998 34.455L55.5559 35.2096L55.5651 35.2017L55.574 35.1935L54.8998 34.455ZM58.3098 34.3C59.5558 34.3 60.4297 34.6312 61.0455 35.1935L62.394 33.7165C61.3232 32.7388 59.9237 32.3 58.3098 32.3V34.3ZM61.0636 35.2096C61.6484 35.7182 61.9848 36.4467 61.9848 37.535H63.9848C63.9848 35.9833 63.4778 34.6585 62.3759 33.7004L61.0636 35.2096ZM61.9848 37.535C61.9848 38.6221 61.6483 39.3812 61.0455 39.9315L62.394 41.4085C63.4779 40.4188 63.9848 39.0879 63.9848 37.535H61.9848ZM61.0636 39.9154C60.4484 40.4503 59.5678 40.77 58.3098 40.77V42.77C59.9117 42.77 61.3044 42.3564 62.3759 41.4246L61.0636 39.9154ZM58.3098 40.77C57.0517 40.77 56.1711 40.4503 55.5559 39.9154L54.2436 41.4246C55.3151 42.3564 56.7078 42.77 58.3098 42.77V40.77ZM55.574 39.9315C54.9713 39.3812 54.6348 38.6221 54.6348 37.535H52.6348C52.6348 39.0879 53.1416 40.4188 54.2255 41.4085L55.574 39.9315ZM54.6348 37.535C54.6348 36.4467 54.9711 35.7182 55.5559 35.2096L54.2436 33.7004C53.1418 34.6585 52.6348 35.9833 52.6348 37.535H54.6348ZM55.574 35.1935C56.1898 34.6312 57.0637 34.3 58.3098 34.3V32.3C56.6958 32.3 55.2964 32.7388 54.2255 33.7165L55.574 35.1935ZM96.784 18.725L95.9139 19.2181L95.9202 19.2289L96.784 18.725ZM96.729 34.235L95.8573 33.7447L95.8516 33.7552L96.729 34.235ZM91.229 39.79L91.7193 40.6616L91.7237 40.6591L91.229 39.79ZM75.444 39.955L74.9741 40.8377L75.444 39.955ZM70.109 34.84L70.9728 34.3361L70.109 34.84ZM70.109 19.33L69.2374 18.8397L69.2316 18.8502L70.109 19.33ZM75.609 13.83L76.0993 14.7016L76.1095 14.6957L75.609 13.83ZM79.734 14.49L80.4761 15.1603L79.734 14.49ZM77.314 19.44L76.3488 19.1782L76.3458 19.1896L77.314 19.44ZM78.469 37.425L77.6042 37.9271L77.609 37.9354L77.614 37.9436L78.469 37.425ZM87.104 39.075L86.3514 38.4165L86.3499 38.4182L87.104 39.075ZM89.524 34.125L90.488 34.3909L90.4891 34.3867L89.524 34.125ZM88.369 16.14L87.5077 16.6483L87.514 16.6586L88.369 16.14ZM83.749 12.795C86.5025 12.795 88.9227 13.3689 91.0341 14.4927L91.9738 12.7273C89.5386 11.4311 86.7888 10.795 83.749 10.795V12.795ZM91.0341 14.4927C93.143 15.6152 94.7628 17.1865 95.914 19.218L97.654 18.232C96.3119 15.8635 94.4116 14.0248 91.9738 12.7273L91.0341 14.4927ZM95.9202 19.2289C97.1038 21.2578 97.709 23.6098 97.709 26.315H99.709C99.709 23.3002 99.0309 20.5922 97.6478 18.2211L95.9202 19.2289ZM97.709 26.315C97.709 29.0924 97.0858 31.5609 95.8574 33.7447L97.6006 34.7253C99.0122 32.2157 99.709 29.4043 99.709 26.315H97.709ZM95.8516 33.7552C94.6596 35.9348 92.9607 37.6536 90.7343 38.9209L91.7237 40.6591C94.2639 39.2131 96.2317 37.2285 97.6064 34.7148L95.8516 33.7552ZM90.7387 38.9184C88.5604 40.1437 86.0383 40.77 83.144 40.77V42.77C86.3363 42.77 89.2042 42.0763 91.7192 40.6616L90.7387 38.9184ZM83.144 40.77C80.4294 40.77 78.0271 40.197 75.9138 39.0723L74.9741 40.8377C77.4076 42.133 80.1386 42.77 83.144 42.77V40.77ZM75.9138 39.0723C73.8025 37.9485 72.1614 36.3738 70.9728 34.3361L69.2452 35.3439C70.6232 37.7062 72.5388 39.5415 74.9741 40.8377L75.9138 39.0723ZM70.9728 34.3361C69.7903 32.3091 69.184 29.9394 69.184 27.195H67.184C67.184 30.244 67.861 32.9709 69.2452 35.3439L70.9728 34.3361ZM69.184 27.195C69.184 24.4517 69.7901 21.9973 70.9864 19.8098L69.2316 18.8502C67.8612 21.356 67.184 24.1449 67.184 27.195H69.184ZM70.9806 19.8203C72.2108 17.6332 73.9122 15.9318 76.0992 14.7016L75.1187 12.9584C72.6124 14.3682 70.6472 16.3334 69.2374 18.8397L70.9806 19.8203ZM76.1095 14.6957C78.2842 13.4385 80.8203 12.795 83.749 12.795V10.795C80.5176 10.795 77.6271 11.5082 75.1085 12.9643L76.1095 14.6957ZM83.254 11.785C81.6048 11.785 80.1747 12.5101 78.9919 13.8197L80.4761 15.1603C81.3466 14.1965 82.2632 13.785 83.254 13.785V11.785ZM78.9919 13.8197C77.8223 15.1146 76.959 16.9282 76.3488 19.1783L78.2791 19.7017C78.8423 17.6251 79.5923 16.1388 80.4761 15.1603L78.9919 13.8197ZM76.3458 19.1896C75.769 21.4201 75.489 24.0385 75.489 27.03H77.489C77.489 24.1548 77.759 21.7132 78.2821 19.6904L76.3458 19.1896ZM75.489 27.03C75.489 31.7455 76.151 35.4244 77.6042 37.9271L79.3338 36.9229C78.147 34.8789 77.489 31.6278 77.489 27.03H75.489ZM77.614 37.9436C79.0993 40.3924 81.1087 41.78 83.639 41.78V39.78C81.9893 39.78 80.552 38.9309 79.324 36.9064L77.614 37.9436ZM83.639 41.78C85.2908 41.78 86.7081 41.0521 87.8581 39.7318L86.3499 38.4182C85.5199 39.3712 84.6271 39.78 83.639 39.78V41.78ZM87.8566 39.7335C89.0147 38.4099 89.8768 36.6065 90.488 34.3909L88.56 33.8591C87.9978 35.8969 87.2466 37.3934 86.3514 38.4165L87.8566 39.7335ZM90.4891 34.3867C91.1048 32.1165 91.404 29.4762 91.404 26.48H89.404C89.404 29.3505 89.1165 31.8068 88.5588 33.8633L90.4891 34.3867ZM91.404 26.48C91.404 21.7639 90.7238 18.094 89.224 15.6214L87.514 16.6586C88.7275 18.6593 89.404 21.8828 89.404 26.48H91.404ZM89.2302 15.6317C87.7811 13.1763 85.7874 11.785 83.254 11.785V13.785C84.9006 13.785 86.3169 14.6304 87.5078 16.6483L89.2302 15.6317ZM120.243 17.9L119.775 17.0162L118.475 17.7044L119.593 18.6601L120.243 17.9ZM125.358 22.52L124.651 23.2271L124.662 23.2385L124.674 23.2495L125.358 22.52ZM128.438 26.48L127.57 26.9762L127.575 26.9852L128.438 26.48ZM127.998 36.765L127.196 36.168L127.191 36.1741L127.187 36.1802L127.998 36.765ZM109.903 40.725L109.55 41.6606L109.558 41.6635L109.566 41.6663L109.903 40.725ZM105.228 37.48L104.445 38.1022L104.45 38.1083L104.455 38.1143L105.228 37.48ZM105.943 26.15L106.68 26.8257L105.943 26.15ZM112.488 21.695L112.891 22.6103L114.348 21.9692L113.138 20.9349L112.488 21.695ZM107.208 16.195L106.392 16.773L106.398 16.7811L107.208 16.195ZM106.933 5.36L107.72 5.97688V5.97688L106.933 5.36ZM111.168 2.335L111.519 3.27133L111.528 3.26814L111.536 3.26481L111.168 2.335ZM124.753 3.435L124.175 4.25079L124.185 4.25773L124.753 3.435ZM125.853 13.83L125.109 13.1621L125.108 13.1632L125.853 13.83ZM113.643 3.545L112.889 2.88881L112.886 2.89138L113.643 3.545ZM114.303 11.96L113.492 12.5448L113.496 12.5509L113.501 12.557L114.303 11.96ZM119.363 17.185L118.708 17.9407L119.544 18.6653L120.181 17.7605L119.363 17.185ZM120.903 13.61L121.876 13.8405L121.878 13.8349L120.903 13.61ZM120.078 4.205L119.243 4.75418L119.252 4.76808L119.261 4.78168L120.078 4.205ZM120.628 39.185L121.36 39.8664L121.366 39.8602L121.371 39.854L120.628 39.185ZM120.903 30.275L121.769 29.774L120.903 30.275ZM118.043 26.59L118.738 25.871L118.043 26.59ZM113.313 22.41L113.956 21.644L113.235 21.0387L112.587 21.7223L113.313 22.41ZM111.773 38.195L110.894 38.6713L110.9 38.6823L110.906 38.6931L111.773 38.195ZM119.593 18.6601C121.861 20.5983 123.542 22.1183 124.651 23.2271L126.065 21.8129C124.901 20.6484 123.172 19.0884 120.893 17.1399L119.593 18.6601ZM124.674 23.2495C125.768 24.2747 126.734 25.5139 127.57 26.9761L129.306 25.9839C128.382 24.3661 127.295 22.9653 126.042 21.7905L124.674 23.2495ZM127.575 26.9852C128.365 28.3336 128.758 29.7906 128.758 31.375H130.758C130.758 29.4394 130.272 27.6331 129.301 25.9748L127.575 26.9852ZM128.758 31.375C128.758 33.1826 128.237 34.7687 127.196 36.168L128.8 37.362C130.106 35.608 130.758 33.6007 130.758 31.375H128.758ZM127.187 36.1802C126.172 37.5887 124.731 38.7115 122.819 39.5309L123.607 41.3691C125.802 40.4285 127.551 39.0946 128.809 37.3498L127.187 36.1802ZM122.819 39.5309C120.908 40.3501 118.734 40.77 116.283 40.77V42.77C118.965 42.77 121.412 42.3099 123.607 41.3691L122.819 39.5309ZM116.283 40.77C114.075 40.77 112.064 40.4372 110.241 39.7837L109.566 41.6663C111.629 42.4062 113.872 42.77 116.283 42.77V40.77ZM110.256 39.7894C108.456 39.1102 107.05 38.1241 106.001 36.8457L104.455 38.1143C105.753 39.6959 107.463 40.8731 109.55 41.6606L110.256 39.7894ZM106.011 36.8578C105.027 35.6199 104.523 34.1392 104.523 32.365H102.523C102.523 34.5508 103.156 36.4801 104.445 38.1022L106.011 36.8578ZM104.523 32.365C104.523 30.2323 105.236 28.4017 106.68 26.8257L105.206 25.4743C103.424 27.4183 102.523 29.731 102.523 32.365H104.523ZM106.68 26.8257C108.179 25.1907 110.236 23.7784 112.891 22.6103L112.085 20.7797C109.24 22.0316 106.934 23.5893 105.206 25.4743L106.68 26.8257ZM113.138 20.9349C110.903 19.024 109.204 17.248 108.018 15.6089L106.398 16.7811C107.706 18.5886 109.527 20.4794 111.838 22.4551L113.138 20.9349ZM108.024 15.617C106.9 14.0295 106.338 12.2524 106.338 10.255H104.338C104.338 12.6576 105.023 14.8405 106.392 16.773L108.024 15.617ZM106.338 10.255C106.338 8.54684 106.81 7.1387 107.72 5.97688L106.146 4.74312C104.93 6.29464 104.338 8.14983 104.338 10.255H106.338ZM107.72 5.97688C108.66 4.77764 109.915 3.87291 111.519 3.27133L110.817 1.39867C108.901 2.11709 107.333 3.22902 106.146 4.74312L107.72 5.97688ZM111.536 3.26481C113.165 2.61989 114.982 2.29 116.998 2.29V0.289996C114.761 0.289996 112.691 0.656766 110.8 1.40519L111.536 3.26481ZM116.998 2.29C120.001 2.29 122.368 2.96992 124.175 4.25073L125.332 2.61927C123.105 1.04008 120.302 0.289996 116.998 0.289996V2.29ZM124.185 4.25773C125.951 5.47785 126.778 7.03155 126.778 8.99H128.778C128.778 6.32845 127.589 4.17881 125.322 2.61227L124.185 4.25773ZM126.778 8.99C126.778 10.5221 126.24 11.9017 125.109 13.1621L126.597 14.4979C128.033 12.8983 128.778 11.0513 128.778 8.99H126.778ZM125.108 13.1632C123.97 14.4355 122.212 15.7263 119.775 17.0162L120.711 18.7838C123.261 17.4337 125.243 16.0112 126.598 14.4968L125.108 13.1632ZM116.558 1.28C115.086 1.28 113.829 1.80747 112.889 2.88882L114.398 4.20118C114.924 3.59586 115.611 3.28 116.558 3.28V1.28ZM112.886 2.89138C111.99 3.92941 111.598 5.28675 111.598 6.845H113.598C113.598 5.61658 113.903 4.77392 114.4 4.19862L112.886 2.89138ZM111.598 6.845C111.598 8.90128 112.24 10.8087 113.492 12.5448L115.114 11.3752C114.093 9.95794 113.598 8.45539 113.598 6.845H111.598ZM113.501 12.557C114.733 14.2123 116.477 16.007 118.708 17.9407L120.018 16.4293C117.849 14.5497 116.22 12.8611 115.105 11.363L113.501 12.557ZM120.181 17.7605C120.963 16.6492 121.522 15.3354 121.876 13.8405L119.93 13.3795C119.624 14.6712 119.157 15.7408 118.545 16.6095L120.181 17.7605ZM121.878 13.8349C122.223 12.3371 122.398 10.8682 122.398 9.43H120.398C120.398 10.7051 120.243 12.0229 119.929 13.3851L121.878 13.8349ZM122.398 9.43C122.398 7.07843 121.938 5.10563 120.895 3.62831L119.261 4.78168C119.978 5.79769 120.398 7.30824 120.398 9.43H122.398ZM120.914 3.65582C119.89 2.0984 118.407 1.28 116.558 1.28V3.28C117.716 3.28 118.579 3.74493 119.243 4.75418L120.914 3.65582ZM116.558 41.78C118.503 41.78 120.146 41.1707 121.36 39.8664L119.896 38.5036C119.131 39.326 118.06 39.78 116.558 39.78V41.78ZM121.371 39.854C122.56 38.5329 123.113 36.8282 123.113 34.84H121.113C121.113 36.4451 120.676 37.6371 119.885 38.516L121.371 39.854ZM123.113 34.84C123.113 33.0186 122.666 31.3235 121.769 29.774L120.038 30.776C120.754 32.0132 121.113 33.3614 121.113 34.84H123.113ZM121.769 29.774C120.918 28.3046 119.908 27.002 118.738 25.871L117.348 27.309C118.378 28.3046 119.275 29.4587 120.038 30.776L121.769 29.774ZM118.738 25.871C117.613 24.7837 116.016 23.373 113.956 21.644L112.67 23.176C114.717 24.8936 116.273 26.2696 117.348 27.309L118.738 25.871ZM112.587 21.7223C110.377 24.0551 109.343 27.3238 109.343 31.375H111.343C111.343 27.6528 112.289 24.9449 114.039 23.0977L112.587 21.7223ZM109.343 31.375C109.343 34.2662 109.836 36.7189 110.894 38.6713L112.652 37.7187C111.803 36.1511 111.343 34.0571 111.343 31.375H109.343ZM110.906 38.6931C112.096 40.7651 114.047 41.78 116.558 41.78V39.78C114.67 39.78 113.43 39.0715 112.64 37.6969L110.906 38.6931Z" fill="#CD4D31"/>
</svg>
