<svg width="16" height="20" viewBox="0 0 16 20" fill="none" xmlns="http://www.w3.org/2000/svg">
<path fill-rule="evenodd" clip-rule="evenodd" d="M0.141399 7.93941C-0.0471336 8.13468 -0.0471335 8.45126 0.141399 8.64652C0.329931 8.84178 0.635602 8.84178 0.824135 8.64652L7.5243 1.70718L7.5243 19.5172C7.5243 19.7839 7.74045 20 8.00707 20C8.27369 20 8.48984 19.7839 8.48984 19.5172L8.48984 1.72168L15.1759 8.64645C15.3645 8.84171 15.6701 8.84171 15.8587 8.64645C16.0472 8.45118 16.0472 8.1346 15.8587 7.93934L8.42407 0.239351C8.34031 0.0961739 8.18492 -3.57774e-07 8.00707 -3.5e-07C7.84933 -3.43105e-07 7.70926 0.0756508 7.62116 0.19265L0.141399 7.93941Z" fill="#F1F5F4"/>
</svg>
