<svg width="269" height="70" viewBox="0 0 269 70" fill="none" xmlns="http://www.w3.org/2000/svg">
<rect x="199" width="70" height="70" fill="#1A5A4C"/>
<g clip-path="url(#clip0_12594_40)">
<path d="M230.59 39.59L235.17 35L230.59 30.41L232 29L238 35L232 41L230.59 39.59Z" fill="#D7DDE3"/>
</g>
<path d="M69.376 29.832H71.184V34.536H73.12L75.104 31.048C75.3493 30.6107 75.6053 30.3013 75.872 30.12C76.1493 29.928 76.4853 29.832 76.88 29.832H77.728V31.432H76.72L75.12 34.248C74.9387 34.5573 74.768 34.7813 74.608 34.92C74.4587 35.0587 74.272 35.1653 74.048 35.24V35.32C74.304 35.3733 74.5227 35.464 74.704 35.592C74.8853 35.72 75.072 35.9547 75.264 36.296L77.04 39.4H78.016V41H76.912C76.56 41 76.256 40.9147 76 40.744C75.744 40.5627 75.488 40.248 75.232 39.8L73.12 36.12H71.184V41H69.376V29.832ZM80.0635 29.832H85.0075C85.9355 29.832 86.6608 30.0933 87.1835 30.616C87.7168 31.1387 87.9835 31.8373 87.9835 32.712C87.9835 33.128 87.9248 33.4853 87.8075 33.784C87.6902 34.072 87.5408 34.312 87.3595 34.504C87.1782 34.6853 86.9702 34.824 86.7355 34.92C86.5008 35.0053 86.2715 35.0587 86.0475 35.08V35.176C86.2715 35.1867 86.5168 35.24 86.7835 35.336C87.0608 35.432 87.3168 35.5867 87.5515 35.8C87.7862 36.0027 87.9835 36.2693 88.1435 36.6C88.3035 36.92 88.3835 37.3147 88.3835 37.784C88.3835 38.232 88.3088 38.6533 88.1595 39.048C88.0208 39.4427 87.8235 39.784 87.5675 40.072C87.3115 40.36 87.0075 40.5893 86.6555 40.76C86.3035 40.92 85.9195 41 85.5035 41H80.0635V29.832ZM81.8715 39.448H84.9755C85.4448 39.448 85.8128 39.3253 86.0795 39.08C86.3462 38.8347 86.4795 38.4827 86.4795 38.024V37.48C86.4795 37.0213 86.3462 36.6693 86.0795 36.424C85.8128 36.1787 85.4448 36.056 84.9755 36.056H81.8715V39.448ZM81.8715 34.552H84.6715C85.1195 34.552 85.4662 34.44 85.7115 34.216C85.9568 33.9813 86.0795 33.6507 86.0795 33.224V32.712C86.0795 32.2853 85.9568 31.96 85.7115 31.736C85.4662 31.5013 85.1195 31.384 84.6715 31.384H81.8715V34.552ZM90.6104 29.832H92.3704V36.184L92.1944 38.488H92.2424L93.3624 36.424L97.6504 29.832H99.2824V41H97.5224V34.648L97.6984 32.344H97.6504L96.5304 34.408L92.2424 41H90.6104V29.832ZM106.176 31.432V41H104.368V31.432H101.04V29.832H109.504V31.432H106.176ZM111.267 29.832H113.075V34.536H115.011L116.995 31.048C117.24 30.6107 117.496 30.3013 117.763 30.12C118.04 29.928 118.376 29.832 118.771 29.832H119.619V31.432H118.611L117.011 34.248C116.829 34.5573 116.659 34.7813 116.499 34.92C116.349 35.0587 116.163 35.1653 115.939 35.24V35.32C116.195 35.3733 116.413 35.464 116.595 35.592C116.776 35.72 116.963 35.9547 117.155 36.296L118.931 39.4H119.907V41H118.803C118.451 41 118.147 40.9147 117.891 40.744C117.635 40.5627 117.379 40.248 117.123 39.8L115.011 36.12H113.075V41H111.267V29.832ZM121.954 29.832H123.714V36.184L123.538 38.488H123.586L124.706 36.424L128.994 29.832H130.626V41H128.866V34.648L129.042 32.344H128.994L127.874 34.408L123.586 41H121.954V29.832Z" fill="#0F0E08"/>
<rect x="0.5" y="0.5" width="268" height="69" stroke="#1A5A4C"/>
<defs>
<clipPath id="clip0_12594_40">
<rect width="24" height="24" fill="white" transform="translate(222 23)"/>
</clipPath>
</defs>
</svg>
