<?xml version="1.0" encoding="utf-8"?>
<!-- Generator: Adobe Illustrator 25.4.0, SVG Export Plug-In . SVG Version: 6.00 Build 0)  -->
<svg version="1.1" id="Слой_1" xmlns="http://www.w3.org/2000/svg" xmlns:xlink="http://www.w3.org/1999/xlink" x="0px" y="0px"
	 viewBox="0 0 22 22" style="enable-background:new 0 0 22 22;" xml:space="preserve">
<style type="text/css">
	.st0{fill:#0F0E08;}
</style>
<path class="st0" d="M20.6,3.6c0.6-0.6,0.6-1.6,0-2.1c-0.6-0.6-1.6-0.6-2.1,0L11,8.9L3.6,1.4C3,0.8,2,0.8,1.4,1.4
	C0.8,2,0.8,3,1.4,3.6L8.9,11l-7.4,7.4c-0.6,0.6-0.6,1.6,0,2.1c0.6,0.6,1.6,0.6,2.1,0l7.4-7.4l7.4,7.4c0.6,0.6,1.6,0.6,2.1,0
	s0.6-1.6,0-2.1L13.1,11L20.6,3.6z"/>
</svg>
