<svg width="24" height="141" viewBox="0 0 24 141" fill="none" xmlns="http://www.w3.org/2000/svg">
<g filter="url(#filter0_dd_12594_49)">
<path d="M11 63H12V133H11V63Z" fill="#1A5A4C"/>
</g>
<g filter="url(#filter1_dd_12594_49)">
<path d="M7.22793 41.922V34.152H16.9999V36.28H9.11793V39.794H16.9999V41.922H7.22793Z" fill="#687480"/>
<path d="M17.1679 28.0762C17.1679 28.7202 17.0606 29.3082 16.8459 29.8402C16.6313 30.3722 16.3139 30.8249 15.8939 31.1982C15.4646 31.5716 14.9373 31.8609 14.3119 32.0662C13.6773 32.2716 12.9446 32.3742 12.1139 32.3742C11.2833 32.3742 10.5553 32.2716 9.92993 32.0662C9.29527 31.8609 8.76793 31.5716 8.34793 31.1982C7.9186 30.8249 7.5966 30.3722 7.38193 29.8402C7.16727 29.3082 7.05993 28.7202 7.05993 28.0762C7.05993 27.4322 7.16727 26.8442 7.38193 26.3122C7.5966 25.7802 7.9186 25.3276 8.34793 24.9542C8.76793 24.5809 9.29527 24.2916 9.92993 24.0862C10.5553 23.8809 11.2833 23.7782 12.1139 23.7782C12.9446 23.7782 13.6773 23.8809 14.3119 24.0862C14.9373 24.2916 15.4646 24.5809 15.8939 24.9542C16.3139 25.3276 16.6313 25.7802 16.8459 26.3122C17.0606 26.8442 17.1679 27.4322 17.1679 28.0762ZM15.2779 28.0762C15.2779 27.4322 15.0679 26.9329 14.6479 26.5782C14.2279 26.2142 13.6259 26.0322 12.8419 26.0322H11.3859C10.6019 26.0322 9.99993 26.2142 9.57993 26.5782C9.15993 26.9329 8.94993 27.4322 8.94993 28.0762C8.94993 28.7202 9.15993 29.2242 9.57993 29.5882C9.99993 29.9429 10.6019 30.1202 11.3859 30.1202H12.8419C13.6259 30.1202 14.2279 29.9429 14.6479 29.5882C15.0679 29.2242 15.2779 28.7202 15.2779 28.0762Z" fill="#687480"/>
<path d="M15.1099 23.2659V22.2019C14.9606 22.0432 14.7646 21.8939 14.5219 21.7539C14.2699 21.6139 13.9573 21.4926 13.5839 21.3899C13.2106 21.2872 12.7579 21.2079 12.2259 21.1519C11.6939 21.0959 11.0639 21.0679 10.3359 21.0679H7.22793V14.0539H15.1099V12.4719H19.0999V14.4739H16.9999V21.2639H19.0999V23.2659H15.1099ZM15.1099 16.1819H9.10393V18.9959H10.6299C11.2739 18.9959 11.8339 19.0146 12.3099 19.0519C12.7766 19.0892 13.1873 19.1406 13.5419 19.2059C13.8873 19.2712 14.1859 19.3552 14.4379 19.4579C14.6806 19.5606 14.8906 19.6726 15.0679 19.7939H15.1099V16.1819Z" fill="#687480"/>
<path d="M16.9999 11.3879H15.3059V10.1279H8.92193V11.3879H7.22793L7.22793 6.73989H8.92193V7.99989H15.3059V6.73989H16.9999L16.9999 11.3879Z" fill="#687480"/>
<path d="M16.9999 5.34492H15.3059V4.08493H8.92193V5.34492H7.22793V0.696926H8.92193V1.95692H15.3059V0.696926H16.9999V5.34492ZM6.34593 4.54692C6.34593 4.96692 6.26193 5.26092 6.09393 5.42892C5.9166 5.58759 5.7066 5.66693 5.46393 5.66693H5.11393C4.87127 5.66693 4.66593 5.58759 4.49793 5.42892C4.3206 5.26092 4.23193 4.96692 4.23193 4.54692C4.23193 4.12692 4.3206 3.83759 4.49793 3.67892C4.66593 3.51092 4.87127 3.42693 5.11393 3.42693H5.46393C5.7066 3.42693 5.9166 3.51092 6.09393 3.67892C6.26193 3.83759 6.34593 4.12692 6.34593 4.54692ZM6.34593 1.46693C6.34593 1.88693 6.26193 2.18093 6.09393 2.34893C5.9166 2.50759 5.7066 2.58693 5.46393 2.58693H5.11393C4.87127 2.58693 4.66593 2.50759 4.49793 2.34893C4.3206 2.18093 4.23193 1.88693 4.23193 1.46693C4.23193 1.04693 4.3206 0.757593 4.49793 0.598927C4.66593 0.430927 4.87127 0.346924 5.11393 0.346924H5.46393C5.7066 0.346924 5.9166 0.430927 6.09393 0.598927C6.26193 0.757593 6.34593 1.04693 6.34593 1.46693Z" fill="#687480"/>
</g>
<defs>
<filter id="filter0_dd_12594_49" x="7" y="63" width="9" height="78" filterUnits="userSpaceOnUse" color-interpolation-filters="sRGB">
<feFlood flood-opacity="0" result="BackgroundImageFix"/>
<feColorMatrix in="SourceAlpha" type="matrix" values="0 0 0 0 0 0 0 0 0 0 0 0 0 0 0 0 0 0 127 0" result="hardAlpha"/>
<feOffset dy="4"/>
<feGaussianBlur stdDeviation="2"/>
<feComposite in2="hardAlpha" operator="out"/>
<feColorMatrix type="matrix" values="0 0 0 0 0 0 0 0 0 0 0 0 0 0 0 0 0 0 0.25 0"/>
<feBlend mode="normal" in2="BackgroundImageFix" result="effect1_dropShadow_12594_49"/>
<feColorMatrix in="SourceAlpha" type="matrix" values="0 0 0 0 0 0 0 0 0 0 0 0 0 0 0 0 0 0 127 0" result="hardAlpha"/>
<feOffset dy="4"/>
<feGaussianBlur stdDeviation="2"/>
<feComposite in2="hardAlpha" operator="out"/>
<feColorMatrix type="matrix" values="0 0 0 0 0 0 0 0 0 0 0 0 0 0 0 0 0 0 0.25 0"/>
<feBlend mode="normal" in2="effect1_dropShadow_12594_49" result="effect2_dropShadow_12594_49"/>
<feBlend mode="normal" in="SourceGraphic" in2="effect2_dropShadow_12594_49" result="shape"/>
</filter>
<filter id="filter1_dd_12594_49" x="0.231934" y="0.346924" width="22.8682" height="49.5751" filterUnits="userSpaceOnUse" color-interpolation-filters="sRGB">
<feFlood flood-opacity="0" result="BackgroundImageFix"/>
<feColorMatrix in="SourceAlpha" type="matrix" values="0 0 0 0 0 0 0 0 0 0 0 0 0 0 0 0 0 0 127 0" result="hardAlpha"/>
<feOffset dy="4"/>
<feGaussianBlur stdDeviation="2"/>
<feComposite in2="hardAlpha" operator="out"/>
<feColorMatrix type="matrix" values="0 0 0 0 0 0 0 0 0 0 0 0 0 0 0 0 0 0 0.25 0"/>
<feBlend mode="normal" in2="BackgroundImageFix" result="effect1_dropShadow_12594_49"/>
<feColorMatrix in="SourceAlpha" type="matrix" values="0 0 0 0 0 0 0 0 0 0 0 0 0 0 0 0 0 0 127 0" result="hardAlpha"/>
<feOffset dy="4"/>
<feGaussianBlur stdDeviation="2"/>
<feComposite in2="hardAlpha" operator="out"/>
<feColorMatrix type="matrix" values="0 0 0 0 0 0 0 0 0 0 0 0 0 0 0 0 0 0 0.25 0"/>
<feBlend mode="normal" in2="effect1_dropShadow_12594_49" result="effect2_dropShadow_12594_49"/>
<feBlend mode="normal" in="SourceGraphic" in2="effect2_dropShadow_12594_49" result="shape"/>
</filter>
</defs>
</svg>
