<svg width="16" height="133" viewBox="0 0 16 133" fill="none" xmlns="http://www.w3.org/2000/svg">
<rect x="7" y="63" width="1" height="70" fill="#1A5A4C"/>
<path d="M3.228 41.922L3.228 34.152H13V36.28H5.118L5.118 39.794H13V41.922H3.228ZM13.168 28.0762C13.168 28.7202 13.0607 29.3082 12.846 29.8402C12.6313 30.3722 12.314 30.8249 11.894 31.1982C11.4647 31.5716 10.9373 31.8609 10.312 32.0662C9.67733 32.2716 8.94467 32.3742 8.114 32.3742C7.28333 32.3742 6.55533 32.2716 5.93 32.0662C5.29533 31.8609 4.768 31.5716 4.348 31.1982C3.91867 30.8249 3.59667 30.3722 3.382 29.8402C3.16733 29.3082 3.06 28.7202 3.06 28.0762C3.06 27.4322 3.16733 26.8442 3.382 26.3122C3.59667 25.7802 3.91867 25.3276 4.348 24.9542C4.768 24.5809 5.29533 24.2916 5.93 24.0862C6.55533 23.8809 7.28333 23.7782 8.114 23.7782C8.94467 23.7782 9.67733 23.8809 10.312 24.0862C10.9373 24.2916 11.4647 24.5809 11.894 24.9542C12.314 25.3276 12.6313 25.7802 12.846 26.3122C13.0607 26.8442 13.168 27.4322 13.168 28.0762ZM11.278 28.0762C11.278 27.4322 11.068 26.9329 10.648 26.5782C10.228 26.2142 9.626 26.0322 8.842 26.0322H7.386C6.602 26.0322 6 26.2142 5.58 26.5782C5.16 26.9329 4.95 27.4322 4.95 28.0762C4.95 28.7202 5.16 29.2242 5.58 29.5882C6 29.9429 6.602 30.1202 7.386 30.1202H8.842C9.626 30.1202 10.228 29.9429 10.648 29.5882C11.068 29.2242 11.278 28.7202 11.278 28.0762ZM11.11 23.2659V22.2019C10.9607 22.0432 10.7647 21.8939 10.522 21.7539C10.27 21.6139 9.95733 21.4926 9.584 21.3899C9.21067 21.2872 8.758 21.2079 8.226 21.1519C7.694 21.0959 7.064 21.0679 6.336 21.0679H3.228L3.228 14.0539H11.11V12.4719H15.1V14.4739H13V21.2639H15.1V23.2659H11.11ZM11.11 16.1819H5.104L5.104 18.9959H6.63C7.274 18.9959 7.834 19.0146 8.31 19.0519C8.77667 19.0892 9.18733 19.1406 9.542 19.2059C9.88733 19.2712 10.186 19.3552 10.438 19.4579C10.6807 19.5606 10.8907 19.6726 11.068 19.7939H11.11V16.1819ZM13 11.3879H11.306L11.306 10.1279H4.922V11.3879H3.228L3.228 6.73989H4.922V7.99989H11.306V6.73989H13L13 11.3879ZM13 5.34492H11.306V4.08492H4.922V5.34492H3.228L3.228 0.696921H4.922V1.95692H11.306V0.696921H13V5.34492ZM2.346 4.54692C2.346 4.96692 2.262 5.26092 2.094 5.42892C1.91667 5.58759 1.70667 5.66692 1.464 5.66692H1.114C0.871333 5.66692 0.665999 5.58759 0.497999 5.42892C0.320666 5.26092 0.231999 4.96692 0.231999 4.54692C0.231999 4.12692 0.320666 3.83759 0.497999 3.67892C0.665999 3.51092 0.871333 3.42692 1.114 3.42692H1.464C1.70667 3.42692 1.91667 3.51092 2.094 3.67892C2.262 3.83759 2.346 4.12692 2.346 4.54692ZM2.346 1.46692C2.346 1.88692 2.262 2.18092 2.094 2.34892C1.91667 2.50759 1.70667 2.58692 1.464 2.58692H1.114C0.871333 2.58692 0.665999 2.50759 0.497999 2.34892C0.320666 2.18092 0.231999 1.88692 0.231999 1.46692C0.231999 1.04692 0.320666 0.757588 0.497999 0.598921C0.665999 0.430922 0.871333 0.346922 1.114 0.346922H1.464C1.70667 0.346922 1.91667 0.430922 2.094 0.598921C2.262 0.757588 2.346 1.04692 2.346 1.46692Z" fill="#687480"/>
</svg>
