<svg width="12" height="24" viewBox="0 0 12 24" fill="none" xmlns="http://www.w3.org/2000/svg">
<path d="M2.7198 4.64902C2.7198 5.25383 2.7198 7.95334 2.7198 7.95334H0.302734V11.9939H2.7198V24.0009H7.68498V11.9942H11.0168C11.0168 11.9942 11.3289 10.0568 11.4801 7.93844C11.0465 7.93844 7.70375 7.93844 7.70375 7.93844C7.70375 7.93844 7.70375 5.58779 7.70375 5.17577C7.70375 4.76285 8.24511 4.20743 8.78017 4.20743C9.31423 4.20743 10.4414 4.20743 11.4854 4.20743C11.4854 3.6573 11.4854 1.7565 11.4854 0.00100709C10.0917 0.00100709 8.50612 0.00100709 7.80721 0.00100709C2.59707 0.000728099 2.7198 4.04527 2.7198 4.64902Z" fill="black"/>
</svg>
