<svg width="12" height="24" viewBox="0 0 12 24" fill="none" xmlns="http://www.w3.org/2000/svg">
<path d="M2.80696 4.64899C2.80696 5.2538 2.80696 7.9533 2.80696 7.9533H0.389893V11.9938H2.80696V24.0009H7.77214V11.9942H11.104C11.104 11.9942 11.416 10.0568 11.5673 7.93841C11.1336 7.93841 7.79091 7.93841 7.79091 7.93841C7.79091 7.93841 7.79091 5.58776 7.79091 5.17573C7.79091 4.76282 8.33227 4.2074 8.86733 4.2074C9.40138 4.2074 10.5286 4.2074 11.5725 4.2074C11.5725 3.65727 11.5725 1.75647 11.5725 0.000976577C10.1788 0.000976577 8.59328 0.000976577 7.89437 0.000976577C2.68423 0.000697581 2.80696 4.04524 2.80696 4.64899Z" fill="black"/>
</svg>
