<?xml version="1.0"?>
<svg width="12" height="24" xmlns="http://www.w3.org/2000/svg" xmlns:svg="http://www.w3.org/2000/svg">
 <g class="layer">
  <title>Layer 1</title>
  <path d="m2.7198,4.64902c0,0.60481 0,3.30432 0,3.30432l-2.41707,0l0,4.04056l2.41707,0l0,12.007l4.96518,0l0,-12.0067l3.33182,0c0,0 0.3121,-1.9374 0.4633,-4.05576c-0.4336,0 -3.77635,0 -3.77635,0c0,0 0,-2.35065 0,-2.76267c0,-0.41292 0.54136,-0.96834 1.07642,-0.96834c0.53406,0 1.66123,0 2.70523,0c0,-0.55013 0,-2.45093 0,-4.20642c-1.3937,0 -2.97928,0 -3.67819,0c-5.21014,-0.00028 -5.08741,4.04426 -5.08741,4.64801z" fill="#00007f" id="svg_1"/>
 </g>
</svg>