<svg width="12" height="24" viewBox="0 0 12 24" fill="none" xmlns="http://www.w3.org/2000/svg">
<path d="M2.82075 4.64899C2.82075 5.2538 2.82075 7.9533 2.82075 7.9533H0.399902V11.9938H2.82075V24.0009H7.79368V11.9942H11.1308C11.1308 11.9942 11.4433 10.0568 11.5948 7.93841C11.1604 7.93841 7.81249 7.93841 7.81249 7.93841C7.81249 7.93841 7.81249 5.58776 7.81249 5.17573C7.81249 4.76282 8.35469 4.2074 8.89058 4.2074C9.42548 4.2074 10.5544 4.2074 11.6 4.2074C11.6 3.65727 11.6 1.75647 11.6 0.000976577C10.2042 0.000976577 8.61611 0.000976577 7.91611 0.000976577C2.69782 0.000697581 2.82075 4.04524 2.82075 4.64899Z" fill="black"/>
</svg>
