<?xml version="1.0" encoding="utf-8"?>
<!-- Generator: Adobe Illustrator 25.2.3, SVG Export Plug-In . SVG Version: 6.00 Build 0)  -->
<svg version="1.1" id="Layer_1" xmlns="http://www.w3.org/2000/svg" xmlns:xlink="http://www.w3.org/1999/xlink" x="0px" y="0px"
	 viewBox="0 0 30 30" style="enable-background:new 0 0 30 30;" xml:space="preserve">
<style type="text/css">
	.st0{clip-path:url(#SVGID_2_);}
</style>
<g>
	<g>
		<defs>
			<rect id="SVGID_1_" x="3" y="3" width="24" height="24"/>
		</defs>
		<clipPath id="SVGID_2_">
			<use xlink:href="#SVGID_1_"  style="overflow:visible;"/>
		</clipPath>
		<g class="st0">
			<path d="M11.8,7.6c0,0.6,0,3.3,0,3.3H9.4v4h2.4v12h5V15h3.3c0,0,0.3-1.9,0.5-4.1c-0.4,0-3.8,0-3.8,0s0-2.4,0-2.8
				c0-0.4,0.5-1,1.1-1c0.5,0,1.7,0,2.7,0c0-0.6,0-2.5,0-4.2c-1.4,0-3,0-3.7,0C11.7,3,11.8,7,11.8,7.6z"/>
		</g>
	</g>
</g>
</svg>
