<svg width="12" height="24" viewBox="0 0 12 24" fill="none" xmlns="http://www.w3.org/2000/svg">
<path d="M2.80721 4.64902C2.80721 5.25383 2.80721 7.95334 2.80721 7.95334H0.390137V11.9939H2.80721V24.0009H7.77238V11.9942H11.1042C11.1042 11.9942 11.4163 10.0568 11.5675 7.93844C11.1339 7.93844 7.79116 7.93844 7.79116 7.93844C7.79116 7.93844 7.79116 5.58779 7.79116 5.17577C7.79116 4.76285 8.33251 4.20743 8.86757 4.20743C9.40163 4.20743 10.5288 4.20743 11.5728 4.20743C11.5728 3.6573 11.5728 1.7565 11.5728 0.00100709C10.1791 0.00100709 8.59352 0.00100709 7.89462 0.00100709C2.68447 0.000728099 2.80721 4.04527 2.80721 4.64902Z" fill="black"/>
</svg>
