<svg version="1.1" xmlns="http://www.w3.org/2000/svg" xmlns:xlink="http://www.w3.org/1999/xlink" width="12" height="24" viewBox="0,0,128,256"><g fill="#1a5a4c" fill-rule="nonzero" stroke="none" stroke-width="1" stroke-linecap="butt" stroke-linejoin="miter" stroke-miterlimit="10" stroke-dasharray="" stroke-dashoffset="0" font-family="none" font-weight="none" font-size="none" text-anchor="none" style="mix-blend-mode: normal"><g transform="translate(1.12995,-0.01001) scale(10.66667,10.66667)"><path d="M2.7198,4.64899c0,0.60481 0,3.30431 0,3.30431h-2.41707v4.0405h2.41707v12.0071h4.96518v-12.0067h3.33182c0,0 0.3121,-1.9374 0.4633,-4.05579c-0.4336,0 -3.77635,0 -3.77635,0c0,0 0,-2.35065 0,-2.76268c0,-0.41291 0.54136,-0.96833 1.07642,-0.96833c0.53406,0 1.66123,0 2.70523,0c0,-0.55013 0,-2.45093 0,-4.20642c-1.3937,0 -2.97928,0 -3.67819,0c-5.21014,-0.00028 -5.08741,4.04426 -5.08741,4.64801z"></path></g></g></svg>