<svg width="12" height="24" viewBox="0 0 12 24" fill="none" xmlns="http://www.w3.org/2000/svg">
<path d="M2.7196 4.64899C2.7196 5.2538 2.7196 7.9533 2.7196 7.9533H0.302532V11.9938H2.7196V24.0009H7.68478V11.9942H11.0166C11.0166 11.9942 11.3287 10.0568 11.4799 7.93841C11.0463 7.93841 7.70355 7.93841 7.70355 7.93841C7.70355 7.93841 7.70355 5.58776 7.70355 5.17573C7.70355 4.76282 8.24491 4.2074 8.77997 4.2074C9.31402 4.2074 10.4412 4.2074 11.4852 4.2074C11.4852 3.65727 11.4852 1.75647 11.4852 0.000976577C10.0915 0.000976577 8.50592 0.000976577 7.80701 0.000976577C2.59687 0.000697581 2.7196 4.04524 2.7196 4.64899Z" fill="black"/>
</svg>
