<?xml version="1.0" encoding="iso-8859-1"?>
<!-- Generator: Adobe Illustrator 19.0.0, SVG Export Plug-In . SVG Version: 6.00 Build 0)  -->
<svg version="1.1" id="Capa_1" xmlns="http://www.w3.org/2000/svg" xmlns:xlink="http://www.w3.org/1999/xlink" x="0px" y="0px"
	 viewBox="0 0 512 512" style="enable-background:new 0 0 512 512;" xml:space="preserve">
<path style="fill:#34ABE0;" d="M512,255.999c0,38.891-8.673,75.765-24.2,108.784c-6.395,13.615-13.97,26.582-22.57,38.755
	c-5.224,7.398-10.836,14.503-16.791,21.295c-8.359,9.519-17.418,18.421-27.094,26.613c-8.422,7.137-17.324,13.74-26.645,19.759
	c-30.605,19.769-65.713,33.186-103.434,38.389c-11.525,1.578-23.301,2.403-35.265,2.403c-2.884,0-5.757-0.052-8.62-0.146
	c-9.007-0.293-17.899-1.055-26.645-2.257c-37.721-5.204-72.829-18.62-103.434-38.389c-15.945-10.292-30.657-22.308-43.885-35.777
	c-3.385-3.438-6.677-6.969-9.853-10.595c-5.956-6.792-11.567-13.897-16.791-21.295c-12.633-17.878-23.04-37.459-30.793-58.315
	c-6.311-16.99-10.877-34.826-13.469-53.289c-1.651-11.745-2.508-23.74-2.508-35.934c0-141.384,114.614-255.998,255.998-255.998
	c133.14,0,242.53,101.626,254.839,231.548C511.613,239.595,512,247.755,512,255.999z"/>
<g>
	<path style="fill:#78CAEF;" d="M512,255.999c0,38.891-8.673,75.765-24.2,108.784h-61.805c-3.678,0-7.011-1.494-9.414-3.908
		c-2.414-2.403-3.908-5.736-3.908-9.414c0-7.366,5.966-13.322,13.322-13.322h40.5c3.678,0,7.011-1.494,9.414-3.908
		c2.414-2.403,3.908-5.736,3.908-9.414c0-7.366-5.966-13.322-13.322-13.322h-11.306c-3.678,0-7.011-1.494-9.414-3.908
		c-2.414-2.403-3.908-5.747-3.908-9.425c0-7.356,5.966-13.322,13.322-13.322h37.418c3.678,0,7.011-1.494,9.425-3.897
		c2.403-2.414,3.897-5.747,3.897-9.425c0-7.356-5.966-13.322-13.322-13.322h-82.16c-3.678,0-7.011-1.494-9.414-3.897
		c-2.414-2.414-3.908-5.747-3.908-9.425c0-7.356,5.966-13.322,13.322-13.322H510.84C511.613,239.595,512,247.755,512,255.999z"/>
	<path style="fill:#78CAEF;" d="M151.648,232.108L151.648,232.108c0-7.358-5.965-13.323-13.323-13.323H26.053
		c-7.358,0-13.322,5.965-13.322,13.322l0,0c0,7.358,5.965,13.323,13.322,13.323H62.37c7.358,0,13.322,5.965,13.322,13.323l0,0
		c0,7.358-5.965,13.322-13.322,13.322h-3.702c-7.358,0-13.322,5.965-13.322,13.323l0,0c0,7.358,5.965,13.322,13.322,13.322h107.604
		c7.358,0,13.322-5.965,13.322-13.322l0,0c0-7.358,5.965-13.323,13.323-13.323h3.702c7.358,0,13.323-5.965,13.323-13.322l0,0
		c0-7.358-5.965-13.323-13.323-13.323h-31.648C157.614,245.431,151.648,239.466,151.648,232.108z"/>
	<path style="fill:#78CAEF;" d="M263.662,63.261L263.662,63.261c0-7.358,5.965-13.323,13.323-13.323h42.934
		c7.358,0,13.323-5.965,13.323-13.323l0,0c0-7.358-5.965-13.323-13.323-13.323H193.351c-7.358,0-13.323,5.965-13.323,13.323l0,0
		c0,7.358-5.965,13.323-13.323,13.323h-42.934c-7.358,0-13.323,5.965-13.323,13.323l0,0c0,7.358,5.965,13.323,13.323,13.323h63.659
		c7.358,0,13.323,5.965,13.323,13.323l0,0c0,7.358,5.965,13.323,13.323,13.323h126.568c7.358,0,13.323-5.965,13.323-13.323l0,0
		c0-7.358-5.965-13.323-13.323-13.323h-63.659C269.627,76.584,263.662,70.619,263.662,63.261z"/>
	<path style="fill:#78CAEF;" d="M55.936,331.901c0,7.356-5.966,13.322-13.322,13.322H15.98
		c-6.311-16.99-10.877-34.826-13.469-53.289h13.458c7.356,0,13.322,5.966,13.322,13.322c0,3.678,1.494,7.011,3.897,9.414
		c2.414,2.414,5.747,3.908,9.425,3.908c3.678,0,7.011,1.494,9.425,3.908C54.442,324.889,55.936,328.222,55.936,331.901z"/>
</g>
<rect x="98.45" y="177.12" style="fill:#BC8F62;" width="315.098" height="257.116"/>
<rect x="76.382" y="136.452" style="fill:#AF825A;" width="369.871" height="67.396"/>
<polygon style="fill:#C69A6A;" points="255.998,0.002 0,153.696 511.997,153.696 "/>
<rect x="34.229" y="153.693" style="fill:#B58657;" width="95.608" height="36.049"/>
<rect x="62.441" y="170.934" style="fill:#C69A6A;" width="67.396" height="18.808"/>
<path style="fill:#B58657;" d="M117.303,189.744v281.462c-15.945-10.292-30.657-22.308-43.885-35.777
	c-3.385-3.438-6.677-6.969-9.853-10.595c-5.956-6.792-11.567-13.897-16.791-21.295V189.744L117.303,189.744L117.303,189.744z"/>
<path style="fill:#C69A6A;" d="M117.303,216.389v254.818c-15.945-10.292-30.657-22.308-43.885-35.777V216.389L117.303,216.389
	L117.303,216.389z"/>
<path style="fill:#D3AA81;" d="M93.786,416.995L93.786,416.995c-6.059,0-10.97-4.912-10.97-10.97V254.001
	c0-6.059,4.912-10.97,10.97-10.97l0,0c6.059,0,10.97,4.912,10.97,10.97v152.024C104.757,412.084,99.845,416.995,93.786,416.995z"/>
<rect x="208.195" y="153.693" style="fill:#B58657;" width="95.608" height="36.049"/>
<rect x="236.407" y="170.934" style="fill:#C69A6A;" width="67.396" height="18.808"/>
<path style="fill:#B58657;" d="M291.267,189.744v319.852c-11.525,1.578-23.301,2.403-35.265,2.403c-2.884,0-5.757-0.052-8.62-0.146
	c-9.007-0.293-17.899-1.055-26.645-2.257V189.744L291.267,189.744L291.267,189.744z"/>
<path style="fill:#C69A6A;" d="M291.267,216.389v293.207c-11.525,1.578-23.301,2.403-35.265,2.403c-2.884,0-5.757-0.052-8.62-0.146
	V216.389L291.267,216.389L291.267,216.389z"/>
<path style="fill:#D3AA81;" d="M267.751,416.995L267.751,416.995c-6.059,0-10.97-4.912-10.97-10.97V254.001
	c0-6.059,4.912-10.97,10.97-10.97l0,0c6.059,0,10.97,4.912,10.97,10.97v152.024C278.723,412.084,273.811,416.995,267.751,416.995z"
	/>
<rect x="382.159" y="153.693" style="fill:#B58657;" width="95.608" height="36.049"/>
<rect x="410.371" y="170.934" style="fill:#C69A6A;" width="67.396" height="18.808"/>
<path style="fill:#B58657;" d="M465.231,189.744v213.795c-5.224,7.398-10.836,14.503-16.791,21.295
	c-8.359,9.519-17.418,18.421-27.094,26.613c-8.422,7.137-17.324,13.74-26.645,19.759V189.744L465.231,189.744L465.231,189.744z"/>
<path style="fill:#C69A6A;" d="M465.231,216.389v187.151c-5.224,7.398-10.836,14.503-16.791,21.295
	c-8.359,9.519-17.418,18.421-27.094,26.613V216.389H465.231z"/>
<path style="fill:#D3AA81;" d="M441.717,416.995L441.717,416.995c-6.059,0-10.97-4.912-10.97-10.97V254.001
	c0-6.059,4.912-10.97,10.97-10.97l0,0c6.059,0,10.97,4.912,10.97,10.97v152.024C452.688,412.084,447.777,416.995,441.717,416.995z"
	/>
<g>
	<rect x="132.179" y="304.147" style="fill:#C69A6A;" width="75.229" height="130.089"/>
	<rect x="304.586" y="304.147" style="fill:#C69A6A;" width="75.229" height="130.089"/>
</g>
<g>
	<rect x="141.583" y="313.551" style="fill:#494B5B;" width="56.421" height="111.281"/>
	<rect x="313.99" y="313.551" style="fill:#494B5B;" width="56.421" height="111.281"/>
</g>
<circle style="fill:#D3AA81;" cx="419.618" cy="130.183" r="12.538"/>
<path style="fill:#B58657;" d="M448.439,424.834c-8.37,9.54-17.439,18.442-27.136,26.645c-7.993,6.771-16.405,13.051-25.192,18.808
	c-20.825,13.636-43.75,24.325-68.19,31.472c-22.81,6.666-46.957,10.24-71.92,10.24s-49.11-3.574-71.92-10.24
	c-24.44-7.147-47.365-17.836-68.19-31.472c-8.788-5.757-17.199-12.037-25.192-18.808c-9.697-8.202-18.766-17.105-27.136-26.645
	H448.439z"/>
<g>
	<path style="fill:#C69A6A;" d="M421.303,451.479c-7.993,6.771-16.405,13.051-25.192,18.808H115.892
		c-8.788-5.757-17.199-12.037-25.192-18.808H421.303z"/>
	<path style="fill:#C69A6A;" d="M327.921,501.759c-22.81,6.666-46.957,10.24-71.92,10.24s-49.11-3.574-71.92-10.24H327.921z"/>
</g>
<g>
	<path style="fill:#F9EED7;" d="M156.973,116.324c-0.667,1.212-1.697,1.576-2.668,1.576c-0.97,0-1.939-0.364-2.606-1.576
		l-6.972-13.094v26.551c0,1.636-2,2.486-3.94,2.486c-2.001,0-3.94-0.848-3.94-2.486V91.895c0-2.91,1.939-3.94,3.94-3.94
		c2.849,0,4.121,0.606,6.122,4.183l7.456,13.578l7.456-13.578c2-3.577,3.333-4.183,6.183-4.183c2.001,0,3.94,1.03,3.94,3.94v37.887
		c0,1.636-2.001,2.486-3.94,2.486c-2,0-3.94-0.848-3.94-2.486v-26.067L156.973,116.324z"/>
	<path style="fill:#F9EED7;" d="M203.283,90.379c0-1.697,1.939-2.425,3.94-2.425c1.939,0,3.94,0.727,3.94,2.425v28.37
		c0,10.123-6.425,13.881-14.548,13.881c-8.184,0-14.549-3.758-14.549-13.881v-28.37c0-1.697,1.939-2.425,3.94-2.425
		c1.939,0,3.94,0.727,3.94,2.425v28.37c0,4.728,2.486,6.97,6.669,6.97s6.667-2.242,6.667-6.97L203.283,90.379L203.283,90.379z"/>
	<path style="fill:#F9EED7;" d="M239.651,120.446c0-9.093-19.458-6.304-19.458-20.671c0-9.032,7.759-12.124,14.731-12.124
		c3.577,0,11.517,0.848,11.517,4.849c0,1.394-0.971,4.183-3.152,4.183c-1.88,0-3.274-2.304-8.365-2.304
		c-4.365,0-6.85,1.759-6.85,4.668c0,7.517,19.458,4.91,19.458,20.61c0,8.668-6.061,13.154-14.427,13.154
		c-7.942,0-14.003-4.001-14.003-7.517c0-1.697,1.576-4.243,3.455-4.243c2.486,0,4.122,4.668,10.305,4.668
		C236.499,125.719,239.651,124.083,239.651,120.446z"/>
	<path style="fill:#F9EED7;" d="M263.835,106.989h9.214c1.577,0,2.486,1.515,2.486,3.152c0,1.394-0.789,3.031-2.486,3.031h-9.214
		v12.184h17.155c1.577,0,2.486,1.636,2.486,3.516c0,1.636-0.788,3.395-2.486,3.395h-21.579c-1.759,0-3.456-0.848-3.456-2.486V90.44
		c0-1.636,1.698-2.486,3.456-2.486h21.579c1.698,0,2.486,1.758,2.486,3.395c0,1.88-0.909,3.516-2.486,3.516h-17.155V106.989z"/>
	<path style="fill:#F9EED7;" d="M312.147,90.379c0-1.697,1.939-2.425,3.94-2.425c1.939,0,3.94,0.727,3.94,2.425v28.37
		c0,10.123-6.425,13.881-14.548,13.881c-8.184,0-14.549-3.758-14.549-13.881v-28.37c0-1.697,1.939-2.425,3.94-2.425
		c1.939,0,3.94,0.727,3.94,2.425v28.37c0,4.728,2.486,6.97,6.668,6.97c4.183,0,6.667-2.242,6.667-6.97L312.147,90.379
		L312.147,90.379z"/>
	<path style="fill:#F9EED7;" d="M350.273,116.324c-0.667,1.212-1.697,1.576-2.668,1.576c-0.97,0-1.939-0.364-2.606-1.576
		l-6.972-13.094v26.551c0,1.636-2,2.486-3.94,2.486c-2.001,0-3.94-0.848-3.94-2.486V91.895c0-2.91,1.939-3.94,3.94-3.94
		c2.849,0,4.121,0.606,6.122,4.183l7.456,13.578l7.456-13.578c2-3.577,3.333-4.183,6.183-4.183c2.001,0,3.94,1.03,3.94,3.94v37.887
		c0,1.636-2.001,2.486-3.94,2.486c-2,0-3.94-0.848-3.94-2.486v-26.067L350.273,116.324z"/>
</g>
<g>
</g>
<g>
</g>
<g>
</g>
<g>
</g>
<g>
</g>
<g>
</g>
<g>
</g>
<g>
</g>
<g>
</g>
<g>
</g>
<g>
</g>
<g>
</g>
<g>
</g>
<g>
</g>
<g>
</g>
</svg>
