<?xml version="1.0" encoding="UTF-8"?>
<svg version="1.1" viewBox="0 0 20 20" xmlns="http://www.w3.org/2000/svg">
	<path d="m2 16.442v-0.36246h16v0.72492h-16zm0.72492-1.0615v-0.33657h14.55v0.67314h-14.55zm0.93204-0.98382v-0.28479h12.79v0.56958h-12.79zm0.03759-0.97087c0.023994-0.46743 0.27309-6.6401 0.27309-6.767 0-0.10162 0.028603-0.10674 0.59547-0.10674 0.5072 0 0.59547 0.012039 0.59547 0.081491 0 0.21054 0.25875 6.2154 0.28598 6.637l0.03095 0.47896h-1.7976zm3.729-0.02589c0.033795-0.73944 0.2722-6.6469 0.2722-6.7447 0-0.097033 0.035315-0.10315 0.59547-0.10315 0.53682 0 0.59547 0.00912 0.59547 0.092338 0 0.22021 0.25759 6.1929 0.28577 6.6261l0.03116 0.47896h-1.796zm3.608-0.12945c0.01736-0.26343 0.07789-1.6906 0.1345-3.1715 0.05661-1.4809 0.11656-2.8848 0.13324-3.1197l0.03032-0.42718h1.1816v0.26936c0 0.20709 0.17873 4.5739 0.27137 6.6304l0.01341 0.29783-1.7961-1.81e-4 0.03158-0.47896zm3.5855 0.12945c0.02039-0.3424 0.27603-6.61 0.27603-6.7677 0-0.0677 0.0925-0.080153 0.59547-0.080153 0.58059 0 0.59547 0.00292 0.59547 0.11493 0 0.20847 0.2535 6.1143 0.28345 6.6035l0.02932 0.47896h-1.8006zm-11.756-7.249c-0.014666-0.049933-0.041457-0.17442-0.059528-0.27663l-0.032847-0.18584 0.53494-0.18892c0.29422-0.1039 1.9267-0.66487 3.6277-1.2466l3.0927-1.0577 3.6128 1.2453c1.987 0.6849 3.6175 1.2487 3.6232 1.253 0.0057 0.00426-0.01909 0.12343-0.05516 0.26484l-0.06559 0.25711-7.1258 0.013134c-6.7537 0.01244-7.1271 0.00839-7.1524-0.077672zm12.263-0.52342c-0.027058-0.024346-1.1855-0.44313-2.5743-0.93063l-2.5251-0.88636-2.5234 0.88368c-1.3879 0.48602-2.5456 0.9048-2.5726 0.93063-0.029442 0.028104 2.0173 0.046954 5.0977 0.046954 2.8531 0 5.125-0.019725 5.0977-0.044266zm-5.4965-0.26431c-0.44928-0.27394-0.43054-1.0293 0.03146-1.2682 0.51002-0.26374 1.0921 0.079995 1.0917 0.64474-3.63e-4 0.57192-0.63234 0.92273-1.1232 0.62346z" stroke-width=".090871"/>
</svg>
