<svg width="49" height="52" viewBox="0 0 49 52" fill="none" xmlns="http://www.w3.org/2000/svg">
<path d="M3.39137 21V-1.43051e-06H7.41137L19.8014 15.12H17.8514V-1.43051e-06H22.6514V21H18.6614L6.24137 5.88H8.19137V21H3.39137ZM24.8599 21L34.2199 -1.43051e-06H39.0199L48.4099 21H43.3099L35.6299 2.46H37.5499L29.8399 21H24.8599ZM29.5399 16.5L30.8299 12.81H41.6299L42.9499 16.5H29.5399ZM0.842539 51V30H4.86254L13.8025 44.82H11.6725L20.4625 30H24.4525L24.5125 51H19.9525L19.9225 36.99H20.7625L13.7425 48.78H11.5525L4.38254 36.99H5.40254V51H0.842539ZM38.8249 51.36C35.8449 51.36 33.5149 50.53 31.8349 48.87C30.1549 47.21 29.3149 44.84 29.3149 41.76V30H34.1749V41.58C34.1749 43.58 34.5849 45.02 35.4049 45.9C36.2249 46.78 37.3749 47.22 38.8549 47.22C40.3349 47.22 41.4849 46.78 42.3049 45.9C43.1249 45.02 43.5349 43.58 43.5349 41.58V30H48.3349V41.76C48.3349 44.84 47.4949 47.21 45.8149 48.87C44.1349 50.53 41.8049 51.36 38.8249 51.36Z" fill="white"/>
</svg>
