<svg version="1.1" xmlns="http://www.w3.org/2000/svg" xmlns:xlink="http://www.w3.org/1999/xlink" width="58" height="63" viewBox="0,0,235.675,256"><g transform="translate(22.44524,24.38095) scale(0.80952,0.80952)"><g fill="#000000" fill-rule="nonzero" stroke="none" stroke-width="1" stroke-linecap="butt" stroke-linejoin="miter" stroke-miterlimit="10" stroke-dasharray="" stroke-dashoffset="0" font-family="none" font-weight="none" font-size="none" text-anchor="none" style="mix-blend-mode: normal"><path d="M-27.72647,286.11765v-316.23529h291.12794v316.23529z" id="bgRectangle"></path></g><g fill="#ffffff" fill-rule="nonzero" stroke="none" stroke-width="1" stroke-linecap="butt" stroke-linejoin="miter" stroke-miterlimit="10" stroke-dasharray="" stroke-dashoffset="0" font-family="none" font-weight="none" font-size="none" text-anchor="none" style="mix-blend-mode: normal"><g transform="translate(-1.61291,-0.47136) scale(4.06349,4.06349)"><path d="M24.0126,0.8v25.2h-4.788l-12.564,-15.3v15.3h-5.76v-25.2h4.824l12.528,15.3v-15.3zM46.5708,20.6h-11.7l-2.232,5.4h-5.976l11.232,-25.2h5.76l11.268,25.2h-6.12zM44.7348,16.172l-3.996,-9.648l-3.996,9.648zM23.8326,62l-0.036,-15.12l-7.416,12.456h-2.628l-7.38,-12.132v14.796h-5.472v-25.2h4.824l9.432,15.66l9.288,-15.66h4.788l0.072,25.2zM46.4794,62.432c-3.6,0 -6.408,-0.996 -8.424,-2.988c-1.992,-1.992 -2.988,-4.836 -2.988,-8.532v-14.112h5.832v13.896c0,4.512 1.872,6.768 5.616,6.768c1.824,0 3.216,-0.54 4.176,-1.62c0.96,-1.104 1.44,-2.82 1.44,-5.148v-13.896h5.76v14.112c0,3.696 -1.008,6.54 -3.024,8.532c-1.992,1.992 -4.788,2.988 -8.388,2.988z"></path></g></g><g fill="none" fill-rule="nonzero" stroke="#5dd3c8" stroke-width="1.38095" stroke-linecap="butt" stroke-linejoin="miter" stroke-miterlimit="10" stroke-dasharray="11.047619047619047,11.047619047619047" stroke-dashoffset="0" font-family="none" font-weight="none" font-size="none" text-anchor="none" style="mix-blend-mode: normal"></g></g></svg>