<svg width="57.000000" height="62.000000" viewBox="0 0 57 62" fill="none" xmlns="http://www.w3.org/2000/svg" xmlns:xlink="http://www.w3.org/1999/xlink">
	<desc>
			Created with Pixso.
	</desc>
	<defs/>
	<path id="NA MU" d="M23.01 25L23.01 -0.2L17.25 -0.2L17.25 15.1L4.72 -0.2L-0.1 -0.2L-0.1 25L5.65 25L5.65 9.69L18.22 25L23.01 25ZM33.88 19.6L45.58 19.6L47.81 25L53.93 25L42.66 -0.2L36.9 -0.2L25.67 25L31.65 25L33.88 19.6ZM39.75 5.52L43.74 15.17L35.75 15.17L39.75 5.52ZM22.79 45.88L22.83 61L28.3 61L28.23 35.8L23.44 35.8L14.15 51.46L4.72 35.8L-0.1 35.8L-0.1 61L5.37 61L5.37 46.2L12.75 58.33L15.37 58.33L22.79 45.88ZM37.8 59.1Q40.7 61.43 45.47 61.43Q50.23 61.43 53.13 59.11Q53.52 58.79 53.88 58.44Q54.14 58.17 54.39 57.88Q56.88 54.95 56.88 49.9L56.88 35.8L51.12 35.8L51.12 49.69Q51.12 53.18 49.68 54.83Q49.41 55.13 49.1 55.38Q47.73 56.46 45.51 56.46Q43.22 56.46 41.86 55.33Q39.89 53.7 39.89 49.69L39.89 35.8L34.06 35.8L34.06 49.9Q34.06 54.95 36.55 57.88Q36.79 58.17 37.06 58.44Q37.41 58.79 37.8 59.1Z" fill="#0F0E08" fill-opacity="1.000000" fill-rule="evenodd"/>
</svg>
