<?xml version="1.0" standalone="no"?>
<!DOCTYPE svg PUBLIC "-//W3C//DTD SVG 20010904//EN"
 "http://www.w3.org/TR/2001/REC-SVG-20010904/DTD/svg10.dtd">
<svg version="1.0" xmlns="http://www.w3.org/2000/svg"
 width="521.000000pt" height="214.000000pt" viewBox="0 0 521.000000 214.000000"
 preserveAspectRatio="xMidYMid meet">

<g transform="translate(0.000000,214.000000) scale(0.100000,-0.100000)"
fill="#000000" stroke="none">
<path d="M1810 1649 c-25 -5 -77 -25 -117 -44 -276 -136 -340 -541 -124 -777
110 -121 301 -176 452 -132 73 21 113 46 182 113 l57 55 0 -87 0 -87 65 0 65
0 0 480 0 480 -65 0 -65 0 0 -90 0 -90 -42 46 c-110 120 -247 164 -408 133z
m269 -154 c68 -37 124 -101 153 -174 31 -79 31 -223 0 -302 -29 -72 -85 -137
-153 -174 -50 -28 -62 -30 -154 -30 -84 0 -107 4 -147 23 -63 31 -126 96 -157
162 -23 49 -26 67 -26 170 0 125 15 176 71 243 73 87 146 118 269 114 78 -2
97 -7 144 -32z"/>
<path d="M430 1170 l0 -480 70 0 70 0 2 386 3 387 275 -386 275 -386 78 0 77
-1 0 480 0 480 -70 0 -70 0 -2 -374 -3 -375 -265 374 -265 374 -87 0 -88 1 0
-480z"/>
<path d="M2610 1170 l0 -480 70 0 70 0 2 385 3 385 176 -383 176 -382 70 -3
70 -3 181 393 182 393 0 -392 0 -393 70 0 70 0 0 480 0 481 -101 -3 -101 -3
-180 -392 c-100 -216 -184 -390 -187 -388 -3 2 -87 179 -186 394 l-180 390
-102 1 -103 0 0 -480z"/>
<path d="M3952 1312 l3 -338 38 -76 c76 -155 226 -238 407 -225 133 9 245 70
313 169 70 102 71 107 75 476 l3 332 -70 0 -71 0 0 -303 c0 -349 -5 -380 -71
-452 -59 -64 -118 -89 -209 -89 -122 0 -207 53 -256 159 -23 49 -24 56 -24
368 l0 317 -71 0 -70 0 3 -338z"/>
</g>
</svg>
