<svg width="56.985352" height="61.628906" viewBox="0 0 56.9854 61.6289" fill="none" xmlns="http://www.w3.org/2000/svg" xmlns:xlink="http://www.w3.org/1999/xlink">
	<desc>
			Created with Pixso.
	</desc>
	<defs/>
	<path id="NA MU" d="M23.1152 0L23.1152 25.1982L18.3252 25.1982L5.75684 9.89648L5.75684 25.1982L0 25.1982L0 0L4.8252 0L17.3496 15.3018L17.3496 0L23.1152 0ZM45.6817 19.8018L33.9835 19.8018L31.7511 25.1982L25.7745 25.1982L37.0069 0L42.7638 0L54.0314 25.1982L47.9142 25.1982L45.6817 19.8018ZM43.8448 15.3721L39.8546 5.72168L35.8556 15.3721L43.8448 15.3721ZM22.9307 61.1982L22.8955 46.0811L15.4775 58.5352L12.8496 58.5352L5.47559 46.4062L5.47559 61.1982L0 61.1982L0 36L4.8252 36L14.2559 51.6621L23.5459 36L28.3359 36L28.4062 61.1982L22.9307 61.1982ZM45.5773 61.6289Q40.172 61.6289 37.1661 58.6406Q34.1603 55.6523 34.1603 50.1064L34.1603 36L39.9962 36L39.9962 49.8955Q39.9962 56.6631 45.6124 56.6631Q48.3458 56.6631 49.7872 55.0283Q51.2286 53.3848 51.2286 49.8955L51.2286 36L56.9855 36L56.9855 50.1064Q56.9855 55.6523 53.9796 58.6406Q50.9737 61.6289 45.5773 61.6289Z" fill="#0F0E08" fill-opacity="1.000000" fill-rule="evenodd"/>
</svg>
