<svg width="25" height="24" viewBox="0 0 25 24" fill="none" xmlns="http://www.w3.org/2000/svg">
<g clip-path="url(#clip0)">
<path d="M9.71956 4.64899C9.71956 5.2538 9.71956 7.9533 9.71956 7.9533H7.30249V11.9938H9.71956V24.0009H14.6847V11.9942H18.0166C18.0166 11.9942 18.3286 10.0568 18.4799 7.93841C18.0462 7.93841 14.7035 7.93841 14.7035 7.93841C14.7035 7.93841 14.7035 5.58776 14.7035 5.17573C14.7035 4.76282 15.2449 4.2074 15.7799 4.2074C16.314 4.2074 17.4411 4.2074 18.4851 4.2074C18.4851 3.65727 18.4851 1.75647 18.4851 0.000976577C17.0914 0.000976577 15.5059 0.000976577 14.807 0.000976577C9.59683 0.000697581 9.71956 4.04524 9.71956 4.64899Z" fill="black"/>
</g>
<defs>
<clipPath id="clip0">
<rect width="23.9626" height="24" fill="white" transform="translate(0.912598)"/>
</clipPath>
</defs>
</svg>
