<svg width="437" height="141" viewBox="0 0 437 141" fill="none" xmlns="http://www.w3.org/2000/svg">
<path d="M17.336 15.6L18.1614 15.0355L17.8636 14.6H17.336V15.6ZM27.776 30.864L26.9506 31.4285L27.776 32.6353L28.6014 31.4285L27.776 30.864ZM38.216 15.6V14.6H37.6884L37.3906 15.0355L38.216 15.6ZM51.896 15.6L52.717 16.171L53.8096 14.6H51.896V15.6ZM35.12 39.72L34.299 39.149L33.9034 39.7179L34.2971 40.2882L35.12 39.72ZM53.264 66V67H55.1696L54.0869 65.4318L53.264 66ZM39.512 66L38.6938 66.5749L38.9924 67H39.512V66ZM27.776 49.296L28.5942 48.7211L27.7709 47.5493L26.9544 48.7259L27.776 49.296ZM16.184 66V67H16.7072L17.0056 66.5701L16.184 66ZM2.72 66L1.90012 65.4275L0.801981 67H2.72V66ZM20.72 40.224L21.5399 40.7965L21.9356 40.2298L21.5453 39.6593L20.72 40.224ZM3.872 15.6V14.6H1.97612L3.04669 16.1647L3.872 15.6ZM16.5106 16.1645L26.9506 31.4285L28.6014 30.2995L18.1614 15.0355L16.5106 16.1645ZM28.6014 31.4285L39.0414 16.1645L37.3906 15.0355L26.9506 30.2995L28.6014 31.4285ZM38.216 16.6H51.896V14.6H38.216V16.6ZM51.075 15.029L34.299 39.149L35.941 40.291L52.717 16.171L51.075 15.029ZM34.2971 40.2882L52.4411 66.5682L54.0869 65.4318L35.9429 39.1518L34.2971 40.2882ZM53.264 65H39.512V67H53.264V65ZM40.3302 65.4251L28.5942 48.7211L26.9578 49.8709L38.6938 66.5749L40.3302 65.4251ZM26.9544 48.7259L15.3624 65.4299L17.0056 66.5701L28.5976 49.8661L26.9544 48.7259ZM16.184 65H2.72V67H16.184V65ZM3.53988 66.5725L21.5399 40.7965L19.9001 39.6515L1.90012 65.4275L3.53988 66.5725ZM21.5453 39.6593L4.69731 15.0353L3.04669 16.1647L19.8947 40.7887L21.5453 39.6593ZM3.872 16.6H17.336V14.6H3.872V16.6ZM105.026 15.6L105.906 16.0737L106.699 14.6H105.026V15.6ZM83.5698 55.488L82.6891 55.0143L82.689 55.0146L83.5698 55.488ZM76.0818 64.2L75.524 63.37L75.5176 63.3744L76.0818 64.2ZM58.4418 65.424L57.4886 65.1218L57.2094 66.0023L58.065 66.3503L58.4418 65.424ZM61.2498 56.568L61.5455 55.6127L60.5968 55.3191L60.2966 56.2658L61.2498 56.568ZM70.1778 56.496L70.6817 57.3598L70.6949 57.3521L70.7078 57.344L70.1778 56.496ZM73.3458 53.184L72.5458 52.584L72.5246 52.6122L72.5055 52.6419L73.3458 53.184ZM73.7778 52.608L74.5778 53.208L74.9608 52.6973L74.6588 52.1349L73.7778 52.608ZM53.9058 15.6V14.6H52.2338L53.0248 16.0731L53.9058 15.6ZM66.3618 15.6L67.2581 15.1566L66.9828 14.6H66.3618V15.6ZM79.7538 42.672L78.8575 43.1154L79.7396 44.8987L80.6444 43.1268L79.7538 42.672ZM93.5778 15.6V14.6H92.9656L92.6872 15.1452L93.5778 15.6ZM104.145 15.1263L82.6891 55.0143L84.4505 55.9617L105.906 16.0737L104.145 15.1263ZM82.689 55.0146C80.6842 58.7445 78.2887 61.5118 75.524 63.37L76.6396 65.03C79.7309 62.9522 82.3275 59.9115 84.4506 55.9614L82.689 55.0146ZM75.5176 63.3744C72.7997 65.2316 69.8515 66.152 66.6498 66.152V68.152C70.2641 68.152 73.6039 67.1044 76.646 65.0256L75.5176 63.3744ZM66.6498 66.152C64.1577 66.152 61.5496 65.6086 58.8186 64.4977L58.065 66.3503C60.998 67.5434 63.8619 68.152 66.6498 68.152V66.152ZM59.395 65.7262L62.203 56.8702L60.2966 56.2658L57.4886 65.1218L59.395 65.7262ZM60.9541 57.5233C63.0179 58.1621 64.8054 58.504 66.2898 58.504V56.504C65.0863 56.504 63.5137 56.2219 61.5455 55.6127L60.9541 57.5233ZM66.2898 58.504C67.8923 58.504 69.3646 58.1281 70.6817 57.3598L69.6739 55.6322C68.687 56.2079 67.5673 56.504 66.2898 56.504V58.504ZM70.7078 57.344C72.0163 56.5262 73.1696 55.3017 74.1861 53.7261L72.5055 52.6419C71.602 54.0423 70.6433 55.0258 69.6478 55.648L70.7078 57.344ZM74.1458 53.784L74.5778 53.208L72.9778 52.008L72.5458 52.584L74.1458 53.784ZM74.6588 52.1349L54.7868 15.1269L53.0248 16.0731L72.8968 53.0811L74.6588 52.1349ZM53.9058 16.6H66.3618V14.6H53.9058V16.6ZM65.4655 16.0434L78.8575 43.1154L80.6501 42.2286L67.2581 15.1566L65.4655 16.0434ZM80.6444 43.1268L94.4684 16.0548L92.6872 15.1452L78.8632 42.2172L80.6444 43.1268ZM93.5778 16.6H105.026V14.6H93.5778V16.6ZM161.709 56.496H162.709V55.496H161.709V56.496ZM161.709 76.44V77.44H162.709V76.44H161.709ZM150.909 76.44H149.909V77.44H150.909V76.44ZM150.909 66H151.909V65H150.909V66ZM115.341 66V65H114.341V66H115.341ZM115.341 76.44V77.44H116.341V76.44H115.341ZM104.541 76.44L103.541 76.4364L103.537 77.44H104.541V76.44ZM104.613 56.496V55.496H103.617L103.613 56.4924L104.613 56.496ZM106.629 56.496V57.496H106.645L106.661 57.4955L106.629 56.496ZM113.037 49.872L112.076 49.5945L113.037 49.872ZM115.341 31.368L114.342 31.3315L114.342 31.3321L115.341 31.368ZM115.917 15.6V14.6H114.953L114.918 15.5635L115.917 15.6ZM154.653 15.6H155.653V14.6H154.653V15.6ZM154.653 56.496H153.653V57.496H154.653V56.496ZM125.637 32.448L126.636 32.488L126.637 32.4774L125.637 32.448ZM124.125 47.568L125.107 47.7551L125.108 47.753L124.125 47.568ZM120.597 56.496L119.826 55.8596L118.476 57.496H120.597V56.496ZM143.133 56.496V57.496H144.133V56.496H143.133ZM143.133 25.104H144.133V24.104H143.133V25.104ZM125.853 25.104V24.104H124.882L124.853 25.0746L125.853 25.104ZM160.709 56.496V76.44H162.709V56.496H160.709ZM161.709 75.44H150.909V77.44H161.709V75.44ZM151.909 76.44V66H149.909V76.44H151.909ZM150.909 65H115.341V67H150.909V65ZM114.341 66V76.44H116.341V66H114.341ZM115.341 75.44H104.541V77.44H115.341V75.44ZM105.541 76.4436L105.613 56.4996L103.613 56.4924L103.541 76.4364L105.541 76.4436ZM104.613 57.496H106.629V55.496H104.613V57.496ZM106.661 57.4955C108.437 57.4391 109.972 56.7509 111.218 55.4633C112.44 54.2001 113.348 52.3989 113.998 50.1495L112.076 49.5945C111.478 51.6651 110.694 53.1279 109.78 54.0727C108.89 54.9931 107.845 55.4569 106.597 55.4965L106.661 57.4955ZM113.998 50.1495C115.279 45.7124 116.051 39.4486 116.34 31.4039L114.342 31.3321C114.055 39.3194 113.29 45.3916 112.076 49.5945L113.998 50.1495ZM116.34 31.4045L116.916 15.6365L114.918 15.5635L114.342 31.3315L116.34 31.4045ZM115.917 16.6H154.653V14.6H115.917V16.6ZM153.653 15.6V56.496H155.653V15.6H153.653ZM154.653 57.496H161.709V55.496H154.653V57.496ZM124.638 32.408C124.399 38.3788 123.898 43.3668 123.142 47.383L125.108 47.753C125.888 43.6092 126.395 38.5172 126.636 32.488L124.638 32.408ZM123.143 47.3809C122.388 51.3428 121.254 54.1276 119.826 55.8596L121.368 57.1324C123.107 55.0244 124.326 51.8572 125.107 47.7551L123.143 47.3809ZM120.597 57.496H143.133V55.496H120.597V57.496ZM144.133 56.496V25.104H142.133V56.496H144.133ZM143.133 24.104H125.853V26.104H143.133V24.104ZM124.853 25.0746L124.637 32.4186L126.637 32.4774L126.853 25.1334L124.853 25.0746ZM179.425 63.48L178.95 64.3598L178.954 64.3621L179.425 63.48ZM169.561 54.192L168.7 54.7004L168.703 54.7065L168.707 54.7126L169.561 54.192ZM169.561 27.48L168.704 26.964L168.702 26.967L169.561 27.48ZM179.425 18.12L178.954 17.2379L178.95 17.2402L179.425 18.12ZM217.585 27.48L216.728 27.996L216.731 28.0006L217.585 27.48ZM217.585 54.192L218.439 54.7126L218.441 54.708L217.585 54.192ZM207.721 63.48L208.196 64.3598L207.721 63.48ZM201.673 54.912L202.161 55.7845L202.168 55.7808L202.175 55.777L201.673 54.912ZM207.289 49.152L206.42 48.6577L206.416 48.6642L206.412 48.6707L207.289 49.152ZM207.289 32.448L206.412 32.9293L206.416 32.9358L206.42 32.9423L207.289 32.448ZM201.673 26.76L201.171 27.625L201.178 27.6288L201.184 27.6325L201.673 26.76ZM185.545 26.76L186.033 27.6325L186.04 27.6288L186.047 27.625L185.545 26.76ZM179.857 32.448L178.988 31.9537L178.984 31.9602L178.98 31.9667L179.857 32.448ZM179.857 49.152L178.98 49.6333L178.984 49.6398L178.988 49.6463L179.857 49.152ZM185.545 54.912L185.043 55.777L185.05 55.7808L185.056 55.7845L185.545 54.912ZM193.609 65.864C188.526 65.864 183.962 64.7695 179.896 62.5979L178.954 64.3621C183.336 66.7025 188.228 67.864 193.609 67.864V65.864ZM179.9 62.6002C175.875 60.4257 172.72 57.4517 170.415 53.6714L168.707 54.7126C171.202 58.8043 174.623 62.0223 178.95 64.3598L179.9 62.6002ZM170.422 53.6836C168.167 49.8642 167.033 45.5779 167.033 40.8H165.033C165.033 45.9101 166.251 50.5518 168.7 54.7004L170.422 53.6836ZM167.033 40.8C167.033 36.022 168.167 31.7618 170.419 27.993L168.702 26.967C166.251 31.0702 165.033 35.69 165.033 40.8H167.033ZM170.417 27.996C172.723 24.1685 175.878 21.1727 179.9 18.9998L178.95 17.2402C174.62 19.5793 171.199 22.8235 168.704 26.964L170.417 27.996ZM179.896 19.0021C183.962 16.8305 188.526 15.736 193.609 15.736V13.736C188.228 13.736 183.336 14.8975 178.954 17.2379L179.896 19.0021ZM193.609 15.736C198.692 15.736 203.23 16.8305 207.246 18.9998L208.196 17.2402C203.86 14.8975 198.99 13.736 193.609 13.736V15.736ZM207.246 18.9998C211.268 21.1727 214.423 24.1685 216.728 27.996L218.441 26.964C215.947 22.8235 212.526 19.5793 208.196 17.2402L207.246 18.9998ZM216.731 28.0006C219.029 31.7684 220.185 36.0258 220.185 40.8H222.185C222.185 35.6862 220.941 31.0636 218.439 26.9594L216.731 28.0006ZM220.185 40.8C220.185 45.5741 219.028 49.8577 216.728 53.676L218.441 54.708C220.941 50.5583 222.185 45.9139 222.185 40.8H220.185ZM216.731 53.6714C214.426 57.4517 211.271 60.4257 207.246 62.6002L208.196 64.3598C212.523 62.0223 215.944 58.8043 218.439 54.7126L216.731 53.6714ZM207.246 62.6002C203.23 64.7695 198.692 65.864 193.609 65.864V67.864C198.99 67.864 203.86 66.7025 208.196 64.3598L207.246 62.6002ZM193.609 57.928C196.742 57.928 199.6 57.2189 202.161 55.7845L201.184 54.0395C198.946 55.2931 196.428 55.928 193.609 55.928V57.928ZM202.175 55.777C204.733 54.293 206.734 52.2398 208.165 49.6333L206.412 48.6707C205.155 50.9602 203.412 52.747 201.171 54.047L202.175 55.777ZM208.158 49.6463C209.645 47.0318 210.377 44.0742 210.377 40.8H208.377C208.377 43.7658 207.717 46.3762 206.42 48.6577L208.158 49.6463ZM210.377 40.8C210.377 37.5258 209.645 34.5682 208.158 31.9537L206.42 32.9423C207.717 35.2238 208.377 37.8342 208.377 40.8H210.377ZM208.165 31.9667C206.733 29.3572 204.728 27.3245 202.161 25.8875L201.184 27.6325C203.418 28.8835 205.157 30.6428 206.412 32.9293L208.165 31.9667ZM202.175 25.895C199.611 24.4081 196.748 23.672 193.609 23.672V25.672C196.422 25.672 198.935 26.3279 201.171 27.625L202.175 25.895ZM193.609 23.672C190.47 23.672 187.607 24.4081 185.043 25.895L186.047 27.625C188.283 26.3279 190.796 25.672 193.609 25.672V23.672ZM185.056 25.8875C182.493 27.3227 180.467 29.3513 178.988 31.9537L180.726 32.9423C182.03 30.6487 183.796 28.8853 186.033 27.6325L185.056 25.8875ZM178.98 31.9667C177.546 34.5789 176.841 37.5318 176.841 40.8H178.841C178.841 37.8282 179.48 35.2131 180.733 32.9293L178.98 31.9667ZM176.841 40.8C176.841 44.0682 177.546 47.0211 178.98 49.6333L180.733 48.6707C179.48 46.3869 178.841 43.7718 178.841 40.8H176.841ZM178.988 49.6463C180.466 52.2458 182.488 54.2948 185.043 55.777L186.047 54.047C183.802 52.7452 182.032 50.9542 180.726 48.6577L178.988 49.6463ZM185.056 55.7845C187.618 57.2189 190.476 57.928 193.609 57.928V55.928C190.79 55.928 188.272 55.2931 186.033 54.0395L185.056 55.7845ZM274.062 45.696L274.936 45.2096L274.65 44.696H274.062V45.696ZM266.718 45.696V44.696H265.718V45.696H266.718ZM266.718 66V67H267.718V66H266.718ZM255.27 66H254.27V67H255.27V66ZM255.27 45.696H256.27V44.696H255.27V45.696ZM247.782 45.696V44.696H247.194L246.908 45.2096L247.782 45.696ZM236.478 66V67H237.066L237.352 66.4864L236.478 66ZM223.014 66L222.147 65.5023L221.287 67H223.014V66ZM238.134 39.648L239.001 40.1457L239.291 39.6411L238.995 39.14L238.134 39.648ZM223.95 15.6V14.6H222.199L223.089 16.108L223.95 15.6ZM236.262 15.6L237.137 15.1149L236.851 14.6H236.262V15.6ZM247.566 35.976L246.692 36.4611L246.977 36.976H247.566V35.976ZM255.27 35.976V36.976H256.27V35.976H255.27ZM255.27 15.6V14.6H254.27V15.6H255.27ZM266.718 15.6H267.718V14.6H266.718V15.6ZM266.718 35.976H265.718V36.976H266.718V35.976ZM274.206 35.976V36.976H274.793L275.079 36.4635L274.206 35.976ZM285.582 15.6V14.6H284.995L284.709 15.1125L285.582 15.6ZM297.894 15.6L298.757 16.1061L299.64 14.6H297.894V15.6ZM283.782 39.648L282.92 39.1419L282.627 39.6412L282.914 40.1439L283.782 39.648ZM298.83 66V67H300.553L299.699 65.5041L298.83 66ZM285.366 66L284.492 66.4864L284.778 67H285.366V66ZM274.062 44.696H266.718V46.696H274.062V44.696ZM265.718 45.696V66H267.718V45.696H265.718ZM266.718 65H255.27V67H266.718V65ZM256.27 66V45.696H254.27V66H256.27ZM255.27 44.696H247.782V46.696H255.27V44.696ZM246.908 45.2096L235.604 65.5136L237.352 66.4864L248.656 46.1824L246.908 45.2096ZM236.478 65H223.014V67H236.478V65ZM223.881 66.4977L239.001 40.1457L237.267 39.1503L222.147 65.5023L223.881 66.4977ZM238.995 39.14L224.811 15.092L223.089 16.108L237.273 40.156L238.995 39.14ZM223.95 16.6H236.262V14.6H223.95V16.6ZM235.388 16.0851L246.692 36.4611L248.441 35.4909L237.137 15.1149L235.388 16.0851ZM247.566 36.976H255.27V34.976H247.566V36.976ZM256.27 35.976V15.6H254.27V35.976H256.27ZM255.27 16.6H266.718V14.6H255.27V16.6ZM265.718 15.6V35.976H267.718V15.6H265.718ZM266.718 36.976H274.206V34.976H266.718V36.976ZM275.079 36.4635L286.455 16.0875L284.709 15.1125L273.333 35.4885L275.079 36.4635ZM285.582 16.6H297.894V14.6H285.582V16.6ZM297.032 15.0939L282.92 39.1419L284.645 40.1541L298.757 16.1061L297.032 15.0939ZM282.914 40.1439L297.962 66.4959L299.699 65.5041L284.651 39.1521L282.914 40.1439ZM298.83 65H285.366V67H298.83V65ZM286.24 65.5136L274.936 45.2096L273.188 46.1824L284.492 66.4864L286.24 65.5136ZM352.261 15.6H353.261V14.6H352.261V15.6ZM352.261 66V67H353.261V66H352.261ZM340.597 66H339.597V67H340.597V66ZM340.597 45.336H341.597V44.336H340.597V45.336ZM317.701 45.336V44.336H316.701V45.336H317.701ZM317.701 66V67H318.701V66H317.701ZM306.037 66H305.037V67H306.037V66ZM306.037 15.6V14.6H305.037V15.6H306.037ZM317.701 15.6H318.701V14.6H317.701V15.6ZM317.701 35.472H316.701V36.472H317.701V35.472ZM340.597 35.472V36.472H341.597V35.472H340.597ZM340.597 15.6V14.6H339.597V15.6H340.597ZM351.261 15.6V66H353.261V15.6H351.261ZM352.261 65H340.597V67H352.261V65ZM341.597 66V45.336H339.597V66H341.597ZM340.597 44.336H317.701V46.336H340.597V44.336ZM316.701 45.336V66H318.701V45.336H316.701ZM317.701 65H306.037V67H317.701V65ZM307.037 66V15.6H305.037V66H307.037ZM306.037 16.6H317.701V14.6H306.037V16.6ZM316.701 15.6V35.472H318.701V15.6H316.701ZM317.701 36.472H340.597V34.472H317.701V36.472ZM341.597 35.472V15.6H339.597V35.472H341.597ZM340.597 16.6H352.261V14.6H340.597V16.6ZM364.889 15.6V14.6H363.889V15.6H364.889ZM376.481 15.6H377.481V14.6H376.481V15.6ZM376.481 66V67H377.481V66H376.481ZM364.889 66H363.889V67H364.889V66ZM364.889 16.6H376.481V14.6H364.889V16.6ZM375.481 15.6V66H377.481V15.6H375.481ZM376.481 65H364.889V67H376.481V65ZM365.889 66V15.6H363.889V66H365.889ZM389.006 15.6V14.6H388.006V15.6H389.006ZM400.598 15.6H401.598V14.6H400.598V15.6ZM400.598 48.432H399.598V51.4896L401.405 49.0229L400.598 48.432ZM424.646 15.6V14.6H424.139L423.839 15.0091L424.646 15.6ZM435.59 15.6H436.59V14.6H435.59V15.6ZM435.59 66V67H436.59V66H435.59ZM424.07 66H423.07V67H424.07V66ZM424.07 33.24H425.07V30.1878L423.264 32.6483L424.07 33.24ZM400.022 66V67H400.529L400.828 66.5917L400.022 66ZM389.006 66H388.006V67H389.006V66ZM398.294 1.344V0.343996H397.281L397.294 1.35707L398.294 1.344ZM406.286 1.344L407.286 1.31661L407.259 0.343996H406.286V1.344ZM416.654 5.304L417.305 6.06325L417.315 6.05453L417.325 6.04553L416.654 5.304ZM418.238 1.344V0.343996H417.266L417.239 1.31623L418.238 1.344ZM426.23 1.344L427.23 1.35733L427.244 0.343996H426.23V1.344ZM422.702 9.552L422.072 8.77588V8.77588L422.702 9.552ZM389.006 16.6H400.598V14.6H389.006V16.6ZM399.598 15.6V48.432H401.598V15.6H399.598ZM401.405 49.0229L425.453 16.1909L423.839 15.0091L399.791 47.8411L401.405 49.0229ZM424.646 16.6H435.59V14.6H424.646V16.6ZM434.59 15.6V66H436.59V15.6H434.59ZM435.59 65H424.07V67H435.59V65ZM425.07 66V33.24H423.07V66H425.07ZM423.264 32.6483L399.216 65.4083L400.828 66.5917L424.876 33.8317L423.264 32.6483ZM400.022 65H389.006V67H400.022V65ZM390.006 66V15.6H388.006V66H390.006ZM412.262 11.36C407.761 11.36 404.555 10.4592 402.477 8.8208C400.442 7.21555 399.339 4.78028 399.294 1.33092L397.294 1.35707C397.345 5.25171 398.618 8.32444 401.239 10.3912C403.818 12.4248 407.547 13.36 412.262 13.36V11.36ZM398.294 2.344H406.286V0.343996H398.294V2.344ZM405.287 1.37138C405.34 3.3076 405.926 4.92349 407.192 6.03689C408.439 7.134 410.186 7.6 412.262 7.6V5.6C410.451 5.6 409.257 5.18999 408.513 4.5351C407.787 3.8965 407.329 2.8844 407.286 1.31661L405.287 1.37138ZM412.262 7.6C414.316 7.6 416.05 7.13922 417.305 6.06325L416.003 4.54474C415.243 5.19678 414.048 5.6 412.262 5.6V7.6ZM417.325 6.04553C418.587 4.90375 419.184 3.29418 419.238 1.37176L417.239 1.31623C417.196 2.84981 416.737 3.88024 415.983 4.56246L417.325 6.04553ZM418.238 2.344H426.23V0.343996H418.238V2.344ZM425.23 1.33066C425.185 4.70356 424.097 7.13054 422.072 8.77588L423.333 10.3281C425.916 8.22945 427.179 5.18444 427.23 1.35733L425.23 1.33066ZM422.072 8.77588C420.022 10.4409 416.812 11.36 412.262 11.36V13.36C417.025 13.36 420.774 12.4071 423.333 10.3281L422.072 8.77588ZM54.128 138L53.128 138.002L53.1304 139H54.128V138ZM54.056 107.832L55.056 107.83L55.0474 104.221L53.1974 107.319L54.056 107.832ZM39.224 132.672V133.672H39.7916L40.0826 133.185L39.224 132.672ZM34.04 132.672L33.1868 133.194L33.4792 133.672H34.04V132.672ZM19.208 108.408L20.0612 107.886L18.208 104.855V108.408H19.208ZM19.208 138V139H20.208V138H19.208ZM8.264 138H7.264V139H8.264V138ZM8.264 87.6V86.6H7.264V87.6H8.264ZM17.912 87.6L18.7686 87.0841L18.4771 86.6H17.912V87.6ZM36.776 118.92L35.9194 119.436L36.7826 120.869L37.6361 119.43L36.776 118.92ZM55.352 87.6V86.6H54.7825L54.4919 87.0899L55.352 87.6ZM65 87.6L66 87.5986L65.9986 86.6H65V87.6ZM65.072 138V139H66.0734L66.072 137.999L65.072 138ZM55.128 137.998L55.056 107.83L53.056 107.834L53.128 138.002L55.128 137.998ZM53.1974 107.319L38.3654 132.159L40.0826 133.185L54.9146 108.345L53.1974 107.319ZM39.224 131.672H34.04V133.672H39.224V131.672ZM34.8932 132.15L20.0612 107.886L18.3548 108.93L33.1868 133.194L34.8932 132.15ZM18.208 108.408V138H20.208V108.408H18.208ZM19.208 137H8.264V139H19.208V137ZM9.264 138V87.6H7.264V138H9.264ZM8.264 88.6H17.912V86.6H8.264V88.6ZM17.0554 88.1159L35.9194 119.436L37.6326 118.404L18.7686 87.0841L17.0554 88.1159ZM37.6361 119.43L56.2121 88.1101L54.4919 87.0899L35.9159 118.41L37.6361 119.43ZM55.352 88.6H65V86.6H55.352V88.6ZM64 87.6014L64.072 138.001L66.072 137.999L66 87.5986L64 87.6014ZM65.072 137H54.128V139H65.072V137ZM123.096 87.6L123.977 88.0737L124.77 86.6H123.096V87.6ZM101.64 127.488L100.759 127.014L100.759 127.015L101.64 127.488ZM94.1521 136.2L93.5943 135.37L93.5879 135.374L94.1521 136.2ZM76.5121 137.424L75.5589 137.122L75.2797 138.002L76.1353 138.35L76.5121 137.424ZM79.3201 128.568L79.6158 127.613L78.6671 127.319L78.3669 128.266L79.3201 128.568ZM88.2481 128.496L88.752 129.36L88.7652 129.352L88.7781 129.344L88.2481 128.496ZM91.4161 125.184L90.6161 124.584L90.595 124.612L90.5758 124.642L91.4161 125.184ZM91.8481 124.608L92.6481 125.208L93.0311 124.697L92.7291 124.135L91.8481 124.608ZM71.9761 87.6V86.6H70.3041L71.0951 88.0731L71.9761 87.6ZM84.4321 87.6L85.3285 87.1566L85.0531 86.6H84.4321V87.6ZM97.8241 114.672L96.9278 115.115L97.8099 116.899L98.7147 115.127L97.8241 114.672ZM111.648 87.6V86.6H111.036L110.758 87.1452L111.648 87.6ZM122.215 87.1263L100.759 127.014L102.521 127.962L123.977 88.0737L122.215 87.1263ZM100.759 127.015C98.7545 130.744 96.359 133.512 93.5943 135.37L94.71 137.03C97.8012 134.952 100.398 131.912 102.521 127.961L100.759 127.015ZM93.5879 135.374C90.87 137.232 87.9218 138.152 84.7201 138.152V140.152C88.3344 140.152 91.6743 139.104 94.7163 137.026L93.5879 135.374ZM84.7201 138.152C82.2281 138.152 79.62 137.609 76.8889 136.498L76.1353 138.35C79.0683 139.543 81.9322 140.152 84.7201 140.152V138.152ZM77.4654 137.726L80.2734 128.87L78.3669 128.266L75.5589 137.122L77.4654 137.726ZM79.0244 129.523C81.0882 130.162 82.8757 130.504 84.3601 130.504V128.504C83.1566 128.504 81.584 128.222 79.6158 127.613L79.0244 129.523ZM84.3601 130.504C85.9626 130.504 87.4349 130.128 88.752 129.36L87.7443 127.632C86.7573 128.208 85.6377 128.504 84.3601 128.504V130.504ZM88.7781 129.344C90.0866 128.526 91.2399 127.302 92.2564 125.726L90.5758 124.642C89.6723 126.042 88.7137 127.026 87.7181 127.648L88.7781 129.344ZM92.2161 125.784L92.6481 125.208L91.0481 124.008L90.6161 124.584L92.2161 125.784ZM92.7291 124.135L72.8571 87.1269L71.0951 88.0731L90.9671 125.081L92.7291 124.135ZM71.9761 88.6H84.4321V86.6H71.9761V88.6ZM83.5358 88.0434L96.9278 115.115L98.7205 114.229L85.3285 87.1566L83.5358 88.0434ZM98.7147 115.127L112.539 88.0548L110.758 87.1452L96.9335 114.217L98.7147 115.127ZM111.648 88.6H123.096V86.6H111.648V88.6ZM157.647 111.72L157.239 110.807L154.925 111.841L157.321 112.666L157.647 111.72ZM164.487 116.472L163.689 117.075L163.696 117.085L163.704 117.095L164.487 116.472ZM155.775 137.064L155.447 136.119L155.442 136.121L155.775 137.064ZM134.175 137.568L133.929 138.537L133.932 138.538L134.175 137.568ZM124.455 133.608L123.536 133.212L123.184 134.029L123.954 134.474L124.455 133.608ZM128.055 125.256L128.575 124.402L127.592 123.804L127.136 124.86L128.055 125.256ZM135.327 128.352L135.063 129.317L135.074 129.32L135.084 129.322L135.327 128.352ZM151.743 127.488L151.266 126.609L151.258 126.613L151.743 127.488ZM152.823 117.984L152.293 118.832L152.304 118.839L152.823 117.984ZM134.175 116.544H133.175V117.544H134.175V116.544ZM134.175 107.76V106.76H133.175V107.76H134.175ZM151.095 106.32L150.513 105.506L150.506 105.511L150.499 105.516L151.095 106.32ZM150.231 97.752L149.723 98.6134L149.732 98.6189L150.231 97.752ZM136.119 97.032L136.356 98.0033L136.366 98.001L136.375 97.9986L136.119 97.032ZM129.423 99.696L128.491 100.058L128.91 101.137L129.917 100.565L129.423 99.696ZM125.895 90.624L125.438 89.7344L124.636 90.1462L124.963 90.9864L125.895 90.624ZM154.047 88.248L154.375 87.3035L154.047 88.248ZM157.321 112.666C160.089 113.618 162.193 115.095 163.689 117.075L165.284 115.869C163.516 113.529 161.06 111.838 157.972 110.774L157.321 112.666ZM163.704 117.095C165.236 119.02 166.007 121.27 166.007 123.888H168.007C168.007 120.842 167.097 118.148 165.269 115.849L163.704 117.095ZM166.007 123.888C166.007 126.718 165.086 129.144 163.237 131.214L164.728 132.546C166.911 130.104 168.007 127.202 168.007 123.888H166.007ZM163.237 131.214C161.356 133.319 158.775 134.963 155.447 136.119L156.103 138.009C159.686 136.765 162.577 134.953 164.728 132.546L163.237 131.214ZM155.442 136.121C152.154 137.279 148.524 137.864 144.543 137.864V139.864C148.721 139.864 152.579 139.249 156.107 138.007L155.442 136.121ZM144.543 137.864C141.171 137.864 137.796 137.443 134.417 136.598L133.932 138.538C137.465 139.421 141.002 139.864 144.543 139.864V137.864ZM134.42 136.599C131.102 135.758 127.948 134.473 124.955 132.742L123.954 134.474C127.105 136.295 130.431 137.65 133.929 138.537L134.42 136.599ZM125.373 134.004L128.973 125.652L127.136 124.86L123.536 133.212L125.373 134.004ZM127.535 126.11C129.827 127.506 132.338 128.574 135.063 129.317L135.59 127.387C133.035 126.69 130.698 125.694 128.575 124.402L127.535 126.11ZM135.084 129.322C137.844 130.012 140.542 130.36 143.175 130.36V128.36C140.719 128.36 138.185 128.036 135.569 127.382L135.084 129.322ZM143.175 130.36C146.744 130.36 149.781 129.716 152.227 128.363L151.258 126.613C149.193 127.756 146.517 128.36 143.175 128.36V130.36ZM152.219 128.367C154.783 126.979 156.199 124.921 156.199 122.232H154.199C154.199 124.055 153.311 125.501 151.266 126.609L152.219 128.367ZM156.199 122.232C156.199 120.015 155.228 118.272 153.341 117.129L152.304 118.839C153.585 119.616 154.199 120.705 154.199 122.232H156.199ZM153.353 117.136C151.598 116.04 149.277 115.544 146.487 115.544V117.544C149.072 117.544 150.975 118.008 152.293 118.832L153.353 117.136ZM146.487 115.544H134.175V117.544H146.487V115.544ZM135.175 116.544V107.76H133.175V116.544H135.175ZM134.175 108.76H145.623V106.76H134.175V108.76ZM145.623 108.76C148.095 108.76 150.159 108.258 151.69 107.124L150.499 105.516C149.438 106.302 147.854 106.76 145.623 106.76V108.76ZM151.676 107.134C153.288 105.982 154.111 104.356 154.111 102.36H152.111C152.111 103.724 151.589 104.738 150.513 105.506L151.676 107.134ZM154.111 102.36C154.111 99.9831 152.912 98.1405 150.729 96.8851L149.732 98.6189C151.389 99.5715 152.111 100.801 152.111 102.36H154.111ZM150.739 96.8906C148.666 95.6684 146.05 95.096 142.959 95.096V97.096C145.819 97.096 148.051 97.6276 149.723 98.6134L150.739 96.8906ZM142.959 95.096C140.656 95.096 138.289 95.4215 135.862 96.0654L136.375 97.9986C138.652 97.3945 140.845 97.096 142.959 97.096V95.096ZM135.881 96.0607C133.439 96.6587 131.121 97.5811 128.929 98.8265L129.917 100.565C131.949 99.4109 134.094 98.5573 136.356 98.0033L135.881 96.0607ZM130.355 99.3336L126.827 90.2616L124.963 90.9864L128.491 100.058L130.355 99.3336ZM126.351 91.5136C131.533 88.8526 137.136 87.52 143.175 87.52V85.52C136.829 85.52 130.912 86.9234 125.438 89.7344L126.351 91.5136ZM143.175 87.52C147.012 87.52 150.524 88.0814 153.718 89.1925L154.375 87.3035C150.945 86.1106 147.209 85.52 143.175 85.52V87.52ZM153.718 89.1925C156.899 90.299 159.385 91.8942 161.22 93.9534L162.713 92.6226C160.612 90.2658 157.818 88.501 154.375 87.3035L153.718 89.1925ZM161.22 93.9534C163.027 95.9802 163.919 98.3121 163.919 100.992H165.919C165.919 97.8159 164.843 95.0117 162.713 92.6226L161.22 93.9534ZM163.919 100.992C163.919 103.2 163.326 105.135 162.152 106.831L163.797 107.969C165.215 105.921 165.919 103.584 165.919 100.992H163.919ZM162.152 106.831C160.969 108.54 159.342 109.867 157.239 110.807L158.055 112.633C160.463 111.557 162.388 110.004 163.797 107.969L162.152 106.831ZM215.265 128.64H216.265V127.64H215.265V128.64ZM215.265 138V139H216.265V138H215.265ZM176.241 138H175.241V139H176.241V138ZM176.241 87.6V86.6H175.241V87.6H176.241ZM214.329 87.6H215.329V86.6H214.329V87.6ZM214.329 96.96V97.96H215.329V96.96H214.329ZM187.833 96.96V95.96H186.833V96.96H187.833ZM187.833 107.904H186.833V108.904H187.833V107.904ZM211.233 107.904H212.233V106.904H211.233V107.904ZM211.233 116.976V117.976H212.233V116.976H211.233ZM187.833 116.976V115.976H186.833V116.976H187.833ZM187.833 128.64H186.833V129.64H187.833V128.64ZM214.265 128.64V138H216.265V128.64H214.265ZM215.265 137H176.241V139H215.265V137ZM177.241 138V87.6H175.241V138H177.241ZM176.241 88.6H214.329V86.6H176.241V88.6ZM213.329 87.6V96.96H215.329V87.6H213.329ZM214.329 95.96H187.833V97.96H214.329V95.96ZM186.833 96.96V107.904H188.833V96.96H186.833ZM187.833 108.904H211.233V106.904H187.833V108.904ZM210.233 107.904V116.976H212.233V107.904H210.233ZM211.233 115.976H187.833V117.976H211.233V115.976ZM186.833 116.976V128.64H188.833V116.976H186.833ZM187.833 129.64H215.265V127.64H187.833V129.64ZM224.686 87.6V86.6H223.686V87.6H224.686ZM236.278 87.6H237.278V86.6H236.278V87.6ZM236.278 120.432H235.278V123.49L237.085 121.023L236.278 120.432ZM260.326 87.6V86.6H259.819L259.519 87.0091L260.326 87.6ZM271.27 87.6H272.27V86.6H271.27V87.6ZM271.27 138V139H272.27V138H271.27ZM259.75 138H258.75V139H259.75V138ZM259.75 105.24H260.75V102.188L258.944 104.648L259.75 105.24ZM235.702 138V139H236.208L236.508 138.592L235.702 138ZM224.686 138H223.686V139H224.686V138ZM233.974 73.344V72.344H232.961L232.974 73.3571L233.974 73.344ZM241.966 73.344L242.965 73.3166L242.939 72.344H241.966V73.344ZM252.334 77.304L252.985 78.0633L252.995 78.0545L253.005 78.0455L252.334 77.304ZM253.918 73.344V72.344H252.945L252.918 73.3162L253.918 73.344ZM261.91 73.344L262.91 73.3573L262.923 72.344H261.91V73.344ZM258.382 81.552L257.751 80.7759L258.382 81.552ZM224.686 88.6H236.278V86.6H224.686V88.6ZM235.278 87.6V120.432H237.278V87.6H235.278ZM237.085 121.023L261.133 88.1909L259.519 87.0091L235.471 119.841L237.085 121.023ZM260.326 88.6H271.27V86.6H260.326V88.6ZM270.27 87.6V138H272.27V87.6H270.27ZM271.27 137H259.75V139H271.27V137ZM260.75 138V105.24H258.75V138H260.75ZM258.944 104.648L234.896 137.408L236.508 138.592L260.556 105.832L258.944 104.648ZM235.702 137H224.686V139H235.702V137ZM225.686 138V87.6H223.686V138H225.686ZM247.942 83.36C243.441 83.36 240.235 82.4592 238.157 80.8208C236.122 79.2156 235.019 76.7803 234.974 73.3309L232.974 73.3571C233.025 77.2517 234.298 80.3244 236.919 82.3912C239.497 84.4248 243.227 85.36 247.942 85.36V83.36ZM233.974 74.344H241.966V72.344H233.974V74.344ZM240.966 73.3714C241.019 75.3076 241.606 76.9235 242.871 78.0369C244.119 79.134 245.866 79.6 247.942 79.6V77.6C246.13 77.6 244.937 77.19 244.192 76.5351C243.466 75.8965 243.008 74.8844 242.965 73.3166L240.966 73.3714ZM247.942 79.6C249.996 79.6 251.729 79.1392 252.985 78.0633L251.683 76.5447C250.922 77.1968 249.728 77.6 247.942 77.6V79.6ZM253.005 78.0455C254.267 76.9038 254.864 75.2942 254.917 73.3718L252.918 73.3162C252.876 74.8498 252.417 75.8802 251.663 76.5625L253.005 78.0455ZM253.918 74.344H261.91V72.344H253.918V74.344ZM260.91 73.3307C260.865 76.7036 259.776 79.1305 257.751 80.7759L259.012 82.3281C261.595 80.2295 262.859 77.1844 262.91 73.3573L260.91 73.3307ZM257.751 80.7759C255.702 82.4409 252.491 83.36 247.942 83.36V85.36C252.704 85.36 256.454 84.4071 259.012 82.3281L257.751 80.7759Z" fill="#0F0E08"/>
</svg>
