<svg width="20" height="17" viewBox="0 0 20 17" fill="none" xmlns="http://www.w3.org/2000/svg">
<path fill-rule="evenodd" clip-rule="evenodd" d="M12.0606 0.146447C11.8653 -0.0488155 11.5487 -0.0488155 11.3535 0.146447C11.1582 0.341709 11.1582 0.658291 11.3535 0.853554L18.2928 7.79289H0.5C0.223858 7.79289 0 8.01675 0 8.29289C0 8.56904 0.223857 8.79289 0.5 8.79289H18.2783L11.3536 15.7176C11.1583 15.9129 11.1583 16.2294 11.3536 16.4247C11.5488 16.62 11.8654 16.62 12.0607 16.4247L19.7745 8.7109C19.9103 8.62152 20 8.46768 20 8.29289C20 8.15061 19.9406 8.02221 19.8452 7.93116C19.8431 7.92897 19.8409 7.92679 19.8388 7.92462L12.0606 0.146447Z" fill="#F1F5F4"/>
</svg>
