<svg xmlns="http://www.w3.org/2000/svg">
  <g id="search">
    <path d="M12.5 11H11.71L11.43 10.73C12.41 9.59 13 8.11 13 6.5C13 2.91 10.09 0 6.5 0C2.91 0 0 2.91 0 6.5C0 10.09 2.91 13 6.5 13C8.11 13 9.59 12.41 10.73 11.43L11 11.71V12.5L16 17.49L17.49 16L12.5 11ZM6.5 11C4.01 11 2 8.99 2 6.5C2 4.01 4.01 2 6.5 2C8.99 2 11 4.01 11 6.5C11 8.99 8.99 11 6.5 11Z" />
  </g>

  <g id="btn-arrow">
    <path d="M0.590088 10.59L5.17009 6L0.590088 1.41L2.00009 0L8.00009 6L2.00009 12L0.590088 10.59Z" fill="#D7DDE3"/>
  </g>

  <g id="form-arrow">
    <path d="M0.590088 10.59L5.17009 6L0.590088 1.41L2.00009 0L8.00009 6L2.00009 12L0.590088 10.59Z"/>
  </g>

  <g id="fb">
    <path d="M2.80696 4.64899C2.80696 5.2538 2.80696 7.9533 2.80696 7.9533H0.389893V11.9938H2.80696V24.0009H7.77214V11.9942H11.104C11.104 11.9942 11.416 10.0568 11.5673 7.93841C11.1336 7.93841 7.79091 7.93841 7.79091 7.93841C7.79091 7.93841 7.79091 5.58776 7.79091 5.17573C7.79091 4.76282 8.33227 4.2074 8.86733 4.2074C9.40138 4.2074 10.5286 4.2074 11.5725 4.2074C11.5725 3.65727 11.5725 1.75647 11.5725 0.000976577C10.1788 0.000976577 8.59328 0.000976577 7.89437 0.000976577C2.68423 0.000697581 2.80696 4.04524 2.80696 4.64899Z" fill="black"/>
  </g>

  <g id="insta">
    <path d="M17.5908 0H6.58397C3.0017 0 0.0874023 2.9143 0.0874023 6.49657V17.5036C0.0874023 21.0857 3.0017 24 6.58397 24H17.591C21.1731 24 24.0874 21.0857 24.0874 17.5036V6.49657C24.0874 2.9143 21.1731 0 17.5908 0V0ZM12.0874 18.5623C8.46886 18.5623 5.52507 15.6185 5.52507 12C5.52507 8.38145 8.46886 5.43767 12.0874 5.43767C15.7059 5.43767 18.6497 8.38145 18.6497 12C18.6497 15.6185 15.7059 18.5623 12.0874 18.5623ZM18.8066 6.98528C17.7373 6.98528 16.8675 6.11553 16.8675 5.04619C16.8675 3.97686 17.7373 3.10693 18.8066 3.10693C19.8759 3.10693 20.7459 3.97686 20.7459 5.04619C20.7459 6.11553 19.8759 6.98528 18.8066 6.98528Z" fill="black"/>
  </g>
</svg>

