<svg width="17" height="17" viewBox="0 0 17 17" fill="none" xmlns="http://www.w3.org/2000/svg">
<path fill-rule="evenodd" clip-rule="evenodd" d="M0 13.2442V2.56977C0 1.38372 1.38372 0 2.76744 0H14.2326C15.814 0 17 1.5814 17 3.36047V14.0349C17 15.2209 16.0116 17 13.8372 17H3.95349C1.77907 17 0 15.4186 0 13.2442ZM8.50003 5.54189C6.8663 5.54189 5.54189 6.8663 5.54189 8.50003C5.54189 10.1338 6.8663 11.4582 8.50003 11.4582C10.1338 11.4582 11.4582 10.1338 11.4582 8.50003C11.4582 6.8663 10.1338 5.54189 8.50003 5.54189ZM4.34189 8.50003C4.34189 6.20356 6.20356 4.34189 8.50003 4.34189C10.7965 4.34189 12.6582 6.20356 12.6582 8.50003C12.6582 10.7965 10.7965 12.6582 8.50003 12.6582C6.20356 12.6582 4.34189 10.7965 4.34189 8.50003ZM13.0466 4.5465C13.5924 4.5465 14.035 4.10399 14.035 3.55813C14.035 3.01226 13.5924 2.56976 13.0466 2.56976C12.5007 2.56976 12.0582 3.01226 12.0582 3.55813C12.0582 4.10399 12.5007 4.5465 13.0466 4.5465Z" fill="#C4C4C4"/>
</svg>
