<?xml version="1.0" encoding="utf-8"?>
<!-- Generator: Adobe Illustrator 17.0.0, SVG Export Plug-In . SVG Version: 6.00 Build 0)  -->
<!DOCTYPE svg PUBLIC "-//W3C//DTD SVG 1.1 Tiny//EN" "http://www.w3.org/Graphics/SVG/1.1/DTD/svg11-tiny.dtd">
<svg version="1.1" baseProfile="tiny" id="Layer_1" xmlns="http://www.w3.org/2000/svg" xmlns:xlink="http://www.w3.org/1999/xlink"
	 x="0px" y="0px" width="2000px" height="2000px" viewBox="0 0 2000 2000" xml:space="preserve">
<g>
	<path fill="#151515" d="M1001.115,1951.23c-129.307-0.007-258.622,0.963-387.918-0.2
		c-313.385-2.818-547.334-233.337-551.113-547.505c-3.162-262.958-3.371-526.02,0.036-788.972
		C66.14,304.317,307.193,69.678,617.58,68.949c256.42-0.602,512.844-0.618,769.264,0c316.32,0.763,556.962,239.404,559.141,556.442
		c1.763,256.409,1.9,512.852-0.042,769.259c-2.428,320.718-237.542,554.548-556.91,556.459
		C1259.732,1951.883,1130.422,1951.237,1001.115,1951.23z M210.739,1006.486c0,131.515-0.516,263.033,0.114,394.545
		c1.092,228.029,169.719,400.726,396.282,402.338c263.017,1.872,526.068,1.933,789.084,0.046
		c228.63-1.64,396.84-170.999,399.569-399.25c1.284-107.389,0.227-214.805,0.225-322.209
		c-0.002-155.626,1.738-311.277-0.437-466.873c-2.987-213.663-151.414-383.893-363.356-391.89
		c-282.285-10.651-565.475-10.573-847.842-1.54c-221.224,7.077-372.552,180.627-373.537,403.441
		C210.28,752.222,210.74,879.355,210.739,1006.486z"/>
	<path fill="#151515" d="M1000.379,1517.112c-285.395-3.394-508.096-229.52-504.785-512.55
		c3.235-276.604,234.865-504.726,510.944-503.207c277.334,1.526,510.715,239.806,505.598,516.212
		C1506.946,1297.921,1279.003,1520.425,1000.379,1517.112z M1002.353,1369.648c199.51,0.044,358.685-156.757,361.01-355.626
		c2.326-198.997-162.98-364.172-362.294-362.007c-199.642,2.169-356.465,160.239-357.011,359.849
		C643.517,1209.897,803.453,1369.604,1002.353,1369.648z"/>
	<path fill="#151515" d="M1517.474,568.604c-45.672-4.338-72.947-28.132-71.494-75.059c1.458-47.096,32.521-72.068,76.3-70.295
		c40.816,1.654,69.289,28.947,69.1,71.813C1591.18,540.603,1563.944,565.631,1517.474,568.604z"/>
</g>
</svg>
