<?xml version="1.0" encoding="utf-8"?>
<!-- Generator: Adobe Illustrator 25.2.3, SVG Export Plug-In . SVG Version: 6.00 Build 0)  -->
<svg version="1.1" id="Layer_1" xmlns="http://www.w3.org/2000/svg" xmlns:xlink="http://www.w3.org/1999/xlink" x="0px" y="0px"
	 viewBox="0 0 32 32" style="enable-background:new 0 0 32 32;" xml:space="preserve">
<style type="text/css">
	.st0{clip-path:url(#SVGID_2_);}
	.st1{fill:#2A8470;}
</style>
<g>
	<defs>
		<rect id="SVGID_1_" x="4" y="4" width="24" height="24"/>
	</defs>
	<clipPath id="SVGID_2_">
		<use xlink:href="#SVGID_1_"  style="overflow:visible;"/>
	</clipPath>
	<g class="st0">
		<path class="st1" d="M21.5,4h-11C6.9,4,4,6.9,4,10.5v11c0,3.6,2.9,6.5,6.5,6.5h11c3.6,0,6.5-2.9,6.5-6.5v-11C28,6.9,25.1,4,21.5,4
			L21.5,4z M16,22.6c-3.6,0-6.6-2.9-6.6-6.6c0-3.6,2.9-6.6,6.6-6.6s6.6,2.9,6.6,6.6C22.6,19.6,19.6,22.6,16,22.6z M22.7,11
			c-1.1,0-1.9-0.9-1.9-1.9c0-1.1,0.9-1.9,1.9-1.9S24.7,8,24.7,9C24.7,10.1,23.8,11,22.7,11z"/>
		<path class="st1" d="M16,10.8c-2.8,0-5.2,2.3-5.2,5.2c0,2.8,2.3,5.2,5.2,5.2c2.8,0,5.2-2.3,5.2-5.2C21.2,13.2,18.8,10.8,16,10.8z"
			/>
		<path class="st1" d="M22.7,8.5c-0.3,0-0.5,0.2-0.5,0.5c0,0.3,0.2,0.5,0.5,0.5c0.3,0,0.5-0.2,0.5-0.5C23.3,8.8,23,8.5,22.7,8.5z"/>
	</g>
</g>
</svg>
