<?xml version="1.0" encoding="utf-8"?>
<!-- Generator: Adobe Illustrator 17.0.0, SVG Export Plug-In . SVG Version: 6.00 Build 0)  -->
<!DOCTYPE svg PUBLIC "-//W3C//DTD SVG 1.1 Tiny//EN" "http://www.w3.org/Graphics/SVG/1.1/DTD/svg11-tiny.dtd">
<svg version="1.1" baseProfile="tiny" id="Layer_1" xmlns="http://www.w3.org/2000/svg" xmlns:xlink="http://www.w3.org/1999/xlink"
	 x="0px" y="0px" width="2000px" height="2000px" viewBox="0 0 2000 2000" overflow="auto" xml:space="preserve">
<g>
	<path fill="#070707" d="M979.235,1949.442c-139.397,0.015-278.799,0.792-418.189-0.146
		c-296.852-1.999-513.686-219.712-514.237-516.327c-0.522-280.97-0.713-561.944,0.056-842.914
		c0.782-285.725,222.63-509.087,509.031-510.747c283.14-1.641,566.305-1.694,849.444,0.017
		c287.679,1.738,508.787,221.269,511.206,508.957c2.398,285.307,2.393,570.666,0.008,855.974
		c-2.394,286.284-218.909,501.108-506.065,504.846C1266.761,1950.972,1122.988,1949.427,979.235,1949.442z M977.873,506.45
		c-282.89,0.806-506.859,226.733-506.966,511.398c-0.106,279.646,231.596,510.831,511.057,509.917
		c280.765-0.918,509.824-229.953,510.877-510.824C1493.909,731.903,1265.652,505.63,977.873,506.45z M1507.623,324.575
		c-83.801-0.858-150.504,61.879-152.87,143.782c-2.426,83.973,65.891,156.384,148.477,157.375
		c82.326,0.988,154.269-70.648,153.706-153.049C1656.376,390.782,1590.486,325.424,1507.623,324.575z"/>
	<path fill="#070707" d="M975.263,1415.182c-223.339-3.504-401.743-186.942-396.493-407.679
		c5.337-224.383,188.66-396.295,419-392.92c210.476,3.084,390.466,191.882,386.712,405.637
		C1380.555,1243.792,1199.337,1418.697,975.263,1415.182z"/>
	<path fill="#070707" d="M1508.78,512.562c-31.659-2.282-45.21-17.276-43.372-42.92c1.58-22.038,15.63-36.924,38.167-36.554
		c24.452,0.401,41.647,13.818,41.379,40.24C1544.691,499.203,1530.153,512.866,1508.78,512.562z"/>
</g>
</svg>
