<svg xmlns="http://www.w3.org/2000/svg" id="bc4044d7-f71f-475b-94f1-a5fb87068130" data-name="Layer 1" viewBox="0 0 14.3782 13.8471"><path d="M7.19,4.4315A2.5416,2.5416,0,0,0,4.6016,6.924,2.5416,2.5416,0,0,0,7.19,9.4164,2.5417,2.5417,0,0,0,9.7778,6.924,2.5417,2.5417,0,0,0,7.19,4.4315Z"></path><path d="M11.1965,0H3.1818A3.1819,3.1819,0,0,0,0,3.1818v7.4835a3.1818,3.1818,0,0,0,3.1818,3.1818h8.0147a3.1817,3.1817,0,0,0,3.1817-3.1818V3.1818A3.1818,3.1818,0,0,0,11.1965,0ZM7.1915,10.5247a3.6713,3.6713,0,0,1-3.7384-3.6,3.6713,3.6713,0,0,1,3.7384-3.6,3.6713,3.6713,0,0,1,3.7384,3.6A3.6713,3.6713,0,0,1,7.1915,10.5247Zm4.1673-6.6466a.9883.9883,0,0,1-1.0063-.9693,1.0072,1.0072,0,0,1,2.0129,0A.9885.9885,0,0,1,11.3588,3.8781Z"></path></svg>