<?xml version="1.0" encoding="utf-8"?>
<!-- Generator: Adobe Illustrator 25.4.0, SVG Export Plug-In . SVG Version: 6.00 Build 0)  -->
<svg version="1.1" id="Слой_1" xmlns="http://www.w3.org/2000/svg" xmlns:xlink="http://www.w3.org/1999/xlink" x="0px" y="0px"
	 viewBox="0 0 25 24" style="enable-background:new 0 0 25 24;" xml:space="preserve">
<style type="text/css">
	.st0{fill:#F14A27;}
</style>
<path class="st0" d="M18.5,0h-11C3.9,0,1,2.9,1,6.5v11C1,21.1,3.9,24,7.5,24h11c3.6,0,6.5-2.9,6.5-6.5v-11C25,2.9,22,0,18.5,0
	L18.5,0z M13,18.6c-3.6,0-6.6-2.9-6.6-6.6c0-3.6,2.9-6.6,6.6-6.6c3.6,0,6.6,2.9,6.6,6.6C19.5,15.6,16.6,18.6,13,18.6L13,18.6z
	 M19.7,7c-1.1,0-1.9-0.9-1.9-1.9c0-1.1,0.9-1.9,1.9-1.9S21.6,4,21.6,5C21.6,6.1,20.8,7,19.7,7z"/>
<path class="st0" d="M19.7,4.5c-0.3,0-0.5,0.2-0.5,0.5s0.2,0.5,0.5,0.5s0.5-0.2,0.5-0.5C20.2,4.8,20,4.5,19.7,4.5z"/>
<path class="st0" d="M13,7c-2.8,0-5.2,2.3-5.2,5.2c0,2.8,2.3,5.2,5.2,5.2c2.8,0,5.2-2.3,5.2-5.2C18.1,9.3,15.8,7,13,7z"/>
</svg>
