<?xml version="1.0" encoding="UTF-8"?>
<svg xmlns="http://www.w3.org/2000/svg" xmlns:xlink="http://www.w3.org/1999/xlink" width="24px" height="24px" viewBox="0 0 24 24" version="1.1">
<defs>
<linearGradient id="linear0" gradientUnits="userSpaceOnUse" x1="7.5528" y1="9.5531" x2="82.4473" y2="84.4475" gradientTransform="matrix(0.263437,0,0,-0.263437,0.131868,24.368118)">
<stop offset="0" style="stop-color:rgb(100%,83.921569%,0%);stop-opacity:1;"/>
<stop offset="0.5" style="stop-color:rgb(100%,0.392157%,0%);stop-opacity:1;"/>
<stop offset="1" style="stop-color:rgb(84.705882%,0%,72.54902%);stop-opacity:1;"/>
</linearGradient>
<linearGradient id="linear1" gradientUnits="userSpaceOnUse" x1="28.6598" y1="30.66" x2="61.3394" y2="63.3397" gradientTransform="matrix(0.263437,0,0,-0.263437,0.131868,24.368118)">
<stop offset="0" style="stop-color:rgb(100%,39.215686%,0%);stop-opacity:1;"/>
<stop offset="0.5" style="stop-color:rgb(100%,0.392157%,0%);stop-opacity:1;"/>
<stop offset="1" style="stop-color:rgb(99.215686%,0%,33.72549%);stop-opacity:1;"/>
</linearGradient>
<linearGradient id="linear2" gradientUnits="userSpaceOnUse" x1="65.2021" y1="67.2024" x2="72.8391" y2="74.8394" gradientTransform="matrix(0.263437,0,0,-0.263437,0.131868,24.368118)">
<stop offset="0" style="stop-color:rgb(95.294118%,0%,44.705882%);stop-opacity:1;"/>
<stop offset="1" style="stop-color:rgb(89.803922%,0%,59.215686%);stop-opacity:1;"/>
</linearGradient>
</defs>
<g id="surface1">
<path style=" stroke:none;fill-rule:nonzero;fill:url(#linear0);" d="M 23.769531 7.097656 C 23.710938 5.835938 23.511719 4.976562 23.21875 4.222656 C 22.921875 3.429688 22.453125 2.714844 21.851562 2.121094 C 21.257812 1.519531 20.542969 1.050781 19.75 0.753906 C 18.996094 0.460938 18.136719 0.261719 16.875 0.203125 C 15.609375 0.144531 15.207031 0.132812 11.988281 0.132812 C 8.765625 0.132812 8.363281 0.144531 7.097656 0.203125 C 5.835938 0.261719 4.976562 0.460938 4.222656 0.753906 C 3.429688 1.050781 2.714844 1.519531 2.121094 2.121094 C 1.519531 2.714844 1.050781 3.429688 0.753906 4.222656 C 0.460938 4.976562 0.261719 5.835938 0.203125 7.097656 C 0.144531 8.363281 0.132812 8.765625 0.132812 11.988281 C 0.132812 15.207031 0.144531 15.609375 0.203125 16.875 C 0.261719 18.136719 0.460938 18.996094 0.753906 19.75 C 1.050781 20.542969 1.519531 21.257812 2.121094 21.851562 C 2.714844 22.453125 3.429688 22.921875 4.222656 23.21875 C 4.976562 23.511719 5.835938 23.710938 7.097656 23.769531 C 8.363281 23.828125 8.765625 23.839844 11.988281 23.839844 C 15.207031 23.839844 15.609375 23.828125 16.875 23.769531 C 18.136719 23.710938 18.996094 23.511719 19.75 23.21875 C 21.34375 22.601562 22.601562 21.34375 23.21875 19.75 C 23.511719 18.996094 23.710938 18.136719 23.769531 16.875 C 23.828125 15.609375 23.839844 15.207031 23.839844 11.988281 C 23.839844 8.765625 23.828125 8.363281 23.769531 7.097656 Z M 21.636719 16.777344 C 21.582031 17.933594 21.390625 18.5625 21.226562 18.976562 C 20.828125 20.011719 20.011719 20.828125 18.976562 21.226562 C 18.5625 21.390625 17.933594 21.582031 16.777344 21.636719 C 15.527344 21.695312 15.152344 21.707031 11.988281 21.707031 C 8.820312 21.707031 8.445312 21.695312 7.195312 21.636719 C 6.039062 21.582031 5.414062 21.390625 4.996094 21.226562 C 4.480469 21.039062 4.015625 20.734375 3.632812 20.339844 C 3.238281 19.957031 2.933594 19.492188 2.746094 18.976562 C 2.582031 18.5625 2.390625 17.933594 2.335938 16.777344 C 2.28125 15.527344 2.269531 15.152344 2.269531 11.988281 C 2.269531 8.820312 2.28125 8.445312 2.335938 7.195312 C 2.390625 6.039062 2.582031 5.414062 2.746094 4.996094 C 2.933594 4.480469 3.238281 4.015625 3.632812 3.632812 C 4.015625 3.238281 4.480469 2.933594 4.996094 2.746094 C 5.414062 2.582031 6.039062 2.390625 7.195312 2.335938 C 8.445312 2.28125 8.820312 2.269531 11.988281 2.269531 L 11.984375 2.269531 C 15.152344 2.269531 15.527344 2.28125 16.777344 2.335938 C 17.933594 2.390625 18.558594 2.582031 18.976562 2.746094 C 19.492188 2.933594 19.957031 3.238281 20.339844 3.632812 C 20.734375 4.015625 21.039062 4.480469 21.226562 4.996094 C 21.390625 5.414062 21.582031 6.039062 21.636719 7.195312 C 21.691406 8.445312 21.703125 8.820312 21.703125 11.988281 C 21.703125 15.152344 21.691406 15.527344 21.636719 16.777344 Z M 21.636719 16.777344 "/>
<path style=" stroke:none;fill-rule:nonzero;fill:url(#linear1);" d="M 11.984375 5.898438 C 8.625 5.898438 5.898438 8.625 5.898438 11.988281 C 5.898438 15.347656 8.625 18.074219 11.984375 18.074219 C 15.347656 18.074219 18.074219 15.347656 18.074219 11.988281 C 18.074219 8.625 15.347656 5.898438 11.984375 5.898438 Z M 11.984375 15.9375 C 9.804688 15.9375 8.035156 14.167969 8.035156 11.988281 C 8.035156 9.804688 9.804688 8.035156 11.988281 8.035156 C 14.167969 8.035156 15.9375 9.804688 15.9375 11.988281 C 15.9375 14.167969 14.167969 15.9375 11.984375 15.9375 Z M 11.984375 15.9375 "/>
<path style=" stroke:none;fill-rule:nonzero;fill:url(#linear2);" d="M 19.738281 5.660156 C 19.738281 6.445312 19.101562 7.082031 18.316406 7.082031 C 17.527344 7.082031 16.890625 6.445312 16.890625 5.660156 C 16.890625 4.871094 17.527344 4.234375 18.316406 4.234375 C 19.101562 4.234375 19.738281 4.871094 19.738281 5.660156 Z M 19.738281 5.660156 "/>
</g>
</svg>
