<svg width="58" height="63" viewBox="0 0 58 63" fill="none" xmlns="http://www.w3.org/2000/svg">
<path d="M24.1 0.799998V26H19.312L6.748 10.7V26H0.988V0.799998H5.812L18.34 16.1V0.799998H24.1ZM46.6582 20.6H34.9582L32.7262 26H26.7502L37.9822 0.799998H43.7422L55.0102 26H48.8902L46.6582 20.6ZM44.8222 16.172L40.8262 6.524L36.8302 16.172H44.8222ZM23.92 62L23.884 46.88L16.468 59.336H13.84L6.46 47.204V62H0.988V36.8H5.812L15.244 52.46L24.532 36.8H29.32L29.392 62H23.92ZM46.5668 62.432C42.9668 62.432 40.1588 61.436 38.1428 59.444C36.1508 57.452 35.1548 54.608 35.1548 50.912V36.8H40.9868V50.696C40.9868 55.208 42.8588 57.464 46.6028 57.464C48.4268 57.464 49.8188 56.924 50.7788 55.844C51.7388 54.74 52.2188 53.024 52.2188 50.696V36.8H57.9788V50.912C57.9788 54.608 56.9708 57.452 54.9548 59.444C52.9628 61.436 50.1668 62.432 46.5668 62.432Z" fill="#0F0E08"/>
</svg>
