<svg width="48" height="52" viewBox="0 0 48 52" fill="none" xmlns="http://www.w3.org/2000/svg">
<path d="M19.75 -1.43051e-06V21H15.76L5.29 8.25V21H0.49V-1.43051e-06H4.51L14.95 12.75V-1.43051e-06H19.75ZM38.5485 16.5H28.7985L26.9385 21H21.9585L31.3185 -1.43051e-06H36.1185L45.5085 21H40.4085L38.5485 16.5ZM37.0185 12.81L33.6885 4.77L30.3585 12.81H37.0185ZM19.6 51L19.57 38.4L13.39 48.78H11.2L5.05 38.67V51H0.49V30H4.51L12.37 43.05L20.11 30H24.1L24.16 51H19.6ZM38.4723 51.36C35.4723 51.36 33.1323 50.53 31.4523 48.87C29.7923 47.21 28.9623 44.84 28.9623 41.76V30H33.8223V41.58C33.8223 45.34 35.3823 47.22 38.5023 47.22C40.0223 47.22 41.1823 46.77 41.9823 45.87C42.7823 44.95 43.1823 43.52 43.1823 41.58V30H47.9823V41.76C47.9823 44.84 47.1423 47.21 45.4623 48.87C43.8023 50.53 41.4723 51.36 38.4723 51.36Z" fill="#0F0E08"/>
</svg>
