<svg width="58" height="63" fill="none" xmlns="http://www.w3.org/2000/svg"><path d="M26.782.8V26h-4.788L9.43 10.7V26H3.67V.8h4.824l12.528 15.3V.8h5.76ZM49.34 20.6h-11.7L35.408 26h-5.976L40.664.8h5.76L57.692 26h-6.12l-2.232-5.4Zm-1.836-4.428-3.996-9.648-3.996 9.648h7.992ZM23.543 62l-.036-15.12-7.416 12.456h-2.628l-7.38-12.132V62H.611V36.8h4.824l9.432 15.66 9.288-15.66h4.788l.072 25.2h-5.472Zm22.647.432c-3.6 0-6.408-.996-8.424-2.988-1.992-1.992-2.988-4.836-2.988-8.532V36.8h5.832v13.896c0 4.512 1.872 6.768 5.616 6.768 1.824 0 3.216-.54 4.176-1.62.96-1.104 1.44-2.82 1.44-5.148V36.8h5.76v14.112c0 3.696-1.008 6.54-3.024 8.532-1.992 1.992-4.788 2.988-8.388 2.988Z" fill="#0F0E08"/></svg>