<svg width="49" height="52" viewBox="0 0 49 52" fill="none" xmlns="http://www.w3.org/2000/svg">
<path d="M22.6514 -1.43051e-06V21H18.6614L8.19137 8.25V21H3.39137V-1.43051e-06H7.41137L17.8514 12.75V-1.43051e-06H22.6514ZM41.4499 16.5H31.6999L29.8399 21H24.8599L34.2199 -1.43051e-06H39.0199L48.4099 21H43.3099L41.4499 16.5ZM39.9199 12.81L36.5899 4.77L33.2599 12.81H39.9199ZM19.9525 51L19.9225 38.4L13.7425 48.78H11.5525L5.40254 38.67V51H0.842539V30H4.86254L12.7225 43.05L20.4625 30H24.4525L24.5125 51H19.9525ZM38.8249 51.36C35.8249 51.36 33.4849 50.53 31.8049 48.87C30.1449 47.21 29.3149 44.84 29.3149 41.76V30H34.1749V41.58C34.1749 45.34 35.7349 47.22 38.8549 47.22C40.3749 47.22 41.5349 46.77 42.3349 45.87C43.1349 44.95 43.5349 43.52 43.5349 41.58V30H48.3349V41.76C48.3349 44.84 47.4949 47.21 45.8149 48.87C44.1549 50.53 41.8249 51.36 38.8249 51.36Z" fill="#0F0E08"/>
</svg>
