<svg width="56.985352" height="61.628906" viewBox="0 0 56.9854 61.6289" fill="none" xmlns="http://www.w3.org/2000/svg" xmlns:xlink="http://www.w3.org/1999/xlink">
	<desc>
			Created with Pixso.
	</desc>
	<defs/>
	<path id="NA MU" d="M23.11 25.19L23.11 0L17.34 0L17.34 15.3L4.82 0L0 0L0 25.19L5.75 25.19L5.75 9.89L18.32 25.19L23.11 25.19ZM33.98 19.8L45.68 19.8L47.91 25.19L54.03 25.19L42.76 0L37 0L25.77 25.19L31.75 25.19L33.98 19.8ZM39.85 5.72L43.84 15.37L35.85 15.37L39.85 5.72ZM22.89 46.08L22.93 61.19L28.4 61.19L28.33 36L23.54 36L14.25 51.66L4.82 36L0 36L0 61.19L5.47 61.19L5.47 46.4L12.84 58.53L15.47 58.53L22.89 46.08ZM37.9 59.29Q40.8 61.62 45.57 61.62Q50.33 61.62 53.22 59.31Q53.62 58.99 53.97 58.64Q54.24 58.37 54.49 58.08Q56.98 55.15 56.98 50.1L56.98 36L51.22 36L51.22 49.89Q51.22 53.38 49.78 55.02Q49.51 55.33 49.2 55.58Q47.83 56.66 45.61 56.66Q43.32 56.66 41.96 55.53Q39.99 53.9 39.99 49.89L39.99 36L34.16 36L34.16 50.1Q34.16 55.15 36.65 58.08Q36.89 58.37 37.16 58.64Q37.51 58.99 37.9 59.29Z" fill="#0F0E08" fill-opacity="1.000000" fill-rule="evenodd"/>
</svg>
