<svg width="47.561142" height="51.357422" viewBox="0 0 47.5611 51.3574" fill="none" xmlns="http://www.w3.org/2000/svg" xmlns:xlink="http://www.w3.org/1999/xlink">
	<desc>
			Created with Pixso.
	</desc>
	<defs/>
	<path id="NA MU" d="M21.7977 0L21.7977 20.9985L17.806 20.9985L7.33237 8.24707L7.33237 20.9985L2.535 20.9985L2.535 0L6.556 0L16.993 12.7515L16.993 0L21.7977 0ZM40.6031 16.5015L30.8546 16.5015L28.9942 20.9985L24.0138 20.9985L33.3741 0L38.1715 0L47.5611 20.9985L42.4635 20.9985L40.6031 16.5015ZM39.0724 12.8101L35.7472 4.76807L32.4146 12.8101L39.0724 12.8101ZM19.1089 50.9985L19.0796 38.4009L12.898 48.7793L10.708 48.7793L4.56299 38.6719L4.56299 50.9985L3.8147e-06 50.9985L3.8147e-06 30L4.021 30L11.8799 43.0518L19.6216 30L23.6133 30L23.6719 50.9985L19.1089 50.9985ZM37.9811 51.3574Q33.4767 51.3574 30.9718 48.8672Q28.4669 46.377 28.4669 41.7554L28.4669 30L33.3302 30L33.3302 41.5796Q33.3302 47.2192 38.0104 47.2192Q40.2882 47.2192 41.4894 45.8569Q42.6905 44.4873 42.6905 41.5796L42.6905 30L47.4879 30L47.4879 41.7554Q47.4879 46.377 44.983 48.8672Q42.4781 51.3574 37.9811 51.3574Z" fill="#0F0E08" fill-opacity="1.000000" fill-rule="evenodd"/>
</svg>
