<?xml version="1.0" encoding="iso-8859-1"?>
<!-- Generator: Adobe Illustrator 19.0.0, SVG Export Plug-In . SVG Version: 6.00 Build 0)  -->
<svg version="1.1" id="Layer_1" xmlns="http://www.w3.org/2000/svg" xmlns:xlink="http://www.w3.org/1999/xlink" x="0px" y="0px"
	 viewBox="0 0 512.002 512.002" style="enable-background:new 0 0 512.002 512.002;" xml:space="preserve">
<rect x="88.963" y="206.941" style="fill:#808080;" width="334.069" height="196.272"/>
<path style="fill:#B3B3B3;" d="M452.64,403.21h-29.601V206.938h29.601V167.02h19.344v-33.083h31.219L256.005,28.942L8.794,133.937
	h31.231v33.083h19.344v39.918h29.59V403.21h-29.59v39.918H30.471v39.93h451.068v-39.93H452.64L452.64,403.21L452.64,403.21z
	 M229.404,403.21h-87.245V206.938h87.245V403.21z M369.838,403.21h-87.233V206.938h87.233V403.21z"/>
<g>
	<rect x="88.958" y="206.941" style="fill:#999999;" width="53.201" height="28.277"/>
	<rect x="229.403" y="206.941" style="fill:#999999;" width="53.201" height="28.277"/>
	<rect x="369.837" y="206.941" style="fill:#999999;" width="53.201" height="28.277"/>
</g>
<g>
	<rect x="142.158" y="206.941" style="fill:#666666;" width="87.245" height="42.345"/>
	<rect x="282.604" y="206.941" style="fill:#666666;" width="87.245" height="42.345"/>
</g>
<circle style="fill:#F7B239;" cx="256.003" cy="86.402" r="17.023"/>
<g>
	<path style="fill:#333333;" d="M506.644,125.843L259.438,20.853c-2.195-0.932-4.676-0.932-6.873,0L5.357,125.843
		c-3.848,1.634-6.013,5.75-5.179,9.846c0.835,4.096,4.436,7.039,8.617,7.039H31.23v24.29c0,4.856,3.936,8.793,8.793,8.793h10.55
		v31.13c0,4.856,3.936,8.793,8.793,8.793h20.805v178.685H59.365c-4.857,0-8.793,3.937-8.793,8.793v31.13H30.467
		c-4.857,0-8.793,3.937-8.793,8.793v39.923c0,4.856,3.936,8.793,8.793,8.793h451.069c4.857,0,8.793-3.937,8.793-8.793v-39.923
		c0-4.856-3.936-8.793-8.793-8.793h-20.104v-31.13c0-4.856-3.936-8.793-8.793-8.793h-20.807V215.733h20.807
		c4.857,0,8.793-3.937,8.793-8.793v-31.13h10.549c4.857,0,8.793-3.937,8.793-8.793v-24.29h22.436c4.179,0,7.782-2.943,8.617-7.039
		C512.657,131.593,510.492,127.477,506.644,125.843z M256.001,38.498l204.011,86.645H51.989L256.001,38.498z M97.756,215.733h35.612
		v178.685H97.756V215.733z M220.611,215.733v178.685h-69.658V215.733H220.611z M361.049,215.733v178.685h-69.657V215.733H361.049z
		 M273.808,394.419h-35.612V215.733h35.612L273.808,394.419L273.808,394.419z M472.742,474.263H39.258v-22.338h20.106h393.273
		h20.104v22.338H472.742z M443.846,434.342H68.158v-22.338h20.805h53.197h87.243H282.6h87.242h53.197h20.807V434.342z
		 M414.246,394.419h-35.612V215.733h35.612V394.419z M443.846,198.148h-20.807h-53.197H282.6h-53.197H142.16H88.963H68.158V175.81
		h375.688V198.148z M463.187,158.226h-10.549H59.365h-10.55v-15.497h414.371L463.187,158.226L463.187,158.226z"/>
	<path style="fill:#333333;" d="M256.001,60.591c-14.236,0-25.816,11.58-25.816,25.816s11.58,25.816,25.816,25.816
		c14.236,0,25.816-11.58,25.816-25.816S270.237,60.591,256.001,60.591z M256.001,94.636c-4.538,0-8.231-3.692-8.231-8.231
		s3.692-8.231,8.231-8.231c4.539,0,8.231,3.692,8.231,8.231S260.539,94.636,256.001,94.636z"/>
</g>
<g>
</g>
<g>
</g>
<g>
</g>
<g>
</g>
<g>
</g>
<g>
</g>
<g>
</g>
<g>
</g>
<g>
</g>
<g>
</g>
<g>
</g>
<g>
</g>
<g>
</g>
<g>
</g>
<g>
</g>
</svg>
