<?xml version="1.0" encoding="iso-8859-1"?>
<!-- Generator: Adobe Illustrator 19.0.0, SVG Export Plug-In . SVG Version: 6.00 Build 0)  -->
<svg version="1.1" id="Layer_1" xmlns="http://www.w3.org/2000/svg" xmlns:xlink="http://www.w3.org/1999/xlink" x="0px" y="0px"
	 viewBox="0 0 504 504" style="enable-background:new 0 0 504 504;" xml:space="preserve">
<circle style="fill:#FFD05B;" cx="252" cy="252" r="252"/>
<g>
	<rect x="143.8" y="179.8" style="fill:#84DBFF;" width="39.8" height="146.8"/>
	<rect x="232.1" y="179.8" style="fill:#84DBFF;" width="39.8" height="146.8"/>
	<rect x="320.4" y="179.8" style="fill:#84DBFF;" width="39.8" height="146.8"/>
</g>
<polygon style="fill:#FF7058;" points="389.7,180.6 114.3,180.6 114.3,148.9 252,97.6 389.7,148.9 "/>
<polygon style="fill:#E6E9EE;" points="129,166 129,159.1 252,113.3 375,159.1 375,166 "/>
<rect x="119.1" y="326.6" style="fill:#FF7058;" width="265.8" height="20.2"/>
<rect x="105.4" y="346.8" style="fill:#F1543F;" width="293.2" height="20.2"/>
<g>
	<path style="fill:#54C0EB;" d="M313.8,180.6v10.6c0,3.2,2.6,5.9,5.9,5.9h41.2c3.2,0,5.9-2.6,5.9-5.9v-10.6H313.8z"/>
	<path style="fill:#54C0EB;" d="M225.5,180.6v10.6c0,3.2,2.6,5.9,5.9,5.9h41.2c3.2,0,5.9-2.6,5.9-5.9v-10.6H225.5z"/>
	<path style="fill:#54C0EB;" d="M137.2,180.6v10.6c0,3.2,2.6,5.9,5.9,5.9h41.2c3.2,0,5.9-2.6,5.9-5.9v-10.6H137.2z"/>
	<path style="fill:#54C0EB;" d="M313.8,326.6V316c0-3.2,2.6-5.9,5.9-5.9h41.2c3.2,0,5.9,2.6,5.9,5.9v10.6H313.8z"/>
	<path style="fill:#54C0EB;" d="M225.5,326.6V316c0-3.2,2.6-5.9,5.9-5.9h41.2c3.2,0,5.9,2.6,5.9,5.9v10.6H225.5z"/>
	<path style="fill:#54C0EB;" d="M137.2,326.6V316c0-3.2,2.6-5.9,5.9-5.9h41.2c3.2,0,5.9,2.6,5.9,5.9v10.6H137.2z"/>
</g>
<g>
</g>
<g>
</g>
<g>
</g>
<g>
</g>
<g>
</g>
<g>
</g>
<g>
</g>
<g>
</g>
<g>
</g>
<g>
</g>
<g>
</g>
<g>
</g>
<g>
</g>
<g>
</g>
<g>
</g>
</svg>
