<svg width="54" height="62" viewBox="0 0 54 62" fill="none" xmlns="http://www.w3.org/2000/svg">
<path d="M17.62 25C16.012 22.144 14.272 19.324 12.4 16.54C10.528 13.756 8.536 11.128 6.424 8.656V25H0.88V0.0519993H5.452C6.244 0.843999 7.12 1.816 8.08 2.968C9.04 4.12 10.012 5.356 10.996 6.676C12.004 7.972 13 9.328 13.984 10.744C14.968 12.136 15.892 13.48 16.756 14.776V0.0519993H22.336V25H17.62ZM44.7949 25C44.5309 24.136 44.2309 23.248 43.8949 22.336C43.5829 21.424 43.2709 20.512 42.9589 19.6H33.2389C32.9269 20.512 32.6029 21.424 32.2669 22.336C31.9549 23.248 31.6669 24.136 31.4029 25H25.5709C26.5069 22.312 27.3949 19.828 28.2349 17.548C29.0749 15.268 29.8909 13.12 30.6829 11.104C31.4989 9.088 32.2909 7.18 33.0589 5.38C33.8509 3.556 34.6669 1.78 35.5069 0.0519993H40.8709C41.6869 1.78 42.4909 3.556 43.2829 5.38C44.0749 7.18 44.8669 9.088 45.6589 11.104C46.4749 13.12 47.3029 15.268 48.1429 17.548C48.9829 19.828 49.8709 22.312 50.8069 25H44.7949ZM38.0629 5.704C37.9429 6.064 37.7629 6.556 37.5229 7.18C37.2829 7.804 37.0069 8.524 36.6949 9.34C36.3829 10.156 36.0349 11.056 35.6509 12.04C35.2909 13.024 34.9189 14.056 34.5349 15.136H41.6269C41.2429 14.056 40.8709 13.024 40.5109 12.04C40.1509 11.056 39.8029 10.156 39.4669 9.34C39.1549 8.524 38.8789 7.804 38.6389 7.18C38.3989 6.556 38.2069 6.064 38.0629 5.704ZM7.504 36.052C7.936 36.844 8.428 37.828 8.98 39.004C9.556 40.156 10.144 41.416 10.744 42.784C11.368 44.128 11.98 45.508 12.58 46.924C13.18 48.34 13.744 49.672 14.272 50.92C14.8 49.672 15.364 48.34 15.964 46.924C16.564 45.508 17.164 44.128 17.764 42.784C18.388 41.416 18.976 40.156 19.528 39.004C20.104 37.828 20.608 36.844 21.04 36.052H26.152C26.392 37.708 26.608 39.568 26.8 41.632C27.016 43.672 27.196 45.808 27.34 48.04C27.508 50.248 27.652 52.468 27.772 54.7C27.916 56.932 28.036 59.032 28.132 61H22.66C22.588 58.576 22.492 55.936 22.372 53.08C22.252 50.224 22.072 47.344 21.832 44.44C21.4 45.448 20.92 46.564 20.392 47.788C19.864 49.012 19.336 50.236 18.808 51.46C18.304 52.684 17.812 53.86 17.332 54.988C16.852 56.092 16.444 57.04 16.108 57.832H12.184C11.848 57.04 11.44 56.092 10.96 54.988C10.48 53.86 9.976 52.684 9.448 51.46C8.944 50.236 8.428 49.012 7.9 47.788C7.372 46.564 6.892 45.448 6.46 44.44C6.22 47.344 6.04 50.224 5.92 53.08C5.8 55.936 5.704 58.576 5.632 61H0.16C0.256 59.032 0.364 56.932 0.484 54.7C0.628 52.468 0.772 50.248 0.916 48.04C1.084 45.808 1.264 43.672 1.456 41.632C1.672 39.568 1.9 37.708 2.14 36.052H7.504ZM42.9446 61.504C41.1926 61.504 39.6806 61.264 38.4086 60.784C37.1366 60.28 36.0806 59.596 35.2406 58.732C34.4246 57.844 33.8126 56.8 33.4046 55.6C33.0206 54.376 32.8286 53.032 32.8286 51.568V36.052H38.4446V51.1C38.4446 52.108 38.5526 52.972 38.7686 53.692C39.0086 54.388 39.3206 54.964 39.7046 55.42C40.1126 55.852 40.5926 56.164 41.1446 56.356C41.7206 56.548 42.3446 56.644 43.0166 56.644C44.3846 56.644 45.4886 56.224 46.3286 55.384C47.1926 54.544 47.6246 53.116 47.6246 51.1V36.052H53.2406V51.568C53.2406 53.032 53.0366 54.376 52.6286 55.6C52.2206 56.824 51.5966 57.88 50.7566 58.768C49.9166 59.632 48.8486 60.304 47.5526 60.784C46.2566 61.264 44.7206 61.504 42.9446 61.504Z" fill="#0F0E08"/>
</svg>
