<?xml version="1.0" encoding="utf-8"?>
<!-- Generator: Adobe Illustrator 26.3.1, SVG Export Plug-In . SVG Version: 6.00 Build 0)  -->
<svg version="1.1" id="Layer_1" xmlns="http://www.w3.org/2000/svg" xmlns:xlink="http://www.w3.org/1999/xlink" x="0px" y="0px"
	 viewBox="0 0 84.3 85.9" style="enable-background:new 0 0 84.3 85.9;" xml:space="preserve">
<style type="text/css">
	.st0{fill:#FFFFFF;}
	.st1{fill:#0F0E08;}
</style>
<circle class="st0" cx="41.9" cy="43" r="42.6"/>
<path class="st1" d="M39.7,12.3v25.2h-4.8L22.3,22.2v15.3h-5.8V12.3h4.8l12.5,15.3V12.3H39.7z M62.2,32.1H50.5l-2.2,5.4h-6
	l11.2-25.2h5.8l11.3,25.2h-6.1L62.2,32.1z M60.4,27.7l-4-9.6l-4,9.6H60.4z M36.4,73.5l0-15.1L29,70.9h-2.6L19,58.7v14.8h-5.5V48.3
	h4.8L27.7,64L37,48.3h4.8l0.1,25.2H36.4z M59.1,74c-3.6,0-6.4-1-8.4-3c-2-2-3-4.8-3-8.5V48.3h5.8v13.9c0,4.5,1.9,6.8,5.6,6.8
	c1.8,0,3.2-0.5,4.2-1.6c1-1.1,1.4-2.8,1.4-5.1V48.3h5.8v14.1c0,3.7-1,6.5-3,8.5C65.5,73,62.7,74,59.1,74z"/>
</svg>
