<svg width="117" height="26" viewBox="0 0 117 26" fill="none" xmlns="http://www.w3.org/2000/svg">
<path d="M18.96 0.215999V20.16L4.66799 0.215999H0.23999V25.416H3.83999V4.932L18.6 25.416H22.56V0.215999H18.96Z" fill="#F1F5F4"/>
<path d="M48.977 0.215999V5.004C46.889 2.088 43.649 0 39.941 0C32.669 0 27.413 5.4 27.413 12.816C27.413 20.232 32.669 25.632 39.941 25.632C43.649 25.632 46.889 23.544 48.977 20.628V25.416H52.469V0.215999H48.977ZM40.085 22.32C34.937 22.32 31.193 18.324 31.193 12.816C31.193 7.308 34.937 3.312 40.085 3.312C45.233 3.312 48.977 7.308 48.977 12.816C48.977 18.324 45.233 22.32 40.085 22.32Z" fill="#F1F5F4"/>
<path d="M88.8309 0.215999H83.6829L73.9629 21.168L64.2069 0.215999H58.9509V25.416H62.5509V4.896L72.0549 25.416H75.6549L85.2309 4.716V25.416H88.8309V0.215999Z" fill="#F1F5F4"/>
<path d="M105.922 25.776C112.186 25.776 116.902 21.204 116.902 15.12V0.215999H113.302V15.12C113.302 19.224 110.134 22.32 105.922 22.32C101.71 22.32 98.5425 19.224 98.5425 15.12V0.215999H94.9425V15.12C94.9425 21.204 99.6585 25.776 105.922 25.776Z" fill="#F1F5F4"/>
</svg>
