<svg width="14.868164" height="133.000000" viewBox="0 0 14.8682 133" fill="none" xmlns="http://www.w3.org/2000/svg" xmlns:xlink="http://www.w3.org/1999/xlink">
	<desc>
			Created with Pixso.
	</desc>
	<defs/>
	<rect id="Rectangle 17.1" x="6.769531" y="63.000000" width="1.000000" height="70.000000" fill="#1A5A4C" fill-opacity="1.000000"/>
	<path id="ПОДІЇ" d="M1.85 5.41Q2.11 5.17 2.11 4.54Q2.11 3.91 1.85 3.66Q1.73 3.55 1.58 3.48Q1.42 3.42 1.23 3.42L0.88 3.42Q0.68 3.42 0.52 3.49Q0.37 3.55 0.25 3.66Q0 3.91 0 4.54Q0 5.17 0.25 5.41Q0.37 5.52 0.51 5.58Q0.68 5.66 0.88 5.66L1.23 5.66Q1.42 5.66 1.59 5.59Q1.73 5.53 1.85 5.41ZM1.85 2.33Q2.11 2.09 2.11 1.46Q2.11 0.83 1.85 0.58Q1.73 0.47 1.58 0.4Q1.42 0.34 1.23 0.34L0.88 0.34Q0.68 0.34 0.52 0.41Q0.37 0.47 0.25 0.58Q0 0.83 0 1.46Q0 2.09 0.25 2.33Q0.37 2.44 0.51 2.5Q0.68 2.58 0.88 2.58L1.23 2.58Q1.42 2.58 1.59 2.51Q1.73 2.45 1.85 2.33ZM12.61 29.84Q12.93 29.04 12.93 28.07Q12.93 27.1 12.61 26.31Q12.42 25.85 12.13 25.46Q11.92 25.18 11.65 24.95Q11.01 24.39 10.07 24.08Q9.12 23.77 7.88 23.77Q6.63 23.77 5.69 24.08Q4.74 24.39 4.11 24.95Q3.83 25.19 3.61 25.48Q3.33 25.86 3.15 26.31Q2.83 27.1 2.83 28.07Q2.83 29.04 3.15 29.84Q3.32 30.27 3.59 30.64Q3.82 30.94 4.11 31.19Q4.74 31.75 5.69 32.06Q6.63 32.37 7.88 32.37Q9.12 32.37 10.07 32.06Q11.01 31.75 11.65 31.19Q11.93 30.95 12.15 30.66Q12.43 30.28 12.61 29.84ZM2.99 34.15L2.99 41.92L12.76 41.92L12.76 39.79L4.88 39.79L4.88 36.28L12.76 36.28L12.76 34.15L2.99 34.15ZM10.87 22.19L10.87 23.25L14.86 23.25L14.86 21.25L12.76 21.25L12.76 14.46L14.86 14.46L14.86 12.46L10.87 12.46L10.87 14.04L2.99 14.04L2.99 21.06L6.1 21.06Q7.19 21.06 7.99 21.14Q8.79 21.22 9.35 21.38Q9.91 21.53 10.28 21.74Q10.65 21.95 10.87 22.19ZM11.07 11.38L12.76 11.38L12.76 6.73L11.07 6.73L11.07 8L4.69 8L4.69 6.73L2.99 6.73L2.99 11.38L4.69 11.38L4.69 10.12L11.07 10.12L11.07 11.38ZM11.07 5.33L12.76 5.33L12.76 0.69L11.07 0.69L11.07 1.95L4.69 1.95L4.69 0.69L2.99 0.69L2.99 5.33L4.69 5.33L4.69 4.08L11.07 4.08L11.07 5.33ZM10.72 26.91Q11.04 27.38 11.04 28.07Q11.04 28.76 10.72 29.23Q10.6 29.42 10.41 29.58Q9.78 30.12 8.6 30.12L7.15 30.12Q5.97 30.12 5.34 29.58Q5.16 29.42 5.03 29.23Q4.72 28.76 4.72 28.07Q4.72 27.38 5.04 26.91Q5.17 26.72 5.34 26.57Q5.97 26.03 7.15 26.03L8.6 26.03Q9.78 26.03 10.41 26.57Q10.59 26.72 10.72 26.91ZM4.87 16.17L10.87 16.17L10.87 19.78L10.83 19.78Q10.57 19.6 10.2 19.45Q9.83 19.29 9.3 19.2Q8.78 19.1 8.07 19.04Q7.36 18.98 6.39 18.98L4.87 18.98L4.87 16.17Z" fill="#687480" fill-opacity="1.000000" fill-rule="evenodd"/>
</svg>
