<?xml version="1.0" encoding="iso-8859-1"?>
<!-- Generator: Adobe Illustrator 18.1.1, SVG Export Plug-In . SVG Version: 6.00 Build 0)  -->
<svg version="1.1" id="Capa_1" xmlns="http://www.w3.org/2000/svg" xmlns:xlink="http://www.w3.org/1999/xlink" x="0px" y="0px"
	 viewBox="0 0 148.508 148.508" style="enable-background:new 0 0 148.508 148.508;" xml:space="preserve">
<g>
	<g>
		<polygon style="fill:#010002;" points="25.656,55.841 37.73,55.841 39.542,111.381 24.148,111.381 		"/>
		<polygon style="fill:#010002;" points="15.394,114.4 133.115,114.4 133.115,120.738 142.17,120.738 142.17,129.794 
			148.508,129.794 148.508,136.133 0,136.133 0,129.794 6.338,129.794 6.338,120.738 15.394,120.738 		"/>
		<polygon style="fill:#010002;" points="139.15,39.541 74.253,12.375 9.357,39.541 9.357,43.466 139.15,43.466 		"/>
		<rect x="21.732" y="46.484" style="fill:#010002;" width="105.042" height="6.035"/>
		<polygon style="fill:#010002;" points="110.475,55.841 122.547,55.841 124.359,111.381 108.965,111.381 		"/>
		<polygon style="fill:#010002;" points="82.102,55.841 94.477,55.841 96.289,111.381 80.592,111.381 		"/>
		<polygon style="fill:#010002;" points="54.029,55.841 66.103,55.841 67.914,111.381 52.218,111.381 		"/>
	</g>
</g>
<g>
</g>
<g>
</g>
<g>
</g>
<g>
</g>
<g>
</g>
<g>
</g>
<g>
</g>
<g>
</g>
<g>
</g>
<g>
</g>
<g>
</g>
<g>
</g>
<g>
</g>
<g>
</g>
<g>
</g>
</svg>
