<svg width="0" height="0" class="hidden">
  <symbol xmlns="http://www.w3.org/2000/svg" viewBox="0 0 8 12" id="arrow-right">
    <path d="M0.589996 10.59L5.17 6L0.589996 1.41L2 0L8 6L2 12L0.589996 10.59Z"></path>
  </symbol>
  <symbol xmlns="http://www.w3.org/2000/svg" viewBox="0 0 24 24" id="facebook">
      <path d="M8.80699 4.64899C8.80699 5.2538 8.80699 7.9533 8.80699 7.9533H6.38992V11.9938H8.80699V24.0009H13.7722V11.9942H17.104C17.104 11.9942 17.4161 10.0568 17.5673 7.93841C17.1337 7.93841 13.7909 7.93841 13.7909 7.93841C13.7909 7.93841 13.7909 5.58776 13.7909 5.17573C13.7909 4.76282 14.3323 4.2074 14.8674 4.2074C15.4014 4.2074 16.5286 4.2074 17.5726 4.2074C17.5726 3.65727 17.5726 1.75647 17.5726 0.000976577C16.1789 0.000976577 14.5933 0.000976577 13.8944 0.000976577C8.68426 0.000697581 8.80699 4.04524 8.80699 4.64899Z"></path>
  </symbol>
  <symbol xmlns="http://www.w3.org/2000/svg" viewBox="0 0 25 24" id="instagram">
      <path d="M17.5908 0H6.58397C3.0017 0 0.0874023 2.9143 0.0874023 6.49657V17.5036C0.0874023 21.0857 3.0017 24 6.58397 24H17.591C21.1731 24 24.0874 21.0857 24.0874 17.5036V6.49657C24.0874 2.9143 21.1731 0 17.5908 0V0ZM12.0874 18.5623C8.46886 18.5623 5.52507 15.6185 5.52507 12C5.52507 8.38145 8.46886 5.43767 12.0874 5.43767C15.7059 5.43767 18.6497 8.38145 18.6497 12C18.6497 15.6185 15.7059 18.5623 12.0874 18.5623ZM18.8066 6.98528C17.7373 6.98528 16.8675 6.11553 16.8675 5.04619C16.8675 3.97686 17.7373 3.10693 18.8066 3.10693C19.8759 3.10693 20.7459 3.97686 20.7459 5.04619C20.7459 6.11553 19.8759 6.98528 18.8066 6.98528Z"></path>
      <path d="M12.0874 6.84473C9.24487 6.84473 6.93207 9.15734 6.93207 12.0001C6.93207 14.8426 9.24487 17.1554 12.0874 17.1554C14.9301 17.1554 17.2427 14.8426 17.2427 12.0001C17.2427 9.15734 14.9301 6.84473 12.0874 6.84473Z" ></path>
      <path d="M18.8066 4.51416C18.5133 4.51416 18.2745 4.75293 18.2745 5.04626C18.2745 5.3396 18.5133 5.57837 18.8066 5.57837C19.1001 5.57837 19.3389 5.33978 19.3389 5.04626C19.3389 4.75275 19.1001 4.51416 18.8066 4.51416Z" ></path>
  </symbol>
  <symbol xmlns="http://www.w3.org/2000/svg" viewBox="0 0 16 16" id="carbon_arrow">
    <path d="M8 2L3 7L3.705 7.705L7.5 3.915V14H8.5V3.915L12.295 7.705L13 7L8 2Z"></path>
  </symbol>
</svg>












