<svg width="220" height="70" viewBox="0 0 220 70" fill="none" xmlns="http://www.w3.org/2000/svg">
<rect x="150" width="70" height="70" fill="#1A5A4C"/>
<path d="M181.59 39.59L186.17 35L181.59 30.41L183 29L189 35L183 41L181.59 39.59Z" fill="#D7DDE3"/>
<rect x="0.5" y="0.5" width="149" height="69" stroke="#1A5A4C"/>
<path d="M44.376 29.832H46.184V34.536H48.12L50.104 31.048C50.3493 30.6107 50.6053 30.3013 50.872 30.12C51.1493 29.928 51.4853 29.832 51.88 29.832H52.728V31.432H51.72L50.12 34.248C49.9387 34.5573 49.768 34.7813 49.608 34.92C49.4587 35.0587 49.272 35.1653 49.048 35.24V35.32C49.304 35.3733 49.5227 35.464 49.704 35.592C49.8853 35.72 50.072 35.9547 50.264 36.296L52.04 39.4H53.016V41H51.912C51.56 41 51.256 40.9147 51 40.744C50.744 40.5627 50.488 40.248 50.232 39.8L48.12 36.12H46.184V41H44.376V29.832ZM55.0635 29.832H60.0075C60.9355 29.832 61.6608 30.0933 62.1835 30.616C62.7168 31.1387 62.9835 31.8373 62.9835 32.712C62.9835 33.128 62.9248 33.4853 62.8075 33.784C62.6902 34.072 62.5408 34.312 62.3595 34.504C62.1782 34.6853 61.9702 34.824 61.7355 34.92C61.5008 35.0053 61.2715 35.0587 61.0475 35.08V35.176C61.2715 35.1867 61.5168 35.24 61.7835 35.336C62.0608 35.432 62.3168 35.5867 62.5515 35.8C62.7862 36.0027 62.9835 36.2693 63.1435 36.6C63.3035 36.92 63.3835 37.3147 63.3835 37.784C63.3835 38.232 63.3088 38.6533 63.1595 39.048C63.0208 39.4427 62.8235 39.784 62.5675 40.072C62.3115 40.36 62.0075 40.5893 61.6555 40.76C61.3035 40.92 60.9195 41 60.5035 41H55.0635V29.832ZM56.8715 39.448H59.9755C60.4448 39.448 60.8128 39.3253 61.0795 39.08C61.3462 38.8347 61.4795 38.4827 61.4795 38.024V37.48C61.4795 37.0213 61.3462 36.6693 61.0795 36.424C60.8128 36.1787 60.4448 36.056 59.9755 36.056H56.8715V39.448ZM56.8715 34.552H59.6715C60.1195 34.552 60.4662 34.44 60.7115 34.216C60.9568 33.9813 61.0795 33.6507 61.0795 33.224V32.712C61.0795 32.2853 60.9568 31.96 60.7115 31.736C60.4662 31.5013 60.1195 31.384 59.6715 31.384H56.8715V34.552ZM65.6104 29.832H67.3704V36.184L67.1944 38.488H67.2424L68.3624 36.424L72.6504 29.832H74.2824V41H72.5224V34.648L72.6984 32.344H72.6504L71.5304 34.408L67.2424 41H65.6104V29.832ZM81.1763 31.432V41H79.3683V31.432H76.0403V29.832H84.5043V31.432H81.1763ZM86.2666 29.832H88.0746V34.536H90.0106L91.9946 31.048C92.24 30.6107 92.496 30.3013 92.7626 30.12C93.04 29.928 93.376 29.832 93.7706 29.832H94.6186V31.432H93.6106L92.0106 34.248C91.8293 34.5573 91.6586 34.7813 91.4986 34.92C91.3493 35.0587 91.1626 35.1653 90.9386 35.24V35.32C91.1946 35.3733 91.4133 35.464 91.5946 35.592C91.776 35.72 91.9626 35.9547 92.1546 36.296L93.9306 39.4H94.9066V41H93.8026C93.4506 41 93.1466 40.9147 92.8906 40.744C92.6346 40.5627 92.3786 40.248 92.1226 39.8L90.0106 36.12H88.0746V41H86.2666V29.832ZM96.9541 29.832H98.7141V36.184L98.5381 38.488H98.5861L99.7061 36.424L103.994 29.832H105.626V41H103.866V34.648L104.042 32.344H103.994L102.874 34.408L98.5861 41H96.9541V29.832Z" fill="#0F0E08"/>
</svg>
