<svg width="20" height="16" viewBox="0 0 20 16" fill="none" xmlns="http://www.w3.org/2000/svg">
<path d="M3.78947 13.9669C2.94737 14.4548 0.912281 14.4412 0 14.3734C0.421053 14.78 3.57895 16 6.52632 16C9.47368 16 11.5789 15.5934 15.1579 12.3408C18.0211 9.73865 18.3158 5.971 18.1053 4.41244L20 2.37953H18.3158L19.3684 0.346626C18.5965 0.820951 17.0105 1.64763 16.8421 1.15973C16.6316 0.549857 13.6842 -0.873177 11.1579 0.753142C9.13684 2.0542 9.47368 3.80257 9.68421 5.22553C5.89474 4.81902 1.05263 0.753142 1.05263 0.753142C-0.122503 2.86053 1.46337 5.41233 2.09911 6.43529L2.10526 6.4452L0.631579 6.03862C0.631579 7.82757 2.31579 9.08812 3.15789 9.69776H1.89474C2.56842 11.4867 4.70175 12.4761 5.68421 12.7471C5.40351 12.9504 4.63158 13.479 3.78947 13.9669Z" fill="#C4C4C4"/>
</svg>
