<svg width="25" height="24" viewBox="0 0 25 24" fill="none" xmlns="http://www.w3.org/2000/svg">
<path d="M17.5908 0H6.58397C3.0017 0 0.0874023 2.9143 0.0874023 6.49657V17.5036C0.0874023 21.0857 3.0017 24 6.58397 24H17.591C21.1731 24 24.0874 21.0857 24.0874 17.5036V6.49657C24.0874 2.9143 21.1731 0 17.5908 0V0ZM12.0874 18.5623C8.46886 18.5623 5.52507 15.6185 5.52507 12C5.52507 8.38145 8.46886 5.43767 12.0874 5.43767C15.7059 5.43767 18.6497 8.38145 18.6497 12C18.6497 15.6185 15.7059 18.5623 12.0874 18.5623ZM18.8066 6.98528C17.7373 6.98528 16.8675 6.11553 16.8675 5.04619C16.8675 3.97686 17.7373 3.10693 18.8066 3.10693C19.8759 3.10693 20.7459 3.97686 20.7459 5.04619C20.7459 6.11553 19.8759 6.98528 18.8066 6.98528Z" fill="black"/>
</svg>
