<svg width="515" height="397" viewBox="0 0 515 397" fill="none" xmlns="http://www.w3.org/2000/svg">
<g clip-path="url(#clip0_21779_892)">
<path fill-rule="evenodd" clip-rule="evenodd" d="M215.868 14.8733C359.779 -4.23879 442.726 -5.66845 596.133 14.8734L597 14.9895V15.8646V82.2497V83.2497H596H587.927V113.695V114.695H586.927H571.735C571.665 115.067 571.575 115.56 571.477 116.152C571.244 117.559 570.965 119.518 570.778 121.724C570.402 126.181 570.423 131.48 571.853 135.308C573.376 139.388 577.228 143.747 580.817 147.15C582.594 148.835 584.272 150.255 585.507 151.254C586.124 151.753 586.629 152.146 586.979 152.414C587.153 152.547 587.289 152.65 587.381 152.718L587.421 152.748L587.484 152.795L587.51 152.814L587.516 152.818L587.517 152.819L587.513 152.824L587.517 152.819L587.927 153.118V153.626V179.081H596H597V180.081V339.305V340.305H596H587.927V376.241V377.054L587.132 377.22C461.233 403.574 380.765 403.615 226.506 377.227L225.674 377.085V376.241V340.305H216H215V339.305V180.081V179.081H216H225.674V153.626V153.043L226.182 152.756C227.051 152.264 227.943 151.782 228.843 151.296C231.642 149.782 234.513 148.23 237.004 146.224C240.243 143.617 242.716 140.327 243.294 135.538L243.295 135.527L243.297 135.516C244.225 129.008 244.36 124.557 243.382 114.695H226.674H225.674V113.695V83.2497H216H215V82.2497V15.8646V14.9886L215.868 14.8733ZM227.674 340.417C374.407 356.008 453.271 356.024 585.927 340.43V375.429C461.002 401.508 380.87 401.554 227.674 375.398V340.417ZM245.392 114.695H569.701C569.642 115.017 569.575 115.396 569.504 115.825C569.265 117.271 568.977 119.284 568.785 121.556C568.537 124.495 568.442 127.939 568.851 131.163H245.824C246.226 126.568 246.123 122.126 245.392 114.695ZM245.62 133.163H569.178C569.382 134.157 569.645 135.113 569.979 136.007C571.675 140.55 575.829 145.176 579.441 148.601C581.265 150.331 582.985 151.786 584.249 152.809C584.882 153.321 585.401 153.725 585.763 154.002C585.822 154.047 585.877 154.089 585.927 154.127V179.705C446.559 186.461 367.512 185.945 227.674 179.624V154.212C228.314 153.856 228.98 153.497 229.662 153.128L229.666 153.126L229.667 153.125L229.675 153.121L229.678 153.12L229.678 153.119C232.509 151.59 235.61 149.915 238.259 147.782C241.773 144.953 244.618 141.233 245.278 135.788C245.407 134.881 245.521 134.012 245.62 133.163ZM570.916 112.695H585.927V83.2495H227.674V112.695L244.286 112.695L570.916 112.695ZM226.674 81.2497L226.674 81.2495H586.927L586.927 81.2497H595V16.7397C442.641 -3.61474 359.94 -2.20394 217 16.7407V81.2497H226.674ZM226.629 181.579L226.651 181.081H217V338.305H226.674H226.727L226.78 338.311C374.503 354.049 453.308 354.058 586.81 338.312L586.868 338.305H586.927H595V181.081H588.553L588.577 181.578C447.229 188.483 367.97 187.982 226.629 181.579Z" fill="#344F10"/>
<circle cx="194.5" cy="50.5" r="2.5" transform="rotate(-180 194.5 50.5)" fill="#333333"/>
<circle cx="194.5" cy="123.5" r="2.5" transform="rotate(-180 194.5 123.5)" fill="#333333"/>
<circle cx="194.5" cy="199.5" r="2.5" fill="#333333"/>
<rect x="193" y="51" width="76" height="1" transform="rotate(-180 193 51)" fill="#333333"/>
<rect x="193" y="124" width="76" height="1" transform="rotate(-180 193 124)" fill="#333333"/>
<rect x="193" y="200" width="76" height="1" transform="rotate(-180 193 200)" fill="#333333"/>
<circle cx="194.5" cy="199.5" r="2.5" fill="#333333"/>
<circle cx="194.5" cy="272.5" r="2.5" fill="#333333"/>
<rect x="193" y="273" width="76" height="1" transform="rotate(-180 193 273)" fill="#333333"/>
<circle cx="194.5" cy="272.5" r="2.5" fill="#333333"/>
<circle cx="194.5" cy="272.5" r="2.5" fill="#333333"/>
<circle cx="194.5" cy="272.5" r="2.5" fill="#333333"/>
<circle cx="194.5" cy="344.5" r="2.5" fill="#333333"/>
<rect x="193" y="345" width="76" height="1" transform="rotate(-180 193 345)" fill="#333333"/>
<circle cx="194.5" cy="344.5" r="2.5" fill="#333333"/>
<circle cx="194.5" cy="344.5" r="2.5" fill="#333333"/>
<circle cx="194.5" cy="344.5" r="2.5" fill="#333333"/>
</g>
<path d="M55.5456 55.9983L50.9536 50.9103V55.9983H49.4976V44.8463H50.9536V50.0143L55.5616 44.8463H57.4016L52.3456 50.4303L57.4496 55.9983H55.5456ZM58.5318 51.5823C58.5318 50.6863 58.7131 49.9023 59.0758 49.2303C59.4384 48.5476 59.9344 48.0196 60.5638 47.6463C61.2038 47.273 61.9131 47.0863 62.6918 47.0863C63.4598 47.0863 64.1264 47.2516 64.6918 47.5823C65.2571 47.913 65.6784 48.329 65.9558 48.8303V47.2303H67.4278V55.9983H65.9558V54.3663C65.6678 54.8783 65.2358 55.305 64.6598 55.6463C64.0944 55.977 63.4331 56.1423 62.6758 56.1423C61.8971 56.1423 61.1931 55.9503 60.5638 55.5663C59.9344 55.1823 59.4384 54.6436 59.0758 53.9503C58.7131 53.257 58.5318 52.4676 58.5318 51.5823ZM65.9558 51.5983C65.9558 50.937 65.8224 50.361 65.5558 49.8703C65.2891 49.3796 64.9264 49.0063 64.4678 48.7503C64.0198 48.4836 63.5238 48.3503 62.9798 48.3503C62.4358 48.3503 61.9398 48.4783 61.4918 48.7343C61.0438 48.9903 60.6864 49.3636 60.4198 49.8543C60.1531 50.345 60.0198 50.921 60.0198 51.5823C60.0198 52.2543 60.1531 52.841 60.4198 53.3423C60.6864 53.833 61.0438 54.2116 61.4918 54.4783C61.9398 54.7343 62.4358 54.8623 62.9798 54.8623C63.5238 54.8623 64.0198 54.7343 64.4678 54.4783C64.9264 54.2116 65.2891 53.833 65.5558 53.3423C65.8224 52.841 65.9558 52.2596 65.9558 51.5983ZM73.7123 56.1423C72.8909 56.1423 72.1443 55.9556 71.4723 55.5823C70.8109 55.209 70.2883 54.681 69.9043 53.9983C69.5309 53.305 69.3443 52.505 69.3443 51.5983C69.3443 50.7023 69.5363 49.913 69.9203 49.2303C70.3149 48.537 70.8483 48.009 71.5203 47.6463C72.1923 47.273 72.9443 47.0863 73.7763 47.0863C74.6083 47.0863 75.3603 47.273 76.0323 47.6463C76.7043 48.009 77.2323 48.5316 77.6163 49.2143C78.0109 49.897 78.2083 50.6916 78.2083 51.5983C78.2083 52.505 78.0056 53.305 77.6003 53.9983C77.2056 54.681 76.6669 55.209 75.9843 55.5823C75.3016 55.9556 74.5443 56.1423 73.7123 56.1423ZM73.7123 54.8623C74.2349 54.8623 74.7256 54.7396 75.1843 54.4943C75.6429 54.249 76.0109 53.881 76.2883 53.3903C76.5763 52.8996 76.7203 52.3023 76.7203 51.5983C76.7203 50.8943 76.5816 50.297 76.3043 49.8063C76.0269 49.3156 75.6643 48.953 75.2163 48.7183C74.7683 48.473 74.2829 48.3503 73.7603 48.3503C73.2269 48.3503 72.7363 48.473 72.2883 48.7183C71.8509 48.953 71.4989 49.3156 71.2323 49.8063C70.9656 50.297 70.8323 50.8943 70.8323 51.5983C70.8323 52.313 70.9603 52.9156 71.2163 53.4063C71.4829 53.897 71.8349 54.265 72.2723 54.5103C72.7096 54.745 73.1896 54.8623 73.7123 54.8623ZM81.5786 44.1583V55.9983H80.1226V44.1583H81.5786ZM84.8121 45.8063C84.5348 45.8063 84.3001 45.7103 84.1081 45.5183C83.9161 45.3263 83.8201 45.0916 83.8201 44.8143C83.8201 44.537 83.9161 44.3023 84.1081 44.1103C84.3001 43.9183 84.5348 43.8223 84.8121 43.8223C85.0788 43.8223 85.3028 43.9183 85.4841 44.1103C85.6761 44.3023 85.7721 44.537 85.7721 44.8143C85.7721 45.0916 85.6761 45.3263 85.4841 45.5183C85.3028 45.7103 85.0788 45.8063 84.8121 45.8063ZM85.5161 47.2303V55.9983H84.0601V47.2303H85.5161ZM92.2696 47.0703C93.3363 47.0703 94.2003 47.3956 94.8616 48.0463C95.523 48.6863 95.8536 49.6143 95.8536 50.8303V55.9983H94.4136V51.0383C94.4136 50.1636 94.195 49.497 93.7576 49.0383C93.3203 48.569 92.723 48.3343 91.9656 48.3343C91.1976 48.3343 90.5843 48.5743 90.1256 49.0543C89.6776 49.5343 89.4536 50.233 89.4536 51.1503V55.9983H87.9976V47.2303H89.4536V48.4783C89.7416 48.0303 90.131 47.6836 90.6216 47.4383C91.123 47.193 91.6723 47.0703 92.2696 47.0703Z" fill="#333333"/>
<path d="M60.4243 132.11C59.6883 132.11 59.0269 131.982 58.4403 131.726C57.8643 131.46 57.4109 131.097 57.0803 130.638C56.7496 130.169 56.5789 129.63 56.5683 129.022H58.1203C58.1736 129.545 58.3869 129.988 58.7603 130.35C59.1443 130.702 59.6989 130.878 60.4243 130.878C61.1176 130.878 61.6616 130.708 62.0563 130.366C62.4616 130.014 62.6643 129.566 62.6643 129.022C62.6643 128.596 62.5469 128.249 62.3123 127.982C62.0776 127.716 61.7843 127.513 61.4323 127.374C61.0803 127.236 60.6056 127.086 60.0083 126.926C59.2723 126.734 58.6803 126.542 58.2323 126.35C57.7949 126.158 57.4163 125.86 57.0963 125.454C56.7869 125.038 56.6323 124.484 56.6323 123.79C56.6323 123.182 56.7869 122.644 57.0963 122.174C57.4056 121.705 57.8376 121.342 58.3923 121.086C58.9576 120.83 59.6029 120.702 60.3283 120.702C61.3736 120.702 62.2269 120.964 62.8883 121.486C63.5603 122.009 63.9389 122.702 64.0243 123.566H62.4243C62.3709 123.14 62.1469 122.766 61.7523 122.446C61.3576 122.116 60.8349 121.95 60.1843 121.95C59.5763 121.95 59.0803 122.11 58.6963 122.43C58.3123 122.74 58.1203 123.177 58.1203 123.742C58.1203 124.148 58.2323 124.478 58.4563 124.734C58.6909 124.99 58.9736 125.188 59.3043 125.326C59.6456 125.454 60.1203 125.604 60.7283 125.774C61.4643 125.977 62.0563 126.18 62.5043 126.382C62.9523 126.574 63.3363 126.878 63.6562 127.294C63.9763 127.7 64.1363 128.254 64.1363 128.958C64.1363 129.502 63.9923 130.014 63.7043 130.494C63.4163 130.974 62.9896 131.364 62.4243 131.662C61.8589 131.961 61.1923 132.11 60.4243 132.11ZM67.0309 121.806C66.7535 121.806 66.5189 121.71 66.3269 121.518C66.1349 121.326 66.0389 121.092 66.0389 120.814C66.0389 120.537 66.1349 120.302 66.3269 120.11C66.5189 119.918 66.7535 119.822 67.0309 119.822C67.2975 119.822 67.5215 119.918 67.7029 120.11C67.8949 120.302 67.9909 120.537 67.9909 120.814C67.9909 121.092 67.8949 121.326 67.7029 121.518C67.5215 121.71 67.2975 121.806 67.0309 121.806ZM67.7349 123.23V131.998H66.2789V123.23H67.7349ZM73.4804 130.654L76.2004 123.23H77.7524L74.3124 131.998H72.6164L69.1764 123.23H70.7444L73.4804 130.654ZM78.6411 127.582C78.6411 126.686 78.8225 125.902 79.1851 125.23C79.5478 124.548 80.0438 124.02 80.6731 123.646C81.3131 123.273 82.0225 123.086 82.8011 123.086C83.5691 123.086 84.2358 123.252 84.8011 123.582C85.3665 123.913 85.7878 124.329 86.0651 124.83V123.23H87.5371V131.998H86.0651V130.366C85.7771 130.878 85.3451 131.305 84.7691 131.646C84.2038 131.977 83.5425 132.142 82.7851 132.142C82.0065 132.142 81.3025 131.95 80.6731 131.566C80.0438 131.182 79.5478 130.644 79.1851 129.95C78.8225 129.257 78.6411 128.468 78.6411 127.582ZM86.0651 127.598C86.0651 126.937 85.9318 126.361 85.6651 125.87C85.3985 125.38 85.0358 125.006 84.5771 124.75C84.1291 124.484 83.6331 124.35 83.0891 124.35C82.5451 124.35 82.0491 124.478 81.6011 124.734C81.1531 124.99 80.7958 125.364 80.5291 125.854C80.2625 126.345 80.1291 126.921 80.1291 127.582C80.1291 128.254 80.2625 128.841 80.5291 129.342C80.7958 129.833 81.1531 130.212 81.6011 130.478C82.0491 130.734 82.5451 130.862 83.0891 130.862C83.6331 130.862 84.1291 130.734 84.5771 130.478C85.0358 130.212 85.3985 129.833 85.6651 129.342C85.9318 128.841 86.0651 128.26 86.0651 127.598ZM94.8936 131.998L91.4536 128.126V131.998H89.9976V120.158H91.4536V127.118L94.8296 123.23H96.8616L92.7336 127.598L96.8776 131.998H94.8936Z" fill="#333333"/>
<path d="M30.2036 199.414C30.2036 198.326 30.449 197.35 30.9396 196.486C31.4303 195.612 32.097 194.929 32.9396 194.438C33.793 193.948 34.737 193.702 35.7716 193.702C36.9876 193.702 38.049 193.996 38.9556 194.582C39.8623 195.169 40.5236 196.001 40.9396 197.078H39.1956C38.8863 196.406 38.4383 195.889 37.8516 195.526C37.2756 195.164 36.5823 194.982 35.7716 194.982C34.993 194.982 34.2943 195.164 33.6756 195.526C33.057 195.889 32.5716 196.406 32.2196 197.078C31.8676 197.74 31.6916 198.518 31.6916 199.414C31.6916 200.3 31.8676 201.078 32.2196 201.75C32.5716 202.412 33.057 202.924 33.6756 203.286C34.2943 203.649 34.993 203.83 35.7716 203.83C36.5823 203.83 37.2756 203.654 37.8516 203.302C38.4383 202.94 38.8863 202.422 39.1956 201.75H40.9396C40.5236 202.817 39.8623 203.644 38.9556 204.23C38.049 204.806 36.9876 205.094 35.7716 205.094C34.737 205.094 33.793 204.854 32.9396 204.374C32.097 203.884 31.4303 203.206 30.9396 202.342C30.449 201.478 30.2036 200.502 30.2036 199.414ZM42.563 200.582C42.563 199.686 42.7443 198.902 43.107 198.23C43.4697 197.548 43.9657 197.02 44.595 196.646C45.235 196.273 45.9443 196.086 46.723 196.086C47.491 196.086 48.1577 196.252 48.723 196.582C49.2883 196.913 49.7097 197.329 49.987 197.83V196.23H51.459V204.998H49.987V203.366C49.699 203.878 49.267 204.305 48.691 204.646C48.1257 204.977 47.4643 205.142 46.707 205.142C45.9283 205.142 45.2243 204.95 44.595 204.566C43.9657 204.182 43.4697 203.644 43.107 202.95C42.7443 202.257 42.563 201.468 42.563 200.582ZM49.987 200.598C49.987 199.937 49.8537 199.361 49.587 198.87C49.3203 198.38 48.9577 198.006 48.499 197.75C48.051 197.484 47.555 197.35 47.011 197.35C46.467 197.35 45.971 197.478 45.523 197.734C45.075 197.99 44.7177 198.364 44.451 198.854C44.1843 199.345 44.051 199.921 44.051 200.582C44.051 201.254 44.1843 201.841 44.451 202.342C44.7177 202.833 45.075 203.212 45.523 203.478C45.971 203.734 46.467 203.862 47.011 203.862C47.555 203.862 48.051 203.734 48.499 203.478C48.9577 203.212 49.3203 202.833 49.587 202.342C49.8537 201.841 49.987 201.26 49.987 200.598ZM55.3755 193.158V204.998H53.9195V193.158H55.3755ZM57.313 200.598C57.313 199.692 57.4943 198.902 57.857 198.23C58.2197 197.548 58.721 197.02 59.361 196.646C60.0117 196.273 60.753 196.086 61.585 196.086C62.6623 196.086 63.5477 196.348 64.241 196.87C64.945 197.393 65.409 198.118 65.633 199.046H64.065C63.9157 198.513 63.6223 198.092 63.185 197.782C62.7583 197.473 62.225 197.318 61.585 197.318C60.753 197.318 60.081 197.606 59.569 198.182C59.057 198.748 58.801 199.553 58.801 200.598C58.801 201.654 59.057 202.47 59.569 203.046C60.081 203.622 60.753 203.91 61.585 203.91C62.225 203.91 62.7583 203.761 63.185 203.462C63.6117 203.164 63.905 202.737 64.065 202.182H65.633C65.3983 203.078 64.929 203.798 64.225 204.342C63.521 204.876 62.641 205.142 61.585 205.142C60.753 205.142 60.0117 204.956 59.361 204.582C58.721 204.209 58.2197 203.681 57.857 202.998C57.4943 202.316 57.313 201.516 57.313 200.598ZM68.3278 194.806C68.0504 194.806 67.8158 194.71 67.6238 194.518C67.4318 194.326 67.3358 194.092 67.3358 193.814C67.3358 193.537 67.4318 193.302 67.6238 193.11C67.8158 192.918 68.0504 192.822 68.3278 192.822C68.5944 192.822 68.8184 192.918 68.9998 193.11C69.1918 193.302 69.2878 193.537 69.2878 193.814C69.2878 194.092 69.1918 194.326 68.9998 194.518C68.8184 194.71 68.5944 194.806 68.3278 194.806ZM69.0318 196.23V204.998H67.5758V196.23H69.0318ZM79.2893 196.23V204.998H77.8333V203.702C77.5559 204.15 77.1666 204.502 76.6653 204.758C76.1746 205.004 75.6306 205.126 75.0333 205.126C74.3506 205.126 73.7373 204.988 73.1933 204.71C72.6493 204.422 72.2173 203.996 71.8973 203.43C71.5879 202.865 71.4333 202.177 71.4333 201.366V196.23H72.8733V201.174C72.8733 202.038 73.0919 202.705 73.5293 203.174C73.9666 203.633 74.5639 203.862 75.3213 203.862C76.0999 203.862 76.7133 203.622 77.1613 203.142C77.6093 202.662 77.8333 201.964 77.8333 201.046V196.23H79.2893ZM92.2916 196.07C92.9743 196.07 93.5823 196.214 94.1156 196.502C94.649 196.78 95.0703 197.201 95.3796 197.766C95.689 198.332 95.8436 199.02 95.8436 199.83V204.998H94.4036V200.038C94.4036 199.164 94.185 198.497 93.7476 198.038C93.321 197.569 92.7396 197.334 92.0036 197.334C91.2463 197.334 90.6436 197.58 90.1956 198.07C89.7476 198.55 89.5236 199.249 89.5236 200.166V204.998H88.0836V200.038C88.0836 199.164 87.865 198.497 87.4276 198.038C87.001 197.569 86.4196 197.334 85.6836 197.334C84.9263 197.334 84.3236 197.58 83.8756 198.07C83.4276 198.55 83.2036 199.249 83.2036 200.166V204.998H81.7476V196.23H83.2036V197.494C83.4916 197.036 83.8756 196.684 84.3556 196.438C84.8463 196.193 85.385 196.07 85.9716 196.07C86.7076 196.07 87.3583 196.236 87.9236 196.566C88.489 196.897 88.9103 197.382 89.1876 198.022C89.433 197.404 89.8383 196.924 90.4036 196.582C90.969 196.241 91.5983 196.07 92.2916 196.07Z" fill="#333333"/>
<path d="M2.813 279.814H6.717V280.998H1.357V269.846H2.813V279.814ZM9.01525 270.806C8.73792 270.806 8.50325 270.71 8.31125 270.518C8.11925 270.326 8.02325 270.092 8.02325 269.814C8.02325 269.537 8.11925 269.302 8.31125 269.11C8.50325 268.918 8.73792 268.822 9.01525 268.822C9.28192 268.822 9.50592 268.918 9.68725 269.11C9.87925 269.302 9.97525 269.537 9.97525 269.814C9.97525 270.092 9.87925 270.326 9.68725 270.518C9.50592 270.71 9.28192 270.806 9.01525 270.806ZM9.71925 272.23V280.998H8.26325V272.23H9.71925ZM11.6568 276.598C11.6568 275.692 11.8381 274.902 12.2008 274.23C12.5634 273.548 13.0648 273.02 13.7048 272.646C14.3554 272.273 15.0968 272.086 15.9288 272.086C17.0061 272.086 17.8914 272.348 18.5848 272.87C19.2888 273.393 19.7528 274.118 19.9768 275.046H18.4088C18.2594 274.513 17.9661 274.092 17.5288 273.782C17.1021 273.473 16.5688 273.318 15.9288 273.318C15.0968 273.318 14.4248 273.606 13.9128 274.182C13.4008 274.748 13.1448 275.553 13.1448 276.598C13.1448 277.654 13.4008 278.47 13.9128 279.046C14.4248 279.622 15.0968 279.91 15.9288 279.91C16.5688 279.91 17.1021 279.761 17.5288 279.462C17.9554 279.164 18.2488 278.737 18.4088 278.182H19.9768C19.7421 279.078 19.2728 279.798 18.5688 280.342C17.8648 280.876 16.9848 281.142 15.9288 281.142C15.0968 281.142 14.3554 280.956 13.7048 280.582C13.0648 280.209 12.5634 279.681 12.2008 278.998C11.8381 278.316 11.6568 277.516 11.6568 276.598ZM25.7435 281.142C24.9222 281.142 24.1755 280.956 23.5035 280.582C22.8422 280.209 22.3195 279.681 21.9355 278.998C21.5622 278.305 21.3755 277.505 21.3755 276.598C21.3755 275.702 21.5675 274.913 21.9515 274.23C22.3462 273.537 22.8795 273.009 23.5515 272.646C24.2235 272.273 24.9755 272.086 25.8075 272.086C26.6395 272.086 27.3915 272.273 28.0635 272.646C28.7355 273.009 29.2635 273.532 29.6475 274.214C30.0422 274.897 30.2395 275.692 30.2395 276.598C30.2395 277.505 30.0368 278.305 29.6315 278.998C29.2368 279.681 28.6982 280.209 28.0155 280.582C27.3328 280.956 26.5755 281.142 25.7435 281.142ZM25.7435 279.862C26.2662 279.862 26.7568 279.74 27.2155 279.494C27.6742 279.249 28.0422 278.881 28.3195 278.39C28.6075 277.9 28.7515 277.302 28.7515 276.598C28.7515 275.894 28.6128 275.297 28.3355 274.806C28.0582 274.316 27.6955 273.953 27.2475 273.718C26.7995 273.473 26.3142 273.35 25.7915 273.35C25.2582 273.35 24.7675 273.473 24.3195 273.718C23.8822 273.953 23.5302 274.316 23.2635 274.806C22.9968 275.297 22.8635 275.894 22.8635 276.598C22.8635 277.313 22.9915 277.916 23.2475 278.406C23.5142 278.897 23.8662 279.265 24.3035 279.51C24.7408 279.745 25.2208 279.862 25.7435 279.862ZM33.6099 273.654C33.8659 273.153 34.2285 272.764 34.6979 272.486C35.1779 272.209 35.7592 272.07 36.4419 272.07V273.574H36.0579C34.4259 273.574 33.6099 274.46 33.6099 276.23V280.998H32.1539V272.23H33.6099V273.654ZM38.8746 270.806C38.5973 270.806 38.3626 270.71 38.1706 270.518C37.9786 270.326 37.8826 270.092 37.8826 269.814C37.8826 269.537 37.9786 269.302 38.1706 269.11C38.3626 268.918 38.5973 268.822 38.8746 268.822C39.1413 268.822 39.3653 268.918 39.5466 269.11C39.7386 269.302 39.8346 269.537 39.8346 269.814C39.8346 270.092 39.7386 270.326 39.5466 270.518C39.3653 270.71 39.1413 270.806 38.8746 270.806ZM39.5786 272.23V280.998H38.1226V272.23H39.5786ZM41.5161 276.598C41.5161 275.692 41.6975 274.902 42.0601 274.23C42.4228 273.548 42.9241 273.02 43.5641 272.646C44.2148 272.273 44.9561 272.086 45.7881 272.086C46.8655 272.086 47.7508 272.348 48.4441 272.87C49.1481 273.393 49.6121 274.118 49.8361 275.046H48.2681C48.1188 274.513 47.8255 274.092 47.3881 273.782C46.9615 273.473 46.4281 273.318 45.7881 273.318C44.9561 273.318 44.2841 273.606 43.7721 274.182C43.2601 274.748 43.0041 275.553 43.0041 276.598C43.0041 277.654 43.2601 278.47 43.7721 279.046C44.2841 279.622 44.9561 279.91 45.7881 279.91C46.4281 279.91 46.9615 279.761 47.3881 279.462C47.8148 279.164 48.1081 278.737 48.2681 278.182H49.8361C49.6015 279.078 49.1321 279.798 48.4281 280.342C47.7241 280.876 46.8441 281.142 45.7881 281.142C44.9561 281.142 44.2148 280.956 43.5641 280.582C42.9241 280.209 42.4228 279.681 42.0601 278.998C41.6975 278.316 41.5161 277.516 41.5161 276.598ZM59.7789 276.278C59.7789 276.556 59.7629 276.849 59.7309 277.158H52.7229C52.7762 278.022 53.0695 278.7 53.6029 279.19C54.1469 279.67 54.8029 279.91 55.5709 279.91C56.2002 279.91 56.7229 279.766 57.1389 279.478C57.5655 279.18 57.8642 278.785 58.0349 278.294H59.6029C59.3682 279.137 58.8989 279.825 58.1949 280.358C57.4909 280.881 56.6162 281.142 55.5709 281.142C54.7389 281.142 53.9922 280.956 53.3309 280.582C52.6802 280.209 52.1682 279.681 51.7949 278.998C51.4215 278.305 51.2349 277.505 51.2349 276.598C51.2349 275.692 51.4162 274.897 51.7789 274.214C52.1415 273.532 52.6482 273.009 53.2989 272.646C53.9602 272.273 54.7175 272.086 55.5709 272.086C56.4029 272.086 57.1389 272.268 57.7789 272.63C58.4189 272.993 58.9095 273.494 59.2509 274.134C59.6029 274.764 59.7789 275.478 59.7789 276.278ZM58.2749 275.974C58.2749 275.42 58.1522 274.945 57.9069 274.55C57.6615 274.145 57.3255 273.841 56.8989 273.638C56.4829 273.425 56.0189 273.318 55.5069 273.318C54.7709 273.318 54.1415 273.553 53.6189 274.022C53.1069 274.492 52.8135 275.142 52.7389 275.974H58.2749ZM67.4224 273.654C67.6784 273.153 68.041 272.764 68.5104 272.486C68.9904 272.209 69.5717 272.07 70.2544 272.07V273.574H69.8704C68.2384 273.574 67.4224 274.46 67.4224 276.23V280.998H65.9664V272.23H67.4224V273.654ZM75.7591 281.142C74.9378 281.142 74.1911 280.956 73.5191 280.582C72.8578 280.209 72.3351 279.681 71.9511 278.998C71.5778 278.305 71.3911 277.505 71.3911 276.598C71.3911 275.702 71.5831 274.913 71.9671 274.23C72.3618 273.537 72.8951 273.009 73.5671 272.646C74.2391 272.273 74.9911 272.086 75.8231 272.086C76.6551 272.086 77.4071 272.273 78.0791 272.646C78.7511 273.009 79.2791 273.532 79.6631 274.214C80.0578 274.897 80.2551 275.692 80.2551 276.598C80.2551 277.505 80.0525 278.305 79.6471 278.998C79.2525 279.681 78.7138 280.209 78.0311 280.582C77.3485 280.956 76.5911 281.142 75.7591 281.142ZM75.7591 279.862C76.2818 279.862 76.7725 279.74 77.2311 279.494C77.6898 279.249 78.0578 278.881 78.3351 278.39C78.6231 277.9 78.7671 277.302 78.7671 276.598C78.7671 275.894 78.6285 275.297 78.3511 274.806C78.0738 274.316 77.7111 273.953 77.2631 273.718C76.8151 273.473 76.3298 273.35 75.8071 273.35C75.2738 273.35 74.7831 273.473 74.3351 273.718C73.8978 273.953 73.5458 274.316 73.2791 274.806C73.0125 275.297 72.8791 275.894 72.8791 276.598C72.8791 277.313 73.0071 277.916 73.2631 278.406C73.5298 278.897 73.8818 279.265 74.3191 279.51C74.7565 279.745 75.2365 279.862 75.7591 279.862ZM85.9935 281.142C85.1722 281.142 84.4255 280.956 83.7535 280.582C83.0922 280.209 82.5695 279.681 82.1855 278.998C81.8122 278.305 81.6255 277.505 81.6255 276.598C81.6255 275.702 81.8175 274.913 82.2015 274.23C82.5962 273.537 83.1295 273.009 83.8015 272.646C84.4735 272.273 85.2255 272.086 86.0575 272.086C86.8895 272.086 87.6415 272.273 88.3135 272.646C88.9855 273.009 89.5135 273.532 89.8975 274.214C90.2922 274.897 90.4895 275.692 90.4895 276.598C90.4895 277.505 90.2868 278.305 89.8815 278.998C89.4868 279.681 88.9482 280.209 88.2655 280.582C87.5828 280.956 86.8255 281.142 85.9935 281.142ZM85.9935 279.862C86.5162 279.862 87.0068 279.74 87.4655 279.494C87.9242 279.249 88.2922 278.881 88.5695 278.39C88.8575 277.9 89.0015 277.302 89.0015 276.598C89.0015 275.894 88.8628 275.297 88.5855 274.806C88.3082 274.316 87.9455 273.953 87.4975 273.718C87.0495 273.473 86.5642 273.35 86.0415 273.35C85.5082 273.35 85.0175 273.473 84.5695 273.718C84.1322 273.953 83.7802 274.316 83.5135 274.806C83.2468 275.297 83.1135 275.894 83.1135 276.598C83.1135 277.313 83.2415 277.916 83.4975 278.406C83.7642 278.897 84.1162 279.265 84.5535 279.51C84.9908 279.745 85.4708 279.862 85.9935 279.862ZM94.1799 273.43V278.598C94.1799 279.025 94.2705 279.329 94.4519 279.51C94.6332 279.681 94.9479 279.766 95.3959 279.766H96.4679V280.998H95.1559C94.3452 280.998 93.7372 280.812 93.3319 280.438C92.9265 280.065 92.7239 279.452 92.7239 278.598V273.43H91.5879V272.23H92.7239V270.022H94.1799V272.23H96.4679V273.43H94.1799Z" fill="#333333"/>
<path d="M34.2054 342.846V344.03H31.1654V353.998H29.7094V344.03H26.6534V342.846H34.2054ZM43.7736 345.23V353.998H42.3176V352.702C42.0403 353.15 41.651 353.502 41.1496 353.758C40.659 354.004 40.115 354.126 39.5176 354.126C38.835 354.126 38.2216 353.988 37.6776 353.71C37.1336 353.422 36.7016 352.996 36.3816 352.43C36.0723 351.865 35.9176 351.177 35.9176 350.366V345.23H37.3576V350.174C37.3576 351.038 37.5763 351.705 38.0136 352.174C38.451 352.633 39.0483 352.862 39.8056 352.862C40.5843 352.862 41.1976 352.622 41.6456 352.142C42.0936 351.662 42.3176 350.964 42.3176 350.046V345.23H43.7736ZM47.688 346.654C47.944 346.153 48.3067 345.764 48.776 345.486C49.256 345.209 49.8373 345.07 50.52 345.07V346.574H50.136C48.504 346.574 47.688 347.46 47.688 349.23V353.998H46.232V345.23H47.688V346.654ZM62.7448 345.07C63.4274 345.07 64.0354 345.214 64.5688 345.502C65.1021 345.78 65.5234 346.201 65.8328 346.766C66.1421 347.332 66.2968 348.02 66.2968 348.83V353.998H64.8568V349.038C64.8568 348.164 64.6381 347.497 64.2008 347.038C63.7741 346.569 63.1928 346.334 62.4568 346.334C61.6994 346.334 61.0968 346.58 60.6488 347.07C60.2008 347.55 59.9768 348.249 59.9768 349.166V353.998H58.5368V349.038C58.5368 348.164 58.3181 347.497 57.8808 347.038C57.4541 346.569 56.8728 346.334 56.1368 346.334C55.3794 346.334 54.7768 346.58 54.3288 347.07C53.8808 347.55 53.6568 348.249 53.6568 349.166V353.998H52.2008V345.23H53.6568V346.494C53.9448 346.036 54.3288 345.684 54.8088 345.438C55.2994 345.193 55.8381 345.07 56.4248 345.07C57.1608 345.07 57.8114 345.236 58.3768 345.566C58.9421 345.897 59.3634 346.382 59.6408 347.022C59.8861 346.404 60.2914 345.924 60.8568 345.582C61.4221 345.241 62.0514 345.07 62.7448 345.07ZM76.6851 349.278C76.6851 349.556 76.6691 349.849 76.6371 350.158H69.6291C69.6825 351.022 69.9758 351.7 70.5091 352.19C71.0531 352.67 71.7091 352.91 72.4771 352.91C73.1065 352.91 73.6291 352.766 74.0451 352.478C74.4718 352.18 74.7705 351.785 74.9411 351.294H76.5091C76.2745 352.137 75.8051 352.825 75.1011 353.358C74.3971 353.881 73.5225 354.142 72.4771 354.142C71.6451 354.142 70.8985 353.956 70.2371 353.582C69.5865 353.209 69.0745 352.681 68.7011 351.998C68.3278 351.305 68.1411 350.505 68.1411 349.598C68.1411 348.692 68.3225 347.897 68.6851 347.214C69.0478 346.532 69.5545 346.009 70.2051 345.646C70.8665 345.273 71.6238 345.086 72.4771 345.086C73.3091 345.086 74.0451 345.268 74.6851 345.63C75.3251 345.993 75.8158 346.494 76.1571 347.134C76.5091 347.764 76.6851 348.478 76.6851 349.278ZM75.1811 348.974C75.1811 348.42 75.0585 347.945 74.8131 347.55C74.5678 347.145 74.2318 346.841 73.8051 346.638C73.3891 346.425 72.9251 346.318 72.4131 346.318C71.6771 346.318 71.0478 346.553 70.5251 347.022C70.0131 347.492 69.7198 348.142 69.6451 348.974H75.1811ZM80.063 346.654C80.319 346.153 80.6817 345.764 81.151 345.486C81.631 345.209 82.2123 345.07 82.895 345.07V346.574H82.511C80.879 346.574 80.063 347.46 80.063 349.23V353.998H78.607V345.23H80.063V346.654ZM85.3278 343.806C85.0504 343.806 84.8158 343.71 84.6238 343.518C84.4318 343.326 84.3358 343.092 84.3358 342.814C84.3358 342.537 84.4318 342.302 84.6238 342.11C84.8158 341.918 85.0504 341.822 85.3278 341.822C85.5944 341.822 85.8184 341.918 85.9998 342.11C86.1918 342.302 86.2878 342.537 86.2878 342.814C86.2878 343.092 86.1918 343.326 85.9998 343.518C85.8184 343.71 85.5944 343.806 85.3278 343.806ZM86.0318 345.23V353.998H84.5758V345.23H86.0318ZM87.9693 349.598C87.9693 348.692 88.1506 347.902 88.5133 347.23C88.8759 346.548 89.3773 346.02 90.0173 345.646C90.6679 345.273 91.4093 345.086 92.2413 345.086C93.3186 345.086 94.2039 345.348 94.8973 345.87C95.6013 346.393 96.0653 347.118 96.2893 348.046H94.7213C94.5719 347.513 94.2786 347.092 93.8413 346.782C93.4146 346.473 92.8813 346.318 92.2413 346.318C91.4093 346.318 90.7373 346.606 90.2253 347.182C89.7133 347.748 89.4573 348.553 89.4573 349.598C89.4573 350.654 89.7133 351.47 90.2253 352.046C90.7373 352.622 91.4093 352.91 92.2413 352.91C92.8813 352.91 93.4146 352.761 93.8413 352.462C94.2679 352.164 94.5613 351.737 94.7213 351.182H96.2893C96.0546 352.078 95.5853 352.798 94.8813 353.342C94.1773 353.876 93.2973 354.142 92.2413 354.142C91.4093 354.142 90.6679 353.956 90.0173 353.582C89.3773 353.209 88.8759 352.681 88.5133 351.998C88.1506 351.316 87.9693 350.516 87.9693 349.598Z" fill="#333333"/>
<defs>
<clipPath id="clip0_21779_892">
<rect width="398" height="397" fill="white" transform="translate(117 -0.00170898)"/>
</clipPath>
</defs>
</svg>
