<svg width="714" height="132" viewBox="0 0 714 132" fill="none" xmlns="http://www.w3.org/2000/svg">
<path d="M42.6887 110.002H41.4147L36.2907 102.232V110.002H35.0167V100.23H36.2907L41.4147 107.986V100.23H42.6887V110.002ZM49.9844 110.1C49.0791 110.1 48.2531 109.89 47.5064 109.47C46.7598 109.04 46.1671 108.448 45.7284 107.692C45.2991 106.926 45.0844 106.068 45.0844 105.116C45.0844 104.164 45.2991 103.31 45.7284 102.554C46.1671 101.788 46.7598 101.196 47.5064 100.776C48.2531 100.346 49.0791 100.132 49.9844 100.132C50.8991 100.132 51.7298 100.346 52.4764 100.776C53.2231 101.196 53.8111 101.784 54.2404 102.54C54.6698 103.296 54.8844 104.154 54.8844 105.116C54.8844 106.077 54.6698 106.936 54.2404 107.692C53.8111 108.448 53.2231 109.04 52.4764 109.47C51.7298 109.89 50.8991 110.1 49.9844 110.1ZM49.9844 108.994C50.6658 108.994 51.2771 108.835 51.8184 108.518C52.3691 108.2 52.7984 107.748 53.1064 107.16C53.4238 106.572 53.5824 105.89 53.5824 105.116C53.5824 104.332 53.4238 103.65 53.1064 103.072C52.7984 102.484 52.3738 102.031 51.8324 101.714C51.2911 101.396 50.6751 101.238 49.9844 101.238C49.2938 101.238 48.6778 101.396 48.1364 101.714C47.5951 102.031 47.1658 102.484 46.8484 103.072C46.5404 103.65 46.3864 104.332 46.3864 105.116C46.3864 105.89 46.5404 106.572 46.8484 107.16C47.1658 107.748 47.5951 108.2 48.1364 108.518C48.6871 108.835 49.3031 108.994 49.9844 108.994ZM64.7927 110.1C64.1487 110.1 63.57 109.988 63.0567 109.764C62.5527 109.53 62.156 109.213 61.8667 108.812C61.5774 108.401 61.428 107.93 61.4187 107.398H62.7767C62.8234 107.855 63.01 108.242 63.3367 108.56C63.6727 108.868 64.158 109.022 64.7927 109.022C65.3994 109.022 65.8754 108.872 66.2207 108.574C66.5754 108.266 66.7527 107.874 66.7527 107.398C66.7527 107.024 66.65 106.721 66.4447 106.488C66.2394 106.254 65.9827 106.077 65.6747 105.956C65.3667 105.834 64.9514 105.704 64.4287 105.564C63.7847 105.396 63.2667 105.228 62.8747 105.06C62.492 104.892 62.1607 104.63 61.8807 104.276C61.61 103.912 61.4747 103.426 61.4747 102.82C61.4747 102.288 61.61 101.816 61.8807 101.406C62.1514 100.995 62.5294 100.678 63.0147 100.454C63.5094 100.23 64.074 100.118 64.7087 100.118C65.6234 100.118 66.37 100.346 66.9487 100.804C67.5367 101.261 67.868 101.868 67.9427 102.624H66.5427C66.496 102.25 66.3 101.924 65.9547 101.644C65.6094 101.354 65.152 101.21 64.5827 101.21C64.0507 101.21 63.6167 101.35 63.2807 101.63C62.9447 101.9 62.7767 102.283 62.7767 102.778C62.7767 103.132 62.8747 103.422 63.0707 103.646C63.276 103.87 63.5234 104.042 63.8127 104.164C64.1114 104.276 64.5267 104.406 65.0587 104.556C65.7027 104.733 66.2207 104.91 66.6127 105.088C67.0047 105.256 67.3407 105.522 67.6207 105.886C67.9007 106.24 68.0407 106.726 68.0407 107.342C68.0407 107.818 67.9147 108.266 67.6627 108.686C67.4107 109.106 67.0374 109.446 66.5427 109.708C66.048 109.969 65.4647 110.1 64.7927 110.1ZM77.4475 100.244L74.2695 106.32V110.002H72.9955V106.32L69.8035 100.244H71.2175L73.6255 105.186L76.0335 100.244H77.4475ZM87.1633 110.002H85.8893L80.7653 102.232V110.002H79.4913V100.23H80.7653L85.8893 107.986V100.23H87.1633V110.002ZM96.041 100.244V101.28H93.381V110.002H92.107V101.28H89.433V100.244H96.041ZM105.827 100.244V110.002H104.553V105.578H99.5833V110.002H98.3093V100.244H99.5833V104.528H104.553V100.244H105.827ZM109.977 101.28V104.542H113.533V105.592H109.977V108.952H113.953V110.002H108.703V100.23H113.953V101.28H109.977ZM122.586 100.244V101.28H119.926V110.002H118.652V101.28H115.978V100.244H122.586ZM126.129 100.244V110.002H124.855V100.244H126.129ZM128.524 105.116C128.524 104.164 128.739 103.31 129.168 102.554C129.597 101.788 130.181 101.191 130.918 100.762C131.665 100.332 132.491 100.118 133.396 100.118C134.46 100.118 135.389 100.374 136.182 100.888C136.975 101.401 137.554 102.129 137.918 103.072H136.392C136.121 102.484 135.729 102.031 135.216 101.714C134.712 101.396 134.105 101.238 133.396 101.238C132.715 101.238 132.103 101.396 131.562 101.714C131.021 102.031 130.596 102.484 130.288 103.072C129.98 103.65 129.826 104.332 129.826 105.116C129.826 105.89 129.98 106.572 130.288 107.16C130.596 107.738 131.021 108.186 131.562 108.504C132.103 108.821 132.715 108.98 133.396 108.98C134.105 108.98 134.712 108.826 135.216 108.518C135.729 108.2 136.121 107.748 136.392 107.16H137.918C137.554 108.093 136.975 108.816 136.182 109.33C135.389 109.834 134.46 110.086 133.396 110.086C132.491 110.086 131.665 109.876 130.918 109.456C130.181 109.026 129.597 108.434 129.168 107.678C128.739 106.922 128.524 106.068 128.524 105.116ZM143.608 110.1C142.964 110.1 142.386 109.988 141.872 109.764C141.368 109.53 140.972 109.213 140.682 108.812C140.393 108.401 140.244 107.93 140.234 107.398H141.592C141.639 107.855 141.826 108.242 142.152 108.56C142.488 108.868 142.974 109.022 143.608 109.022C144.215 109.022 144.691 108.872 145.036 108.574C145.391 108.266 145.568 107.874 145.568 107.398C145.568 107.024 145.466 106.721 145.26 106.488C145.055 106.254 144.798 106.077 144.49 105.956C144.182 105.834 143.767 105.704 143.244 105.564C142.6 105.396 142.082 105.228 141.69 105.06C141.308 104.892 140.976 104.63 140.696 104.276C140.426 103.912 140.29 103.426 140.29 102.82C140.29 102.288 140.426 101.816 140.696 101.406C140.967 100.995 141.345 100.678 141.83 100.454C142.325 100.23 142.89 100.118 143.524 100.118C144.439 100.118 145.186 100.346 145.764 100.804C146.352 101.261 146.684 101.868 146.758 102.624H145.358C145.312 102.25 145.116 101.924 144.77 101.644C144.425 101.354 143.968 101.21 143.398 101.21C142.866 101.21 142.432 101.35 142.096 101.63C141.76 101.9 141.592 102.283 141.592 102.778C141.592 103.132 141.69 103.422 141.886 103.646C142.092 103.87 142.339 104.042 142.628 104.164C142.927 104.276 143.342 104.406 143.874 104.556C144.518 104.733 145.036 104.91 145.428 105.088C145.82 105.256 146.156 105.522 146.436 105.886C146.716 106.24 146.856 106.726 146.856 107.342C146.856 107.818 146.73 108.266 146.478 108.686C146.226 109.106 145.853 109.446 145.358 109.708C144.864 109.969 144.28 110.1 143.608 110.1ZM159.632 107.832H155.376L154.592 110.002H153.248L156.776 100.3H158.246L161.76 110.002H160.416L159.632 107.832ZM159.268 106.796L157.504 101.868L155.74 106.796H159.268ZM171.669 110.002H170.395L165.271 102.232V110.002H163.997V100.23H165.271L170.395 107.986V100.23H171.669V110.002ZM177.579 100.244C178.643 100.244 179.562 100.444 180.337 100.846C181.121 101.238 181.718 101.802 182.129 102.54C182.549 103.277 182.759 104.145 182.759 105.144C182.759 106.142 182.549 107.01 182.129 107.748C181.718 108.476 181.121 109.036 180.337 109.428C179.562 109.81 178.643 110.002 177.579 110.002H174.541V100.244H177.579ZM177.579 108.952C178.839 108.952 179.8 108.62 180.463 107.958C181.126 107.286 181.457 106.348 181.457 105.144C181.457 103.93 181.121 102.983 180.449 102.302C179.786 101.62 178.83 101.28 177.579 101.28H175.815V108.952H177.579ZM61.9293 118.314V128.002H60.6553V120.778L57.4353 128.002H56.5393L53.3053 120.764V128.002H52.0313V118.314H53.4033L56.9873 126.322L60.5713 118.314H61.9293ZM66.0639 118.244V128.002H64.7899V118.244H66.0639ZM68.4592 123.116C68.4592 122.164 68.6739 121.31 69.1032 120.554C69.5326 119.788 70.1159 119.191 70.8532 118.762C71.5999 118.332 72.4259 118.118 73.3312 118.118C74.3952 118.118 75.3239 118.374 76.1172 118.888C76.9106 119.401 77.4892 120.129 77.8532 121.072H76.3272C76.0566 120.484 75.6646 120.031 75.1512 119.714C74.6472 119.396 74.0406 119.238 73.3312 119.238C72.6499 119.238 72.0386 119.396 71.4972 119.714C70.9559 120.031 70.5312 120.484 70.2232 121.072C69.9152 121.65 69.7612 122.332 69.7612 123.116C69.7612 123.89 69.9152 124.572 70.2232 125.16C70.5312 125.738 70.9559 126.186 71.4972 126.504C72.0386 126.821 72.6499 126.98 73.3312 126.98C74.0406 126.98 74.6472 126.826 75.1512 126.518C75.6646 126.2 76.0566 125.748 76.3272 125.16H77.8532C77.4892 126.093 76.9106 126.816 76.1172 127.33C75.3239 127.834 74.3952 128.086 73.3312 128.086C72.4259 128.086 71.5999 127.876 70.8532 127.456C70.1159 127.026 69.5326 126.434 69.1032 125.678C68.6739 124.922 68.4592 124.068 68.4592 123.116ZM85.5877 128.002L83.2637 124.012H81.7237V128.002H80.4497V118.244H83.5997C84.337 118.244 84.9577 118.37 85.4617 118.622C85.975 118.874 86.3577 119.214 86.6097 119.644C86.8617 120.073 86.9877 120.563 86.9877 121.114C86.9877 121.786 86.7917 122.378 86.3997 122.892C86.017 123.405 85.4383 123.746 84.6637 123.914L87.1137 128.002H85.5877ZM81.7237 122.99H83.5997C84.2903 122.99 84.8083 122.822 85.1537 122.486C85.499 122.14 85.6717 121.683 85.6717 121.114C85.6717 120.535 85.499 120.087 85.1537 119.77C84.8177 119.452 84.2997 119.294 83.5997 119.294H81.7237V122.99ZM94.0913 128.1C93.1859 128.1 92.3599 127.89 91.6133 127.47C90.8666 127.04 90.2739 126.448 89.8353 125.692C89.4059 124.926 89.1913 124.068 89.1913 123.116C89.1913 122.164 89.4059 121.31 89.8353 120.554C90.2739 119.788 90.8666 119.196 91.6133 118.776C92.3599 118.346 93.1859 118.132 94.0913 118.132C95.0059 118.132 95.8366 118.346 96.5833 118.776C97.3299 119.196 97.9179 119.784 98.3473 120.54C98.7766 121.296 98.9913 122.154 98.9913 123.116C98.9913 124.077 98.7766 124.936 98.3473 125.692C97.9179 126.448 97.3299 127.04 96.5833 127.47C95.8366 127.89 95.0059 128.1 94.0913 128.1ZM94.0913 126.994C94.7726 126.994 95.3839 126.835 95.9253 126.518C96.4759 126.2 96.9053 125.748 97.2133 125.16C97.5306 124.572 97.6893 123.89 97.6893 123.116C97.6893 122.332 97.5306 121.65 97.2133 121.072C96.9053 120.484 96.4806 120.031 95.9393 119.714C95.3979 119.396 94.7819 119.238 94.0913 119.238C93.4006 119.238 92.7846 119.396 92.2433 119.714C91.7019 120.031 91.2726 120.484 90.9553 121.072C90.6473 121.65 90.4933 122.332 90.4933 123.116C90.4933 123.89 90.6473 124.572 90.9553 125.16C91.2726 125.748 91.7019 126.2 92.2433 126.518C92.7939 126.835 93.4099 126.994 94.0913 126.994ZM107.897 121.1C107.897 121.912 107.617 122.588 107.057 123.13C106.506 123.662 105.662 123.928 104.523 123.928H102.647V128.002H101.373V118.244H104.523C105.624 118.244 106.46 118.51 107.029 119.042C107.608 119.574 107.897 120.26 107.897 121.1ZM104.523 122.878C105.232 122.878 105.755 122.724 106.091 122.416C106.427 122.108 106.595 121.669 106.595 121.1C106.595 119.896 105.904 119.294 104.523 119.294H102.647V122.878H104.523ZM111.455 126.966H114.871V128.002H110.181V118.244H111.455V126.966ZM122.692 125.832H118.436L117.652 128.002H116.308L119.836 118.3H121.306L124.82 128.002H123.476L122.692 125.832ZM122.328 124.796L120.564 119.868L118.8 124.796H122.328ZM130.151 128.1C129.507 128.1 128.928 127.988 128.415 127.764C127.911 127.53 127.514 127.213 127.225 126.812C126.936 126.401 126.786 125.93 126.777 125.398H128.135C128.182 125.855 128.368 126.242 128.695 126.56C129.031 126.868 129.516 127.022 130.151 127.022C130.758 127.022 131.234 126.872 131.579 126.574C131.934 126.266 132.111 125.874 132.111 125.398C132.111 125.024 132.008 124.721 131.803 124.488C131.598 124.254 131.341 124.077 131.033 123.956C130.725 123.834 130.31 123.704 129.787 123.564C129.143 123.396 128.625 123.228 128.233 123.06C127.85 122.892 127.519 122.63 127.239 122.276C126.968 121.912 126.833 121.426 126.833 120.82C126.833 120.288 126.968 119.816 127.239 119.406C127.51 118.995 127.888 118.678 128.373 118.454C128.868 118.23 129.432 118.118 130.067 118.118C130.982 118.118 131.728 118.346 132.307 118.804C132.895 119.261 133.226 119.868 133.301 120.624H131.901C131.854 120.25 131.658 119.924 131.313 119.644C130.968 119.354 130.51 119.21 129.941 119.21C129.409 119.21 128.975 119.35 128.639 119.63C128.303 119.9 128.135 120.283 128.135 120.778C128.135 121.132 128.233 121.422 128.429 121.646C128.634 121.87 128.882 122.042 129.171 122.164C129.47 122.276 129.885 122.406 130.417 122.556C131.061 122.733 131.579 122.91 131.971 123.088C132.363 123.256 132.699 123.522 132.979 123.886C133.259 124.24 133.399 124.726 133.399 125.342C133.399 125.818 133.273 126.266 133.021 126.686C132.769 127.106 132.396 127.446 131.901 127.708C131.406 127.969 130.823 128.1 130.151 128.1ZM141.98 118.244V119.28H139.32V128.002H138.046V119.28H135.372V118.244H141.98ZM145.522 118.244V128.002H144.248V118.244H145.522ZM147.917 123.116C147.917 122.164 148.132 121.31 148.561 120.554C148.991 119.788 149.574 119.191 150.311 118.762C151.058 118.332 151.884 118.118 152.789 118.118C153.853 118.118 154.782 118.374 155.575 118.888C156.369 119.401 156.947 120.129 157.311 121.072H155.785C155.515 120.484 155.123 120.031 154.609 119.714C154.105 119.396 153.499 119.238 152.789 119.238C152.108 119.238 151.497 119.396 150.955 119.714C150.414 120.031 149.989 120.484 149.681 121.072C149.373 121.65 149.219 122.332 149.219 123.116C149.219 123.89 149.373 124.572 149.681 125.16C149.989 125.738 150.414 126.186 150.955 126.504C151.497 126.821 152.108 126.98 152.789 126.98C153.499 126.98 154.105 126.826 154.609 126.518C155.123 126.2 155.515 125.748 155.785 125.16H157.311C156.947 126.093 156.369 126.816 155.575 127.33C154.782 127.834 153.853 128.086 152.789 128.086C151.884 128.086 151.058 127.876 150.311 127.456C149.574 127.026 148.991 126.434 148.561 125.678C148.132 124.922 147.917 124.068 147.917 123.116ZM163.002 128.1C162.358 128.1 161.779 127.988 161.266 127.764C160.762 127.53 160.365 127.213 160.076 126.812C159.787 126.401 159.637 125.93 159.628 125.398H160.986C161.033 125.855 161.219 126.242 161.546 126.56C161.882 126.868 162.367 127.022 163.002 127.022C163.609 127.022 164.085 126.872 164.43 126.574C164.785 126.266 164.962 125.874 164.962 125.398C164.962 125.024 164.859 124.721 164.654 124.488C164.449 124.254 164.192 124.077 163.884 123.956C163.576 123.834 163.161 123.704 162.638 123.564C161.994 123.396 161.476 123.228 161.084 123.06C160.701 122.892 160.37 122.63 160.09 122.276C159.819 121.912 159.684 121.426 159.684 120.82C159.684 120.288 159.819 119.816 160.09 119.406C160.361 118.995 160.739 118.678 161.224 118.454C161.719 118.23 162.283 118.118 162.918 118.118C163.833 118.118 164.579 118.346 165.158 118.804C165.746 119.261 166.077 119.868 166.152 120.624H164.752C164.705 120.25 164.509 119.924 164.164 119.644C163.819 119.354 163.361 119.21 162.792 119.21C162.26 119.21 161.826 119.35 161.49 119.63C161.154 119.9 160.986 120.283 160.986 120.778C160.986 121.132 161.084 121.422 161.28 121.646C161.485 121.87 161.733 122.042 162.022 122.164C162.321 122.276 162.736 122.406 163.268 122.556C163.912 122.733 164.43 122.91 164.822 123.088C165.214 123.256 165.55 123.522 165.83 123.886C166.11 124.24 166.25 124.726 166.25 125.342C166.25 125.818 166.124 126.266 165.872 126.686C165.62 127.106 165.247 127.446 164.752 127.708C164.257 127.969 163.674 128.1 163.002 128.1Z" fill="black"/>
<path d="M265.165 103.1C265.165 103.912 264.885 104.588 264.325 105.13C263.774 105.662 262.93 105.928 261.791 105.928H259.915V110.002H258.641V100.244H261.791C262.892 100.244 263.728 100.51 264.297 101.042C264.876 101.574 265.165 102.26 265.165 103.1ZM261.791 104.878C262.5 104.878 263.023 104.724 263.359 104.416C263.695 104.108 263.863 103.669 263.863 103.1C263.863 101.896 263.172 101.294 261.791 101.294H259.915V104.878H261.791ZM272.587 110.002L270.263 106.012H268.723V110.002H267.449V100.244H270.599C271.336 100.244 271.957 100.37 272.461 100.622C272.974 100.874 273.357 101.214 273.609 101.644C273.861 102.073 273.987 102.563 273.987 103.114C273.987 103.786 273.791 104.378 273.399 104.892C273.016 105.405 272.437 105.746 271.663 105.914L274.113 110.002H272.587ZM268.723 104.99H270.599C271.289 104.99 271.807 104.822 272.153 104.486C272.498 104.14 272.671 103.683 272.671 103.114C272.671 102.535 272.498 102.087 272.153 101.77C271.817 101.452 271.299 101.294 270.599 101.294H268.723V104.99ZM281.09 110.1C280.185 110.1 279.359 109.89 278.612 109.47C277.865 109.04 277.273 108.448 276.834 107.692C276.405 106.926 276.19 106.068 276.19 105.116C276.19 104.164 276.405 103.31 276.834 102.554C277.273 101.788 277.865 101.196 278.612 100.776C279.359 100.346 280.185 100.132 281.09 100.132C282.005 100.132 282.835 100.346 283.582 100.776C284.329 101.196 284.917 101.784 285.346 102.54C285.775 103.296 285.99 104.154 285.99 105.116C285.99 106.077 285.775 106.936 285.346 107.692C284.917 108.448 284.329 109.04 283.582 109.47C282.835 109.89 282.005 110.1 281.09 110.1ZM281.09 108.994C281.771 108.994 282.383 108.835 282.924 108.518C283.475 108.2 283.904 107.748 284.212 107.16C284.529 106.572 284.688 105.89 284.688 105.116C284.688 104.332 284.529 103.65 284.212 103.072C283.904 102.484 283.479 102.031 282.938 101.714C282.397 101.396 281.781 101.238 281.09 101.238C280.399 101.238 279.783 101.396 279.242 101.714C278.701 102.031 278.271 102.484 277.954 103.072C277.646 103.65 277.492 104.332 277.492 105.116C277.492 105.89 277.646 106.572 277.954 107.16C278.271 107.748 278.701 108.2 279.242 108.518C279.793 108.835 280.409 108.994 281.09 108.994ZM291.41 100.244C292.474 100.244 293.393 100.444 294.168 100.846C294.952 101.238 295.549 101.802 295.96 102.54C296.38 103.277 296.59 104.145 296.59 105.144C296.59 106.142 296.38 107.01 295.96 107.748C295.549 108.476 294.952 109.036 294.168 109.428C293.393 109.81 292.474 110.002 291.41 110.002H288.372V100.244H291.41ZM291.41 108.952C292.67 108.952 293.631 108.62 294.294 107.958C294.957 107.286 295.288 106.348 295.288 105.144C295.288 103.93 294.952 102.983 294.28 102.302C293.617 101.62 292.661 101.28 291.41 101.28H289.646V108.952H291.41ZM300.216 100.244V106.418C300.216 107.286 300.426 107.93 300.846 108.35C301.276 108.77 301.868 108.98 302.624 108.98C303.371 108.98 303.954 108.77 304.374 108.35C304.804 107.93 305.018 107.286 305.018 106.418V100.244H306.292V106.404C306.292 107.216 306.129 107.902 305.802 108.462C305.476 109.012 305.032 109.423 304.472 109.694C303.922 109.964 303.301 110.1 302.61 110.1C301.92 110.1 301.294 109.964 300.734 109.694C300.184 109.423 299.745 109.012 299.418 108.462C299.101 107.902 298.942 107.216 298.942 106.404V100.244H300.216ZM308.642 105.116C308.642 104.164 308.856 103.31 309.286 102.554C309.715 101.788 310.298 101.191 311.036 100.762C311.782 100.332 312.608 100.118 313.514 100.118C314.578 100.118 315.506 100.374 316.3 100.888C317.093 101.401 317.672 102.129 318.036 103.072H316.51C316.239 102.484 315.847 102.031 315.334 101.714C314.83 101.396 314.223 101.238 313.514 101.238C312.832 101.238 312.221 101.396 311.68 101.714C311.138 102.031 310.714 102.484 310.406 103.072C310.098 103.65 309.944 104.332 309.944 105.116C309.944 105.89 310.098 106.572 310.406 107.16C310.714 107.738 311.138 108.186 311.68 108.504C312.221 108.821 312.832 108.98 313.514 108.98C314.223 108.98 314.83 108.826 315.334 108.518C315.847 108.2 316.239 107.748 316.51 107.16H318.036C317.672 108.093 317.093 108.816 316.3 109.33C315.506 109.834 314.578 110.086 313.514 110.086C312.608 110.086 311.782 109.876 311.036 109.456C310.298 109.026 309.715 108.434 309.286 107.678C308.856 106.922 308.642 106.068 308.642 105.116ZM326.638 100.244V101.28H323.978V110.002H322.704V101.28H320.03V100.244H326.638ZM339.863 103.1C339.863 103.912 339.583 104.588 339.023 105.13C338.472 105.662 337.627 105.928 336.489 105.928H334.613V110.002H333.339V100.244H336.489C337.59 100.244 338.425 100.51 338.995 101.042C339.573 101.574 339.863 102.26 339.863 103.1ZM336.489 104.878C337.198 104.878 337.721 104.724 338.057 104.416C338.393 104.108 338.561 103.669 338.561 103.1C338.561 101.896 337.87 101.294 336.489 101.294H334.613V104.878H336.489ZM347.914 107.832H343.658L342.874 110.002H341.53L345.058 100.3H346.528L350.042 110.002H348.698L347.914 107.832ZM347.55 106.796L345.786 101.868L344.022 106.796H347.55ZM351.804 105.116C351.804 104.164 352.018 103.31 352.448 102.554C352.877 101.788 353.46 101.191 354.198 100.762C354.944 100.332 355.77 100.118 356.676 100.118C357.74 100.118 358.668 100.374 359.462 100.888C360.255 101.401 360.834 102.129 361.198 103.072H359.672C359.401 102.484 359.009 102.031 358.496 101.714C357.992 101.396 357.385 101.238 356.676 101.238C355.994 101.238 355.383 101.396 354.842 101.714C354.3 102.031 353.876 102.484 353.568 103.072C353.26 103.65 353.106 104.332 353.106 105.116C353.106 105.89 353.26 106.572 353.568 107.16C353.876 107.738 354.3 108.186 354.842 108.504C355.383 108.821 355.994 108.98 356.676 108.98C357.385 108.98 357.992 108.826 358.496 108.518C359.009 108.2 359.401 107.748 359.672 107.16H361.198C360.834 108.093 360.255 108.816 359.462 109.33C358.668 109.834 357.74 110.086 356.676 110.086C355.77 110.086 354.944 109.876 354.198 109.456C353.46 109.026 352.877 108.434 352.448 107.678C352.018 106.922 351.804 106.068 351.804 105.116ZM369.086 110.002L365.068 105.55V110.002H363.794V100.244H365.068V104.766L369.1 100.244H370.71L366.286 105.13L370.752 110.002H369.086ZM378.643 107.832H374.387L373.603 110.002H372.259L375.787 100.3H377.257L380.771 110.002H379.427L378.643 107.832ZM378.279 106.796L376.515 101.868L374.751 106.796H378.279ZM390.401 103.072C390.13 102.502 389.738 102.064 389.225 101.756C388.711 101.438 388.114 101.28 387.433 101.28C386.751 101.28 386.135 101.438 385.585 101.756C385.043 102.064 384.614 102.512 384.297 103.1C383.989 103.678 383.835 104.35 383.835 105.116C383.835 105.881 383.989 106.553 384.297 107.132C384.614 107.71 385.043 108.158 385.585 108.476C386.135 108.784 386.751 108.938 387.433 108.938C388.385 108.938 389.169 108.653 389.785 108.084C390.401 107.514 390.76 106.744 390.863 105.774H386.971V104.738H392.221V105.718C392.146 106.52 391.894 107.258 391.465 107.93C391.035 108.592 390.471 109.12 389.771 109.512C389.071 109.894 388.291 110.086 387.433 110.086C386.527 110.086 385.701 109.876 384.955 109.456C384.208 109.026 383.615 108.434 383.177 107.678C382.747 106.922 382.533 106.068 382.533 105.116C382.533 104.164 382.747 103.31 383.177 102.554C383.615 101.788 384.208 101.196 384.955 100.776C385.701 100.346 386.527 100.132 387.433 100.132C388.469 100.132 389.383 100.388 390.177 100.902C390.979 101.415 391.563 102.138 391.927 103.072H390.401ZM395.879 100.244V110.002H394.605V100.244H395.879ZM406.422 110.002H405.148L400.024 102.232V110.002H398.75V100.23H400.024L405.148 107.986V100.23H406.422V110.002ZM416.686 103.072C416.416 102.502 416.024 102.064 415.51 101.756C414.997 101.438 414.4 101.28 413.718 101.28C413.037 101.28 412.421 101.438 411.87 101.756C411.329 102.064 410.9 102.512 410.582 103.1C410.274 103.678 410.12 104.35 410.12 105.116C410.12 105.881 410.274 106.553 410.582 107.132C410.9 107.71 411.329 108.158 411.87 108.476C412.421 108.784 413.037 108.938 413.718 108.938C414.67 108.938 415.454 108.653 416.07 108.084C416.686 107.514 417.046 106.744 417.148 105.774H413.256V104.738H418.506V105.718C418.432 106.52 418.18 107.258 417.75 107.93C417.321 108.592 416.756 109.12 416.056 109.512C415.356 109.894 414.577 110.086 413.718 110.086C412.813 110.086 411.987 109.876 411.24 109.456C410.494 109.026 409.901 108.434 409.462 107.678C409.033 106.922 408.818 106.068 408.818 105.116C408.818 104.164 409.033 103.31 409.462 102.554C409.901 101.788 410.494 101.196 411.24 100.776C411.987 100.346 412.813 100.132 413.718 100.132C414.754 100.132 415.669 100.388 416.462 100.902C417.265 101.415 417.848 102.138 418.212 103.072H416.686ZM424.847 105.116C424.847 104.164 425.062 103.31 425.491 102.554C425.92 101.788 426.504 101.191 427.241 100.762C427.988 100.332 428.814 100.118 429.719 100.118C430.783 100.118 431.712 100.374 432.505 100.888C433.298 101.401 433.877 102.129 434.241 103.072H432.715C432.444 102.484 432.052 102.031 431.539 101.714C431.035 101.396 430.428 101.238 429.719 101.238C429.038 101.238 428.426 101.396 427.885 101.714C427.344 102.031 426.919 102.484 426.611 103.072C426.303 103.65 426.149 104.332 426.149 105.116C426.149 105.89 426.303 106.572 426.611 107.16C426.919 107.738 427.344 108.186 427.885 108.504C428.426 108.821 429.038 108.98 429.719 108.98C430.428 108.98 431.035 108.826 431.539 108.518C432.052 108.2 432.444 107.748 432.715 107.16H434.241C433.877 108.093 433.298 108.816 432.505 109.33C431.712 109.834 430.783 110.086 429.719 110.086C428.814 110.086 427.988 109.876 427.241 109.456C426.504 109.026 425.92 108.434 425.491 107.678C425.062 106.922 424.847 106.068 424.847 105.116ZM442.606 107.832H438.35L437.566 110.002H436.222L439.75 100.3H441.22L444.734 110.002H443.39L442.606 107.832ZM442.242 106.796L440.478 101.868L438.714 106.796H442.242ZM454.643 110.002H453.369L448.245 102.232V110.002H446.971V100.23H448.245L453.369 107.986V100.23H454.643V110.002ZM273.194 122.976C273.549 123.032 273.871 123.176 274.16 123.41C274.459 123.643 274.692 123.932 274.86 124.278C275.038 124.623 275.126 124.992 275.126 125.384C275.126 125.878 275 126.326 274.748 126.728C274.496 127.12 274.128 127.432 273.642 127.666C273.166 127.89 272.602 128.002 271.948 128.002H268.308V118.244H271.808C272.471 118.244 273.036 118.356 273.502 118.58C273.969 118.794 274.319 119.088 274.552 119.462C274.786 119.835 274.902 120.255 274.902 120.722C274.902 121.3 274.744 121.781 274.426 122.164C274.118 122.537 273.708 122.808 273.194 122.976ZM269.582 122.458H271.724C272.322 122.458 272.784 122.318 273.11 122.038C273.437 121.758 273.6 121.37 273.6 120.876C273.6 120.381 273.437 119.994 273.11 119.714C272.784 119.434 272.312 119.294 271.696 119.294H269.582V122.458ZM271.836 126.952C272.471 126.952 272.966 126.802 273.32 126.504C273.675 126.205 273.852 125.79 273.852 125.258C273.852 124.716 273.666 124.292 273.292 123.984C272.919 123.666 272.42 123.508 271.794 123.508H269.582V126.952H271.836ZM278.868 119.28V122.542H282.424V123.592H278.868V126.952H282.844V128.002H277.594V118.23H282.844V119.28H278.868ZM295.043 128.002L292.719 124.012H291.179V128.002H289.905V118.244H293.055C293.792 118.244 294.413 118.37 294.917 118.622C295.43 118.874 295.813 119.214 296.065 119.644C296.317 120.073 296.443 120.563 296.443 121.114C296.443 121.786 296.247 122.378 295.855 122.892C295.472 123.405 294.893 123.746 294.119 123.914L296.569 128.002H295.043ZM291.179 122.99H293.055C293.745 122.99 294.263 122.822 294.609 122.486C294.954 122.14 295.127 121.683 295.127 121.114C295.127 120.535 294.954 120.087 294.609 119.77C294.273 119.452 293.755 119.294 293.055 119.294H291.179V122.99ZM300.396 119.28V122.542H303.952V123.592H300.396V126.952H304.372V128.002H299.122V118.23H304.372V119.28H300.396ZM306.524 123.116C306.524 122.164 306.739 121.31 307.168 120.554C307.597 119.788 308.181 119.191 308.918 118.762C309.665 118.332 310.491 118.118 311.396 118.118C312.46 118.118 313.389 118.374 314.182 118.888C314.975 119.401 315.554 120.129 315.918 121.072H314.392C314.121 120.484 313.729 120.031 313.216 119.714C312.712 119.396 312.105 119.238 311.396 119.238C310.715 119.238 310.103 119.396 309.562 119.714C309.021 120.031 308.596 120.484 308.288 121.072C307.98 121.65 307.826 122.332 307.826 123.116C307.826 123.89 307.98 124.572 308.288 125.16C308.596 125.738 309.021 126.186 309.562 126.504C310.103 126.821 310.715 126.98 311.396 126.98C312.105 126.98 312.712 126.826 313.216 126.518C313.729 126.2 314.121 125.748 314.392 125.16H315.918C315.554 126.093 314.975 126.816 314.182 127.33C313.389 127.834 312.46 128.086 311.396 128.086C310.491 128.086 309.665 127.876 308.918 127.456C308.181 127.026 307.597 126.434 307.168 125.678C306.739 124.922 306.524 124.068 306.524 123.116ZM325.346 118.244L322.168 124.32V128.002H320.894V124.32L317.702 118.244H319.116L321.524 123.186L323.932 118.244H325.346ZM326.914 123.116C326.914 122.164 327.129 121.31 327.558 120.554C327.987 119.788 328.571 119.191 329.308 118.762C330.055 118.332 330.881 118.118 331.786 118.118C332.85 118.118 333.779 118.374 334.572 118.888C335.365 119.401 335.944 120.129 336.308 121.072H334.782C334.511 120.484 334.119 120.031 333.606 119.714C333.102 119.396 332.495 119.238 331.786 119.238C331.105 119.238 330.493 119.396 329.952 119.714C329.411 120.031 328.986 120.484 328.678 121.072C328.37 121.65 328.216 122.332 328.216 123.116C328.216 123.89 328.37 124.572 328.678 125.16C328.986 125.738 329.411 126.186 329.952 126.504C330.493 126.821 331.105 126.98 331.786 126.98C332.495 126.98 333.102 126.826 333.606 126.518C334.119 126.2 334.511 125.748 334.782 125.16H336.308C335.944 126.093 335.365 126.816 334.572 127.33C333.779 127.834 332.85 128.086 331.786 128.086C330.881 128.086 330.055 127.876 329.308 127.456C328.571 127.026 327.987 126.434 327.558 125.678C327.129 124.922 326.914 124.068 326.914 123.116ZM340.179 126.966H343.595V128.002H338.905V118.244H340.179V126.966ZM346.922 119.28V122.542H350.478V123.592H346.922V126.952H350.898V128.002H345.648V118.23H350.898V119.28H346.922ZM356.563 118.244C357.627 118.244 358.547 118.444 359.321 118.846C360.105 119.238 360.703 119.802 361.113 120.54C361.533 121.277 361.743 122.145 361.743 123.144C361.743 124.142 361.533 125.01 361.113 125.748C360.703 126.476 360.105 127.036 359.321 127.428C358.547 127.81 357.627 128.002 356.563 128.002H353.525V118.244H356.563ZM356.563 126.952C357.823 126.952 358.785 126.62 359.447 125.958C360.11 125.286 360.441 124.348 360.441 123.144C360.441 121.93 360.105 120.983 359.433 120.302C358.771 119.62 357.814 119.28 356.563 119.28H354.799V126.952H356.563ZM372.98 128.1C372.075 128.1 371.249 127.89 370.502 127.47C369.755 127.04 369.163 126.448 368.724 125.692C368.295 124.926 368.08 124.068 368.08 123.116C368.08 122.164 368.295 121.31 368.724 120.554C369.163 119.788 369.755 119.196 370.502 118.776C371.249 118.346 372.075 118.132 372.98 118.132C373.895 118.132 374.725 118.346 375.472 118.776C376.219 119.196 376.807 119.784 377.236 120.54C377.665 121.296 377.88 122.154 377.88 123.116C377.88 124.077 377.665 124.936 377.236 125.692C376.807 126.448 376.219 127.04 375.472 127.47C374.725 127.89 373.895 128.1 372.98 128.1ZM372.98 126.994C373.661 126.994 374.273 126.835 374.814 126.518C375.365 126.2 375.794 125.748 376.102 125.16C376.419 124.572 376.578 123.89 376.578 123.116C376.578 122.332 376.419 121.65 376.102 121.072C375.794 120.484 375.369 120.031 374.828 119.714C374.287 119.396 373.671 119.238 372.98 119.238C372.289 119.238 371.673 119.396 371.132 119.714C370.591 120.031 370.161 120.484 369.844 121.072C369.536 121.65 369.382 122.332 369.382 123.116C369.382 123.89 369.536 124.572 369.844 125.16C370.161 125.748 370.591 126.2 371.132 126.518C371.683 126.835 372.299 126.994 372.98 126.994ZM385.4 128.002L383.076 124.012H381.536V128.002H380.262V118.244H383.412C384.149 118.244 384.77 118.37 385.274 118.622C385.787 118.874 386.17 119.214 386.422 119.644C386.674 120.073 386.8 120.563 386.8 121.114C386.8 121.786 386.604 122.378 386.212 122.892C385.829 123.405 385.251 123.746 384.476 123.914L386.926 128.002H385.4ZM381.536 122.99H383.412C384.103 122.99 384.621 122.822 384.966 122.486C385.311 122.14 385.484 121.683 385.484 121.114C385.484 120.535 385.311 120.087 384.966 119.77C384.63 119.452 384.112 119.294 383.412 119.294H381.536V122.99ZM399.05 128.002L396.726 124.012H395.186V128.002H393.912V118.244H397.062C397.799 118.244 398.42 118.37 398.924 118.622C399.437 118.874 399.82 119.214 400.072 119.644C400.324 120.073 400.45 120.563 400.45 121.114C400.45 121.786 400.254 122.378 399.862 122.892C399.479 123.405 398.901 123.746 398.126 123.914L400.576 128.002H399.05ZM395.186 122.99H397.062C397.753 122.99 398.271 122.822 398.616 122.486C398.961 122.14 399.134 121.683 399.134 121.114C399.134 120.535 398.961 120.087 398.616 119.77C398.28 119.452 397.762 119.294 397.062 119.294H395.186V122.99ZM404.404 119.28V122.542H407.96V123.592H404.404V126.952H408.38V128.002H403.13V118.23H408.38V119.28H404.404ZM412.253 118.244V124.418C412.253 125.286 412.463 125.93 412.883 126.35C413.313 126.77 413.905 126.98 414.661 126.98C415.408 126.98 415.991 126.77 416.411 126.35C416.841 125.93 417.055 125.286 417.055 124.418V118.244H418.329V124.404C418.329 125.216 418.166 125.902 417.839 126.462C417.513 127.012 417.069 127.423 416.509 127.694C415.959 127.964 415.338 128.1 414.647 128.1C413.957 128.1 413.331 127.964 412.771 127.694C412.221 127.423 411.782 127.012 411.455 126.462C411.138 125.902 410.979 125.216 410.979 124.404V118.244H412.253ZM424.249 128.1C423.605 128.1 423.026 127.988 422.513 127.764C422.009 127.53 421.612 127.213 421.323 126.812C421.033 126.401 420.884 125.93 420.875 125.398H422.233C422.279 125.855 422.466 126.242 422.793 126.56C423.129 126.868 423.614 127.022 424.249 127.022C424.855 127.022 425.331 126.872 425.677 126.574C426.031 126.266 426.209 125.874 426.209 125.398C426.209 125.024 426.106 124.721 425.901 124.488C425.695 124.254 425.439 124.077 425.131 123.956C424.823 123.834 424.407 123.704 423.885 123.564C423.241 123.396 422.723 123.228 422.331 123.06C421.948 122.892 421.617 122.63 421.337 122.276C421.066 121.912 420.931 121.426 420.931 120.82C420.931 120.288 421.066 119.816 421.337 119.406C421.607 118.995 421.985 118.678 422.471 118.454C422.965 118.23 423.53 118.118 424.165 118.118C425.079 118.118 425.826 118.346 426.405 118.804C426.993 119.261 427.324 119.868 427.399 120.624H425.999C425.952 120.25 425.756 119.924 425.411 119.644C425.065 119.354 424.608 119.21 424.039 119.21C423.507 119.21 423.073 119.35 422.737 119.63C422.401 119.9 422.233 120.283 422.233 120.778C422.233 121.132 422.331 121.422 422.527 121.646C422.732 121.87 422.979 122.042 423.269 122.164C423.567 122.276 423.983 122.406 424.515 122.556C425.159 122.733 425.677 122.91 426.069 123.088C426.461 123.256 426.797 123.522 427.077 123.886C427.357 124.24 427.497 124.726 427.497 125.342C427.497 125.818 427.371 126.266 427.119 126.686C426.867 127.106 426.493 127.446 425.999 127.708C425.504 127.969 424.921 128.1 424.249 128.1ZM431.345 119.28V122.542H434.901V123.592H431.345V126.952H435.321V128.002H430.071V118.23H435.321V119.28H431.345ZM440.987 118.244C442.051 118.244 442.97 118.444 443.745 118.846C444.529 119.238 445.126 119.802 445.537 120.54C445.957 121.277 446.167 122.145 446.167 123.144C446.167 124.142 445.957 125.01 445.537 125.748C445.126 126.476 444.529 127.036 443.745 127.428C442.97 127.81 442.051 128.002 440.987 128.002H437.949V118.244H440.987ZM440.987 126.952C442.247 126.952 443.208 126.62 443.871 125.958C444.534 125.286 444.865 124.348 444.865 123.144C444.865 121.93 444.529 120.983 443.857 120.302C443.194 119.62 442.238 119.28 440.987 119.28H439.223V126.952H440.987Z" fill="black"/>
<path d="M508.02 110.1C507.115 110.1 506.289 109.89 505.542 109.47C504.796 109.04 504.203 108.448 503.764 107.692C503.335 106.926 503.12 106.068 503.12 105.116C503.12 104.164 503.335 103.31 503.764 102.554C504.203 101.788 504.796 101.196 505.542 100.776C506.289 100.346 507.115 100.132 508.02 100.132C508.935 100.132 509.766 100.346 510.512 100.776C511.259 101.196 511.847 101.784 512.276 102.54C512.706 103.296 512.92 104.154 512.92 105.116C512.92 106.077 512.706 106.936 512.276 107.692C511.847 108.448 511.259 109.04 510.512 109.47C509.766 109.89 508.935 110.1 508.02 110.1ZM508.02 108.994C508.702 108.994 509.313 108.835 509.854 108.518C510.405 108.2 510.834 107.748 511.142 107.16C511.46 106.572 511.618 105.89 511.618 105.116C511.618 104.332 511.46 103.65 511.142 103.072C510.834 102.484 510.41 102.031 509.868 101.714C509.327 101.396 508.711 101.238 508.02 101.238C507.33 101.238 506.714 101.396 506.172 101.714C505.631 102.031 505.202 102.484 504.884 103.072C504.576 103.65 504.422 104.332 504.422 105.116C504.422 105.89 504.576 106.572 504.884 107.16C505.202 107.748 505.631 108.2 506.172 108.518C506.723 108.835 507.339 108.994 508.02 108.994ZM522.974 110.002H521.7L516.576 102.232V110.002H515.302V100.23H516.576L521.7 107.986V100.23H522.974V110.002ZM527.12 108.966H530.536V110.002H525.846V100.244H527.12V108.966ZM539.421 100.244L536.243 106.32V110.002H534.969V106.32L531.777 100.244H533.191L535.599 105.186L538.007 100.244H539.421ZM553.569 110.002H552.295L547.171 102.232V110.002H545.897V100.23H547.171L552.295 107.986V100.23H553.569V110.002ZM562.209 107.832H557.953L557.169 110.002H555.825L559.353 100.3H560.823L564.337 110.002H562.993L562.209 107.832ZM561.845 106.796L560.081 101.868L558.317 106.796H561.845ZM572.58 100.244V101.28H569.92V110.002H568.646V101.28H565.972V100.244H572.58ZM576.095 100.244V106.418C576.095 107.286 576.305 107.93 576.725 108.35C577.154 108.77 577.747 108.98 578.503 108.98C579.249 108.98 579.833 108.77 580.253 108.35C580.682 107.93 580.897 107.286 580.897 106.418V100.244H582.171V106.404C582.171 107.216 582.007 107.902 581.681 108.462C581.354 109.012 580.911 109.423 580.351 109.694C579.8 109.964 579.179 110.1 578.489 110.1C577.798 110.1 577.173 109.964 576.613 109.694C576.062 109.423 575.623 109.012 575.297 108.462C574.979 107.902 574.821 107.216 574.821 106.404V100.244H576.095ZM590.134 110.002L587.81 106.012H586.27V110.002H584.996V100.244H588.146C588.883 100.244 589.504 100.37 590.008 100.622C590.521 100.874 590.904 101.214 591.156 101.644C591.408 102.073 591.534 102.563 591.534 103.114C591.534 103.786 591.338 104.378 590.946 104.892C590.563 105.405 589.985 105.746 589.21 105.914L591.66 110.002H590.134ZM586.27 104.99H588.146C588.837 104.99 589.355 104.822 589.7 104.486C590.045 104.14 590.218 103.683 590.218 103.114C590.218 102.535 590.045 102.087 589.7 101.77C589.364 101.452 588.846 101.294 588.146 101.294H586.27V104.99ZM599.982 107.832H595.726L594.942 110.002H593.598L597.126 100.3H598.596L602.11 110.002H600.766L599.982 107.832ZM599.618 106.796L597.854 101.868L596.09 106.796H599.618ZM605.621 108.966H609.037V110.002H604.347V100.244H605.621V108.966ZM616.797 100.244V110.002H615.523V100.244H616.797ZM627.34 110.002H626.066L620.942 102.232V110.002H619.668V100.23H620.942L626.066 107.986V100.23H627.34V110.002ZM637.604 103.072C637.333 102.502 636.941 102.064 636.428 101.756C635.914 101.438 635.317 101.28 634.636 101.28C633.954 101.28 633.338 101.438 632.788 101.756C632.246 102.064 631.817 102.512 631.5 103.1C631.192 103.678 631.038 104.35 631.038 105.116C631.038 105.881 631.192 106.553 631.5 107.132C631.817 107.71 632.246 108.158 632.788 108.476C633.338 108.784 633.954 108.938 634.636 108.938C635.588 108.938 636.372 108.653 636.988 108.084C637.604 107.514 637.963 106.744 638.066 105.774H634.174V104.738H639.424V105.718C639.349 106.52 639.097 107.258 638.668 107.93C638.238 108.592 637.674 109.12 636.974 109.512C636.274 109.894 635.494 110.086 634.636 110.086C633.73 110.086 632.904 109.876 632.158 109.456C631.411 109.026 630.818 108.434 630.38 107.678C629.95 106.922 629.736 106.068 629.736 105.116C629.736 104.164 629.95 103.31 630.38 102.554C630.818 101.788 631.411 101.196 632.158 100.776C632.904 100.346 633.73 100.132 634.636 100.132C635.672 100.132 636.586 100.388 637.38 100.902C638.182 101.415 638.766 102.138 639.13 103.072H637.604ZM646.946 110.002L644.622 106.012H643.082V110.002H641.808V100.244H644.958C645.695 100.244 646.316 100.37 646.82 100.622C647.333 100.874 647.716 101.214 647.968 101.644C648.22 102.073 648.346 102.563 648.346 103.114C648.346 103.786 648.15 104.378 647.758 104.892C647.375 105.405 646.797 105.746 646.022 105.914L648.472 110.002H646.946ZM643.082 104.99H644.958C645.649 104.99 646.167 104.822 646.512 104.486C646.857 104.14 647.03 103.683 647.03 103.114C647.03 102.535 646.857 102.087 646.512 101.77C646.176 101.452 645.658 101.294 644.958 101.294H643.082V104.99ZM652.3 101.28V104.542H655.856V105.592H652.3V108.952H656.276V110.002H651.026V100.23H656.276V101.28H652.3ZM661.941 100.244C663.005 100.244 663.925 100.444 664.699 100.846C665.483 101.238 666.081 101.802 666.491 102.54C666.911 103.277 667.121 104.145 667.121 105.144C667.121 106.142 666.911 107.01 666.491 107.748C666.081 108.476 665.483 109.036 664.699 109.428C663.925 109.81 663.005 110.002 661.941 110.002H658.903V100.244H661.941ZM661.941 108.952C663.201 108.952 664.163 108.62 664.825 107.958C665.488 107.286 665.819 106.348 665.819 105.144C665.819 103.93 665.483 102.983 664.811 102.302C664.149 101.62 663.192 101.28 661.941 101.28H660.177V108.952H661.941ZM670.776 100.244V110.002H669.502V100.244H670.776ZM674.921 101.28V104.542H678.477V105.592H674.921V108.952H678.897V110.002H673.647V100.23H678.897V101.28H674.921ZM689.197 110.002H687.923L682.799 102.232V110.002H681.525V100.23H682.799L687.923 107.986V100.23H689.197V110.002ZM698.075 100.244V101.28H695.415V110.002H694.141V101.28H691.467V100.244H698.075ZM703.437 110.1C702.793 110.1 702.214 109.988 701.701 109.764C701.197 109.53 700.8 109.213 700.511 108.812C700.222 108.401 700.072 107.93 700.063 107.398H701.421C701.468 107.855 701.654 108.242 701.981 108.56C702.317 108.868 702.802 109.022 703.437 109.022C704.044 109.022 704.52 108.872 704.865 108.574C705.22 108.266 705.397 107.874 705.397 107.398C705.397 107.024 705.294 106.721 705.089 106.488C704.884 106.254 704.627 106.077 704.319 105.956C704.011 105.834 703.596 105.704 703.073 105.564C702.429 105.396 701.911 105.228 701.519 105.06C701.136 104.892 700.805 104.63 700.525 104.276C700.254 103.912 700.119 103.426 700.119 102.82C700.119 102.288 700.254 101.816 700.525 101.406C700.796 100.995 701.174 100.678 701.659 100.454C702.154 100.23 702.718 100.118 703.353 100.118C704.268 100.118 705.014 100.346 705.593 100.804C706.181 101.261 706.512 101.868 706.587 102.624H705.187C705.14 102.25 704.944 101.924 704.599 101.644C704.254 101.354 703.796 101.21 703.227 101.21C702.695 101.21 702.261 101.35 701.925 101.63C701.589 101.9 701.421 102.283 701.421 102.778C701.421 103.132 701.519 103.422 701.715 103.646C701.92 103.87 702.168 104.042 702.457 104.164C702.756 104.276 703.171 104.406 703.703 104.556C704.347 104.733 704.865 104.91 705.257 105.088C705.649 105.256 705.985 105.522 706.265 105.886C706.545 106.24 706.685 106.726 706.685 107.342C706.685 107.818 706.559 108.266 706.307 108.686C706.055 109.106 705.682 109.446 705.187 109.708C704.692 109.969 704.109 110.1 703.437 110.1Z" fill="black"/>
<path d="M82.926 61.3915H71V59.3576C71.66 23.5793 120.944 27.2101 127.001 43.5949C131.474 43.3643 132.925 42.7246 134.26 39.5271C137.531 38.2475 139.537 38.205 141.519 39.5271C143.401 35.2296 144.34 33.2316 145.667 30.8831H149.297L145.667 41.561C156.514 56.2565 148.589 60.7141 141.519 61.3915C136.645 61.5486 132.267 61.5395 127.001 61.3915M82.926 61.3915C81.2776 63.9719 81.1872 65.4224 82.926 68.0017H110.408C117.61 66.7324 121.276 65.3493 127.001 61.3915M82.926 61.3915H127.001" stroke="#344F10"/>
<path d="M82.4076 36.9847L85.0002 30.3746M85.0002 30.3746L79.8149 19.1881M85.0002 30.3746L92.2595 32.4085L96.9262 26.8152M79.8149 19.1881L82.4076 12.0695M79.8149 19.1881L87.5928 16.6457M96.9262 26.8152V16.6457M96.9262 26.8152L103.667 31.9M96.9262 16.6457L102.111 9.5271M96.9262 16.6457H104.704" stroke="#344F10"/>
<path d="M139.445 46.6457L141.779 49.4423M144.112 52.2389L141.779 49.4423M141.779 49.4423L144.112 46.6457M141.779 49.4423L138.408 52.2389M113.001 45.1203H103.149V50.7135H113.001V55.2897H89.1484V39.0186L114.038 40.0355L113.001 45.1203Z" stroke="#344F10"/>
<path d="M134.26 39.5272L135.988 31.3916H139.445V38.7032" stroke="#344F10"/>
<path d="M137.371 23.7644C138.518 22.068 137.931 21.1843 135.297 19.6966C134.464 18.1119 135.17 17.222 137.371 15.6288C138.179 14.179 137.642 13.2728 135.297 11.561C134.732 9.78147 135.175 9.01803 137.371 8.00171" stroke="#344F10"/>
<path d="M147.223 24.2729C148.167 22.4873 147.894 21.4855 145.149 19.6966C144.576 18.5096 144.822 17.6765 147.223 15.6288C147.318 14.0417 147.102 13.1541 145.149 11.561C145.069 9.71801 145.416 8.88142 147.223 8.00171" stroke="#344F10"/>
<path d="M106.26 45.6289V50.7137" stroke="#344F10"/>
<path d="M83.9631 46.6458L79.8149 53.2559" stroke="#344F10"/>
<path d="M120.278 46.6458C120.278 47.2029 119.815 47.6712 119.223 47.6712C118.63 47.6712 118.167 47.2029 118.167 46.6458C118.167 46.0886 118.63 45.6204 119.223 45.6204C119.815 45.6204 120.278 46.0886 120.278 46.6458Z" stroke="#344F10"/>
<path d="M609.168 75.9381L606.204 70.4284M579.824 21.3916L587.234 35.166M587.234 35.166L590.635 23.5955M587.234 35.166L575.706 31.8601M587.234 35.166L593.755 47.2874M593.755 47.2874L598.357 29.6562M593.755 47.2874L578.28 42.8796M593.755 47.2874L601.462 61.6128M601.462 61.6128L607.624 38.4718M601.462 61.6128L579.824 55.5521M601.462 61.6128L606.204 70.4284M606.204 70.4284C628.583 40.8033 632.282 24.8606 570.043 1.55652" stroke="#344F10"/>
<path d="M570.029 1.00171C556.005 67.9341 572.358 71.5286 606.08 70.4287M619.98 48.3897L622.039 45.1686M633.365 27.4526L626.672 37.9211M626.672 37.9211H635.424M626.672 37.9211L624.098 29.6565M626.672 37.9211L622.039 45.1686M622.039 45.1686H633.365M622.039 45.1686L616.376 55.5523L629.761 56.6543" stroke="#344F10"/>
<path d="M608.654 67.1225C639.906 66.687 651.754 60.0399 641.271 13.2134" stroke="#344F10"/>
<path d="M641.601 13.6782C630.301 16.2945 624.429 18.5387 616.891 27.4526" stroke="#344F10"/>
<path d="M367.701 15.8384L363.548 18.8343C352.341 3.82508 346.271 -4.18417 326.921 22.5792L340.514 30.818C342.446 24.3761 344.073 21.0941 348.066 15.8384L352.597 24.8262L348.066 28.1966C353.547 28.7207 356.483 28.7893 361.282 28.1966C364.535 24.2926 366.036 21.7006 367.701 15.8384Z" stroke="#344F10"/>
<path d="M358.143 65.8719L357.515 60.7545C375.914 57.9482 385.775 56.3712 371.706 26.43L358.061 34.5819C362.746 39.3674 364.827 42.3756 367.497 48.4276L357.518 48.1714L356.744 42.5401C353.677 47.16 352.219 49.7353 350.448 54.2815C352.295 59.0316 353.835 61.6002 358.143 65.8719Z" stroke="#344F10"/>
<path d="M316.04 32.3147L320.774 34.2409C314.282 51.8616 310.866 61.3406 343.602 63.4242L343.162 47.4132C336.749 49.2331 333.136 49.6137 326.603 49.0394L331.663 40.3446L336.913 42.3909C334.401 37.4403 332.879 34.903 329.803 31.1339C324.796 30.4632 321.826 30.579 316.04 32.3147Z" stroke="#344F10"/>
</svg>
