<svg width="570" height="70" viewBox="0 0 570 70" fill="none" xmlns="http://www.w3.org/2000/svg">
<rect x="500" width="70" height="70" fill="#F14A27"/>
<g clip-path="url(#clip0_12665_574)">
<path d="M531.59 39.59L536.17 35L531.59 30.41L533 29L539 35L533 41L531.59 39.59Z" fill="black"/>
</g>
<rect width="470" height="70" fill="white"/>
<path d="M40.526 39.104V40H33.596V30.2H40.316V31.096H34.632V34.582H39.7V35.464H34.632V39.104H40.526ZM41.9318 35.772H45.5998V36.64H41.9318V35.772ZM57.0075 32.58C57.9315 32.58 58.6548 32.846 59.1775 33.378C59.7095 33.91 59.9755 34.694 59.9755 35.73V40H58.9815V35.828C58.9815 35.0627 58.7948 34.4793 58.4215 34.078C58.0575 33.6767 57.5395 33.476 56.8675 33.476C56.1022 33.476 55.5002 33.714 55.0615 34.19C54.6228 34.6567 54.4035 35.3053 54.4035 36.136V40H53.4095V35.828C53.4095 35.0627 53.2228 34.4793 52.8495 34.078C52.4855 33.6767 51.9628 33.476 51.2815 33.476C50.5255 33.476 49.9235 33.714 49.4755 34.19C49.0368 34.6567 48.8175 35.3053 48.8175 36.136V40H47.8235V32.636H48.7755V33.98C49.0368 33.532 49.4008 33.1867 49.8675 32.944C50.3342 32.7013 50.8708 32.58 51.4775 32.58C52.0935 32.58 52.6255 32.7107 53.0735 32.972C53.5308 33.2333 53.8715 33.6207 54.0955 34.134C54.3662 33.6487 54.7535 33.2707 55.2575 33C55.7708 32.72 56.3542 32.58 57.0075 32.58ZM65.2472 32.58C66.2085 32.58 66.9458 32.8227 67.4592 33.308C67.9725 33.784 68.2292 34.4933 68.2292 35.436V40H67.2772V38.852C67.0532 39.2347 66.7218 39.5333 66.2832 39.748C65.8538 39.9627 65.3405 40.07 64.7432 40.07C63.9218 40.07 63.2685 39.874 62.7832 39.482C62.2978 39.09 62.0552 38.572 62.0552 37.928C62.0552 37.3027 62.2792 36.7987 62.7272 36.416C63.1845 36.0333 63.9078 35.842 64.8972 35.842H67.2352V35.394C67.2352 34.7593 67.0578 34.2787 66.7032 33.952C66.3485 33.616 65.8305 33.448 65.1492 33.448C64.6825 33.448 64.2345 33.5273 63.8052 33.686C63.3758 33.8353 63.0072 34.0453 62.6992 34.316L62.2512 33.574C62.6245 33.2567 63.0725 33.014 63.5952 32.846C64.1178 32.6687 64.6685 32.58 65.2472 32.58ZM64.8972 39.286C65.4572 39.286 65.9378 39.16 66.3392 38.908C66.7405 38.6467 67.0392 38.2733 67.2352 37.788V36.584H64.9252C63.6652 36.584 63.0352 37.0227 63.0352 37.9C63.0352 38.3293 63.1985 38.67 63.5252 38.922C63.8518 39.1647 64.3092 39.286 64.8972 39.286ZM70.929 32.636H71.923V40H70.929V32.636ZM71.433 31.026C71.2276 31.026 71.055 30.956 70.915 30.816C70.775 30.676 70.705 30.508 70.705 30.312C70.705 30.1253 70.775 29.962 70.915 29.822C71.055 29.682 71.2276 29.612 71.433 29.612C71.6383 29.612 71.811 29.682 71.951 29.822C72.091 29.9527 72.161 30.1113 72.161 30.298C72.161 30.5033 72.091 30.676 71.951 30.816C71.811 30.956 71.6383 31.026 71.433 31.026ZM74.6887 29.612H75.6827V40H74.6887V29.612Z" fill="#687480"/>
<defs>
<clipPath id="clip0_12665_574">
<rect width="24" height="24" fill="white" transform="translate(523 23)"/>
</clipPath>
</defs>
</svg>
