<svg width="15" height="15" viewBox="0 0 15 15" fill="none" xmlns="http://www.w3.org/2000/svg">
<g clip-path="url(#clip0_21779_60)">
<path d="M9.48367 0.0197142C8.75273 0.0591818 8.09562 0.229385 7.41391 0.554993C7.01111 0.748219 6.64769 0.980091 6.31299 1.25883C6.17435 1.37394 5.85523 1.69708 5.73382 1.84344C5.09394 2.61882 4.66407 3.60797 4.53774 4.59795C4.50574 4.84544 4.5 4.9474 4.5 5.26396C4.5 5.64795 4.51723 5.85515 4.57875 6.19474C4.72314 6.99971 5.09148 7.83757 5.59189 8.5003C6.19486 9.29787 7.05705 9.9014 8.08086 10.2426C8.45658 10.3676 8.80769 10.4424 9.23346 10.4868C9.40819 10.5049 9.96029 10.5074 10.1276 10.4909C10.8504 10.4202 11.4287 10.2541 12.0637 9.93675C12.8808 9.52728 13.5198 8.96569 13.9997 8.23636C14.4739 7.51525 14.7807 6.67904 14.8726 5.85597C14.9792 4.90711 14.8316 3.97222 14.4345 3.08502C14.0153 2.14767 13.4189 1.4315 12.6215 0.907734C12.1318 0.58706 11.5042 0.310787 10.9464 0.171007C10.4656 0.0509596 9.92994 -0.00495316 9.48367 0.0197142ZM9.97588 0.893755C10.4295 0.925823 10.8816 1.03025 11.3065 1.2021C12.268 1.59184 12.9571 2.18467 13.4402 3.03569C13.9382 3.91467 14.1285 4.85366 14.0071 5.8272C13.889 6.77442 13.3992 7.7685 12.7364 8.40821C12.405 8.72724 12.067 8.9624 11.6289 9.17782C11.0932 9.44176 10.5756 9.58401 10.0013 9.62677C9.82986 9.6391 9.40655 9.63252 9.25479 9.61443C8.74781 9.55441 8.31302 9.43107 7.86182 9.21976C7.19897 8.90977 6.66574 8.48139 6.25146 7.92802C5.7896 7.31052 5.48197 6.54666 5.39009 5.79102C5.29082 4.97124 5.4229 4.16134 5.78058 3.39254C6.23423 2.41819 6.92744 1.72751 7.89217 1.29008C8.4172 1.05245 8.89875 0.929934 9.46726 0.891289C9.55914 0.884711 9.86841 0.886355 9.97588 0.893755Z" fill="#E4DFD3"/>
<path d="M9.50816 2.09095C9.09388 2.12878 8.76082 2.22334 8.42119 2.40176C7.58688 2.83837 6.98556 3.68117 6.8059 4.66786C6.76488 4.89397 6.75586 5.0058 6.75586 5.29276C6.75586 5.49914 6.75996 5.58712 6.77063 5.67921C6.86661 6.45623 7.18245 7.12306 7.70337 7.64436C8.15539 8.09824 8.69273 8.37369 9.30717 8.4666C9.45566 8.48963 9.77314 8.49785 9.92408 8.48387C10.5467 8.42385 11.0939 8.17882 11.5804 7.74221C11.7986 7.54734 12.0176 7.27436 12.1776 7.00055C12.267 6.84761 12.3786 6.60916 12.4295 6.4628L12.4434 6.42005L12.3975 6.40443C12.372 6.39538 12.1661 6.32302 11.9405 6.24409C11.7149 6.16515 11.5238 6.09855 11.5156 6.09691C11.5041 6.09526 11.4934 6.11418 11.4614 6.19311C11.3466 6.47761 11.1924 6.71359 10.9815 6.92573C10.5057 7.4018 9.87814 7.58927 9.26944 7.43469C8.70667 7.29162 8.2202 6.86488 7.96179 6.28767C7.8174 5.96699 7.75259 5.65537 7.75259 5.28865C7.75259 4.88739 7.83217 4.54534 8.00773 4.19918C8.17508 3.86782 8.42283 3.58497 8.71652 3.39092C9.24155 3.04475 9.88635 2.99789 10.4475 3.26511C10.6427 3.35803 10.8084 3.47807 10.9774 3.64746C11.0997 3.77079 11.212 3.91139 11.2842 4.03309L11.3244 4.09969L11.3499 4.08489C11.363 4.07666 11.5517 3.96648 11.7682 3.8415C11.9848 3.7157 12.1686 3.60881 12.176 3.60305C12.1883 3.59483 12.1834 3.58332 12.1259 3.49123C11.6821 2.77506 10.9905 2.285 10.212 2.13618C10.0512 2.10493 9.92572 2.09342 9.73376 2.09013C9.6304 2.08931 9.52867 2.08931 9.50816 2.09095Z" fill="#E4DFD3"/>
</g>
<defs>
<clipPath id="clip0_21779_60">
<rect width="15" height="15" fill="white" transform="translate(0 0.00195312)"/>
</clipPath>
</defs>
</svg>
