<?xml version="1.0" encoding="UTF-8" standalone="no"?>
<svg
   width="24"
   height="24"
   viewBox="0 0 24 24"
   fill="none"
   version="1.1"
   id="svg4"
   sodipodi:docname="cross.svg"
   inkscape:version="1.1.1 (3bf5ae0d25, 2021-09-20)"
   xmlns:inkscape="http://www.inkscape.org/namespaces/inkscape"
   xmlns:sodipodi="http://sodipodi.sourceforge.net/DTD/sodipodi-0.dtd"
   xmlns="http://www.w3.org/2000/svg"
   xmlns:svg="http://www.w3.org/2000/svg">
  <defs
     id="defs8" />
  <sodipodi:namedview
     id="namedview6"
     pagecolor="#ffffff"
     bordercolor="#666666"
     borderopacity="1.0"
     inkscape:pageshadow="2"
     inkscape:pageopacity="0.0"
     inkscape:pagecheckerboard="0"
     showgrid="false"
     inkscape:zoom="15.615275"
     inkscape:cx="21.613453"
     inkscape:cy="16.041985"
     inkscape:window-width="1366"
     inkscape:window-height="715"
     inkscape:window-x="-8"
     inkscape:window-y="-8"
     inkscape:window-maximized="1"
     inkscape:current-layer="svg4" />
  <path
     d="m 20.601303,5.3158346 c 0.531982,-0.5319908 0.531982,-1.3945224 0,-1.9265133 -0.531982,-0.5319945 -1.394562,-0.5319945 -1.926543,0 L 12.000277,10.063807 5.3258022,3.3893213 c -0.5319914,-0.5319955 -1.394524,-0.5319945 -1.9265156,0 -0.5319951,0.5319909 -0.5319951,1.3945225 0,1.9265133 L 10.07378,11.990321 3.3992866,18.664798 c -0.531996,0.531981 -0.5319951,1.394558 0,1.926539 0.5319916,0.531983 1.3945242,0.531983 1.9265156,0 l 6.6744748,-6.674476 6.674483,6.674476 c 0.531981,0.531983 1.394561,0.531983 1.926543,0 0.531982,-0.531981 0.531982,-1.394558 0,-1.926539 l -6.674486,-6.674477 z"
     fill="#0f0e08"
     id="path2"
     style="stroke-width:0.896649" />
</svg>
