<svg width="24.000000" height="24.000000" viewBox="0 0 24 24" fill="none" xmlns="http://www.w3.org/2000/svg" xmlns:xlink="http://www.w3.org/1999/xlink">
	<desc>
			Created with Pixso.
	</desc>
	<defs>
		<clipPath id="clip12665_588">
			<rect id="facebook-letter-logo" width="23.962555" height="24.000000" fill="white" fill-opacity="0"/>
		</clipPath>
	</defs>
	<rect id="facebook-letter-logo" width="23.962555" height="24.000000" fill="#FFFFFF" fill-opacity="0"/>
	<g clip-path="url(#clip12665_588)">
		<path id="Facebook" d="M8.8 4.64C8.8 5.25 8.8 7.95 8.8 7.95L6.39 7.95L6.39 11.99L8.8 11.99L8.8 24L13.77 24L13.77 11.99L17.1 11.99C17.1 11.99 17.41 10.05 17.56 7.93C17.13 7.93 13.79 7.93 13.79 7.93C13.79 7.93 13.79 5.58 13.79 5.17C13.79 4.76 14.33 4.2 14.86 4.2C15.4 4.2 16.52 4.2 17.57 4.2C17.57 3.65 17.57 1.75 17.57 0C16.17 0 14.59 0 13.89 0C8.68 0 8.8 4.04 8.8 4.64Z" fill="#000000" fill-opacity="1.000000" fill-rule="nonzero"/>
	</g>
</svg>
