<svg width="12" height="24" viewBox="0 0 12 24" fill="none" xmlns="http://www.w3.org/2000/svg">
<path d="M2.7198 4.64899C2.7198 5.2538 2.7198 7.9533 2.7198 7.9533H0.302734V11.9938H2.7198V24.0009H7.68498V11.9942H11.0168C11.0168 11.9942 11.3289 10.0568 11.4801 7.93841C11.0465 7.93841 7.70375 7.93841 7.70375 7.93841C7.70375 7.93841 7.70375 5.58776 7.70375 5.17573C7.70375 4.76282 8.24511 4.2074 8.78017 4.2074C9.31423 4.2074 10.4414 4.2074 11.4854 4.2074C11.4854 3.65727 11.4854 1.75647 11.4854 0.000976577C10.0917 0.000976577 8.50612 0.000976577 7.80721 0.000976577C2.59707 0.000697581 2.7198 4.04524 2.7198 4.64899Z" fill="#4267b2"/>
</svg>
