<svg width="20" height="20" viewBox="0 0 20 20" fill="none" xmlns="http://www.w3.org/2000/svg">
<g id="Group 13">
<path id="Vector" d="M17.3049 19.502H13.5184L13.5289 13.3551H15.4982C15.9736 13.3551 16.3738 12.9994 16.4298 12.5274L16.7028 10.2237C16.769 9.66566 16.3331 9.17508 15.7713 9.17508H13.5175V7.74797C13.5175 7.33239 13.5814 7.1222 13.678 7.00754C13.7583 6.91217 13.9534 6.77851 14.5134 6.77851H14.5136L15.6741 6.77797H15.6742C16.1919 6.77765 16.6117 6.35782 16.6117 5.83984V3.89732C16.6117 3.37916 16.1916 2.9592 15.6736 2.9592H13.7826C12.529 2.9592 11.4215 3.34351 10.626 4.12979C9.82889 4.9176 9.40054 6.05405 9.40054 7.44904V9.17504H8.04716C7.52767 9.17504 7.10705 9.5972 7.10904 10.1167V10.1168L7.11794 12.4205C7.11993 12.9371 7.53929 13.355 8.05601 13.355H9.41191L9.40135 19.5019H2.69504C1.48273 19.5019 0.5 18.5191 0.5 17.3068V2.69699C0.5 1.48469 1.48278 0.501953 2.69504 0.501953H17.3048C18.5171 0.501953 19.4998 1.48469 19.4999 2.69699V17.307C19.4999 18.5192 18.5171 19.502 17.3049 19.502Z" stroke="#E4DFD3"/>
</g>
</svg>
