<svg width="23.962555" height="24.000000" viewBox="0 0 23.9626 24" fill="none" xmlns="http://www.w3.org/2000/svg" xmlns:xlink="http://www.w3.org/1999/xlink">
	<desc>
			Created with Pixso.
	</desc>
	<defs>
		<clipPath id="clip320_220">
			<rect id="facebook-letter-logo" width="23.962555" height="24.000000" fill="white" fill-opacity="0"/>
		</clipPath>
	</defs>
	<rect id="facebook-letter-logo" width="23.962555" height="24.000000" fill="#FFFFFF" fill-opacity="0"/>
	<g clip-path="url(#clip320_220)">
		<path id="Facebook" d="M8.80704 4.64893C8.80704 5.25391 8.80704 7.95337 8.80704 7.95337L6.38995 7.95337L6.38995 11.9939L8.80704 11.9939L8.80704 24.001L13.7722 24.001L13.7722 11.9941L17.1041 11.9941C17.1041 11.9941 17.4161 10.0569 17.5674 7.93848C17.1337 7.93848 13.791 7.93848 13.791 7.93848C13.791 7.93848 13.791 5.58765 13.791 5.17578C13.791 4.76294 14.3323 4.20728 14.8674 4.20728C15.4014 4.20728 16.5286 4.20728 17.5726 4.20728C17.5726 3.65723 17.5726 1.75659 17.5726 0.000976562C16.1789 0.000976562 14.5934 0.000976562 13.8944 0.000976562C8.6843 0.000732422 8.80704 4.04517 8.80704 4.64893Z" fill="#000000" fill-opacity="1.000000" fill-rule="nonzero"/>
	</g>
</svg>
