<svg width="24" height="24" viewBox="0 0 24 24" fill="none" xmlns="http://www.w3.org/2000/svg">
<path d="M21 7C21 6.44772 20.5523 6 20 6L13 6C12.4477 6 12 6.44771 12 7V7C12 7.55228 12.4477 8 13 8L20 8C20.5523 8 21 7.55228 21 7V7ZM21 12C21 11.4477 20.5523 11 20 11L4 11C3.44772 11 3 11.4477 3 12V12C3 12.5523 3.44772 13 4 13L20 13C20.5523 13 21 12.5523 21 12V12ZM20 18C20.5523 18 21 17.5523 21 17V17C21 16.4477 20.5523 16 20 16L9 16C8.44772 16 8 16.4477 8 17V17C8 17.5523 8.44772 18 9 18L20 18Z" fill="#1A5A4C"/>
</svg>
