<svg xmlns="http://www.w3.org/2000/svg" xmlns:xlink="http://www.w3.org/1999/xlink" viewBox="0,0,256,256" width="64px" height="64px"><g fill="#ffffff" fill-rule="nonzero" stroke="none" stroke-width="1" stroke-linecap="butt" stroke-linejoin="miter" stroke-miterlimit="10" stroke-dasharray="" stroke-dashoffset="0" font-family="none" font-weight="none" font-size="none" text-anchor="none" style="mix-blend-mode: normal"><g transform="scale(3.55556,3.55556)"><path d="M19,15c-1.023,0 -2.04812,0.39087 -2.82812,1.17188c-1.562,1.562 -1.562,4.09425 0,5.65625l14.17188,14.17188l-14.17187,14.17188c-1.562,1.562 -1.562,4.09425 0,5.65625c0.78,0.78 1.80513,1.17188 2.82813,1.17188c1.023,0 2.04812,-0.39088 2.82813,-1.17187l14.17188,-14.17187l14.17188,14.17188c1.56,1.562 4.09525,1.562 5.65625,0c1.563,-1.563 1.563,-4.09325 0,-5.65625l-14.17187,-14.17187l14.17188,-14.17187c1.562,-1.562 1.562,-4.09425 0,-5.65625c-1.56,-1.561 -4.09625,-1.562 -5.65625,0l-14.17187,14.17188l-14.17187,-14.17187c-0.78,-0.78 -1.80513,-1.17187 -2.82812,-1.17187z"></path></g></g></svg>