<svg width="25" height="24" viewBox="0 0 25 24" fill="#f14a27" xmlns="http://www.w3.org/2000/svg">
<g clip-path="url(#clip0_12665_591)">
<path d="M18.4658 0H7.45897C3.8767 0 0.962402 2.9143 0.962402 6.49657V17.5036C0.962402 21.0857 3.8767 24 7.45897 24H18.466C22.0481 24 24.9624 21.0857 24.9624 17.5036V6.49657C24.9624 2.9143 22.0481 0 18.4658 0V0ZM12.9624 18.5623C9.34386 18.5623 6.40007 15.6185 6.40007 12C6.40007 8.38145 9.34386 5.43767 12.9624 5.43767C16.5809 5.43767 19.5247 8.38145 19.5247 12C19.5247 15.6185 16.5809 18.5623 12.9624 18.5623ZM19.6816 6.98528C18.6123 6.98528 17.7425 6.11553 17.7425 5.04619C17.7425 3.97686 18.6123 3.10693 19.6816 3.10693C20.7509 3.10693 21.6209 3.97686 21.6209 5.04619C21.6209 6.11553 20.7509 6.98528 19.6816 6.98528Z"/>
<path d="M12.9625 6.84467C10.1199 6.84467 7.80713 9.15728 7.80713 12C7.80713 14.8425 10.1199 17.1553 12.9625 17.1553C15.8052 17.1553 18.1178 14.8425 18.1178 12C18.1178 9.15728 15.8052 6.84467 12.9625 6.84467Z"/>
<path d="M19.6815 4.5141C19.3882 4.5141 19.1494 4.75287 19.1494 5.0462C19.1494 5.33954 19.3882 5.57831 19.6815 5.57831C19.975 5.57831 20.2138 5.33972 20.2138 5.0462C20.2138 4.75269 19.975 4.5141 19.6815 4.5141Z"/>
</g>
<defs>
<clipPath id="clip0_12665_591">
<rect width="24" height="24" fill="white" transform="translate(0.962402)"/>
</clipPath>
</defs>
</svg>
