<svg width="23.999939" height="24.000000" viewBox="0 0 23.9999 24" fill="none" xmlns="http://www.w3.org/2000/svg" xmlns:xlink="http://www.w3.org/1999/xlink">
	<desc>
			Created with Pixso.
	</desc>
	<defs/>
	<path id="Vector" d="M17.5034 0L6.49658 0C2.91431 0 0 2.91431 0 6.49658L0 17.5037C0 21.0857 2.91431 24 6.49658 24L17.5036 24C21.0857 24 23.9999 21.0857 23.9999 17.5037L23.9999 6.49658C23.9999 2.91431 21.0857 0 17.5034 0L17.5034 0ZM12 18.5623C8.38144 18.5623 5.43768 15.6184 5.43768 12C5.43768 8.38135 8.38144 5.43774 12 5.43774C15.6185 5.43774 18.5623 8.38135 18.5623 12C18.5623 15.6184 15.6185 18.5623 12 18.5623ZM18.7192 6.98535C17.6499 6.98535 16.7801 6.11548 16.7801 5.04614C16.7801 3.97681 17.6499 3.10693 18.7192 3.10693C19.7885 3.10693 20.6585 3.97681 20.6585 5.04614C20.6585 6.11548 19.7885 6.98535 18.7192 6.98535Z" fill="#000000" fill-opacity="1.000000" fill-rule="nonzero"/>
</svg>
