<svg width="24.000000" height="24.000000" viewBox="0 0 24 24" fill="none" xmlns="http://www.w3.org/2000/svg" xmlns:xlink="http://www.w3.org/1999/xlink">
	<defs>
		<clipPath id="clip12716_52">
			<rect id="instagram (3)" rx="0.000000" width="23.000000" height="23.000000" transform="translate(0.500000 0.500000)" fill="white" fill-opacity="0"/>
		</clipPath>
	</defs>
	<rect id="instagram (3)" rx="0.000000" width="23.000000" height="23.000000" transform="translate(0.500000 0.500000)" fill="#FFFFFF" fill-opacity="0"/>
	<g clip-path="url(#clip12716_52)">
		<path id="Vector" d="M17.5 0L6.49 0C2.91 0 0 2.91 0 6.49L0 17.5C0 21.08 2.91 24 6.49 24L17.5 24C21.08 24 24 21.08 24 17.5L24 6.49C24 2.91 21.08 0 17.5 0L17.5 0ZM12 18.56C8.38 18.56 5.43 15.61 5.43 12C5.43 8.38 8.38 5.43 12 5.43C15.61 5.43 18.56 8.38 18.56 12C18.56 15.61 15.61 18.56 12 18.56ZM18.71 6.98C17.64 6.98 16.78 6.11 16.78 5.04C16.78 3.97 17.64 3.1 18.71 3.1C19.78 3.1 20.65 3.97 20.65 5.04C20.65 6.11 19.78 6.98 18.71 6.98Z" fill="#000000" fill-opacity="1.000000" fill-rule="nonzero"/>
		<path id="Vector" d="M12 6.84C9.15 6.84 6.84 9.15 6.84 12C6.84 14.84 9.15 17.15 12 17.15C14.84 17.15 17.15 14.84 17.15 12C17.15 9.15 14.84 6.84 12 6.84Z" fill="#000000" fill-opacity="1.000000" fill-rule="nonzero"/>
		<path id="Vector" d="M18.71 4.51C18.42 4.51 18.18 4.75 18.18 5.04C18.18 5.33 18.42 5.57 18.71 5.57C19.01 5.57 19.25 5.33 19.25 5.04C19.25 4.75 19.01 4.51 18.71 4.51Z" fill="#000000" fill-opacity="1.000000" fill-rule="nonzero"/>
	</g>
</svg>
