<svg version="1.1" xmlns="http://www.w3.org/2000/svg" xmlns:xlink="http://www.w3.org/1999/xlink" width="25" height="24" viewBox="0,0,256,245.75"><g fill="#f14a27" fill-rule="nonzero" stroke="none" stroke-width="1" stroke-linecap="butt" stroke-linejoin="miter" stroke-miterlimit="10" stroke-dasharray="" stroke-dashoffset="0" font-family="none" font-weight="none" font-size="none" text-anchor="none" style="mix-blend-mode: normal"><g transform="translate(4.22501,-0.005) scale(10.24,10.24)"><path d="M17.5908,0h-11.00683c-3.58227,0 -6.49657,2.9143 -6.49657,6.49657v11.00703c0,3.5821 2.9143,6.4964 6.49657,6.4964h11.00703c3.5821,0 6.4964,-2.9143 6.4964,-6.4964v-11.00703c0,-3.58227 -2.9143,-6.49657 -6.4966,-6.49657zM12.0874,18.5623c-3.61854,0 -6.56233,-2.9438 -6.56233,-6.5623c0,-3.61855 2.94379,-6.56233 6.56233,-6.56233c3.6185,0 6.5623,2.94378 6.5623,6.56233c0,3.6185 -2.9438,6.5623 -6.5623,6.5623zM18.8066,6.98528c-1.0693,0 -1.9391,-0.86975 -1.9391,-1.93909c0,-1.06933 0.8698,-1.93926 1.9391,-1.93926c1.0693,0 1.9393,0.86993 1.9393,1.93926c0,1.06934 -0.87,1.93909 -1.9393,1.93909z"></path></g></g></svg>