<svg width="18" height="19" viewBox="0 0 18 19" fill="none" xmlns="http://www.w3.org/2000/svg">
<path d="M15 0.163086H3C1.3 0.163086 0 1.45487 0 3.14412V15.0683C0 16.7575 1.3 18.0493 3 18.0493H15C16.7 18.0493 18 16.7575 18 15.0683V3.14412C18 1.45487 16.7 0.163086 15 0.163086ZM9 6.12516C10.7 6.12516 12 7.41695 12 9.1062C12 10.7955 10.7 12.0872 9 12.0872C7.3 12.0872 6 10.7955 6 9.1062C6 7.41695 7.3 6.12516 9 6.12516ZM12.8 4.1378C12.8 3.44223 13.4 2.94539 14 2.94539C14.6 2.94539 15.2 3.5416 15.2 4.1378C15.2 4.73401 14.7 5.33022 14 5.33022C13.3 5.33022 12.8 4.83338 12.8 4.1378ZM15 16.062H3C2.4 16.062 2 15.6645 2 15.0683V9.1062H4C4 11.8885 6.2 14.0746 9 14.0746C11.8 14.0746 14 11.8885 14 9.1062H16V15.0683C16 15.6645 15.6 16.062 15 16.062Z" fill="#000"/>
</svg>
