<svg width="24.000000" height="24.000000" viewBox="0 0 24 24" fill="none" xmlns="http://www.w3.org/2000/svg" xmlns:xlink="http://www.w3.org/1999/xlink">
	<desc>
			Created with Pixso.
	</desc>
	<defs>
		<clipPath id="clip12665_591">
			<rect id="instagram (3)" width="24.000000" height="24.000000" transform="translate(-0.037598 0.000000)" fill="white" fill-opacity="0"/>
		</clipPath>
	</defs>
	<rect id="instagram (3)" width="24.000000" height="24.000000" transform="translate(-0.037598 0.000000)" fill="#FFFFFF" fill-opacity="0"/>
	<g clip-path="url(#clip12665_591)">
		<path id="Vector" d="M17.46 0L6.45 0C2.87 0 -0.04 2.91 -0.04 6.49L-0.04 17.5C-0.04 21.08 2.87 23.99 6.45 23.99L17.46 23.99C21.04 23.99 23.96 21.08 23.96 17.5L23.96 6.49C23.96 2.91 21.04 0 17.46 0L17.46 0ZM11.96 18.56C8.34 18.56 5.39 15.61 5.39 12C5.39 8.38 8.34 5.43 11.96 5.43C15.58 5.43 18.52 8.38 18.52 12C18.52 15.61 15.58 18.56 11.96 18.56ZM18.68 6.98C17.61 6.98 16.74 6.11 16.74 5.04C16.74 3.97 17.61 3.1 18.68 3.1C19.75 3.1 20.62 3.97 20.62 5.04C20.62 6.11 19.75 6.98 18.68 6.98Z" fill="#000000" fill-opacity="1.000000" fill-rule="nonzero"/>
		<path id="Vector" d="M11.96 6.84C9.12 6.84 6.8 9.15 6.8 12C6.8 14.84 9.12 17.15 11.96 17.15C14.8 17.15 17.11 14.84 17.11 12C17.11 9.15 14.8 6.84 11.96 6.84Z" fill="#000000" fill-opacity="1.000000" fill-rule="nonzero"/>
		<path id="Vector" d="M18.68 4.51C18.38 4.51 18.14 4.75 18.14 5.04C18.14 5.33 18.38 5.57 18.68 5.57C18.97 5.57 19.21 5.33 19.21 5.04C19.21 4.75 18.97 4.51 18.68 4.51Z" fill="#000000" fill-opacity="1.000000" fill-rule="nonzero"/>
	</g>
</svg>
