<svg width="20" height="20" viewBox="0 0 20 20" fill="none" xmlns="http://www.w3.org/2000/svg">
<path fill-rule="evenodd" clip-rule="evenodd" d="M1 14.2442V3.56977C1 2.38372 2.38372 1 3.76744 1H15.2326C16.814 1 18 2.5814 18 4.36047V15.0349C18 16.2209 17.0116 18 14.8372 18H4.95349C2.77907 18 1 16.4186 1 14.2442ZM9.50003 6.54189C7.8663 6.54189 6.54189 7.8663 6.54189 9.50003C6.54189 11.1338 7.8663 12.4582 9.50003 12.4582C11.1338 12.4582 12.4582 11.1338 12.4582 9.50003C12.4582 7.8663 11.1338 6.54189 9.50003 6.54189ZM5.34189 9.50003C5.34189 7.20356 7.20356 5.34189 9.50003 5.34189C11.7965 5.34189 13.6582 7.20356 13.6582 9.50003C13.6582 11.7965 11.7965 13.6582 9.50003 13.6582C7.20356 13.6582 5.34189 11.7965 5.34189 9.50003ZM14.0466 5.5465C14.5924 5.5465 15.035 5.10399 15.035 4.55813C15.035 4.01226 14.5924 3.56976 14.0466 3.56976C13.5007 3.56976 13.0582 4.01226 13.0582 4.55813C13.0582 5.10399 13.5007 5.5465 14.0466 5.5465Z" fill="#F1F5F4"/>
</svg>
