<?xml version="1.0" encoding="utf-8"?>
<!-- Generator: Adobe Illustrator 24.1.2, SVG Export Plug-In . SVG Version: 6.00 Build 0)  -->
<svg version="1.1" id="Layer_1" xmlns="http://www.w3.org/2000/svg" xmlns:xlink="http://www.w3.org/1999/xlink" x="0px" y="0px"
	 viewBox="0 0 24 24" style="enable-background:new 0 0 24 24;" xml:space="preserve">
<style type="text/css">
	.st0{clip-path:url(#SVGID_2_);fill:url(#SVGID_3_);}
</style>
<g>
	<defs>
		<rect id="SVGID_1_" y="0" width="24" height="24"/>
	</defs>
	<clipPath id="SVGID_2_">
		<use xlink:href="#SVGID_1_"  style="overflow:visible;"/>
	</clipPath>
	<linearGradient id="SVGID_3_" gradientUnits="userSpaceOnUse" x1="19.0066" y1="24.1358" x2="4.9934" y2="-0.1357">
		<stop  offset="0" style="stop-color:#FEC053"/>
		<stop  offset="0.3273" style="stop-color:#F2203E"/>
		<stop  offset="0.6485" style="stop-color:#B729A8"/>
		<stop  offset="1" style="stop-color:#5342D6"/>
	</linearGradient>
	<path class="st0" d="M17.5,0h-11C2.9,0,0,2.9,0,6.5v11C0,21.1,2.9,24,6.5,24h11c3.6,0,6.5-2.9,6.5-6.5v-11C24,2.9,21.1,0,17.5,0
		L17.5,0z M12,18.6c-3.6,0-6.6-2.9-6.6-6.6c0-3.6,2.9-6.6,6.6-6.6c3.6,0,6.6,2.9,6.6,6.6C18.6,15.6,15.6,18.6,12,18.6z M18.7,7
		c-1.1,0-1.9-0.9-1.9-1.9c0-1.1,0.9-1.9,1.9-1.9S20.7,4,20.7,5C20.7,6.1,19.8,7,18.7,7z M12,6.8c-2.8,0-5.2,2.3-5.2,5.2
		c0,2.8,2.3,5.2,5.2,5.2c2.8,0,5.2-2.3,5.2-5.2C17.2,9.2,14.8,6.8,12,6.8z M18.7,4.5c-0.3,0-0.5,0.2-0.5,0.5c0,0.3,0.2,0.5,0.5,0.5
		c0.3,0,0.5-0.2,0.5-0.5C19.3,4.8,19,4.5,18.7,4.5z"/>
</g>
</svg>
