<svg width="25" height="24" viewBox="0 0 25 24" fill="none" xmlns="http://www.w3.org/2000/svg">
<path d="M18.4658 0H7.45897C3.8767 0 0.962402 2.9143 0.962402 6.49657V17.5036C0.962402 21.0857 3.8767 24 7.45897 24H18.466C22.0481 24 24.9624 21.0857 24.9624 17.5036V6.49657C24.9624 2.9143 22.0481 0 18.4658 0V0ZM12.9624 18.5623C9.34386 18.5623 6.40007 15.6185 6.40007 12C6.40007 8.38145 9.34386 5.43767 12.9624 5.43767C16.5809 5.43767 19.5247 8.38145 19.5247 12C19.5247 15.6185 16.5809 18.5623 12.9624 18.5623ZM19.6816 6.98528C18.6123 6.98528 17.7425 6.11553 17.7425 5.04619C17.7425 3.97686 18.6123 3.10693 19.6816 3.10693C20.7509 3.10693 21.6209 3.97686 21.6209 5.04619C21.6209 6.11553 20.7509 6.98528 19.6816 6.98528Z" fill="black"/>
</svg>
