<svg width="82" height="77" viewBox="0 0 82 77" fill="none" xmlns="http://www.w3.org/2000/svg">
<path d="M45.1688 75.9994L42.2048 70.485M15.8248 21.4067L23.2349 35.1927M23.2349 35.1927L26.6358 23.6125M23.2349 35.1927L11.7063 31.8841M23.2349 35.1927L29.7558 47.3245M29.7558 47.3245L34.3579 29.6783M29.7558 47.3245L14.2804 42.9129M29.7558 47.3245L37.4623 61.662M37.4623 61.662L43.6244 38.5014M37.4623 61.662L15.8248 55.5961M37.4623 61.662L42.2048 70.485M42.2048 70.485C64.5834 40.8349 68.2823 24.8786 6.04346 1.55478" stroke="#344F10"/>
<path d="M6.02918 1C-7.9954 67.9891 8.35849 71.5866 42.08 70.4858M55.9796 48.4281L58.0388 45.2043M69.3646 27.4733L62.6721 37.9507M62.6721 37.9507H71.4238M62.6721 37.9507L60.0981 29.6791M62.6721 37.9507L58.0388 45.2043M58.0388 45.2043H69.3646M58.0388 45.2043L52.3759 55.5969L65.7609 56.6998" stroke="#344F10"/>
<path d="M44.6538 67.1771C75.9053 66.7412 87.7534 60.0884 77.2704 13.2223" stroke="#344F10"/>
<path d="M77.6014 13.6875C66.3007 16.306 60.4287 18.5521 52.8906 27.4736" stroke="#344F10"/>
</svg>
