<svg width="58" height="63" viewBox="0 0 58 63" fill="none" xmlns="http://www.w3.org/2000/svg">
<path d="M26.7816 0.799998V26H21.9936L9.42964 10.7V26H3.66964V0.799998H8.49364L21.0216 16.1V0.799998H26.7816ZM49.3399 20.6H37.6399L35.4079 26H29.4319L40.6639 0.799998H46.4239L57.6919 26H51.5719L49.3399 20.6ZM47.5039 16.172L43.5079 6.524L39.5119 16.172H47.5039ZM23.543 62L23.507 46.88L16.091 59.336H13.463L6.08305 47.204V62H0.611047V36.8H5.43505L14.867 52.46L24.155 36.8H28.943L29.015 62H23.543ZM46.1899 62.432C42.5899 62.432 39.7819 61.436 37.7659 59.444C35.7739 57.452 34.7779 54.608 34.7779 50.912V36.8H40.6099V50.696C40.6099 55.208 42.4819 57.464 46.2259 57.464C48.0499 57.464 49.4419 56.924 50.4019 55.844C51.3619 54.74 51.8419 53.024 51.8419 50.696V36.8H57.6019V50.912C57.6019 54.608 56.5939 57.452 54.5779 59.444C52.5859 61.436 49.7899 62.432 46.1899 62.432Z" fill="#0F0E08"/>
</svg>
