<svg width="382" height="397" viewBox="0 0 382 397" fill="none" xmlns="http://www.w3.org/2000/svg">
<path fill-rule="evenodd" clip-rule="evenodd" d="M0.868351 14.875C144.779 -4.23708 227.726 -5.66674 381.133 14.8751L382 14.9912V15.8663V82.2515V83.2515H381H372.927V113.697V114.697H371.927H356.735C356.665 115.069 356.575 115.562 356.477 116.153C356.244 117.56 355.965 119.519 355.778 121.726C355.402 126.182 355.423 131.482 356.853 135.309C358.376 139.39 362.228 143.748 365.817 147.152C367.594 148.837 369.272 150.257 370.507 151.256C371.124 151.755 371.629 152.148 371.979 152.415C372.153 152.549 372.289 152.651 372.381 152.72L372.421 152.75L372.484 152.797L372.51 152.815L372.516 152.82L372.517 152.82L372.513 152.826L372.517 152.821L372.927 153.12V153.628V179.082H381H382V180.082V339.307V340.307H381H372.927V376.243V377.055L372.132 377.222C246.233 403.576 165.765 403.617 11.5055 377.229L10.6742 377.087V376.243V340.307H1H0V339.307V180.082V179.082H1H10.6742V153.628V153.045L11.1817 152.758C12.0513 152.266 12.9433 151.783 13.8427 151.297C16.6417 149.784 19.5125 148.232 22.0044 146.226C25.2426 143.619 27.7162 140.329 28.2937 135.539L28.295 135.529L28.2965 135.518C29.2247 129.01 29.3604 124.558 28.3823 114.697H11.6742H10.6742V113.697V83.2515H1H0V82.2515V15.8663V14.9903L0.868351 14.875ZM12.6742 340.419C159.407 356.01 238.271 356.026 370.927 340.432V375.43C246.002 401.51 165.87 401.556 12.6742 375.399V340.419ZM30.392 114.697H354.701C354.642 115.019 354.575 115.398 354.504 115.827C354.265 117.272 353.977 119.286 353.785 121.558C353.537 124.497 353.442 127.94 353.851 131.165H30.8239C31.2258 126.57 31.1231 122.128 30.392 114.697ZM30.6197 133.165H354.178C354.382 134.159 354.645 135.115 354.979 136.009C356.675 140.552 360.829 145.178 364.441 148.603C366.265 150.333 367.985 151.788 369.249 152.811C369.882 153.322 370.401 153.727 370.763 154.004C370.822 154.049 370.877 154.09 370.927 154.128V179.707C231.559 186.462 152.512 185.947 12.6742 179.626V154.214C13.3142 153.858 13.9801 153.498 14.6617 153.13L14.6656 153.128L14.6674 153.127L14.6755 153.123L14.6778 153.121L14.6782 153.121C17.5093 151.591 20.61 149.916 23.2586 147.784C26.7726 144.955 29.6182 141.235 30.278 135.79C30.4073 134.883 30.5214 134.014 30.6197 133.165ZM355.916 112.697H370.927V83.2512H12.6742V112.697L29.2865 112.697L355.916 112.697ZM11.6742 81.2515L11.6742 81.2512H371.927L371.927 81.2515H380V16.7414C227.641 -3.61303 144.94 -2.20223 2 16.7424V81.2515H11.6742ZM11.6289 181.58L11.6515 181.082H2V338.307H11.6742H11.7273L11.7801 338.313C159.503 354.051 238.308 354.06 371.81 338.314L371.868 338.307H371.927H380V181.082H373.553L373.577 181.58C232.229 188.485 152.97 187.984 11.6289 181.58Z" fill="#344F10"/>
</svg>
