<svg width="80" height="69" viewBox="0 0 80 69" fill="none" xmlns="http://www.w3.org/2000/svg">
<path d="M60.7011 11.8561L56.5475 14.8573C45.3405 -0.178726 39.2707 -8.20228 19.9209 18.6089L33.5143 26.8624C35.4464 20.409 37.0725 17.1212 41.0662 11.8561L45.5973 20.8599L41.0662 24.2363C46.5473 24.7614 49.4827 24.8301 54.282 24.2363C57.5351 20.3253 59.0364 17.7287 60.7011 11.8561Z" stroke="#344F10"/>
<path d="M51.1431 61.9789L50.5151 56.8524C68.9139 54.0411 78.7745 52.4612 64.7055 22.4666L51.0609 30.633C55.7457 35.427 57.8267 38.4407 60.4972 44.5034L50.5182 44.2468L49.7442 38.6055C46.6769 43.2336 45.2188 45.8135 43.4481 50.3678C45.2953 55.1264 46.8354 57.6996 51.1431 61.9789Z" stroke="#344F10"/>
<path d="M9.04007 28.3617L13.7739 30.2913C7.28207 47.9434 3.86608 57.4394 36.6025 59.5267L36.1624 43.4871C29.749 45.3103 26.1363 45.6915 19.6033 45.1162L24.6634 36.4059L29.9127 38.4559C27.4012 33.4964 25.8792 30.9546 22.8028 27.1788C17.7959 26.5069 14.826 26.6228 9.04007 28.3617Z" stroke="#344F10"/>
</svg>
