<svg width="82" height="62" viewBox="0 0 82 62" fill="none" xmlns="http://www.w3.org/2000/svg">
<path d="M12.926 54.3898H1V52.3559C1.65999 16.5776 50.9445 20.2084 57.0005 36.5932C61.4742 36.3626 62.9252 35.7229 64.2599 32.5254C67.5312 31.2458 69.5367 31.2033 71.5192 32.5254C73.4014 28.2279 74.3397 26.2299 75.6674 23.8813H79.2971L75.6674 34.5593C86.5141 49.2548 78.5886 53.7123 71.5192 54.3898C66.6453 54.5469 62.2674 54.5378 57.0005 54.3898M12.926 54.3898C11.2776 56.9702 11.1872 58.4207 12.926 61H40.4078C47.6096 59.7307 51.2758 58.3476 57.0005 54.3898M12.926 54.3898H57.0005" stroke="#344F10"/>
<path d="M12.4076 29.9831L15.0002 23.3729M15.0002 23.3729L9.81494 12.1864M15.0002 23.3729L22.2595 25.4068L26.9262 19.8136M9.81494 12.1864L12.4076 5.06779M9.81494 12.1864L17.5928 9.64407M26.9262 19.8136V9.64407M26.9262 19.8136L33.667 24.8983M26.9262 9.64407L32.1115 2.52542M26.9262 9.64407H34.7041" stroke="#344F10"/>
<path d="M69.4452 39.6442L71.7786 42.4408M74.1119 45.2374L71.7786 42.4408M71.7786 42.4408L74.1119 39.6442M71.7786 42.4408L68.4082 45.2374M43.0005 38.1188H33.1486V43.712H43.0005V48.2883H19.1484V32.0171L44.0376 33.034L43.0005 38.1188Z" stroke="#344F10"/>
<path d="M64.2598 32.5252L65.9882 24.3896H69.445V31.7013" stroke="#344F10"/>
<path d="M67.3709 16.7627C68.5184 15.0663 67.9314 14.1826 65.2969 12.6949C64.4644 11.1102 65.1695 10.2203 67.3709 8.62712C68.1791 7.1773 67.6422 6.27111 65.2969 4.55932C64.7322 2.77976 65.1748 2.01632 67.3709 1" stroke="#344F10"/>
<path d="M77.2228 17.2712C78.1674 15.4856 77.8937 14.4838 75.1487 12.6949C74.5763 11.5079 74.8224 10.6748 77.2228 8.62712C77.3179 7.03999 77.1016 6.15235 75.1487 4.55932C75.0688 2.7163 75.4162 1.87971 77.2228 1" stroke="#344F10"/>
<path d="M36.2598 38.627V43.7117" stroke="#344F10"/>
<path d="M13.9631 39.6441L9.81494 46.2542" stroke="#344F10"/>
<path d="M50.2781 39.6441C50.2781 40.2012 49.8148 40.6695 49.2226 40.6695C48.6303 40.6695 48.167 40.2012 48.167 39.6441C48.167 39.0869 48.6303 38.6187 49.2226 38.6187C49.8148 38.6187 50.2781 39.0869 50.2781 39.6441Z" stroke="#344F10"/>
</svg>
