<svg aria-hidden="true" style="position: absolute; width: 0; height: 0; overflow: hidden;" version="1.1" xmlns="http://www.w3.org/2000/svg" xmlns:xlink="http://www.w3.org/1999/xlink">
<defs>
<symbol id="instagram" viewBox="0 0 33 32">
<path d="M23.454 0h-14.676c-4.776 0-8.662 3.886-8.662 8.662v14.676c0 4.776 3.886 8.662 8.662 8.662h14.676c4.776 0 8.662-3.886 8.662-8.662v-14.676c0-4.776-3.886-8.662-8.662-8.662v0zM16.117 24.75c-4.825 0-8.75-3.925-8.75-8.75s3.925-8.75 8.75-8.75c4.825 0 8.75 3.925 8.75 8.75s-3.925 8.75-8.75 8.75zM25.075 9.314c-1.426 0-2.585-1.16-2.585-2.585s1.16-2.586 2.585-2.586c1.426 0 2.586 1.16 2.586 2.586s-1.16 2.585-2.586 2.585z"></path>
<path d="M16.117 9.126c-3.79 0-6.874 3.083-6.874 6.874s3.084 6.874 6.874 6.874c3.79 0 6.874-3.084 6.874-6.874s-3.083-6.874-6.874-6.874z"></path>
<path d="M25.075 6.019c-0.391 0-0.709 0.318-0.709 0.709s0.318 0.709 0.709 0.709c0.391 0 0.71-0.318 0.71-0.709s-0.318-0.709-0.71-0.709z"></path>
</symbol>
<symbol id="facebook" viewBox="0 0 32 32">
<path d="M11.743 6.199c0 0.806 0 4.406 0 4.406h-3.223v5.387h3.223v16.009h6.62v-16.009h4.442c0 0 0.416-2.583 0.618-5.408-0.578 0-5.035 0-5.035 0s0-3.134 0-3.684c0-0.551 0.722-1.291 1.435-1.291 0.712 0 2.215 0 3.607 0 0-0.734 0-3.268 0-5.609-1.858 0-3.972 0-4.904 0-6.947-0-6.783 5.392-6.783 6.197z"></path>
</symbol>
<symbol id="arrow-up" viewBox="0 0 32 32">
<path d="M16 4l-10 10 1.41 1.41 7.59-7.58v20.17h2v-20.17l7.59 7.58 1.41-1.41-10-10z"></path>
</symbol>
<symbol id="arrow-button" viewBox="0 0 32 32">
<path d="M11.453 22.12l6.107-6.12-6.107-6.12 1.88-1.88 8 8-8 8-1.88-1.88z"></path>
</symbol>
<symbol id="icon-close" viewBox="0 0 32 32">
<path d="M16 14.115l6.6-6.6 1.885 1.885-6.6 6.6 6.6 6.6-1.885 1.885-6.6-6.6-6.6 6.6-1.885-1.885 6.6-6.6-6.6-6.6 1.885-1.885 6.6 6.6z"></path>
</symbol>
<symbol id="icon-menu" viewBox="0 0 32 32">
<path d="M4 24h24v-2.667h-24v2.667zM4 17.333h24v-2.667h-24v2.667zM4 8v2.667h24v-2.667h-24z"></path>
</symbol>
</defs>
</svg>
