<svg width="20" height="20" viewBox="0 0 20 20" fill="none" xmlns="http://www.w3.org/2000/svg">
<path d="M3.78947 15.9669C2.94737 16.4548 0.912281 16.4412 0 16.3734C0.421053 16.78 3.57895 18 6.52632 18C9.47368 18 11.5789 17.5934 15.1579 14.3408C18.0211 11.7387 18.3158 7.971 18.1053 6.41244L20 4.37953H18.3158L19.3684 2.34663C18.5965 2.82095 17.0105 3.64763 16.8421 3.15973C16.6316 2.54986 13.6842 1.12682 11.1579 2.75314C9.13684 4.0542 9.47368 5.80257 9.68421 7.22553C5.89474 6.81902 1.05263 2.75314 1.05263 2.75314C-0.122503 4.86053 1.46337 7.41233 2.09911 8.43529L2.10526 8.4452L0.631579 8.03862C0.631579 9.82757 2.31579 11.0881 3.15789 11.6978H1.89474C2.56842 13.4867 4.70175 14.4761 5.68421 14.7471C5.40351 14.9504 4.63158 15.479 3.78947 15.9669Z" fill="#F1F5F4"/>
</svg>
