<svg width="207" height="11" viewBox="0 0 207 11" fill="none" xmlns="http://www.w3.org/2000/svg">
<path d="M13.342 0.242L10.514 10H9.086L6.818 2.146L4.466 10L3.052 10.014L0.322 0.242H1.68L3.808 8.516L6.16 0.242H7.588L9.828 8.488L11.97 0.242H13.342ZM16.7102 0.242V10H15.4362V0.242H16.7102ZM25.5875 0.242V1.278H22.9275V10H21.6535V1.278H18.9795V0.242H25.5875ZM27.3797 5.114C27.3797 4.162 27.5944 3.308 28.0237 2.552C28.4531 1.78667 29.0364 1.18933 29.7737 0.76C30.5204 0.330666 31.3464 0.116 32.2517 0.116C33.3157 0.116 34.2444 0.372666 35.0377 0.886C35.8311 1.39933 36.4097 2.12733 36.7737 3.07H35.2477C34.9771 2.482 34.5851 2.02933 34.0717 1.712C33.5677 1.39467 32.9611 1.236 32.2517 1.236C31.5704 1.236 30.9591 1.39467 30.4177 1.712C29.8764 2.02933 29.4517 2.482 29.1437 3.07C28.8357 3.64867 28.6817 4.33 28.6817 5.114C28.6817 5.88867 28.8357 6.57 29.1437 7.158C29.4517 7.73667 29.8764 8.18467 30.4177 8.502C30.9591 8.81933 31.5704 8.978 32.2517 8.978C32.9611 8.978 33.5677 8.824 34.0717 8.516C34.5851 8.19867 34.9771 7.746 35.2477 7.158H36.7737C36.4097 8.09133 35.8311 8.81467 35.0377 9.328C34.2444 9.832 33.3157 10.084 32.2517 10.084C31.3464 10.084 30.5204 9.874 29.7737 9.454C29.0364 9.02467 28.4531 8.432 28.0237 7.676C27.5944 6.92 27.3797 6.066 27.3797 5.114ZM46.8882 0.242V10H45.6142V5.576H40.6442V10H39.3702V0.242H40.6442V4.526H45.6142V0.242H46.8882ZM58.62 10.098C57.7146 10.098 56.8886 9.888 56.142 9.468C55.3953 9.03867 54.8026 8.446 54.364 7.69C53.9346 6.92467 53.72 6.066 53.72 5.114C53.72 4.162 53.9346 3.308 54.364 2.552C54.8026 1.78667 55.3953 1.194 56.142 0.773999C56.8886 0.344666 57.7146 0.129999 58.62 0.129999C59.5346 0.129999 60.3653 0.344666 61.112 0.773999C61.8586 1.194 62.4466 1.782 62.876 2.538C63.3053 3.294 63.52 4.15267 63.52 5.114C63.52 6.07533 63.3053 6.934 62.876 7.69C62.4466 8.446 61.8586 9.03867 61.112 9.468C60.3653 9.888 59.5346 10.098 58.62 10.098ZM58.62 8.992C59.3013 8.992 59.9126 8.83333 60.454 8.516C61.0046 8.19867 61.434 7.746 61.742 7.158C62.0593 6.57 62.218 5.88867 62.218 5.114C62.218 4.33 62.0593 3.64867 61.742 3.07C61.434 2.482 61.0093 2.02933 60.468 1.712C59.9266 1.39467 59.3106 1.236 58.62 1.236C57.9293 1.236 57.3133 1.39467 56.772 1.712C56.2306 2.02933 55.8013 2.482 55.484 3.07C55.176 3.64867 55.022 4.33 55.022 5.114C55.022 5.88867 55.176 6.57 55.484 7.158C55.8013 7.746 56.2306 8.19867 56.772 8.516C57.3226 8.83333 57.9386 8.992 58.62 8.992ZM71.4178 0.242V1.278H67.1758V4.568H70.6198V5.604H67.1758V10H65.9018V0.242H71.4178ZM87.9869 0.312V10H86.7129V2.776L83.4929 10H82.5969L79.3629 2.762V10H78.0889V0.312H79.4609L83.0449 8.32L86.6289 0.312H87.9869ZM95.2715 10.098C94.3662 10.098 93.5402 9.888 92.7935 9.468C92.0469 9.03867 91.4542 8.446 91.0155 7.69C90.5862 6.92467 90.3715 6.066 90.3715 5.114C90.3715 4.162 90.5862 3.308 91.0155 2.552C91.4542 1.78667 92.0469 1.194 92.7935 0.773999C93.5402 0.344666 94.3662 0.129999 95.2715 0.129999C96.1862 0.129999 97.0169 0.344666 97.7635 0.773999C98.5102 1.194 99.0982 1.782 99.5275 2.538C99.9569 3.294 100.172 4.15267 100.172 5.114C100.172 6.07533 99.9569 6.934 99.5275 7.69C99.0982 8.446 98.5102 9.03867 97.7635 9.468C97.0169 9.888 96.1862 10.098 95.2715 10.098ZM95.2715 8.992C95.9529 8.992 96.5642 8.83333 97.1055 8.516C97.6562 8.19867 98.0855 7.746 98.3935 7.158C98.7109 6.57 98.8695 5.88867 98.8695 5.114C98.8695 4.33 98.7109 3.64867 98.3935 3.07C98.0855 2.482 97.6609 2.02933 97.1195 1.712C96.5782 1.39467 95.9622 1.236 95.2715 1.236C94.5809 1.236 93.9649 1.39467 93.4235 1.712C92.8822 2.02933 92.4529 2.482 92.1355 3.07C91.8275 3.64867 91.6735 4.33 91.6735 5.114C91.6735 5.88867 91.8275 6.57 92.1355 7.158C92.4529 7.746 92.8822 8.19867 93.4235 8.516C93.9742 8.83333 94.5902 8.992 95.2715 8.992ZM103.799 0.242V6.416C103.799 7.284 104.009 7.928 104.429 8.348C104.859 8.768 105.451 8.978 106.207 8.978C106.954 8.978 107.537 8.768 107.957 8.348C108.387 7.928 108.601 7.284 108.601 6.416V0.242H109.875V6.402C109.875 7.214 109.712 7.9 109.385 8.46C109.059 9.01067 108.615 9.42133 108.055 9.692C107.505 9.96267 106.884 10.098 106.193 10.098C105.503 10.098 104.877 9.96267 104.317 9.692C103.767 9.42133 103.328 9.01067 103.001 8.46C102.684 7.9 102.525 7.214 102.525 6.402V0.242H103.799ZM120.373 10H119.099L113.975 2.23V10H112.701V0.228H113.975L119.099 7.984V0.228H120.373V10ZM129.25 0.242V1.278H126.59V10H125.316V1.278H122.642V0.242H129.25ZM137.287 7.83H133.031L132.247 10H130.903L134.431 0.298H135.901L139.415 10H138.071L137.287 7.83ZM136.923 6.794L135.159 1.866L133.395 6.794H136.923ZM142.926 0.242V10H141.652V0.242H142.926ZM153.47 10H152.196L147.072 2.23V10H145.798V0.228H147.072L152.196 7.984V0.228H153.47V10ZM173.038 0.242L170.21 10H168.782L166.514 2.146L164.162 10L162.748 10.014L160.018 0.242H161.376L163.504 8.516L165.856 0.242H167.284L169.524 8.488L171.666 0.242H173.038ZM176.406 0.242V10H175.132V0.242H176.406ZM186.949 10H185.675L180.551 2.23V10H179.277V0.228H180.551L185.675 7.984V0.228H186.949V10ZM192.859 0.242C193.923 0.242 194.842 0.442666 195.617 0.843999C196.401 1.236 196.998 1.80067 197.409 2.538C197.829 3.27533 198.039 4.14333 198.039 5.142C198.039 6.14067 197.829 7.00867 197.409 7.746C196.998 8.474 196.401 9.034 195.617 9.426C194.842 9.80867 193.923 10 192.859 10H189.821V0.242H192.859ZM192.859 8.95C194.119 8.95 195.08 8.61867 195.743 7.956C196.406 7.284 196.737 6.346 196.737 5.142C196.737 3.92867 196.401 2.98133 195.729 2.3C195.066 1.61867 194.11 1.278 192.859 1.278H191.095V8.95H192.859ZM203.513 10.098C202.869 10.098 202.291 9.986 201.777 9.762C201.273 9.52867 200.877 9.21133 200.587 8.81C200.298 8.39933 200.149 7.928 200.139 7.396H201.497C201.544 7.85333 201.731 8.24067 202.057 8.558C202.393 8.866 202.879 9.02 203.513 9.02C204.12 9.02 204.596 8.87067 204.941 8.572C205.296 8.264 205.473 7.872 205.473 7.396C205.473 7.02267 205.371 6.71933 205.165 6.486C204.96 6.25267 204.703 6.07533 204.395 5.954C204.087 5.83267 203.672 5.702 203.149 5.562C202.505 5.394 201.987 5.226 201.595 5.058C201.213 4.89 200.881 4.62867 200.601 4.274C200.331 3.91 200.195 3.42467 200.195 2.818C200.195 2.286 200.331 1.81467 200.601 1.404C200.872 0.993333 201.25 0.675999 201.735 0.451999C202.23 0.228 202.795 0.116 203.429 0.116C204.344 0.116 205.091 0.344666 205.669 0.802C206.257 1.25933 206.589 1.866 206.663 2.622H205.263C205.217 2.24867 205.021 1.922 204.675 1.642C204.33 1.35267 203.873 1.208 203.303 1.208C202.771 1.208 202.337 1.348 202.001 1.628C201.665 1.89867 201.497 2.28133 201.497 2.776C201.497 3.13067 201.595 3.42 201.791 3.644C201.997 3.868 202.244 4.04067 202.533 4.162C202.832 4.274 203.247 4.40467 203.779 4.554C204.423 4.73133 204.941 4.90867 205.333 5.086C205.725 5.254 206.061 5.52 206.341 5.884C206.621 6.23867 206.761 6.724 206.761 7.34C206.761 7.816 206.635 8.264 206.383 8.684C206.131 9.104 205.758 9.44467 205.263 9.706C204.769 9.96733 204.185 10.098 203.513 10.098Z" fill="#344F10"/>
</svg>
