<svg width="58" height="63" viewBox="0 0 58 63" fill="none" xmlns="http://www.w3.org/2000/svg">
<path d="M0.900598 26V0.799998H5.7246L20.5926 18.944H18.2526V0.799998H24.0126V26H19.2246L4.3206 7.856H6.6606V26H0.900598ZM26.6628 26L37.8948 0.799998H43.6548L54.9228 26H48.8028L39.5868 3.752H41.8908L32.6388 26H26.6628ZM32.2788 20.6L33.8268 16.172H46.7868L48.3708 20.6H32.2788ZM0.900598 62V36.8H5.7246L16.4526 54.584H13.8966L24.4446 36.8H29.2326L29.3046 62H23.8326L23.7966 45.188H24.8046L16.3806 59.336H13.7526L5.1486 45.188H6.3726V62H0.900598ZM46.4794 62.432C42.9034 62.432 40.1074 61.436 38.0914 59.444C36.0754 57.452 35.0674 54.608 35.0674 50.912V36.8H40.8994V50.696C40.8994 53.096 41.3914 54.824 42.3754 55.88C43.3594 56.936 44.7394 57.464 46.5154 57.464C48.2914 57.464 49.6714 56.936 50.6554 55.88C51.6394 54.824 52.1314 53.096 52.1314 50.696V36.8H57.8914V50.912C57.8914 54.608 56.8834 57.452 54.8674 59.444C52.8514 61.436 50.0554 62.432 46.4794 62.432Z" fill="#0F0E08"/>
</svg>
