<svg xmlns="http://www.w3.org/2000/svg" width="24" height="24" fill="none"><g clip-path="url('#clip0_12716_52')" fill="#000"><path d="M17.503 0H6.497A6.504 6.504 0 0 0 0 6.497v11.007A6.504 6.504 0 0 0 6.497 24h11.007A6.504 6.504 0 0 0 24 17.504V6.497A6.504 6.504 0 0 0 17.503 0ZM12 18.562A6.57 6.57 0 0 1 5.438 12 6.57 6.57 0 0 1 12 5.438 6.57 6.57 0 0 1 18.562 12 6.57 6.57 0 0 1 12 18.562Zm6.72-11.577c-1.07 0-1.94-.87-1.94-1.939 0-1.07.87-1.94 1.94-1.94 1.069 0 1.939.87 1.939 1.94 0 1.07-.87 1.94-1.94 1.94Z"/><path d="M12 6.845A5.161 5.161 0 0 0 6.845 12 5.161 5.161 0 0 0 12 17.155 5.161 5.161 0 0 0 17.155 12 5.161 5.161 0 0 0 12 6.845ZM18.72 4.514a.533.533 0 1 0 0 1.066.533.533 0 0 0 0-1.066Z"/></g><defs><clipPath id="clip0_12716_52"><path fill="#fff" d="M0 0h24v24H0z"/></clipPath></defs></svg>