<svg version="1.1" xmlns="http://www.w3.org/2000/svg" xmlns:xlink="http://www.w3.org/1999/xlink" width="24" height="24" viewBox="0,0,256,256"><defs><clipPath id="clip-1"><rect x="0" y="0" width="24" height="24" id="clip0_12716_52" fill="none"></rect></clipPath></defs><g fill="none" fill-rule="nonzero" stroke="none" stroke-width="1" stroke-linecap="butt" stroke-linejoin="miter" stroke-miterlimit="10" stroke-dasharray="" stroke-dashoffset="0" font-family="none" font-weight="none" font-size="none" text-anchor="none" style="mix-blend-mode: normal"><g transform="scale(10.66667,10.66667)"><g clip-path="url(#clip-1)"><path d="M17.5034,0h-11.00683c-3.58227,0 -6.49657,2.9143 -6.49657,6.49657v11.00703c0,3.5821 2.9143,6.4964 6.49657,6.4964h11.00703c3.5821,0 6.4964,-2.9143 6.4964,-6.4964v-11.00703c0,-3.58227 -2.9143,-6.49657 -6.4966,-6.49657zM12,18.5623c-3.61855,0 -6.56233,-2.9438 -6.56233,-6.5623c0,-3.61855 2.94378,-6.56233 6.56233,-6.56233c3.6185,0 6.5623,2.94378 6.5623,6.56233c0,3.6185 -2.9438,6.5623 -6.5623,6.5623zM18.7192,6.98528c-1.0693,0 -1.9391,-0.86975 -1.9391,-1.93909c0,-1.06933 0.8698,-1.93926 1.9391,-1.93926c1.0693,0 1.9393,0.86993 1.9393,1.93926c0,1.06934 -0.87,1.93909 -1.9393,1.93909z" fill="#1a5a4c"></path><path d="M12.0001,6.84473c-2.84257,0 -5.15537,2.31261 -5.15537,5.15537c0,2.8425 2.3128,5.1553 5.15537,5.1553c2.8427,0 5.1553,-2.3128 5.1553,-5.1553c0,-2.84276 -2.3126,-5.15537 -5.1553,-5.15537z" fill="#1a5a4c"></path><path d="M18.7191,4.51416c-0.2933,0 -0.5321,0.23877 -0.5321,0.5321c0,0.29334 0.2388,0.53211 0.5321,0.53211c0.2935,0 0.5323,-0.23859 0.5323,-0.53211c0,-0.29351 -0.2388,-0.5321 -0.5323,-0.5321z" fill="#1a5a4c"></path></g></g></g></svg>