<svg width="103.800781" height="26.639648" viewBox="0 0 103.801 26.6396" fill="none" xmlns="http://www.w3.org/2000/svg" xmlns:xlink="http://www.w3.org/1999/xlink">
	<desc>
			Created with Pixso.
	</desc>
	<defs/>
	<path id="NAMU" d="M20.7598 0L17.6396 0L17.6396 20.6104L17.3848 20.6104L3.06738 0L0 0L0 26.1826L3.16406 26.1826L3.16406 5.625L3.42773 5.625L17.6924 26.1826L20.7598 26.1826L20.7598 0ZM28.1745 26.1826L30.8113 18.7646L41.3933 18.7646L44.03 26.1826L47.3523 26.1826L37.737 0L34.4675 0L24.8523 26.1826L28.1745 26.1826ZM31.8044 15.9521L35.9968 4.13965L36.199 4.13965L40.3913 15.9521L31.8044 15.9521ZM51.4432 0L51.4432 26.1826L54.4051 26.1826L54.4051 6.29297L54.66 6.29297L62.8426 26.1826L65.7078 26.1826L73.8904 6.29297L74.1453 6.29297L74.1453 26.1826L77.1072 26.1826L77.1072 0L73.3279 0L64.4334 21.7354L64.1258 21.7354L55.2225 0L51.4432 0ZM100.637 0L100.637 17.0771C100.637 20.918 98.0004 23.6777 93.6323 23.6777C89.2553 23.6777 86.6186 20.918 86.6186 17.0771L86.6186 0L83.4545 0L83.4545 17.332C83.4545 22.7021 87.4624 26.6396 93.6323 26.6396C99.7934 26.6396 103.801 22.7021 103.801 17.332L103.801 0L100.637 0Z" fill="#F1F5F4" fill-opacity="1.000000" fill-rule="evenodd"/>
</svg>
