<svg width="116.662598" height="25.775879" viewBox="0 0 116.663 25.7759" fill="none" xmlns="http://www.w3.org/2000/svg" xmlns:xlink="http://www.w3.org/1999/xlink">
	<desc>
			Created with Pixso.
	</desc>
	<defs/>
	<path id="NAMU" d="M48.7368 5.00391L48.7368 0.21582L52.229 0.21582L52.229 25.416L48.7368 25.416L48.7368 20.6279C46.6489 23.5439 43.4092 25.6318 39.7012 25.6318C32.4292 25.6318 27.1729 20.2319 27.1729 12.8159C27.1729 5.3999 32.4292 0 39.7012 0C43.4092 0 46.6489 2.08789 48.7368 5.00391ZM18.7202 20.1602L18.7202 0.21582L22.3198 0.21582L22.3198 25.416L18.3599 25.416L3.6001 4.93213L3.6001 25.416L0 25.416L0 0.21582L4.42822 0.21582L18.7202 20.1602ZM88.5908 0.21582L83.4429 0.21582L73.7231 21.168L63.9668 0.21582L58.7109 0.21582L58.7109 25.416L62.311 25.416L62.311 4.896L71.8149 25.416L75.415 25.416L84.9907 4.71582L84.9907 25.416L88.5908 25.416L88.5908 0.21582ZM116.663 15.1201C116.663 21.2041 111.946 25.7759 105.683 25.7759C99.4185 25.7759 94.7026 21.2041 94.7026 15.1201L94.7026 0.21582L98.3027 0.21582L98.3027 15.1201C98.3027 19.2241 101.471 22.3198 105.683 22.3198C109.895 22.3198 113.062 19.2241 113.062 15.1201L113.062 0.21582L116.663 0.21582L116.663 15.1201ZM30.9531 12.8159C30.9531 18.3242 34.6968 22.3198 39.8447 22.3198C44.9932 22.3198 48.7368 18.3242 48.7368 12.8159C48.7368 7.30811 44.9932 3.31201 39.8447 3.31201C34.6968 3.31201 30.9531 7.30811 30.9531 12.8159Z" fill="#F1F5F4" fill-opacity="1.000000" fill-rule="evenodd"/>
</svg>
