<svg width="12" height="24" viewBox="0 0 12 24" fill="none" xmlns="http://www.w3.org/2000/svg">
<path d="M2.71956 4.64899C2.71956 5.2538 2.71956 7.9533 2.71956 7.9533H0.30249V11.9938H2.71956V24.0009H7.68474V11.9942H11.0166C11.0166 11.9942 11.3286 10.0568 11.4799 7.93841C11.0462 7.93841 7.70351 7.93841 7.70351 7.93841C7.70351 7.93841 7.70351 5.58776 7.70351 5.17573C7.70351 4.76282 8.24487 4.2074 8.77992 4.2074C9.31398 4.2074 10.4411 4.2074 11.4851 4.2074C11.4851 3.65727 11.4851 1.75647 11.4851 0.000976577C10.0914 0.000976577 8.50588 0.000976577 7.80697 0.000976577C2.59683 0.000697581 2.71956 4.04524 2.71956 4.64899Z" fill="black"/>
</svg>
