<svg width="58" height="63" viewBox="0 0 58 63" fill="none" xmlns="http://www.w3.org/2000/svg">
<path d="M3.66964 26V0.799998H8.49364L23.3616 18.944H21.0216V0.799998H26.7816V26H21.9936L7.08964 7.856H9.42964V26H3.66964ZM29.4319 26L40.6639 0.799998H46.4239L57.6919 26H51.5719L42.3559 3.752H44.6599L35.4079 26H29.4319ZM35.0479 20.6L36.5959 16.172H49.5559L51.1399 20.6H35.0479ZM0.611047 62V36.8H5.43505L16.163 54.584H13.607L24.155 36.8H28.943L29.015 62H23.543L23.507 45.188H24.515L16.091 59.336H13.463L4.85905 45.188H6.08305V62H0.611047ZM46.1899 62.432C42.6139 62.432 39.8179 61.436 37.8019 59.444C35.7859 57.452 34.7779 54.608 34.7779 50.912V36.8H40.6099V50.696C40.6099 53.096 41.1019 54.824 42.0859 55.88C43.0699 56.936 44.4499 57.464 46.2259 57.464C48.0019 57.464 49.3819 56.936 50.3659 55.88C51.3499 54.824 51.8419 53.096 51.8419 50.696V36.8H57.6019V50.912C57.6019 54.608 56.5939 57.452 54.5779 59.444C52.5619 61.436 49.7659 62.432 46.1899 62.432Z" fill="#0F0E08"/>
</svg>
