<?xml version="1.0" standalone="no"?>
<!DOCTYPE svg PUBLIC "-//W3C//DTD SVG 20010904//EN"
 "http://www.w3.org/TR/2001/REC-SVG-20010904/DTD/svg10.dtd">
<svg version="1.0" xmlns="http://www.w3.org/2000/svg"
 width="79.000000pt" height="79.000000pt" viewBox="0 0 79.000000 79.000000"
 preserveAspectRatio="xMidYMid meet">
<metadata>
Created by potrace 1.14, written by Peter Selinger 2001-2017
</metadata>
<g transform="translate(0.000000,79.000000) scale(0.100000,-0.100000)"
fill="#000" stroke="none">
<path d="M0 395 l0 -395 395 0 395 0 0 395 0 395 -395 0 -395 0 0 -395z m296
218 c5 -21 8 -24 11 -10 5 21 21 21 47 2 28 -21 73 -18 104 6 l27 21 6 -24 6
-23 11 28 c14 34 38 34 74 0 26 -25 27 -28 12 -45 -14 -14 -14 -21 -5 -32 7
-8 9 -21 5 -28 -21 -36 -177 -249 -180 -246 -6 7 66 252 76 258 15 9 -55 40
-90 40 -17 0 -47 -9 -67 -20 -21 -11 -32 -20 -26 -20 7 0 22 -33 33 -72 12
-40 30 -101 40 -135 10 -35 16 -63 15 -63 -2 0 -37 46 -77 103 -125 173 -121
166 -107 183 10 12 9 18 -4 32 -16 15 -15 18 10 44 35 37 68 37 79 1z m114
-98 c0 -8 -4 -15 -10 -15 -5 0 -10 7 -10 15 0 8 5 15 10 15 6 0 10 -7 10 -15z
m0 -85 c0 -5 -4 -10 -10 -10 -5 0 -10 5 -10 10 0 6 5 10 10 10 6 0 10 -4 10
-10z m0 -85 c0 -8 -4 -15 -10 -15 -5 0 -10 7 -10 15 0 8 5 15 10 15 6 0 10 -7
10 -15z m-30 -141 c-6 -14 -8 -30 -4 -35 3 -5 1 -9 -5 -9 -5 0 -12 6 -14 13
-4 7 -6 6 -6 -4 -1 -17 -29 -34 -39 -24 -3 3 -1 5 5 5 6 0 9 12 6 28 -3 21 -2
23 5 8 8 -18 10 -17 32 12 29 39 33 40 20 6z m182 -9 c-2 -19 -8 -35 -13 -35
-5 0 -6 12 -3 28 13 52 22 56 16 7z m-261 -11 c-5 -16 -10 -21 -10 -12 -1 18
10 51 15 45 2 -1 -1 -16 -5 -33z m143 2 c-3 -15 -8 -25 -11 -23 -2 3 -1 17 3
31 3 15 8 25 11 23 2 -3 1 -17 -3 -31z m59 -11 c-7 -21 -13 -19 -13 6 0 11 4
18 10 14 5 -3 7 -12 3 -20z m24 -7 c-3 -7 -5 -2 -5 12 0 14 2 19 5 13 2 -7 2
-19 0 -25z m-252 13 c3 -5 1 -12 -4 -15 -5 -3 -11 1 -15 9 -6 16 9 21 19 6z
m138 -8 c-7 -17 -23 -17 -23 0 0 8 6 14 14 14 8 0 12 -6 9 -14z m54 -5 c-3 -8
-6 -5 -6 6 -1 11 2 17 5 13 3 -3 4 -12 1 -19z"/>
</g>
</svg>
