<svg width="20" height="20" viewBox="0 0 20 20" fill="none" xmlns="http://www.w3.org/2000/svg">
<g clip-path="url(#clip0_21779_326)">
<rect width="20" height="20" fill="#89946E"/>
<path d="M17.3049 19.5H13.5184L13.5289 13.3531H15.4982C15.9736 13.3531 16.3738 12.9975 16.4298 12.5254L16.7028 10.2217C16.769 9.66371 16.3331 9.17313 15.7713 9.17313H13.5175V7.74602C13.5175 7.33044 13.5814 7.12024 13.678 7.00558C13.7583 6.91022 13.9534 6.77655 14.5134 6.77655H14.5136L15.6741 6.77602H15.6742C16.1919 6.7757 16.6117 6.35587 16.6117 5.83789V3.89537C16.6117 3.37721 16.1916 2.95724 15.6736 2.95724H13.7826C12.529 2.95724 11.4215 3.34156 10.626 4.12784C9.82889 4.91565 9.40054 6.0521 9.40054 7.44709V9.17308H8.04716C7.52767 9.17308 7.10705 9.59525 7.10904 10.1148V10.1148L7.11794 12.4185C7.11993 12.9352 7.53929 13.353 8.05601 13.353H9.41191L9.40135 19.4999H2.69504C1.48273 19.4999 0.5 18.5172 0.5 17.3049V2.69504C0.5 1.48274 1.48278 0.5 2.69504 0.5H17.3048C18.5171 0.5 19.4998 1.48273 19.4999 2.69504V17.305C19.4999 18.5173 18.5171 19.5 17.3049 19.5Z" stroke="#E4DFD3"/>
</g>
<defs>
<clipPath id="clip0_21779_326">
<rect width="20" height="20" fill="white"/>
</clipPath>
</defs>
</svg>
