<svg width="182" height="397" viewBox="0 0 182 397" fill="none" xmlns="http://www.w3.org/2000/svg">
<g clip-path="url(#clip0_21779_256)">
<path fill-rule="evenodd" clip-rule="evenodd" d="M46.8684 14.875C190.779 -4.23708 273.726 -5.66674 427.133 14.8751L428 14.9912V15.8663V82.2515V83.2515H427H418.927V113.697V114.697H417.927H402.735C402.665 115.069 402.575 115.562 402.477 116.153C402.244 117.56 401.965 119.519 401.778 121.726C401.402 126.182 401.423 131.482 402.853 135.309C404.376 139.39 408.228 143.748 411.817 147.152C413.594 148.837 415.272 150.257 416.507 151.256C417.124 151.755 417.629 152.148 417.979 152.415C418.153 152.549 418.289 152.651 418.381 152.72L418.421 152.75L418.484 152.797L418.51 152.815L418.516 152.82L418.517 152.82L418.513 152.826L418.517 152.821L418.927 153.12V153.628V179.082H427H428V180.082V339.307V340.307H427H418.927V376.243V377.055L418.132 377.222C292.233 403.576 211.765 403.617 57.5055 377.229L56.6742 377.087V376.243V340.307H47H46V339.307V180.082V179.082H47H56.6742V153.628V153.045L57.1817 152.758C58.0513 152.266 58.9433 151.783 59.8427 151.297C62.6417 149.784 65.5125 148.232 68.0044 146.226C71.2426 143.619 73.7162 140.329 74.2937 135.539L74.295 135.529L74.2965 135.518C75.2247 129.01 75.3604 124.558 74.3823 114.697H57.6742H56.6742V113.697V83.2515H47H46V82.2515V15.8663V14.9903L46.8684 14.875ZM58.6742 340.419C205.407 356.01 284.271 356.026 416.927 340.432V375.43C292.002 401.51 211.87 401.556 58.6742 375.399V340.419ZM76.392 114.697H400.701C400.642 115.019 400.575 115.398 400.504 115.827C400.265 117.272 399.977 119.286 399.785 121.558C399.537 124.497 399.442 127.94 399.851 131.165H76.8239C77.2258 126.57 77.1231 122.128 76.392 114.697ZM76.6197 133.165H400.178C400.382 134.159 400.645 135.115 400.979 136.009C402.675 140.552 406.829 145.178 410.441 148.603C412.265 150.333 413.985 151.788 415.249 152.811C415.882 153.322 416.401 153.727 416.763 154.004C416.822 154.049 416.877 154.09 416.927 154.128V179.707C277.559 186.462 198.512 185.947 58.6742 179.626V154.214C59.3142 153.858 59.9801 153.498 60.6617 153.13L60.6656 153.128L60.6674 153.127L60.6755 153.123L60.6778 153.121L60.6782 153.121C63.5093 151.591 66.61 149.916 69.2586 147.784C72.7726 144.955 75.6182 141.235 76.278 135.79C76.4073 134.883 76.5214 134.014 76.6197 133.165ZM401.916 112.697H416.927V83.2512H58.6742V112.697L75.2865 112.697L401.916 112.697ZM57.6742 81.2515L57.6742 81.2512H417.927L417.927 81.2515H426V16.7414C273.641 -3.61303 190.94 -2.20223 48 16.7424V81.2515H57.6742ZM57.6289 181.58L57.6515 181.082H48V338.307H57.6742H57.7273L57.7801 338.313C205.503 354.051 284.308 354.06 417.81 338.314L417.868 338.307H417.927H426V181.082H419.553L419.577 181.58C278.229 188.485 198.97 187.984 57.6289 181.58Z" fill="#344F10"/>
<circle cx="33.5" cy="50.5017" r="2.5" transform="rotate(-180 33.5 50.5017)" fill="#333333"/>
<circle cx="33.5" cy="123.502" r="2.5" transform="rotate(-180 33.5 123.502)" fill="#333333"/>
<circle cx="33.5" cy="199.502" r="2.5" fill="#333333"/>
<rect x="32" y="51" width="32" height="1" transform="rotate(-180 32 51)" fill="#333333"/>
<rect x="32" y="124" width="32" height="1" transform="rotate(-180 32 124)" fill="#333333"/>
<rect x="32" y="200" width="32" height="1" transform="rotate(-180 32 200)" fill="#333333"/>
<circle cx="33.5" cy="199.502" r="2.5" fill="#333333"/>
<circle cx="33.5" cy="272.502" r="2.5" fill="#333333"/>
<rect x="32" y="273" width="32" height="1" transform="rotate(-180 32 273)" fill="#333333"/>
<circle cx="33.5" cy="272.502" r="2.5" fill="#333333"/>
<circle cx="33.5" cy="272.502" r="2.5" fill="#333333"/>
<circle cx="33.5" cy="272.502" r="2.5" fill="#333333"/>
<circle cx="33.5" cy="344.502" r="2.5" fill="#333333"/>
<rect x="32" y="345" width="32" height="1" transform="rotate(-180 32 345)" fill="#333333"/>
<circle cx="33.5" cy="344.502" r="2.5" fill="#333333"/>
<circle cx="33.5" cy="344.502" r="2.5" fill="#333333"/>
<circle cx="33.5" cy="344.502" r="2.5" fill="#333333"/>
</g>
<defs>
<clipPath id="clip0_21779_256">
<rect width="182" height="397" fill="white"/>
</clipPath>
</defs>
</svg>
