<svg width="200" height="36" viewBox="0 0 200 36" fill="none" xmlns="http://www.w3.org/2000/svg">
<path d="M9.48367 3.01776C8.75273 3.05723 8.09562 3.22743 7.41391 3.55304C7.01111 3.74627 6.64769 3.97814 6.31299 4.25688C6.17435 4.37199 5.85523 4.69513 5.73382 4.84149C5.09394 5.61686 4.66407 6.60602 4.53774 7.59599C4.50574 7.84349 4.5 7.94545 4.5 8.26201C4.5 8.64599 4.51723 8.8532 4.57875 9.19278C4.72314 9.99776 5.09148 10.8356 5.59189 11.4983C6.19486 12.2959 7.05705 12.8994 8.08086 13.2407C8.45658 13.3657 8.80769 13.4405 9.23346 13.4849C9.40819 13.503 9.96029 13.5054 10.1276 13.489C10.8504 13.4183 11.4287 13.2522 12.0637 12.9348C12.8808 12.5253 13.5198 11.9637 13.9997 11.2344C14.4739 10.5133 14.7807 9.67708 14.8726 8.85402C14.9792 7.90516 14.8316 6.97027 14.4345 6.08307C14.0153 5.14572 13.4189 4.42955 12.6215 3.90578C12.1318 3.58511 11.5042 3.30883 10.9464 3.16905C10.4656 3.04901 9.92994 2.99309 9.48367 3.01776ZM9.97588 3.8918C10.4295 3.92387 10.8816 4.02829 11.3065 4.20014C12.268 4.58988 12.9571 5.18272 13.4402 6.03374C13.9382 6.91271 14.1285 7.85171 14.0071 8.82524C13.889 9.77246 13.3992 10.7666 12.7364 11.4063C12.405 11.7253 12.067 11.9604 11.6289 12.1759C11.0932 12.4398 10.5756 12.5821 10.0013 12.6248C9.82986 12.6371 9.40655 12.6306 9.25479 12.6125C8.74781 12.5525 8.31302 12.4291 7.86182 12.2178C7.19897 11.9078 6.66574 11.4794 6.25146 10.9261C5.7896 10.3086 5.48197 9.5447 5.39009 8.78906C5.29082 7.96929 5.4229 7.15938 5.78058 6.39059C6.23423 5.41624 6.92744 4.72555 7.89217 4.28812C8.4172 4.0505 8.89875 3.92798 9.46726 3.88934C9.55914 3.88276 9.86841 3.8844 9.97588 3.8918Z" fill="#E4DFD3"/>
<path d="M9.50841 5.089C9.09413 5.12682 8.76106 5.22138 8.42143 5.39981C7.58713 5.83642 6.9858 6.67921 6.80615 7.6659C6.76513 7.89202 6.7561 8.00384 6.7561 8.2908C6.7561 8.49719 6.76021 8.58517 6.77087 8.67726C6.86685 9.45427 7.18269 10.1211 7.70362 10.6424C8.15563 11.0963 8.69297 11.3717 9.30742 11.4647C9.4559 11.4877 9.77338 11.4959 9.92433 11.4819C10.547 11.4219 11.0942 11.1769 11.5806 10.7403C11.7988 10.5454 12.0179 10.2724 12.1779 9.9986C12.2673 9.84566 12.3788 9.60721 12.4297 9.46085L12.4436 9.4181L12.3977 9.40247C12.3723 9.39343 12.1664 9.32107 11.9408 9.24214C11.7152 9.1632 11.524 9.0966 11.5158 9.09496C11.5043 9.09331 11.4937 9.11222 11.4617 9.19116C11.3468 9.47565 11.1926 9.71163 10.9818 9.92377C10.506 10.3998 9.87839 10.5873 9.26968 10.4327C8.70692 10.2897 8.22044 9.86293 7.96203 9.28571C7.81765 8.96504 7.75284 8.65341 7.75284 8.28669C7.75284 7.88544 7.83241 7.54339 8.00797 7.19723C8.17532 6.86586 8.42307 6.58301 8.71676 6.38896C9.24179 6.0428 9.88659 5.99593 10.4477 6.26316C10.643 6.35607 10.8087 6.47612 10.9777 6.6455C11.0999 6.76884 11.2123 6.90944 11.2845 7.03113L11.3247 7.09773L11.3501 7.08293C11.3632 7.07471 11.5519 6.96453 11.7685 6.83955C11.9851 6.71375 12.1688 6.60686 12.1762 6.6011C12.1885 6.59288 12.1836 6.58137 12.1262 6.48928C11.6824 5.77311 10.9908 5.28305 10.2123 5.13422C10.0515 5.10298 9.92597 5.09147 9.734 5.08818C9.63064 5.08736 9.52891 5.08736 9.50841 5.089Z" fill="#E4DFD3"/>
<path d="M20.5182 11.788C21.4142 11.0413 22.1282 10.4207 22.6602 9.926C23.1922 9.422 23.6355 8.89933 23.9902 8.358C24.3448 7.81667 24.5222 7.28467 24.5222 6.762C24.5222 6.286 24.4102 5.91267 24.1862 5.642C23.9622 5.37133 23.6168 5.236 23.1502 5.236C22.6835 5.236 22.3242 5.39467 22.0722 5.712C21.8202 6.02 21.6895 6.44467 21.6802 6.986H19.7762C19.8135 5.866 20.1448 5.01667 20.7702 4.438C21.4048 3.85933 22.2075 3.57 23.1782 3.57C24.2422 3.57 25.0588 3.85467 25.6282 4.424C26.1975 4.984 26.4822 5.726 26.4822 6.65C26.4822 7.378 26.2862 8.07333 25.8942 8.736C25.5022 9.39867 25.0542 9.97733 24.5502 10.472C24.0462 10.9573 23.3882 11.5453 22.5762 12.236H26.7062V13.86H19.7902V12.404L20.5182 11.788ZM27.9412 8.764C27.9412 7.14933 28.2306 5.88467 28.8092 4.97C29.3972 4.05533 30.3679 3.598 31.7212 3.598C33.0746 3.598 34.0406 4.05533 34.6192 4.97C35.2072 5.88467 35.5012 7.14933 35.5012 8.764C35.5012 10.388 35.2072 11.662 34.6192 12.586C34.0406 13.51 33.0746 13.972 31.7212 13.972C30.3679 13.972 29.3972 13.51 28.8092 12.586C28.2306 11.662 27.9412 10.388 27.9412 8.764ZM33.5692 8.764C33.5692 8.07333 33.5226 7.49467 33.4292 7.028C33.3452 6.552 33.1679 6.16467 32.8972 5.866C32.6359 5.56733 32.2439 5.418 31.7212 5.418C31.1986 5.418 30.8019 5.56733 30.5312 5.866C30.2699 6.16467 30.0926 6.552 29.9992 7.028C29.9152 7.49467 29.8732 8.07333 29.8732 8.764C29.8732 9.47333 29.9152 10.0707 29.9992 10.556C30.0832 11.032 30.2606 11.4193 30.5312 11.718C30.8019 12.0073 31.1986 12.152 31.7212 12.152C32.2439 12.152 32.6406 12.0073 32.9112 11.718C33.1819 11.4193 33.3592 11.032 33.4432 10.556C33.5272 10.0707 33.5692 9.47333 33.5692 8.764ZM36.754 5.6V3.794H40.128V14H38.112V5.6H36.754ZM44.3323 11.13C44.4069 11.5407 44.5749 11.858 44.8363 12.082C45.1069 12.2967 45.4663 12.404 45.9143 12.404C46.4929 12.404 46.9129 12.166 47.1743 11.69C47.4356 11.2047 47.5663 10.3927 47.5663 9.254C47.3516 9.55267 47.0483 9.786 46.6563 9.954C46.2736 10.122 45.8583 10.206 45.4103 10.206C44.8129 10.206 44.2716 10.0847 43.7863 9.842C43.3103 9.59 42.9323 9.22133 42.6523 8.736C42.3723 8.24133 42.2323 7.644 42.2323 6.944C42.2323 5.908 42.5403 5.08667 43.1563 4.48C43.7723 3.864 44.6123 3.556 45.6763 3.556C47.0016 3.556 47.9349 3.98067 48.4763 4.83C49.0269 5.67933 49.3023 6.958 49.3023 8.666C49.3023 9.87933 49.1949 10.8733 48.9803 11.648C48.7749 12.4227 48.4156 13.0107 47.9023 13.412C47.3983 13.8133 46.7076 14.014 45.8303 14.014C45.1396 14.014 44.5516 13.8833 44.0663 13.622C43.5809 13.3513 43.2076 13.0013 42.9463 12.572C42.6943 12.1333 42.5496 11.6527 42.5123 11.13H44.3323ZM45.8163 8.61C46.3016 8.61 46.6843 8.46067 46.9643 8.162C47.2443 7.86333 47.3843 7.462 47.3843 6.958C47.3843 6.40733 47.2349 5.98267 46.9363 5.684C46.6469 5.376 46.2503 5.222 45.7463 5.222C45.2423 5.222 44.8409 5.38067 44.5423 5.698C44.2529 6.006 44.1083 6.41667 44.1083 6.93C44.1083 7.42467 44.2483 7.83067 44.5283 8.148C44.8176 8.456 45.2469 8.61 45.8163 8.61ZM65.1399 6.244L62.8719 14H60.7579L59.3439 8.582L57.9299 14H55.8019L53.5199 6.244H55.5079L56.8799 12.152L58.3639 6.244H60.4359L61.8919 12.138L63.2639 6.244H65.1399ZM67.1944 5.32C66.849 5.32 66.5597 5.21267 66.3264 4.998C66.1024 4.774 65.9904 4.49867 65.9904 4.172C65.9904 3.84533 66.1024 3.57467 66.3264 3.36C66.5597 3.136 66.849 3.024 67.1944 3.024C67.5397 3.024 67.8244 3.136 68.0484 3.36C68.2817 3.57467 68.3984 3.84533 68.3984 4.172C68.3984 4.49867 68.2817 4.774 68.0484 4.998C67.8244 5.21267 67.5397 5.32 67.1944 5.32ZM68.1604 6.244V14H66.2004V6.244H68.1604ZM72.3789 7.854V11.606C72.3789 11.8673 72.4395 12.0587 72.5609 12.18C72.6915 12.292 72.9062 12.348 73.2049 12.348H74.1149V14H72.8829C71.2309 14 70.4049 13.1973 70.4049 11.592V7.854H69.4809V6.244H70.4049V4.326H72.3789V6.244H74.1149V7.854H72.3789ZM75.0206 10.122C75.0206 9.31933 75.1839 8.61933 75.5106 8.022C75.8373 7.41533 76.2899 6.94867 76.8686 6.622C77.4473 6.286 78.1099 6.118 78.8566 6.118C79.8179 6.118 80.6113 6.36067 81.2366 6.846C81.8713 7.322 82.2959 7.994 82.5106 8.862H80.3966C80.2846 8.526 80.0933 8.26467 79.8226 8.078C79.5613 7.882 79.2346 7.784 78.8426 7.784C78.2826 7.784 77.8393 7.98933 77.5126 8.4C77.1859 8.80133 77.0226 9.37533 77.0226 10.122C77.0226 10.8593 77.1859 11.4333 77.5126 11.844C77.8393 12.2453 78.2826 12.446 78.8426 12.446C79.6359 12.446 80.1539 12.0913 80.3966 11.382H82.5106C82.2959 12.222 81.8713 12.8893 81.2366 13.384C80.6019 13.8787 79.8086 14.126 78.8566 14.126C78.1099 14.126 77.4473 13.9627 76.8686 13.636C76.2899 13.3 75.8373 12.8333 75.5106 12.236C75.1839 11.6293 75.0206 10.9247 75.0206 10.122ZM88.3145 6.132C88.9025 6.132 89.4251 6.26267 89.8825 6.524C90.3398 6.776 90.6945 7.154 90.9465 7.658C91.2078 8.15267 91.3385 8.75 91.3385 9.45V14H89.3785V9.716C89.3785 9.1 89.2245 8.62867 88.9165 8.302C88.6085 7.966 88.1885 7.798 87.6565 7.798C87.1151 7.798 86.6858 7.966 86.3685 8.302C86.0605 8.62867 85.9065 9.1 85.9065 9.716V14H83.9465V3.64H85.9065V7.21C86.1585 6.874 86.4945 6.61267 86.9145 6.426C87.3345 6.23 87.8011 6.132 88.3145 6.132ZM99.9823 14.126C99.2356 14.126 98.5636 13.9627 97.9663 13.636C97.3689 13.3 96.8976 12.8287 96.5523 12.222C96.2163 11.6153 96.0483 10.9153 96.0483 10.122C96.0483 9.32867 96.2209 8.62867 96.5663 8.022C96.9209 7.41533 97.4016 6.94867 98.0083 6.622C98.6149 6.286 99.2916 6.118 100.038 6.118C100.785 6.118 101.462 6.286 102.068 6.622C102.675 6.94867 103.151 7.41533 103.496 8.022C103.851 8.62867 104.028 9.32867 104.028 10.122C104.028 10.9153 103.846 11.6153 103.482 12.222C103.128 12.8287 102.642 13.3 102.026 13.636C101.42 13.9627 100.738 14.126 99.9823 14.126ZM99.9823 12.418C100.337 12.418 100.668 12.334 100.976 12.166C101.294 11.9887 101.546 11.7273 101.732 11.382C101.919 11.0367 102.012 10.6167 102.012 10.122C102.012 9.38467 101.816 8.82 101.424 8.428C101.042 8.02667 100.57 7.826 100.01 7.826C99.4503 7.826 98.9789 8.02667 98.5963 8.428C98.2229 8.82 98.0363 9.38467 98.0363 10.122C98.0363 10.8593 98.2183 11.4287 98.5823 11.83C98.9556 12.222 99.4223 12.418 99.9823 12.418ZM109.022 7.854H107.664V14H105.676V7.854H104.794V6.244H105.676V5.852C105.676 4.9 105.947 4.2 106.488 3.752C107.029 3.304 107.846 3.094 108.938 3.122V4.774C108.462 4.76467 108.131 4.844 107.944 5.012C107.757 5.18 107.664 5.48333 107.664 5.922V6.244H109.022V7.854ZM123.26 6.132C124.212 6.132 124.977 6.426 125.556 7.014C126.144 7.59267 126.438 8.40467 126.438 9.45V14H124.478V9.716C124.478 9.10933 124.324 8.64733 124.016 8.33C123.708 8.00333 123.288 7.84 122.756 7.84C122.224 7.84 121.799 8.00333 121.482 8.33C121.174 8.64733 121.02 9.10933 121.02 9.716V14H119.06V9.716C119.06 9.10933 118.906 8.64733 118.598 8.33C118.29 8.00333 117.87 7.84 117.338 7.84C116.797 7.84 116.367 8.00333 116.05 8.33C115.742 8.64733 115.588 9.10933 115.588 9.716V14H113.628V6.244H115.588V7.182C115.84 6.85533 116.162 6.59867 116.554 6.412C116.955 6.22533 117.394 6.132 117.87 6.132C118.477 6.132 119.018 6.26267 119.494 6.524C119.97 6.776 120.339 7.14 120.6 7.616C120.852 7.168 121.216 6.80867 121.692 6.538C122.177 6.26733 122.7 6.132 123.26 6.132ZM131.742 14.126C130.995 14.126 130.323 13.9627 129.726 13.636C129.129 13.3 128.657 12.8287 128.312 12.222C127.976 11.6153 127.808 10.9153 127.808 10.122C127.808 9.32867 127.981 8.62867 128.326 8.022C128.681 7.41533 129.161 6.94867 129.768 6.622C130.375 6.286 131.051 6.118 131.798 6.118C132.545 6.118 133.221 6.286 133.828 6.622C134.435 6.94867 134.911 7.41533 135.256 8.022C135.611 8.62867 135.788 9.32867 135.788 10.122C135.788 10.9153 135.606 11.6153 135.242 12.222C134.887 12.8287 134.402 13.3 133.786 13.636C133.179 13.9627 132.498 14.126 131.742 14.126ZM131.742 12.418C132.097 12.418 132.428 12.334 132.736 12.166C133.053 11.9887 133.305 11.7273 133.492 11.382C133.679 11.0367 133.772 10.6167 133.772 10.122C133.772 9.38467 133.576 8.82 133.184 8.428C132.801 8.02667 132.33 7.826 131.77 7.826C131.21 7.826 130.739 8.02667 130.356 8.428C129.983 8.82 129.796 9.38467 129.796 10.122C129.796 10.8593 129.978 11.4287 130.342 11.83C130.715 12.222 131.182 12.418 131.742 12.418ZM144.548 6.244V14H142.574V13.02C142.322 13.356 141.99 13.622 141.58 13.818C141.178 14.0047 140.74 14.098 140.264 14.098C139.657 14.098 139.12 13.972 138.654 13.72C138.187 13.4587 137.818 13.0807 137.548 12.586C137.286 12.082 137.156 11.4847 137.156 10.794V6.244H139.116V10.514C139.116 11.13 139.27 11.606 139.578 11.942C139.886 12.2687 140.306 12.432 140.838 12.432C141.379 12.432 141.804 12.2687 142.112 11.942C142.42 11.606 142.574 11.13 142.574 10.514V6.244H144.548ZM150.78 6.132C151.704 6.132 152.45 6.426 153.02 7.014C153.589 7.59267 153.874 8.40467 153.874 9.45V14H151.914V9.716C151.914 9.1 151.76 8.62867 151.452 8.302C151.144 7.966 150.724 7.798 150.192 7.798C149.65 7.798 149.221 7.966 148.904 8.302C148.596 8.62867 148.442 9.1 148.442 9.716V14H146.482V6.244H148.442V7.21C148.703 6.874 149.034 6.61267 149.436 6.426C149.846 6.23 150.294 6.132 150.78 6.132ZM158.019 7.854V11.606C158.019 11.8673 158.08 12.0587 158.201 12.18C158.332 12.292 158.547 12.348 158.845 12.348H159.755V14H158.523C156.871 14 156.045 13.1973 156.045 11.592V7.854H155.121V6.244H156.045V4.326H158.019V6.244H159.755V7.854H158.019ZM160.661 10.094C160.661 9.31 160.815 8.61467 161.123 8.008C161.441 7.40133 161.865 6.93467 162.397 6.608C162.939 6.28133 163.541 6.118 164.203 6.118C164.782 6.118 165.286 6.23467 165.715 6.468C166.154 6.70133 166.504 6.99533 166.765 7.35V6.244H168.739V14H166.765V12.866C166.513 13.23 166.163 13.5333 165.715 13.776C165.277 14.0093 164.768 14.126 164.189 14.126C163.536 14.126 162.939 13.958 162.397 13.622C161.865 13.286 161.441 12.8147 161.123 12.208C160.815 11.592 160.661 10.8873 160.661 10.094ZM166.765 10.122C166.765 9.646 166.672 9.24 166.485 8.904C166.299 8.55867 166.047 8.29733 165.729 8.12C165.412 7.93333 165.071 7.84 164.707 7.84C164.343 7.84 164.007 7.92867 163.699 8.106C163.391 8.28333 163.139 8.54467 162.943 8.89C162.757 9.226 162.663 9.62733 162.663 10.094C162.663 10.5607 162.757 10.9713 162.943 11.326C163.139 11.6713 163.391 11.9373 163.699 12.124C164.017 12.3107 164.353 12.404 164.707 12.404C165.071 12.404 165.412 12.3153 165.729 12.138C166.047 11.9513 166.299 11.69 166.485 11.354C166.672 11.0087 166.765 10.598 166.765 10.122ZM171.648 5.32C171.302 5.32 171.013 5.21267 170.78 4.998C170.556 4.774 170.444 4.49867 170.444 4.172C170.444 3.84533 170.556 3.57467 170.78 3.36C171.013 3.136 171.302 3.024 171.648 3.024C171.993 3.024 172.278 3.136 172.502 3.36C172.735 3.57467 172.852 3.84533 172.852 4.172C172.852 4.49867 172.735 4.774 172.502 4.998C172.278 5.21267 171.993 5.32 171.648 5.32ZM172.614 6.244V14H170.654V6.244H172.614ZM178.848 6.132C179.772 6.132 180.519 6.426 181.088 7.014C181.657 7.59267 181.942 8.40467 181.942 9.45V14H179.982V9.716C179.982 9.1 179.828 8.62867 179.52 8.302C179.212 7.966 178.792 7.798 178.26 7.798C177.719 7.798 177.289 7.966 176.972 8.302C176.664 8.62867 176.51 9.1 176.51 9.716V14H174.55V6.244H176.51V7.21C176.771 6.874 177.103 6.61267 177.504 6.426C177.915 6.23 178.363 6.132 178.848 6.132ZM91.677 24.244L89.409 32H87.295L85.881 26.582L84.467 32H82.339L80.057 24.244H82.045L83.417 30.152L84.901 24.244H86.973L88.429 30.138L89.801 24.244H91.677ZM93.7315 23.32C93.3862 23.32 93.0968 23.2127 92.8635 22.998C92.6395 22.774 92.5275 22.4987 92.5275 22.172C92.5275 21.8453 92.6395 21.5747 92.8635 21.36C93.0968 21.136 93.3862 21.024 93.7315 21.024C94.0768 21.024 94.3615 21.136 94.5855 21.36C94.8188 21.5747 94.9355 21.8453 94.9355 22.172C94.9355 22.4987 94.8188 22.774 94.5855 22.998C94.3615 23.2127 94.0768 23.32 93.7315 23.32ZM94.6975 24.244V32H92.7375V24.244H94.6975ZM100.932 24.132C101.856 24.132 102.603 24.426 103.172 25.014C103.741 25.5927 104.026 26.4047 104.026 27.45V32H102.066V27.716C102.066 27.1 101.912 26.6287 101.604 26.302C101.296 25.966 100.876 25.798 100.344 25.798C99.8026 25.798 99.3733 25.966 99.056 26.302C98.748 26.6287 98.594 27.1 98.594 27.716V32H96.634V24.244H98.594V25.21C98.8553 24.874 99.1866 24.6127 99.588 24.426C99.9986 24.23 100.447 24.132 100.932 24.132ZM105.386 28.094C105.386 27.31 105.54 26.6147 105.848 26.008C106.165 25.4013 106.594 24.9347 107.136 24.608C107.677 24.2813 108.279 24.118 108.942 24.118C109.446 24.118 109.926 24.23 110.384 24.454C110.841 24.6687 111.205 24.958 111.476 25.322V21.64H113.464V32H111.476V30.852C111.233 31.2347 110.892 31.5427 110.454 31.776C110.015 32.0093 109.506 32.126 108.928 32.126C108.274 32.126 107.677 31.958 107.136 31.622C106.594 31.286 106.165 30.8147 105.848 30.208C105.54 29.592 105.386 28.8873 105.386 28.094ZM111.49 28.122C111.49 27.646 111.396 27.24 111.21 26.904C111.023 26.5587 110.771 26.2973 110.454 26.12C110.136 25.9333 109.796 25.84 109.432 25.84C109.068 25.84 108.732 25.9287 108.424 26.106C108.116 26.2833 107.864 26.5447 107.668 26.89C107.481 27.226 107.388 27.6273 107.388 28.094C107.388 28.5607 107.481 28.9713 107.668 29.326C107.864 29.6713 108.116 29.9373 108.424 30.124C108.741 30.3107 109.077 30.404 109.432 30.404C109.796 30.404 110.136 30.3153 110.454 30.138C110.771 29.9513 111.023 29.69 111.21 29.354C111.396 29.0087 111.49 28.598 111.49 28.122ZM118.346 32.126C117.711 32.126 117.142 32.014 116.638 31.79C116.134 31.5567 115.733 31.244 115.434 30.852C115.145 30.46 114.986 30.026 114.958 29.55H116.932C116.969 29.8487 117.114 30.096 117.366 30.292C117.627 30.488 117.949 30.586 118.332 30.586C118.705 30.586 118.995 30.5113 119.2 30.362C119.415 30.2127 119.522 30.0213 119.522 29.788C119.522 29.536 119.391 29.3493 119.13 29.228C118.878 29.0973 118.472 28.9573 117.912 28.808C117.333 28.668 116.857 28.5233 116.484 28.374C116.12 28.2247 115.803 27.996 115.532 27.688C115.271 27.38 115.14 26.9647 115.14 26.442C115.14 26.0127 115.261 25.6207 115.504 25.266C115.756 24.9113 116.111 24.6313 116.568 24.426C117.035 24.2207 117.581 24.118 118.206 24.118C119.13 24.118 119.867 24.3513 120.418 24.818C120.969 25.2753 121.272 25.896 121.328 26.68H119.452C119.424 26.372 119.293 26.1293 119.06 25.952C118.836 25.7653 118.533 25.672 118.15 25.672C117.795 25.672 117.52 25.7373 117.324 25.868C117.137 25.9987 117.044 26.1807 117.044 26.414C117.044 26.6753 117.175 26.876 117.436 27.016C117.697 27.1467 118.103 27.282 118.654 27.422C119.214 27.562 119.676 27.7067 120.04 27.856C120.404 28.0053 120.717 28.2387 120.978 28.556C121.249 28.864 121.389 29.2747 121.398 29.788C121.398 30.236 121.272 30.6373 121.02 30.992C120.777 31.3467 120.423 31.6267 119.956 31.832C119.499 32.028 118.962 32.126 118.346 32.126Z" fill="#E4DFD3"/>
</svg>
