<svg width="300" height="397" viewBox="0 0 300 397" fill="none" xmlns="http://www.w3.org/2000/svg">
<path d="M56.5456 56L51.9536 50.912V56H50.4976V44.848H51.9536V50.016L56.5616 44.848H58.4016L53.3456 50.432L58.4496 56H56.5456ZM59.5318 51.584C59.5318 50.688 59.7131 49.904 60.0758 49.232C60.4384 48.5493 60.9344 48.0213 61.5638 47.648C62.2038 47.2747 62.9131 47.088 63.6918 47.088C64.4598 47.088 65.1264 47.2533 65.6918 47.584C66.2571 47.9147 66.6784 48.3307 66.9558 48.832V47.232H68.4278V56H66.9558V54.368C66.6678 54.88 66.2358 55.3067 65.6598 55.648C65.0944 55.9787 64.4331 56.144 63.6758 56.144C62.8971 56.144 62.1931 55.952 61.5638 55.568C60.9344 55.184 60.4384 54.6453 60.0758 53.952C59.7131 53.2587 59.5318 52.4693 59.5318 51.584ZM66.9558 51.6C66.9558 50.9387 66.8224 50.3627 66.5558 49.872C66.2891 49.3813 65.9264 49.008 65.4678 48.752C65.0198 48.4853 64.5238 48.352 63.9798 48.352C63.4358 48.352 62.9398 48.48 62.4918 48.736C62.0438 48.992 61.6864 49.3653 61.4198 49.856C61.1531 50.3467 61.0198 50.9227 61.0198 51.584C61.0198 52.256 61.1531 52.8427 61.4198 53.344C61.6864 53.8347 62.0438 54.2133 62.4918 54.48C62.9398 54.736 63.4358 54.864 63.9798 54.864C64.5238 54.864 65.0198 54.736 65.4678 54.48C65.9264 54.2133 66.2891 53.8347 66.5558 53.344C66.8224 52.8427 66.9558 52.2613 66.9558 51.6ZM74.7123 56.144C73.8909 56.144 73.1443 55.9573 72.4723 55.584C71.8109 55.2107 71.2883 54.6827 70.9043 54C70.5309 53.3067 70.3443 52.5067 70.3443 51.6C70.3443 50.704 70.5363 49.9147 70.9203 49.232C71.3149 48.5387 71.8483 48.0107 72.5203 47.648C73.1923 47.2747 73.9443 47.088 74.7763 47.088C75.6083 47.088 76.3603 47.2747 77.0323 47.648C77.7043 48.0107 78.2323 48.5333 78.6163 49.216C79.0109 49.8987 79.2083 50.6933 79.2083 51.6C79.2083 52.5067 79.0056 53.3067 78.6003 54C78.2056 54.6827 77.6669 55.2107 76.9843 55.584C76.3016 55.9573 75.5443 56.144 74.7123 56.144ZM74.7123 54.864C75.2349 54.864 75.7256 54.7413 76.1843 54.496C76.6429 54.2507 77.0109 53.8827 77.2883 53.392C77.5763 52.9013 77.7203 52.304 77.7203 51.6C77.7203 50.896 77.5816 50.2987 77.3043 49.808C77.0269 49.3173 76.6643 48.9547 76.2163 48.72C75.7683 48.4747 75.2829 48.352 74.7603 48.352C74.2269 48.352 73.7363 48.4747 73.2883 48.72C72.8509 48.9547 72.4989 49.3173 72.2323 49.808C71.9656 50.2987 71.8323 50.896 71.8323 51.6C71.8323 52.3147 71.9603 52.9173 72.2163 53.408C72.4829 53.8987 72.8349 54.2667 73.2723 54.512C73.7096 54.7467 74.1896 54.864 74.7123 54.864ZM82.5786 44.16V56H81.1226V44.16H82.5786ZM85.8121 45.808C85.5348 45.808 85.3001 45.712 85.1081 45.52C84.9161 45.328 84.8201 45.0933 84.8201 44.816C84.8201 44.5387 84.9161 44.304 85.1081 44.112C85.3001 43.92 85.5348 43.824 85.8121 43.824C86.0788 43.824 86.3028 43.92 86.4841 44.112C86.6761 44.304 86.7721 44.5387 86.7721 44.816C86.7721 45.0933 86.6761 45.328 86.4841 45.52C86.3028 45.712 86.0788 45.808 85.8121 45.808ZM86.5161 47.232V56H85.0601V47.232H86.5161ZM93.2696 47.072C94.3363 47.072 95.2003 47.3973 95.8616 48.048C96.523 48.688 96.8536 49.616 96.8536 50.832V56H95.4136V51.04C95.4136 50.1653 95.195 49.4987 94.7576 49.04C94.3203 48.5707 93.723 48.336 92.9656 48.336C92.1976 48.336 91.5843 48.576 91.1256 49.056C90.6776 49.536 90.4536 50.2347 90.4536 51.152V56H88.9976V47.232H90.4536V48.48C90.7416 48.032 91.131 47.6853 91.6216 47.44C92.123 47.1947 92.6723 47.072 93.2696 47.072Z" fill="#333333"/>
<path d="M61.4243 132.112C60.6883 132.112 60.0269 131.984 59.4403 131.728C58.8643 131.461 58.4109 131.099 58.0803 130.64C57.7496 130.171 57.5789 129.632 57.5683 129.024H59.1203C59.1736 129.547 59.3869 129.989 59.7603 130.352C60.1443 130.704 60.6989 130.88 61.4243 130.88C62.1176 130.88 62.6616 130.709 63.0563 130.368C63.4616 130.016 63.6643 129.568 63.6643 129.024C63.6643 128.597 63.5469 128.251 63.3123 127.984C63.0776 127.717 62.7843 127.515 62.4323 127.376C62.0803 127.237 61.6056 127.088 61.0083 126.928C60.2723 126.736 59.6803 126.544 59.2323 126.352C58.7949 126.16 58.4163 125.861 58.0963 125.456C57.7869 125.04 57.6323 124.485 57.6323 123.792C57.6323 123.184 57.7869 122.645 58.0963 122.176C58.4056 121.707 58.8376 121.344 59.3923 121.088C59.9576 120.832 60.6029 120.704 61.3283 120.704C62.3736 120.704 63.2269 120.965 63.8883 121.488C64.5603 122.011 64.9389 122.704 65.0243 123.568H63.4243C63.3709 123.141 63.1469 122.768 62.7523 122.448C62.3576 122.117 61.8349 121.952 61.1843 121.952C60.5763 121.952 60.0803 122.112 59.6963 122.432C59.3123 122.741 59.1203 123.179 59.1203 123.744C59.1203 124.149 59.2323 124.48 59.4563 124.736C59.6909 124.992 59.9736 125.189 60.3043 125.328C60.6456 125.456 61.1203 125.605 61.7283 125.776C62.4643 125.979 63.0563 126.181 63.5043 126.384C63.9523 126.576 64.3363 126.88 64.6562 127.296C64.9763 127.701 65.1363 128.256 65.1363 128.96C65.1363 129.504 64.9923 130.016 64.7043 130.496C64.4163 130.976 63.9896 131.365 63.4243 131.664C62.8589 131.963 62.1923 132.112 61.4243 132.112ZM68.0309 121.808C67.7535 121.808 67.5189 121.712 67.3269 121.52C67.1349 121.328 67.0389 121.093 67.0389 120.816C67.0389 120.539 67.1349 120.304 67.3269 120.112C67.5189 119.92 67.7535 119.824 68.0309 119.824C68.2975 119.824 68.5215 119.92 68.7029 120.112C68.8949 120.304 68.9909 120.539 68.9909 120.816C68.9909 121.093 68.8949 121.328 68.7029 121.52C68.5215 121.712 68.2975 121.808 68.0309 121.808ZM68.7349 123.232V132H67.2789V123.232H68.7349ZM74.4804 130.656L77.2004 123.232H78.7524L75.3124 132H73.6164L70.1764 123.232H71.7444L74.4804 130.656ZM79.6411 127.584C79.6411 126.688 79.8225 125.904 80.1851 125.232C80.5478 124.549 81.0438 124.021 81.6731 123.648C82.3131 123.275 83.0225 123.088 83.8011 123.088C84.5691 123.088 85.2358 123.253 85.8011 123.584C86.3665 123.915 86.7878 124.331 87.0651 124.832V123.232H88.5371V132H87.0651V130.368C86.7771 130.88 86.3451 131.307 85.7691 131.648C85.2038 131.979 84.5425 132.144 83.7851 132.144C83.0065 132.144 82.3025 131.952 81.6731 131.568C81.0438 131.184 80.5478 130.645 80.1851 129.952C79.8225 129.259 79.6411 128.469 79.6411 127.584ZM87.0651 127.6C87.0651 126.939 86.9318 126.363 86.6651 125.872C86.3985 125.381 86.0358 125.008 85.5771 124.752C85.1291 124.485 84.6331 124.352 84.0891 124.352C83.5451 124.352 83.0491 124.48 82.6011 124.736C82.1531 124.992 81.7958 125.365 81.5291 125.856C81.2625 126.347 81.1291 126.923 81.1291 127.584C81.1291 128.256 81.2625 128.843 81.5291 129.344C81.7958 129.835 82.1531 130.213 82.6011 130.48C83.0491 130.736 83.5451 130.864 84.0891 130.864C84.6331 130.864 85.1291 130.736 85.5771 130.48C86.0358 130.213 86.3985 129.835 86.6651 129.344C86.9318 128.843 87.0651 128.261 87.0651 127.6ZM95.8936 132L92.4536 128.128V132H90.9976V120.16H92.4536V127.12L95.8296 123.232H97.8616L93.7336 127.6L97.8776 132H95.8936Z" fill="#333333"/>
<path d="M31.2036 199.416C31.2036 198.328 31.449 197.352 31.9396 196.488C32.4303 195.613 33.097 194.931 33.9396 194.44C34.793 193.949 35.737 193.704 36.7716 193.704C37.9876 193.704 39.049 193.997 39.9556 194.584C40.8623 195.171 41.5236 196.003 41.9396 197.08H40.1956C39.8863 196.408 39.4383 195.891 38.8516 195.528C38.2756 195.165 37.5823 194.984 36.7716 194.984C35.993 194.984 35.2943 195.165 34.6756 195.528C34.057 195.891 33.5716 196.408 33.2196 197.08C32.8676 197.741 32.6916 198.52 32.6916 199.416C32.6916 200.301 32.8676 201.08 33.2196 201.752C33.5716 202.413 34.057 202.925 34.6756 203.288C35.2943 203.651 35.993 203.832 36.7716 203.832C37.5823 203.832 38.2756 203.656 38.8516 203.304C39.4383 202.941 39.8863 202.424 40.1956 201.752H41.9396C41.5236 202.819 40.8623 203.645 39.9556 204.232C39.049 204.808 37.9876 205.096 36.7716 205.096C35.737 205.096 34.793 204.856 33.9396 204.376C33.097 203.885 32.4303 203.208 31.9396 202.344C31.449 201.48 31.2036 200.504 31.2036 199.416ZM43.563 200.584C43.563 199.688 43.7443 198.904 44.107 198.232C44.4697 197.549 44.9657 197.021 45.595 196.648C46.235 196.275 46.9443 196.088 47.723 196.088C48.491 196.088 49.1577 196.253 49.723 196.584C50.2883 196.915 50.7097 197.331 50.987 197.832V196.232H52.459V205H50.987V203.368C50.699 203.88 50.267 204.307 49.691 204.648C49.1257 204.979 48.4643 205.144 47.707 205.144C46.9283 205.144 46.2243 204.952 45.595 204.568C44.9657 204.184 44.4697 203.645 44.107 202.952C43.7443 202.259 43.563 201.469 43.563 200.584ZM50.987 200.6C50.987 199.939 50.8537 199.363 50.587 198.872C50.3203 198.381 49.9577 198.008 49.499 197.752C49.051 197.485 48.555 197.352 48.011 197.352C47.467 197.352 46.971 197.48 46.523 197.736C46.075 197.992 45.7177 198.365 45.451 198.856C45.1843 199.347 45.051 199.923 45.051 200.584C45.051 201.256 45.1843 201.843 45.451 202.344C45.7177 202.835 46.075 203.213 46.523 203.48C46.971 203.736 47.467 203.864 48.011 203.864C48.555 203.864 49.051 203.736 49.499 203.48C49.9577 203.213 50.3203 202.835 50.587 202.344C50.8537 201.843 50.987 201.261 50.987 200.6ZM56.3755 193.16V205H54.9195V193.16H56.3755ZM58.313 200.6C58.313 199.693 58.4943 198.904 58.857 198.232C59.2197 197.549 59.721 197.021 60.361 196.648C61.0117 196.275 61.753 196.088 62.585 196.088C63.6623 196.088 64.5477 196.349 65.241 196.872C65.945 197.395 66.409 198.12 66.633 199.048H65.065C64.9157 198.515 64.6223 198.093 64.185 197.784C63.7583 197.475 63.225 197.32 62.585 197.32C61.753 197.32 61.081 197.608 60.569 198.184C60.057 198.749 59.801 199.555 59.801 200.6C59.801 201.656 60.057 202.472 60.569 203.048C61.081 203.624 61.753 203.912 62.585 203.912C63.225 203.912 63.7583 203.763 64.185 203.464C64.6117 203.165 64.905 202.739 65.065 202.184H66.633C66.3983 203.08 65.929 203.8 65.225 204.344C64.521 204.877 63.641 205.144 62.585 205.144C61.753 205.144 61.0117 204.957 60.361 204.584C59.721 204.211 59.2197 203.683 58.857 203C58.4943 202.317 58.313 201.517 58.313 200.6ZM69.3278 194.808C69.0504 194.808 68.8158 194.712 68.6238 194.52C68.4318 194.328 68.3358 194.093 68.3358 193.816C68.3358 193.539 68.4318 193.304 68.6238 193.112C68.8158 192.92 69.0504 192.824 69.3278 192.824C69.5944 192.824 69.8184 192.92 69.9998 193.112C70.1918 193.304 70.2878 193.539 70.2878 193.816C70.2878 194.093 70.1918 194.328 69.9998 194.52C69.8184 194.712 69.5944 194.808 69.3278 194.808ZM70.0318 196.232V205H68.5758V196.232H70.0318ZM80.2893 196.232V205H78.8333V203.704C78.5559 204.152 78.1666 204.504 77.6653 204.76C77.1746 205.005 76.6306 205.128 76.0333 205.128C75.3506 205.128 74.7373 204.989 74.1933 204.712C73.6493 204.424 73.2173 203.997 72.8973 203.432C72.5879 202.867 72.4333 202.179 72.4333 201.368V196.232H73.8733V201.176C73.8733 202.04 74.0919 202.707 74.5293 203.176C74.9666 203.635 75.5639 203.864 76.3213 203.864C77.0999 203.864 77.7133 203.624 78.1613 203.144C78.6093 202.664 78.8333 201.965 78.8333 201.048V196.232H80.2893ZM93.2916 196.072C93.9743 196.072 94.5823 196.216 95.1156 196.504C95.649 196.781 96.0703 197.203 96.3796 197.768C96.689 198.333 96.8436 199.021 96.8436 199.832V205H95.4036V200.04C95.4036 199.165 95.185 198.499 94.7476 198.04C94.321 197.571 93.7396 197.336 93.0036 197.336C92.2463 197.336 91.6436 197.581 91.1956 198.072C90.7476 198.552 90.5236 199.251 90.5236 200.168V205H89.0836V200.04C89.0836 199.165 88.865 198.499 88.4276 198.04C88.001 197.571 87.4196 197.336 86.6836 197.336C85.9263 197.336 85.3236 197.581 84.8756 198.072C84.4276 198.552 84.2036 199.251 84.2036 200.168V205H82.7476V196.232H84.2036V197.496C84.4916 197.037 84.8756 196.685 85.3556 196.44C85.8463 196.195 86.385 196.072 86.9716 196.072C87.7076 196.072 88.3583 196.237 88.9236 196.568C89.489 196.899 89.9103 197.384 90.1876 198.024C90.433 197.405 90.8383 196.925 91.4036 196.584C91.969 196.243 92.5983 196.072 93.2916 196.072Z" fill="#333333"/>
<path d="M3.813 279.816H7.717V281H2.357V269.848H3.813V279.816ZM10.0153 270.808C9.73792 270.808 9.50325 270.712 9.31125 270.52C9.11925 270.328 9.02325 270.093 9.02325 269.816C9.02325 269.539 9.11925 269.304 9.31125 269.112C9.50325 268.92 9.73792 268.824 10.0153 268.824C10.2819 268.824 10.5059 268.92 10.6873 269.112C10.8793 269.304 10.9753 269.539 10.9753 269.816C10.9753 270.093 10.8793 270.328 10.6873 270.52C10.5059 270.712 10.2819 270.808 10.0153 270.808ZM10.7193 272.232V281H9.26325V272.232H10.7193ZM12.6568 276.6C12.6568 275.693 12.8381 274.904 13.2008 274.232C13.5634 273.549 14.0648 273.021 14.7048 272.648C15.3554 272.275 16.0968 272.088 16.9288 272.088C18.0061 272.088 18.8914 272.349 19.5848 272.872C20.2888 273.395 20.7528 274.12 20.9768 275.048H19.4088C19.2594 274.515 18.9661 274.093 18.5288 273.784C18.1021 273.475 17.5688 273.32 16.9288 273.32C16.0968 273.32 15.4248 273.608 14.9128 274.184C14.4008 274.749 14.1448 275.555 14.1448 276.6C14.1448 277.656 14.4008 278.472 14.9128 279.048C15.4248 279.624 16.0968 279.912 16.9288 279.912C17.5688 279.912 18.1021 279.763 18.5288 279.464C18.9554 279.165 19.2488 278.739 19.4088 278.184H20.9768C20.7421 279.08 20.2728 279.8 19.5688 280.344C18.8648 280.877 17.9848 281.144 16.9288 281.144C16.0968 281.144 15.3554 280.957 14.7048 280.584C14.0648 280.211 13.5634 279.683 13.2008 279C12.8381 278.317 12.6568 277.517 12.6568 276.6ZM26.7435 281.144C25.9222 281.144 25.1755 280.957 24.5035 280.584C23.8422 280.211 23.3195 279.683 22.9355 279C22.5622 278.307 22.3755 277.507 22.3755 276.6C22.3755 275.704 22.5675 274.915 22.9515 274.232C23.3462 273.539 23.8795 273.011 24.5515 272.648C25.2235 272.275 25.9755 272.088 26.8075 272.088C27.6395 272.088 28.3915 272.275 29.0635 272.648C29.7355 273.011 30.2635 273.533 30.6475 274.216C31.0422 274.899 31.2395 275.693 31.2395 276.6C31.2395 277.507 31.0368 278.307 30.6315 279C30.2368 279.683 29.6982 280.211 29.0155 280.584C28.3328 280.957 27.5755 281.144 26.7435 281.144ZM26.7435 279.864C27.2662 279.864 27.7568 279.741 28.2155 279.496C28.6742 279.251 29.0422 278.883 29.3195 278.392C29.6075 277.901 29.7515 277.304 29.7515 276.6C29.7515 275.896 29.6128 275.299 29.3355 274.808C29.0582 274.317 28.6955 273.955 28.2475 273.72C27.7995 273.475 27.3142 273.352 26.7915 273.352C26.2582 273.352 25.7675 273.475 25.3195 273.72C24.8822 273.955 24.5302 274.317 24.2635 274.808C23.9968 275.299 23.8635 275.896 23.8635 276.6C23.8635 277.315 23.9915 277.917 24.2475 278.408C24.5142 278.899 24.8662 279.267 25.3035 279.512C25.7408 279.747 26.2208 279.864 26.7435 279.864ZM34.6099 273.656C34.8659 273.155 35.2285 272.765 35.6979 272.488C36.1779 272.211 36.7592 272.072 37.4419 272.072V273.576H37.0579C35.4259 273.576 34.6099 274.461 34.6099 276.232V281H33.1539V272.232H34.6099V273.656ZM39.8746 270.808C39.5973 270.808 39.3626 270.712 39.1706 270.52C38.9786 270.328 38.8826 270.093 38.8826 269.816C38.8826 269.539 38.9786 269.304 39.1706 269.112C39.3626 268.92 39.5973 268.824 39.8746 268.824C40.1413 268.824 40.3653 268.92 40.5466 269.112C40.7386 269.304 40.8346 269.539 40.8346 269.816C40.8346 270.093 40.7386 270.328 40.5466 270.52C40.3653 270.712 40.1413 270.808 39.8746 270.808ZM40.5786 272.232V281H39.1226V272.232H40.5786ZM42.5161 276.6C42.5161 275.693 42.6975 274.904 43.0601 274.232C43.4228 273.549 43.9241 273.021 44.5641 272.648C45.2148 272.275 45.9561 272.088 46.7881 272.088C47.8655 272.088 48.7508 272.349 49.4441 272.872C50.1481 273.395 50.6121 274.12 50.8361 275.048H49.2681C49.1188 274.515 48.8255 274.093 48.3881 273.784C47.9615 273.475 47.4281 273.32 46.7881 273.32C45.9561 273.32 45.2841 273.608 44.7721 274.184C44.2601 274.749 44.0041 275.555 44.0041 276.6C44.0041 277.656 44.2601 278.472 44.7721 279.048C45.2841 279.624 45.9561 279.912 46.7881 279.912C47.4281 279.912 47.9615 279.763 48.3881 279.464C48.8148 279.165 49.1081 278.739 49.2681 278.184H50.8361C50.6015 279.08 50.1321 279.8 49.4281 280.344C48.7241 280.877 47.8441 281.144 46.7881 281.144C45.9561 281.144 45.2148 280.957 44.5641 280.584C43.9241 280.211 43.4228 279.683 43.0601 279C42.6975 278.317 42.5161 277.517 42.5161 276.6ZM60.7789 276.28C60.7789 276.557 60.7629 276.851 60.7309 277.16H53.7229C53.7762 278.024 54.0695 278.701 54.6029 279.192C55.1469 279.672 55.8029 279.912 56.5709 279.912C57.2002 279.912 57.7229 279.768 58.1389 279.48C58.5655 279.181 58.8642 278.787 59.0349 278.296H60.6029C60.3682 279.139 59.8989 279.827 59.1949 280.36C58.4909 280.883 57.6162 281.144 56.5709 281.144C55.7389 281.144 54.9922 280.957 54.3309 280.584C53.6802 280.211 53.1682 279.683 52.7949 279C52.4215 278.307 52.2349 277.507 52.2349 276.6C52.2349 275.693 52.4162 274.899 52.7789 274.216C53.1415 273.533 53.6482 273.011 54.2989 272.648C54.9602 272.275 55.7175 272.088 56.5709 272.088C57.4029 272.088 58.1389 272.269 58.7789 272.632C59.4189 272.995 59.9095 273.496 60.2509 274.136C60.6029 274.765 60.7789 275.48 60.7789 276.28ZM59.2749 275.976C59.2749 275.421 59.1522 274.947 58.9069 274.552C58.6615 274.147 58.3255 273.843 57.8989 273.64C57.4829 273.427 57.0189 273.32 56.5069 273.32C55.7709 273.32 55.1415 273.555 54.6189 274.024C54.1069 274.493 53.8135 275.144 53.7389 275.976H59.2749ZM68.4224 273.656C68.6784 273.155 69.041 272.765 69.5104 272.488C69.9904 272.211 70.5717 272.072 71.2544 272.072V273.576H70.8704C69.2384 273.576 68.4224 274.461 68.4224 276.232V281H66.9664V272.232H68.4224V273.656ZM76.7591 281.144C75.9378 281.144 75.1911 280.957 74.5191 280.584C73.8578 280.211 73.3351 279.683 72.9511 279C72.5778 278.307 72.3911 277.507 72.3911 276.6C72.3911 275.704 72.5831 274.915 72.9671 274.232C73.3618 273.539 73.8951 273.011 74.5671 272.648C75.2391 272.275 75.9911 272.088 76.8231 272.088C77.6551 272.088 78.4071 272.275 79.0791 272.648C79.7511 273.011 80.2791 273.533 80.6631 274.216C81.0578 274.899 81.2551 275.693 81.2551 276.6C81.2551 277.507 81.0525 278.307 80.6471 279C80.2525 279.683 79.7138 280.211 79.0311 280.584C78.3485 280.957 77.5911 281.144 76.7591 281.144ZM76.7591 279.864C77.2818 279.864 77.7725 279.741 78.2311 279.496C78.6898 279.251 79.0578 278.883 79.3351 278.392C79.6231 277.901 79.7671 277.304 79.7671 276.6C79.7671 275.896 79.6285 275.299 79.3511 274.808C79.0738 274.317 78.7111 273.955 78.2631 273.72C77.8151 273.475 77.3298 273.352 76.8071 273.352C76.2738 273.352 75.7831 273.475 75.3351 273.72C74.8978 273.955 74.5458 274.317 74.2791 274.808C74.0125 275.299 73.8791 275.896 73.8791 276.6C73.8791 277.315 74.0071 277.917 74.2631 278.408C74.5298 278.899 74.8818 279.267 75.3191 279.512C75.7565 279.747 76.2365 279.864 76.7591 279.864ZM86.9935 281.144C86.1722 281.144 85.4255 280.957 84.7535 280.584C84.0922 280.211 83.5695 279.683 83.1855 279C82.8122 278.307 82.6255 277.507 82.6255 276.6C82.6255 275.704 82.8175 274.915 83.2015 274.232C83.5962 273.539 84.1295 273.011 84.8015 272.648C85.4735 272.275 86.2255 272.088 87.0575 272.088C87.8895 272.088 88.6415 272.275 89.3135 272.648C89.9855 273.011 90.5135 273.533 90.8975 274.216C91.2922 274.899 91.4895 275.693 91.4895 276.6C91.4895 277.507 91.2868 278.307 90.8815 279C90.4868 279.683 89.9482 280.211 89.2655 280.584C88.5828 280.957 87.8255 281.144 86.9935 281.144ZM86.9935 279.864C87.5162 279.864 88.0068 279.741 88.4655 279.496C88.9242 279.251 89.2922 278.883 89.5695 278.392C89.8575 277.901 90.0015 277.304 90.0015 276.6C90.0015 275.896 89.8628 275.299 89.5855 274.808C89.3082 274.317 88.9455 273.955 88.4975 273.72C88.0495 273.475 87.5642 273.352 87.0415 273.352C86.5082 273.352 86.0175 273.475 85.5695 273.72C85.1322 273.955 84.7802 274.317 84.5135 274.808C84.2468 275.299 84.1135 275.896 84.1135 276.6C84.1135 277.315 84.2415 277.917 84.4975 278.408C84.7642 278.899 85.1162 279.267 85.5535 279.512C85.9908 279.747 86.4708 279.864 86.9935 279.864ZM95.1799 273.432V278.6C95.1799 279.027 95.2705 279.331 95.4519 279.512C95.6332 279.683 95.9479 279.768 96.3959 279.768H97.4679V281H96.1559C95.3452 281 94.7372 280.813 94.3319 280.44C93.9265 280.067 93.7239 279.453 93.7239 278.6V273.432H92.5879V272.232H93.7239V270.024H95.1799V272.232H97.4679V273.432H95.1799Z" fill="#333333"/>
<path d="M35.2054 342.848V344.032H32.1654V354H30.7094V344.032H27.6534V342.848H35.2054ZM44.7736 345.232V354H43.3176V352.704C43.0403 353.152 42.651 353.504 42.1496 353.76C41.659 354.005 41.115 354.128 40.5176 354.128C39.835 354.128 39.2216 353.989 38.6776 353.712C38.1336 353.424 37.7016 352.997 37.3816 352.432C37.0723 351.867 36.9176 351.179 36.9176 350.368V345.232H38.3576V350.176C38.3576 351.04 38.5763 351.707 39.0136 352.176C39.451 352.635 40.0483 352.864 40.8056 352.864C41.5843 352.864 42.1976 352.624 42.6456 352.144C43.0936 351.664 43.3176 350.965 43.3176 350.048V345.232H44.7736ZM48.688 346.656C48.944 346.155 49.3067 345.765 49.776 345.488C50.256 345.211 50.8373 345.072 51.52 345.072V346.576H51.136C49.504 346.576 48.688 347.461 48.688 349.232V354H47.232V345.232H48.688V346.656ZM63.7448 345.072C64.4274 345.072 65.0354 345.216 65.5688 345.504C66.1021 345.781 66.5234 346.203 66.8328 346.768C67.1421 347.333 67.2968 348.021 67.2968 348.832V354H65.8568V349.04C65.8568 348.165 65.6381 347.499 65.2008 347.04C64.7741 346.571 64.1928 346.336 63.4568 346.336C62.6994 346.336 62.0968 346.581 61.6488 347.072C61.2008 347.552 60.9768 348.251 60.9768 349.168V354H59.5368V349.04C59.5368 348.165 59.3181 347.499 58.8808 347.04C58.4541 346.571 57.8728 346.336 57.1368 346.336C56.3794 346.336 55.7768 346.581 55.3288 347.072C54.8808 347.552 54.6568 348.251 54.6568 349.168V354H53.2008V345.232H54.6568V346.496C54.9448 346.037 55.3288 345.685 55.8088 345.44C56.2994 345.195 56.8381 345.072 57.4248 345.072C58.1608 345.072 58.8114 345.237 59.3768 345.568C59.9421 345.899 60.3634 346.384 60.6408 347.024C60.8861 346.405 61.2914 345.925 61.8568 345.584C62.4221 345.243 63.0514 345.072 63.7448 345.072ZM77.6851 349.28C77.6851 349.557 77.6691 349.851 77.6371 350.16H70.6291C70.6825 351.024 70.9758 351.701 71.5091 352.192C72.0531 352.672 72.7091 352.912 73.4771 352.912C74.1065 352.912 74.6291 352.768 75.0451 352.48C75.4718 352.181 75.7705 351.787 75.9411 351.296H77.5091C77.2745 352.139 76.8051 352.827 76.1011 353.36C75.3971 353.883 74.5225 354.144 73.4771 354.144C72.6451 354.144 71.8985 353.957 71.2371 353.584C70.5865 353.211 70.0745 352.683 69.7011 352C69.3278 351.307 69.1411 350.507 69.1411 349.6C69.1411 348.693 69.3225 347.899 69.6851 347.216C70.0478 346.533 70.5545 346.011 71.2051 345.648C71.8665 345.275 72.6238 345.088 73.4771 345.088C74.3091 345.088 75.0451 345.269 75.6851 345.632C76.3251 345.995 76.8158 346.496 77.1571 347.136C77.5091 347.765 77.6851 348.48 77.6851 349.28ZM76.1811 348.976C76.1811 348.421 76.0585 347.947 75.8131 347.552C75.5678 347.147 75.2318 346.843 74.8051 346.64C74.3891 346.427 73.9251 346.32 73.4131 346.32C72.6771 346.32 72.0478 346.555 71.5251 347.024C71.0131 347.493 70.7198 348.144 70.6451 348.976H76.1811ZM81.063 346.656C81.319 346.155 81.6817 345.765 82.151 345.488C82.631 345.211 83.2123 345.072 83.895 345.072V346.576H83.511C81.879 346.576 81.063 347.461 81.063 349.232V354H79.607V345.232H81.063V346.656ZM86.3278 343.808C86.0504 343.808 85.8158 343.712 85.6238 343.52C85.4318 343.328 85.3358 343.093 85.3358 342.816C85.3358 342.539 85.4318 342.304 85.6238 342.112C85.8158 341.92 86.0504 341.824 86.3278 341.824C86.5944 341.824 86.8184 341.92 86.9998 342.112C87.1918 342.304 87.2878 342.539 87.2878 342.816C87.2878 343.093 87.1918 343.328 86.9998 343.52C86.8184 343.712 86.5944 343.808 86.3278 343.808ZM87.0318 345.232V354H85.5758V345.232H87.0318ZM88.9693 349.6C88.9693 348.693 89.1506 347.904 89.5133 347.232C89.8759 346.549 90.3773 346.021 91.0173 345.648C91.6679 345.275 92.4093 345.088 93.2413 345.088C94.3186 345.088 95.2039 345.349 95.8973 345.872C96.6013 346.395 97.0653 347.12 97.2893 348.048H95.7213C95.5719 347.515 95.2786 347.093 94.8413 346.784C94.4146 346.475 93.8813 346.32 93.2413 346.32C92.4093 346.32 91.7373 346.608 91.2253 347.184C90.7133 347.749 90.4573 348.555 90.4573 349.6C90.4573 350.656 90.7133 351.472 91.2253 352.048C91.7373 352.624 92.4093 352.912 93.2413 352.912C93.8813 352.912 94.4146 352.763 94.8413 352.464C95.2679 352.165 95.5613 351.739 95.7213 351.184H97.2893C97.0546 352.08 96.5853 352.8 95.8813 353.344C95.1773 353.877 94.2973 354.144 93.2413 354.144C92.4093 354.144 91.6679 353.957 91.0173 353.584C90.3773 353.211 89.8759 352.683 89.5133 352C89.1506 351.317 88.9693 350.517 88.9693 349.6Z" fill="#333333"/>
<g clip-path="url(#clip0_21779_249)">
<path fill-rule="evenodd" clip-rule="evenodd" d="M164.868 14.875C308.779 -4.23708 391.726 -5.66674 545.133 14.8751L546 14.9912V15.8663V82.2515V83.2515H545H536.927V113.697V114.697H535.927H520.735C520.665 115.069 520.575 115.562 520.477 116.153C520.244 117.56 519.965 119.519 519.778 121.726C519.402 126.182 519.423 131.482 520.853 135.309C522.376 139.39 526.228 143.748 529.817 147.152C531.594 148.837 533.272 150.257 534.507 151.256C535.124 151.755 535.629 152.148 535.979 152.415C536.153 152.549 536.289 152.651 536.381 152.72L536.421 152.75L536.484 152.797L536.51 152.815L536.516 152.82L536.517 152.82L536.513 152.826L536.517 152.821L536.927 153.12V153.628V179.082H545H546V180.082V339.307V340.307H545H536.927V376.243V377.055L536.132 377.222C410.233 403.576 329.765 403.617 175.506 377.229L174.674 377.087V376.243V340.307H165H164V339.307V180.082V179.082H165H174.674V153.628V153.045L175.182 152.758C176.051 152.266 176.943 151.783 177.843 151.297C180.642 149.784 183.513 148.232 186.004 146.226C189.243 143.619 191.716 140.329 192.294 135.539L192.295 135.529L192.297 135.518C193.225 129.01 193.36 124.558 192.382 114.697H175.674H174.674V113.697V83.2515H165H164V82.2515V15.8663V14.9903L164.868 14.875ZM176.674 340.419C323.407 356.01 402.271 356.026 534.927 340.432V375.43C410.002 401.51 329.87 401.556 176.674 375.399V340.419ZM194.392 114.697H518.701C518.642 115.019 518.575 115.398 518.504 115.827C518.265 117.272 517.977 119.286 517.785 121.558C517.537 124.497 517.442 127.94 517.851 131.165H194.824C195.226 126.57 195.123 122.128 194.392 114.697ZM194.62 133.165H518.178C518.382 134.159 518.645 135.115 518.979 136.009C520.675 140.552 524.829 145.178 528.441 148.603C530.265 150.333 531.985 151.788 533.249 152.811C533.882 153.322 534.401 153.727 534.763 154.004C534.822 154.049 534.877 154.09 534.927 154.128V179.707C395.559 186.462 316.512 185.947 176.674 179.626V154.214C177.314 153.858 177.98 153.498 178.662 153.13L178.666 153.128L178.667 153.127L178.675 153.123L178.678 153.121L178.678 153.121C181.509 151.591 184.61 149.916 187.259 147.784C190.773 144.955 193.618 141.235 194.278 135.79C194.407 134.883 194.521 134.014 194.62 133.165ZM519.916 112.697H534.927V83.2512H176.674V112.697L193.286 112.697L519.916 112.697ZM175.674 81.2515L175.674 81.2512H535.927L535.927 81.2515H544V16.7414C391.641 -3.61303 308.94 -2.20223 166 16.7424V81.2515H175.674ZM175.629 181.58L175.651 181.082H166V338.307H175.674H175.727L175.78 338.313C323.503 354.051 402.308 354.06 535.81 338.314L535.868 338.307H535.927H544V181.082H537.553L537.577 181.58C396.229 188.485 316.97 187.984 175.629 181.58Z" fill="#344F10"/>
<circle cx="151.5" cy="50.5017" r="2.5" transform="rotate(-180 151.5 50.5017)" fill="#333333"/>
<circle cx="151.5" cy="123.502" r="2.5" transform="rotate(-180 151.5 123.502)" fill="#333333"/>
<circle cx="151.5" cy="199.502" r="2.5" fill="#333333"/>
<rect x="150" y="51" width="32" height="1" transform="rotate(-180 150 51)" fill="#333333"/>
<rect x="150" y="124" width="32" height="1" transform="rotate(-180 150 124)" fill="#333333"/>
<rect x="150" y="200" width="32" height="1" transform="rotate(-180 150 200)" fill="#333333"/>
<circle cx="151.5" cy="199.502" r="2.5" fill="#333333"/>
<circle cx="151.5" cy="272.502" r="2.5" fill="#333333"/>
<rect x="150" y="273" width="32" height="1" transform="rotate(-180 150 273)" fill="#333333"/>
<circle cx="151.5" cy="272.502" r="2.5" fill="#333333"/>
<circle cx="151.5" cy="272.502" r="2.5" fill="#333333"/>
<circle cx="151.5" cy="272.502" r="2.5" fill="#333333"/>
<circle cx="151.5" cy="344.502" r="2.5" fill="#333333"/>
<rect x="150" y="345" width="32" height="1" transform="rotate(-180 150 345)" fill="#333333"/>
<circle cx="151.5" cy="344.502" r="2.5" fill="#333333"/>
<circle cx="151.5" cy="344.502" r="2.5" fill="#333333"/>
<circle cx="151.5" cy="344.502" r="2.5" fill="#333333"/>
</g>
<defs>
<clipPath id="clip0_21779_249">
<rect width="182" height="397" fill="white" transform="translate(118)"/>
</clipPath>
</defs>
</svg>
