<svg width="280" height="451" viewBox="0 0 280 451" fill="none" xmlns="http://www.w3.org/2000/svg">
<path d="M13.4258 95H12.1518L7.02778 87.23V95H5.75378V85.228H7.02778L12.1518 92.984V85.228H13.4258V95ZM20.7215 95.098C19.8162 95.098 18.9902 94.888 18.2435 94.468C17.4969 94.0387 16.9042 93.446 16.4655 92.69C16.0362 91.9247 15.8215 91.066 15.8215 90.114C15.8215 89.162 16.0362 88.308 16.4655 87.552C16.9042 86.7867 17.4969 86.194 18.2435 85.774C18.9902 85.3447 19.8162 85.13 20.7215 85.13C21.6362 85.13 22.4669 85.3447 23.2135 85.774C23.9602 86.194 24.5482 86.782 24.9775 87.538C25.4069 88.294 25.6215 89.1527 25.6215 90.114C25.6215 91.0753 25.4069 91.934 24.9775 92.69C24.5482 93.446 23.9602 94.0387 23.2135 94.468C22.4669 94.888 21.6362 95.098 20.7215 95.098ZM20.7215 93.992C21.4029 93.992 22.0142 93.8333 22.5555 93.516C23.1062 93.1987 23.5355 92.746 23.8435 92.158C24.1609 91.57 24.3195 90.8887 24.3195 90.114C24.3195 89.33 24.1609 88.6487 23.8435 88.07C23.5355 87.482 23.1109 87.0293 22.5695 86.712C22.0282 86.3947 21.4122 86.236 20.7215 86.236C20.0309 86.236 19.4149 86.3947 18.8735 86.712C18.3322 87.0293 17.9029 87.482 17.5855 88.07C17.2775 88.6487 17.1235 89.33 17.1235 90.114C17.1235 90.8887 17.2775 91.57 17.5855 92.158C17.9029 92.746 18.3322 93.1987 18.8735 93.516C19.4242 93.8333 20.0402 93.992 20.7215 93.992ZM35.5298 95.098C34.8858 95.098 34.3071 94.986 33.7938 94.762C33.2898 94.5287 32.8931 94.2113 32.6038 93.81C32.3145 93.3993 32.1651 92.928 32.1558 92.396H33.5138C33.5605 92.8533 33.7471 93.2407 34.0738 93.558C34.4098 93.866 34.8951 94.02 35.5298 94.02C36.1365 94.02 36.6125 93.8707 36.9578 93.572C37.3125 93.264 37.4898 92.872 37.4898 92.396C37.4898 92.0227 37.3871 91.7193 37.1818 91.486C36.9765 91.2527 36.7198 91.0753 36.4118 90.954C36.1038 90.8327 35.6885 90.702 35.1658 90.562C34.5218 90.394 34.0038 90.226 33.6118 90.058C33.2291 89.89 32.8978 89.6287 32.6178 89.274C32.3471 88.91 32.2118 88.4247 32.2118 87.818C32.2118 87.286 32.3471 86.8147 32.6178 86.404C32.8885 85.9933 33.2665 85.676 33.7518 85.452C34.2465 85.228 34.8111 85.116 35.4458 85.116C36.3605 85.116 37.1071 85.3447 37.6858 85.802C38.2738 86.2593 38.6051 86.866 38.6798 87.622H37.2798C37.2331 87.2487 37.0371 86.922 36.6918 86.642C36.3465 86.3527 35.8891 86.208 35.3198 86.208C34.7878 86.208 34.3538 86.348 34.0178 86.628C33.6818 86.8987 33.5138 87.2813 33.5138 87.776C33.5138 88.1307 33.6118 88.42 33.8078 88.644C34.0131 88.868 34.2605 89.0407 34.5498 89.162C34.8485 89.274 35.2638 89.4047 35.7958 89.554C36.4398 89.7313 36.9578 89.9087 37.3498 90.086C37.7418 90.254 38.0778 90.52 38.3578 90.884C38.6378 91.2387 38.7778 91.724 38.7778 92.34C38.7778 92.816 38.6518 93.264 38.3998 93.684C38.1478 94.104 37.7745 94.4447 37.2798 94.706C36.7851 94.9673 36.2018 95.098 35.5298 95.098ZM48.1846 85.242L45.0066 91.318V95H43.7326V91.318L40.5406 85.242H41.9546L44.3626 90.184L46.7706 85.242H48.1846ZM57.9004 95H56.6264L51.5024 87.23V95H50.2284V85.228H51.5024L56.6264 92.984V85.228H57.9004V95ZM66.7781 85.242V86.278H64.1181V95H62.8441V86.278H60.1701V85.242H66.7781ZM76.5644 85.242V95H75.2904V90.576H70.3204V95H69.0464V85.242H70.3204V89.526H75.2904V85.242H76.5644ZM80.7137 86.278V89.54H84.2697V90.59H80.7137V93.95H84.6897V95H79.4397V85.228H84.6897V86.278H80.7137ZM93.3235 85.242V86.278H90.6635V95H89.3895V86.278H86.7155V85.242H93.3235ZM96.8657 85.242V95H95.5917V85.242H96.8657ZM99.261 90.114C99.261 89.162 99.4756 88.308 99.905 87.552C100.334 86.7867 100.918 86.1893 101.655 85.76C102.402 85.3307 103.228 85.116 104.133 85.116C105.197 85.116 106.126 85.3727 106.919 85.886C107.712 86.3993 108.291 87.1273 108.655 88.07H107.129C106.858 87.482 106.466 87.0293 105.953 86.712C105.449 86.3947 104.842 86.236 104.133 86.236C103.452 86.236 102.84 86.3947 102.299 86.712C101.758 87.0293 101.333 87.482 101.025 88.07C100.717 88.6487 100.563 89.33 100.563 90.114C100.563 90.8887 100.717 91.57 101.025 92.158C101.333 92.7367 101.758 93.1847 102.299 93.502C102.84 93.8193 103.452 93.978 104.133 93.978C104.842 93.978 105.449 93.824 105.953 93.516C106.466 93.1987 106.858 92.746 107.129 92.158H108.655C108.291 93.0913 107.712 93.8147 106.919 94.328C106.126 94.832 105.197 95.084 104.133 95.084C103.228 95.084 102.402 94.874 101.655 94.454C100.918 94.0247 100.334 93.432 99.905 92.676C99.4756 91.92 99.261 91.066 99.261 90.114ZM114.345 95.098C113.701 95.098 113.123 94.986 112.609 94.762C112.105 94.5287 111.709 94.2113 111.419 93.81C111.13 93.3993 110.981 92.928 110.971 92.396H112.329C112.376 92.8533 112.563 93.2407 112.889 93.558C113.225 93.866 113.711 94.02 114.345 94.02C114.952 94.02 115.428 93.8707 115.773 93.572C116.128 93.264 116.305 92.872 116.305 92.396C116.305 92.0227 116.203 91.7193 115.997 91.486C115.792 91.2527 115.535 91.0753 115.227 90.954C114.919 90.8327 114.504 90.702 113.981 90.562C113.337 90.394 112.819 90.226 112.427 90.058C112.045 89.89 111.713 89.6287 111.433 89.274C111.163 88.91 111.027 88.4247 111.027 87.818C111.027 87.286 111.163 86.8147 111.433 86.404C111.704 85.9933 112.082 85.676 112.567 85.452C113.062 85.228 113.627 85.116 114.261 85.116C115.176 85.116 115.923 85.3447 116.501 85.802C117.089 86.2593 117.421 86.866 117.495 87.622H116.095C116.049 87.2487 115.853 86.922 115.507 86.642C115.162 86.3527 114.705 86.208 114.135 86.208C113.603 86.208 113.169 86.348 112.833 86.628C112.497 86.8987 112.329 87.2813 112.329 87.776C112.329 88.1307 112.427 88.42 112.623 88.644C112.829 88.868 113.076 89.0407 113.365 89.162C113.664 89.274 114.079 89.4047 114.611 89.554C115.255 89.7313 115.773 89.9087 116.165 90.086C116.557 90.254 116.893 90.52 117.173 90.884C117.453 91.2387 117.593 91.724 117.593 92.34C117.593 92.816 117.467 93.264 117.215 93.684C116.963 94.104 116.59 94.4447 116.095 94.706C115.601 94.9673 115.017 95.098 114.345 95.098ZM130.369 92.83H126.113L125.329 95H123.985L127.513 85.298H128.983L132.497 95H131.153L130.369 92.83ZM130.005 91.794L128.241 86.866L126.477 91.794H130.005ZM142.406 95H141.132L136.008 87.23V95H134.734V85.228H136.008L141.132 92.984V85.228H142.406V95ZM148.316 85.242C149.38 85.242 150.299 85.4427 151.074 85.844C151.858 86.236 152.455 86.8007 152.866 87.538C153.286 88.2753 153.496 89.1433 153.496 90.142C153.496 91.1407 153.286 92.0087 152.866 92.746C152.455 93.474 151.858 94.034 151.074 94.426C150.299 94.8087 149.38 95 148.316 95H145.278V85.242H148.316ZM148.316 93.95C149.576 93.95 150.537 93.6187 151.2 92.956C151.863 92.284 152.194 91.346 152.194 90.142C152.194 88.9287 151.858 87.9813 151.186 87.3C150.523 86.6187 149.567 86.278 148.316 86.278H146.552V93.95H148.316ZM170.207 85.312V95H168.933V87.776L165.713 95H164.817L161.583 87.762V95H160.309V85.312H161.681L165.265 93.32L168.849 85.312H170.207ZM174.341 85.242V95H173.067V85.242H174.341ZM176.737 90.114C176.737 89.162 176.951 88.308 177.381 87.552C177.81 86.7867 178.393 86.1893 179.131 85.76C179.877 85.3307 180.703 85.116 181.609 85.116C182.673 85.116 183.601 85.3727 184.395 85.886C185.188 86.3993 185.767 87.1273 186.131 88.07H184.605C184.334 87.482 183.942 87.0293 183.429 86.712C182.925 86.3947 182.318 86.236 181.609 86.236C180.927 86.236 180.316 86.3947 179.775 86.712C179.233 87.0293 178.809 87.482 178.501 88.07C178.193 88.6487 178.039 89.33 178.039 90.114C178.039 90.8887 178.193 91.57 178.501 92.158C178.809 92.7367 179.233 93.1847 179.775 93.502C180.316 93.8193 180.927 93.978 181.609 93.978C182.318 93.978 182.925 93.824 183.429 93.516C183.942 93.1987 184.334 92.746 184.605 92.158H186.131C185.767 93.0913 185.188 93.8147 184.395 94.328C183.601 94.832 182.673 95.084 181.609 95.084C180.703 95.084 179.877 94.874 179.131 94.454C178.393 94.0247 177.81 93.432 177.381 92.676C176.951 91.92 176.737 91.066 176.737 90.114ZM193.865 95L191.541 91.01H190.001V95H188.727V85.242H191.877C192.615 85.242 193.235 85.368 193.739 85.62C194.253 85.872 194.635 86.2127 194.887 86.642C195.139 87.0713 195.265 87.5613 195.265 88.112C195.265 88.784 195.069 89.3767 194.677 89.89C194.295 90.4033 193.716 90.744 192.941 90.912L195.391 95H193.865ZM190.001 89.988H191.877C192.568 89.988 193.086 89.82 193.431 89.484C193.777 89.1387 193.949 88.6813 193.949 88.112C193.949 87.5333 193.777 87.0853 193.431 86.768C193.095 86.4507 192.577 86.292 191.877 86.292H190.001V89.988ZM202.369 95.098C201.463 95.098 200.637 94.888 199.891 94.468C199.144 94.0387 198.551 93.446 198.113 92.69C197.683 91.9247 197.469 91.066 197.469 90.114C197.469 89.162 197.683 88.308 198.113 87.552C198.551 86.7867 199.144 86.194 199.891 85.774C200.637 85.3447 201.463 85.13 202.369 85.13C203.283 85.13 204.114 85.3447 204.861 85.774C205.607 86.194 206.195 86.782 206.625 87.538C207.054 88.294 207.269 89.1527 207.269 90.114C207.269 91.0753 207.054 91.934 206.625 92.69C206.195 93.446 205.607 94.0387 204.861 94.468C204.114 94.888 203.283 95.098 202.369 95.098ZM202.369 93.992C203.05 93.992 203.661 93.8333 204.203 93.516C204.753 93.1987 205.183 92.746 205.491 92.158C205.808 91.57 205.967 90.8887 205.967 90.114C205.967 89.33 205.808 88.6487 205.491 88.07C205.183 87.482 204.758 87.0293 204.217 86.712C203.675 86.3947 203.059 86.236 202.369 86.236C201.678 86.236 201.062 86.3947 200.521 86.712C199.979 87.0293 199.55 87.482 199.233 88.07C198.925 88.6487 198.771 89.33 198.771 90.114C198.771 90.8887 198.925 91.57 199.233 92.158C199.55 92.746 199.979 93.1987 200.521 93.516C201.071 93.8333 201.687 93.992 202.369 93.992ZM216.175 88.098C216.175 88.91 215.895 89.5867 215.335 90.128C214.784 90.66 213.939 90.926 212.801 90.926H210.925V95H209.651V85.242H212.801C213.902 85.242 214.737 85.508 215.307 86.04C215.885 86.572 216.175 87.258 216.175 88.098ZM212.801 89.876C213.51 89.876 214.033 89.722 214.369 89.414C214.705 89.106 214.873 88.6673 214.873 88.098C214.873 86.894 214.182 86.292 212.801 86.292H210.925V89.876H212.801ZM219.732 93.964H223.148V95H218.458V85.242H219.732V93.964ZM230.969 92.83H226.713L225.929 95H224.585L228.113 85.298H229.583L233.097 95H231.753L230.969 92.83ZM230.605 91.794L228.841 86.866L227.077 91.794H230.605ZM238.429 95.098C237.785 95.098 237.206 94.986 236.693 94.762C236.189 94.5287 235.792 94.2113 235.503 93.81C235.213 93.3993 235.064 92.928 235.055 92.396H236.413C236.459 92.8533 236.646 93.2407 236.973 93.558C237.309 93.866 237.794 94.02 238.429 94.02C239.035 94.02 239.511 93.8707 239.857 93.572C240.211 93.264 240.389 92.872 240.389 92.396C240.389 92.0227 240.286 91.7193 240.081 91.486C239.875 91.2527 239.619 91.0753 239.311 90.954C239.003 90.8327 238.587 90.702 238.065 90.562C237.421 90.394 236.903 90.226 236.511 90.058C236.128 89.89 235.797 89.6287 235.517 89.274C235.246 88.91 235.111 88.4247 235.111 87.818C235.111 87.286 235.246 86.8147 235.517 86.404C235.787 85.9933 236.165 85.676 236.651 85.452C237.145 85.228 237.71 85.116 238.345 85.116C239.259 85.116 240.006 85.3447 240.585 85.802C241.173 86.2593 241.504 86.866 241.579 87.622H240.179C240.132 87.2487 239.936 86.922 239.591 86.642C239.245 86.3527 238.788 86.208 238.219 86.208C237.687 86.208 237.253 86.348 236.917 86.628C236.581 86.8987 236.413 87.2813 236.413 87.776C236.413 88.1307 236.511 88.42 236.707 88.644C236.912 88.868 237.159 89.0407 237.449 89.162C237.747 89.274 238.163 89.4047 238.695 89.554C239.339 89.7313 239.857 89.9087 240.249 90.086C240.641 90.254 240.977 90.52 241.257 90.884C241.537 91.2387 241.677 91.724 241.677 92.34C241.677 92.816 241.551 93.264 241.299 93.684C241.047 94.104 240.673 94.4447 240.179 94.706C239.684 94.9673 239.101 95.098 238.429 95.098ZM250.257 85.242V86.278H247.597V95H246.323V86.278H243.649V85.242H250.257ZM253.8 85.242V95H252.526V85.242H253.8ZM256.195 90.114C256.195 89.162 256.41 88.308 256.839 87.552C257.268 86.7867 257.852 86.1893 258.589 85.76C259.336 85.3307 260.162 85.116 261.067 85.116C262.131 85.116 263.06 85.3727 263.853 85.886C264.646 86.3993 265.225 87.1273 265.589 88.07H264.063C263.792 87.482 263.4 87.0293 262.887 86.712C262.383 86.3947 261.776 86.236 261.067 86.236C260.386 86.236 259.774 86.3947 259.233 86.712C258.692 87.0293 258.267 87.482 257.959 88.07C257.651 88.6487 257.497 89.33 257.497 90.114C257.497 90.8887 257.651 91.57 257.959 92.158C258.267 92.7367 258.692 93.1847 259.233 93.502C259.774 93.8193 260.386 93.978 261.067 93.978C261.776 93.978 262.383 93.824 262.887 93.516C263.4 93.1987 263.792 92.746 264.063 92.158H265.589C265.225 93.0913 264.646 93.8147 263.853 94.328C263.06 94.832 262.131 95.084 261.067 95.084C260.162 95.084 259.336 94.874 258.589 94.454C257.852 94.0247 257.268 93.432 256.839 92.676C256.41 91.92 256.195 91.066 256.195 90.114ZM271.279 95.098C270.635 95.098 270.057 94.986 269.543 94.762C269.039 94.5287 268.643 94.2113 268.353 93.81C268.064 93.3993 267.915 92.928 267.905 92.396H269.263C269.31 92.8533 269.497 93.2407 269.823 93.558C270.159 93.866 270.645 94.02 271.279 94.02C271.886 94.02 272.362 93.8707 272.707 93.572C273.062 93.264 273.239 92.872 273.239 92.396C273.239 92.0227 273.137 91.7193 272.931 91.486C272.726 91.2527 272.469 91.0753 272.161 90.954C271.853 90.8327 271.438 90.702 270.915 90.562C270.271 90.394 269.753 90.226 269.361 90.058C268.979 89.89 268.647 89.6287 268.367 89.274C268.097 88.91 267.961 88.4247 267.961 87.818C267.961 87.286 268.097 86.8147 268.367 86.404C268.638 85.9933 269.016 85.676 269.501 85.452C269.996 85.228 270.561 85.116 271.195 85.116C272.11 85.116 272.857 85.3447 273.435 85.802C274.023 86.2593 274.355 86.866 274.429 87.622H273.029C272.983 87.2487 272.787 86.922 272.441 86.642C272.096 86.3527 271.639 86.208 271.069 86.208C270.537 86.208 270.103 86.348 269.767 86.628C269.431 86.8987 269.263 87.2813 269.263 87.776C269.263 88.1307 269.361 88.42 269.557 88.644C269.763 88.868 270.01 89.0407 270.299 89.162C270.598 89.274 271.013 89.4047 271.545 89.554C272.189 89.7313 272.707 89.9087 273.099 90.086C273.491 90.254 273.827 90.52 274.107 90.884C274.387 91.2387 274.527 91.724 274.527 92.34C274.527 92.816 274.401 93.264 274.149 93.684C273.897 94.104 273.524 94.4447 273.029 94.706C272.535 94.9673 271.951 95.098 271.279 95.098Z" fill="black"/>
<path d="M118.243 54.3898H109V52.3559C109.511 16.5776 147.707 20.2084 152.4 36.5932C155.867 36.3626 156.992 35.7229 158.026 32.5254C160.562 31.2458 162.116 31.2033 163.652 32.5254C165.111 28.2279 165.838 26.2299 166.867 23.8813H169.68L166.867 34.5593C175.273 49.2548 169.131 53.7123 163.652 54.3898C159.875 54.5469 156.482 54.5378 152.4 54.3898M118.243 54.3898C116.965 56.9702 116.895 58.4207 118.243 61H139.541C145.122 59.7307 147.964 58.3476 152.4 54.3898M118.243 54.3898H152.4" stroke="#344F10"/>
<path d="M117.841 29.983L119.85 23.3729M119.85 23.3729L115.832 12.1864M119.85 23.3729L125.476 25.4067L129.093 19.8135M115.832 12.1864L117.841 5.06776M115.832 12.1864L121.859 9.64404M129.093 19.8135V9.64404M129.093 19.8135L134.317 24.8983M129.093 9.64404L133.111 2.52539M129.093 9.64404H135.121" stroke="#344F10"/>
<path d="M162.045 39.644L163.853 42.4406M165.662 45.2372L163.853 42.4406M163.853 42.4406L165.662 39.644M163.853 42.4406L161.241 45.2372M141.55 38.1185H133.915V43.7118H141.55V48.288H123.065V32.0168L142.354 33.0338L141.55 38.1185Z" stroke="#344F10"/>
<path d="M158.026 32.5255L159.366 24.3899H162.045V31.7015" stroke="#344F10"/>
<path d="M160.437 16.7627C161.327 15.0663 160.872 14.1826 158.83 12.6949C158.185 11.1102 158.731 10.2203 160.437 8.62712C161.064 7.1773 160.648 6.27111 158.83 4.55932C158.392 2.77976 158.735 2.01632 160.437 1" stroke="#344F10"/>
<path d="M168.073 17.2712C168.805 15.4856 168.593 14.4838 166.466 12.6949C166.022 11.5079 166.213 10.6748 168.073 8.62712C168.147 7.03999 167.979 6.15235 166.466 4.55932C166.404 2.7163 166.673 1.87971 168.073 1" stroke="#344F10"/>
<path d="M136.326 38.6272V43.7119" stroke="#344F10"/>
<path d="M119.046 39.644L115.832 46.2542" stroke="#344F10"/>
<path d="M147.078 39.6441C147.078 40.3265 146.659 40.6695 146.373 40.6695C146.086 40.6695 145.667 40.3265 145.667 39.6441C145.667 38.9617 146.086 38.6187 146.373 38.6187C146.659 38.6187 147.078 38.9617 147.078 39.6441Z" stroke="#344F10"/>
<path d="M37.367 260.098C37.367 260.91 37.087 261.587 36.527 262.128C35.9764 262.66 35.1317 262.926 33.993 262.926H32.117V267H30.843V257.242H33.993C35.0944 257.242 35.9297 257.508 36.499 258.04C37.0777 258.572 37.367 259.258 37.367 260.098ZM33.993 261.876C34.7024 261.876 35.225 261.722 35.561 261.414C35.897 261.106 36.065 260.667 36.065 260.098C36.065 258.894 35.3744 258.292 33.993 258.292H32.117V261.876H33.993ZM44.7885 267L42.4645 263.01H40.9245V267H39.6505V257.242H42.8005C43.5378 257.242 44.1585 257.368 44.6625 257.62C45.1758 257.872 45.5585 258.213 45.8105 258.642C46.0625 259.071 46.1885 259.561 46.1885 260.112C46.1885 260.784 45.9925 261.377 45.6005 261.89C45.2178 262.403 44.6391 262.744 43.8645 262.912L46.3145 267H44.7885ZM40.9245 261.988H42.8005C43.4911 261.988 44.0091 261.82 44.3545 261.484C44.6998 261.139 44.8725 260.681 44.8725 260.112C44.8725 259.533 44.6998 259.085 44.3545 258.768C44.0185 258.451 43.5005 258.292 42.8005 258.292H40.9245V261.988ZM53.292 267.098C52.3867 267.098 51.5607 266.888 50.814 266.468C50.0674 266.039 49.4747 265.446 49.036 264.69C48.6067 263.925 48.392 263.066 48.392 262.114C48.392 261.162 48.6067 260.308 49.036 259.552C49.4747 258.787 50.0674 258.194 50.814 257.774C51.5607 257.345 52.3867 257.13 53.292 257.13C54.2067 257.13 55.0374 257.345 55.784 257.774C56.5307 258.194 57.1187 258.782 57.548 259.538C57.9774 260.294 58.192 261.153 58.192 262.114C58.192 263.075 57.9774 263.934 57.548 264.69C57.1187 265.446 56.5307 266.039 55.784 266.468C55.0374 266.888 54.2067 267.098 53.292 267.098ZM53.292 265.992C53.9734 265.992 54.5847 265.833 55.126 265.516C55.6767 265.199 56.106 264.746 56.414 264.158C56.7314 263.57 56.89 262.889 56.89 262.114C56.89 261.33 56.7314 260.649 56.414 260.07C56.106 259.482 55.6814 259.029 55.14 258.712C54.5987 258.395 53.9827 258.236 53.292 258.236C52.6014 258.236 51.9854 258.395 51.444 258.712C50.9027 259.029 50.4734 259.482 50.156 260.07C49.848 260.649 49.694 261.33 49.694 262.114C49.694 262.889 49.848 263.57 50.156 264.158C50.4734 264.746 50.9027 265.199 51.444 265.516C51.9947 265.833 52.6107 265.992 53.292 265.992ZM63.6119 257.242C64.6759 257.242 65.5952 257.443 66.3699 257.844C67.1539 258.236 67.7512 258.801 68.1619 259.538C68.5819 260.275 68.7919 261.143 68.7919 262.142C68.7919 263.141 68.5819 264.009 68.1619 264.746C67.7512 265.474 67.1539 266.034 66.3699 266.426C65.5952 266.809 64.6759 267 63.6119 267H60.5739V257.242H63.6119ZM63.6119 265.95C64.8719 265.95 65.8332 265.619 66.4959 264.956C67.1586 264.284 67.4899 263.346 67.4899 262.142C67.4899 260.929 67.1539 259.981 66.4819 259.3C65.8192 258.619 64.8626 258.278 63.6119 258.278H61.8479V265.95H63.6119ZM72.4183 257.242V263.416C72.4183 264.284 72.6283 264.928 73.0483 265.348C73.4777 265.768 74.0703 265.978 74.8263 265.978C75.573 265.978 76.1563 265.768 76.5763 265.348C77.0057 264.928 77.2203 264.284 77.2203 263.416V257.242H78.4943V263.402C78.4943 264.214 78.331 264.9 78.0043 265.46C77.6777 266.011 77.2343 266.421 76.6743 266.692C76.1237 266.963 75.503 267.098 74.8123 267.098C74.1217 267.098 73.4963 266.963 72.9363 266.692C72.3857 266.421 71.947 266.011 71.6203 265.46C71.303 264.9 71.1443 264.214 71.1443 263.402V257.242H72.4183ZM80.8436 262.114C80.8436 261.162 81.0583 260.308 81.4876 259.552C81.9169 258.787 82.5003 258.189 83.2376 257.76C83.9843 257.331 84.8103 257.116 85.7156 257.116C86.7796 257.116 87.7083 257.373 88.5016 257.886C89.2949 258.399 89.8736 259.127 90.2376 260.07H88.7116C88.4409 259.482 88.0489 259.029 87.5356 258.712C87.0316 258.395 86.4249 258.236 85.7156 258.236C85.0343 258.236 84.4229 258.395 83.8816 258.712C83.3403 259.029 82.9156 259.482 82.6076 260.07C82.2996 260.649 82.1456 261.33 82.1456 262.114C82.1456 262.889 82.2996 263.57 82.6076 264.158C82.9156 264.737 83.3403 265.185 83.8816 265.502C84.4229 265.819 85.0343 265.978 85.7156 265.978C86.4249 265.978 87.0316 265.824 87.5356 265.516C88.0489 265.199 88.4409 264.746 88.7116 264.158H90.2376C89.8736 265.091 89.2949 265.815 88.5016 266.328C87.7083 266.832 86.7796 267.084 85.7156 267.084C84.8103 267.084 83.9843 266.874 83.2376 266.454C82.5003 266.025 81.9169 265.432 81.4876 264.676C81.0583 263.92 80.8436 263.066 80.8436 262.114ZM98.8401 257.242V258.278H96.1801V267H94.9061V258.278H92.2321V257.242H98.8401ZM112.065 260.098C112.065 260.91 111.785 261.587 111.225 262.128C110.674 262.66 109.829 262.926 108.691 262.926H106.815V267H105.541V257.242H108.691C109.792 257.242 110.627 257.508 111.197 258.04C111.775 258.572 112.065 259.258 112.065 260.098ZM108.691 261.876C109.4 261.876 109.923 261.722 110.259 261.414C110.595 261.106 110.763 260.667 110.763 260.098C110.763 258.894 110.072 258.292 108.691 258.292H106.815V261.876H108.691ZM120.116 264.83H115.86L115.076 267H113.732L117.26 257.298H118.73L122.244 267H120.9L120.116 264.83ZM119.752 263.794L117.988 258.866L116.224 263.794H119.752ZM124.006 262.114C124.006 261.162 124.22 260.308 124.65 259.552C125.079 258.787 125.662 258.189 126.4 257.76C127.146 257.331 127.972 257.116 128.878 257.116C129.942 257.116 130.87 257.373 131.664 257.886C132.457 258.399 133.036 259.127 133.4 260.07H131.874C131.603 259.482 131.211 259.029 130.698 258.712C130.194 258.395 129.587 258.236 128.878 258.236C128.196 258.236 127.585 258.395 127.044 258.712C126.502 259.029 126.078 259.482 125.77 260.07C125.462 260.649 125.308 261.33 125.308 262.114C125.308 262.889 125.462 263.57 125.77 264.158C126.078 264.737 126.502 265.185 127.044 265.502C127.585 265.819 128.196 265.978 128.878 265.978C129.587 265.978 130.194 265.824 130.698 265.516C131.211 265.199 131.603 264.746 131.874 264.158H133.4C133.036 265.091 132.457 265.815 131.664 266.328C130.87 266.832 129.942 267.084 128.878 267.084C127.972 267.084 127.146 266.874 126.4 266.454C125.662 266.025 125.079 265.432 124.65 264.676C124.22 263.92 124.006 263.066 124.006 262.114ZM141.288 267L137.27 262.548V267H135.996V257.242H137.27V261.764L141.302 257.242H142.912L138.488 262.128L142.954 267H141.288ZM150.845 264.83H146.589L145.805 267H144.461L147.989 257.298H149.459L152.973 267H151.629L150.845 264.83ZM150.481 263.794L148.717 258.866L146.953 263.794H150.481ZM162.603 260.07C162.332 259.501 161.94 259.062 161.427 258.754C160.913 258.437 160.316 258.278 159.635 258.278C158.953 258.278 158.337 258.437 157.787 258.754C157.245 259.062 156.816 259.51 156.499 260.098C156.191 260.677 156.037 261.349 156.037 262.114C156.037 262.879 156.191 263.551 156.499 264.13C156.816 264.709 157.245 265.157 157.787 265.474C158.337 265.782 158.953 265.936 159.635 265.936C160.587 265.936 161.371 265.651 161.987 265.082C162.603 264.513 162.962 263.743 163.065 262.772H159.173V261.736H164.423V262.716C164.348 263.519 164.096 264.256 163.667 264.928C163.237 265.591 162.673 266.118 161.973 266.51C161.273 266.893 160.493 267.084 159.635 267.084C158.729 267.084 157.903 266.874 157.157 266.454C156.41 266.025 155.817 265.432 155.379 264.676C154.949 263.92 154.735 263.066 154.735 262.114C154.735 261.162 154.949 260.308 155.379 259.552C155.817 258.787 156.41 258.194 157.157 257.774C157.903 257.345 158.729 257.13 159.635 257.13C160.671 257.13 161.585 257.387 162.379 257.9C163.181 258.413 163.765 259.137 164.129 260.07H162.603ZM168.081 257.242V267H166.807V257.242H168.081ZM178.624 267H177.35L172.226 259.23V267H170.952V257.228H172.226L177.35 264.984V257.228H178.624V267ZM188.888 260.07C188.617 259.501 188.225 259.062 187.712 258.754C187.199 258.437 186.601 258.278 185.92 258.278C185.239 258.278 184.623 258.437 184.072 258.754C183.531 259.062 183.101 259.51 182.784 260.098C182.476 260.677 182.322 261.349 182.322 262.114C182.322 262.879 182.476 263.551 182.784 264.13C183.101 264.709 183.531 265.157 184.072 265.474C184.623 265.782 185.239 265.936 185.92 265.936C186.872 265.936 187.656 265.651 188.272 265.082C188.888 264.513 189.247 263.743 189.35 262.772H185.458V261.736H190.708V262.716C190.633 263.519 190.381 264.256 189.952 264.928C189.523 265.591 188.958 266.118 188.258 266.51C187.558 266.893 186.779 267.084 185.92 267.084C185.015 267.084 184.189 266.874 183.442 266.454C182.695 266.025 182.103 265.432 181.664 264.676C181.235 263.92 181.02 263.066 181.02 262.114C181.02 261.162 181.235 260.308 181.664 259.552C182.103 258.787 182.695 258.194 183.442 257.774C184.189 257.345 185.015 257.13 185.92 257.13C186.956 257.13 187.871 257.387 188.664 257.9C189.467 258.413 190.05 259.137 190.414 260.07H188.888ZM197.049 262.114C197.049 261.162 197.264 260.308 197.693 259.552C198.122 258.787 198.706 258.189 199.443 257.76C200.19 257.331 201.016 257.116 201.921 257.116C202.985 257.116 203.914 257.373 204.707 257.886C205.5 258.399 206.079 259.127 206.443 260.07H204.917C204.646 259.482 204.254 259.029 203.741 258.712C203.237 258.395 202.63 258.236 201.921 258.236C201.24 258.236 200.628 258.395 200.087 258.712C199.546 259.029 199.121 259.482 198.813 260.07C198.505 260.649 198.351 261.33 198.351 262.114C198.351 262.889 198.505 263.57 198.813 264.158C199.121 264.737 199.546 265.185 200.087 265.502C200.628 265.819 201.24 265.978 201.921 265.978C202.63 265.978 203.237 265.824 203.741 265.516C204.254 265.199 204.646 264.746 204.917 264.158H206.443C206.079 265.091 205.5 265.815 204.707 266.328C203.914 266.832 202.985 267.084 201.921 267.084C201.016 267.084 200.19 266.874 199.443 266.454C198.706 266.025 198.122 265.432 197.693 264.676C197.264 263.92 197.049 263.066 197.049 262.114ZM214.808 264.83H210.552L209.768 267H208.424L211.952 257.298H213.422L216.936 267H215.592L214.808 264.83ZM214.444 263.794L212.68 258.866L210.916 263.794H214.444ZM226.845 267H225.571L220.447 259.23V267H219.173V257.228H220.447L225.571 264.984V257.228H226.845V267ZM239.035 261.974C239.39 262.03 239.712 262.175 240.001 262.408C240.3 262.641 240.533 262.931 240.701 263.276C240.879 263.621 240.967 263.99 240.967 264.382C240.967 264.877 240.841 265.325 240.589 265.726C240.337 266.118 239.969 266.431 239.483 266.664C239.007 266.888 238.443 267 237.789 267H234.149V257.242H237.649C238.312 257.242 238.877 257.354 239.343 257.578C239.81 257.793 240.16 258.087 240.393 258.46C240.627 258.833 240.743 259.253 240.743 259.72C240.743 260.299 240.585 260.779 240.267 261.162C239.959 261.535 239.549 261.806 239.035 261.974ZM235.423 261.456H237.565C238.163 261.456 238.625 261.316 238.951 261.036C239.278 260.756 239.441 260.369 239.441 259.874C239.441 259.379 239.278 258.992 238.951 258.712C238.625 258.432 238.153 258.292 237.537 258.292H235.423V261.456ZM237.677 265.95C238.312 265.95 238.807 265.801 239.161 265.502C239.516 265.203 239.693 264.788 239.693 264.256C239.693 263.715 239.507 263.29 239.133 262.982C238.76 262.665 238.261 262.506 237.635 262.506H235.423V265.95H237.677ZM244.709 258.278V261.54H248.265V262.59H244.709V265.95H248.685V267H243.435V257.228H248.685V258.278H244.709ZM67.2445 285L64.9205 281.01H63.3805V285H62.1065V275.242H65.2565C65.9939 275.242 66.6145 275.368 67.1185 275.62C67.6319 275.872 68.0145 276.213 68.2665 276.642C68.5185 277.071 68.6445 277.561 68.6445 278.112C68.6445 278.784 68.4485 279.377 68.0565 279.89C67.6739 280.403 67.0952 280.744 66.3205 280.912L68.7705 285H67.2445ZM63.3805 279.988H65.2565C65.9472 279.988 66.4652 279.82 66.8105 279.484C67.1559 279.139 67.3285 278.681 67.3285 278.112C67.3285 277.533 67.1559 277.085 66.8105 276.768C66.4745 276.451 65.9565 276.292 65.2565 276.292H63.3805V279.988ZM72.5981 276.278V279.54H76.1541V280.59H72.5981V283.95H76.5741V285H71.3241V275.228H76.5741V276.278H72.5981ZM78.7258 280.114C78.7258 279.162 78.9405 278.308 79.3698 277.552C79.7992 276.787 80.3825 276.189 81.1198 275.76C81.8665 275.331 82.6925 275.116 83.5978 275.116C84.6618 275.116 85.5905 275.373 86.3838 275.886C87.1772 276.399 87.7558 277.127 88.1198 278.07H86.5938C86.3232 277.482 85.9312 277.029 85.4178 276.712C84.9138 276.395 84.3072 276.236 83.5978 276.236C82.9165 276.236 82.3052 276.395 81.7638 276.712C81.2225 277.029 80.7978 277.482 80.4898 278.07C80.1818 278.649 80.0278 279.33 80.0278 280.114C80.0278 280.889 80.1818 281.57 80.4898 282.158C80.7978 282.737 81.2225 283.185 81.7638 283.502C82.3052 283.819 82.9165 283.978 83.5978 283.978C84.3072 283.978 84.9138 283.824 85.4178 283.516C85.9312 283.199 86.3232 282.746 86.5938 282.158H88.1198C87.7558 283.091 87.1772 283.815 86.3838 284.328C85.5905 284.832 84.6618 285.084 83.5978 285.084C82.6925 285.084 81.8665 284.874 81.1198 284.454C80.3825 284.025 79.7992 283.432 79.3698 282.676C78.9405 281.92 78.7258 281.066 78.7258 280.114ZM97.5483 275.242L94.3703 281.318V285H93.0963V281.318L89.9043 275.242H91.3183L93.7263 280.184L96.1343 275.242H97.5483ZM99.1161 280.114C99.1161 279.162 99.3307 278.308 99.7601 277.552C100.189 276.787 100.773 276.189 101.51 275.76C102.257 275.331 103.083 275.116 103.988 275.116C105.052 275.116 105.981 275.373 106.774 275.886C107.567 276.399 108.146 277.127 108.51 278.07H106.984C106.713 277.482 106.321 277.029 105.808 276.712C105.304 276.395 104.697 276.236 103.988 276.236C103.307 276.236 102.695 276.395 102.154 276.712C101.613 277.029 101.188 277.482 100.88 278.07C100.572 278.649 100.418 279.33 100.418 280.114C100.418 280.889 100.572 281.57 100.88 282.158C101.188 282.737 101.613 283.185 102.154 283.502C102.695 283.819 103.307 283.978 103.988 283.978C104.697 283.978 105.304 283.824 105.808 283.516C106.321 283.199 106.713 282.746 106.984 282.158H108.51C108.146 283.091 107.567 283.815 106.774 284.328C105.981 284.832 105.052 285.084 103.988 285.084C103.083 285.084 102.257 284.874 101.51 284.454C100.773 284.025 100.189 283.432 99.7601 282.676C99.3307 281.92 99.1161 281.066 99.1161 280.114ZM112.381 283.964H115.797V285H111.107V275.242H112.381V283.964ZM119.123 276.278V279.54H122.679V280.59H119.123V283.95H123.099V285H117.849V275.228H123.099V276.278H119.123ZM128.765 275.242C129.829 275.242 130.749 275.443 131.523 275.844C132.307 276.236 132.905 276.801 133.315 277.538C133.735 278.275 133.945 279.143 133.945 280.142C133.945 281.141 133.735 282.009 133.315 282.746C132.905 283.474 132.307 284.034 131.523 284.426C130.749 284.809 129.829 285 128.765 285H125.727V275.242H128.765ZM128.765 283.95C130.025 283.95 130.987 283.619 131.649 282.956C132.312 282.284 132.643 281.346 132.643 280.142C132.643 278.929 132.307 277.981 131.635 277.3C130.973 276.619 130.016 276.278 128.765 276.278H127.001V283.95H128.765ZM145.182 285.098C144.277 285.098 143.451 284.888 142.704 284.468C141.957 284.039 141.365 283.446 140.926 282.69C140.497 281.925 140.282 281.066 140.282 280.114C140.282 279.162 140.497 278.308 140.926 277.552C141.365 276.787 141.957 276.194 142.704 275.774C143.451 275.345 144.277 275.13 145.182 275.13C146.097 275.13 146.927 275.345 147.674 275.774C148.421 276.194 149.009 276.782 149.438 277.538C149.867 278.294 150.082 279.153 150.082 280.114C150.082 281.075 149.867 281.934 149.438 282.69C149.009 283.446 148.421 284.039 147.674 284.468C146.927 284.888 146.097 285.098 145.182 285.098ZM145.182 283.992C145.863 283.992 146.475 283.833 147.016 283.516C147.567 283.199 147.996 282.746 148.304 282.158C148.621 281.57 148.78 280.889 148.78 280.114C148.78 279.33 148.621 278.649 148.304 278.07C147.996 277.482 147.571 277.029 147.03 276.712C146.489 276.395 145.873 276.236 145.182 276.236C144.491 276.236 143.875 276.395 143.334 276.712C142.793 277.029 142.363 277.482 142.046 278.07C141.738 278.649 141.584 279.33 141.584 280.114C141.584 280.889 141.738 281.57 142.046 282.158C142.363 282.746 142.793 283.199 143.334 283.516C143.885 283.833 144.501 283.992 145.182 283.992ZM157.602 285L155.278 281.01H153.738V285H152.464V275.242H155.614C156.351 275.242 156.972 275.368 157.476 275.62C157.989 275.872 158.372 276.213 158.624 276.642C158.876 277.071 159.002 277.561 159.002 278.112C159.002 278.784 158.806 279.377 158.414 279.89C158.031 280.403 157.453 280.744 156.678 280.912L159.128 285H157.602ZM153.738 279.988H155.614C156.305 279.988 156.823 279.82 157.168 279.484C157.513 279.139 157.686 278.681 157.686 278.112C157.686 277.533 157.513 277.085 157.168 276.768C156.832 276.451 156.314 276.292 155.614 276.292H153.738V279.988ZM171.252 285L168.928 281.01H167.388V285H166.114V275.242H169.264C170.001 275.242 170.622 275.368 171.126 275.62C171.639 275.872 172.022 276.213 172.274 276.642C172.526 277.071 172.652 277.561 172.652 278.112C172.652 278.784 172.456 279.377 172.064 279.89C171.681 280.403 171.103 280.744 170.328 280.912L172.778 285H171.252ZM167.388 279.988H169.264C169.955 279.988 170.473 279.82 170.818 279.484C171.163 279.139 171.336 278.681 171.336 278.112C171.336 277.533 171.163 277.085 170.818 276.768C170.482 276.451 169.964 276.292 169.264 276.292H167.388V279.988ZM176.606 276.278V279.54H180.162V280.59H176.606V283.95H180.582V285H175.332V275.228H180.582V276.278H176.606ZM184.455 275.242V281.416C184.455 282.284 184.665 282.928 185.085 283.348C185.515 283.768 186.107 283.978 186.863 283.978C187.61 283.978 188.193 283.768 188.613 283.348C189.043 282.928 189.257 282.284 189.257 281.416V275.242H190.531V281.402C190.531 282.214 190.368 282.9 190.041 283.46C189.715 284.011 189.271 284.421 188.711 284.692C188.161 284.963 187.54 285.098 186.849 285.098C186.159 285.098 185.533 284.963 184.973 284.692C184.423 284.421 183.984 284.011 183.657 283.46C183.34 282.9 183.181 282.214 183.181 281.402V275.242H184.455ZM196.451 285.098C195.807 285.098 195.228 284.986 194.715 284.762C194.211 284.529 193.814 284.211 193.525 283.81C193.235 283.399 193.086 282.928 193.077 282.396H194.435C194.481 282.853 194.668 283.241 194.995 283.558C195.331 283.866 195.816 284.02 196.451 284.02C197.057 284.02 197.533 283.871 197.879 283.572C198.233 283.264 198.411 282.872 198.411 282.396C198.411 282.023 198.308 281.719 198.103 281.486C197.897 281.253 197.641 281.075 197.333 280.954C197.025 280.833 196.609 280.702 196.087 280.562C195.443 280.394 194.925 280.226 194.533 280.058C194.15 279.89 193.819 279.629 193.539 279.274C193.268 278.91 193.133 278.425 193.133 277.818C193.133 277.286 193.268 276.815 193.539 276.404C193.809 275.993 194.187 275.676 194.673 275.452C195.167 275.228 195.732 275.116 196.367 275.116C197.281 275.116 198.028 275.345 198.607 275.802C199.195 276.259 199.526 276.866 199.601 277.622H198.201C198.154 277.249 197.958 276.922 197.613 276.642C197.267 276.353 196.81 276.208 196.241 276.208C195.709 276.208 195.275 276.348 194.939 276.628C194.603 276.899 194.435 277.281 194.435 277.776C194.435 278.131 194.533 278.42 194.729 278.644C194.934 278.868 195.181 279.041 195.471 279.162C195.769 279.274 196.185 279.405 196.717 279.554C197.361 279.731 197.879 279.909 198.271 280.086C198.663 280.254 198.999 280.52 199.279 280.884C199.559 281.239 199.699 281.724 199.699 282.34C199.699 282.816 199.573 283.264 199.321 283.684C199.069 284.104 198.695 284.445 198.201 284.706C197.706 284.967 197.123 285.098 196.451 285.098ZM203.547 276.278V279.54H207.103V280.59H203.547V283.95H207.523V285H202.273V275.228H207.523V276.278H203.547ZM213.189 275.242C214.253 275.242 215.172 275.443 215.947 275.844C216.731 276.236 217.328 276.801 217.739 277.538C218.159 278.275 218.369 279.143 218.369 280.142C218.369 281.141 218.159 282.009 217.739 282.746C217.328 283.474 216.731 284.034 215.947 284.426C215.172 284.809 214.253 285 213.189 285H210.151V275.242H213.189ZM213.189 283.95C214.449 283.95 215.41 283.619 216.073 282.956C216.736 282.284 217.067 281.346 217.067 280.142C217.067 278.929 216.731 277.981 216.059 277.3C215.396 276.619 214.44 276.278 213.189 276.278H211.425V283.95H213.189Z" fill="black"/>
<path d="M165.876 162.41L160.684 166.118C146.675 147.544 139.088 137.632 114.901 170.752L131.893 180.948C134.308 172.976 136.34 168.914 141.332 162.41L146.996 173.533L141.332 177.704C148.184 178.352 151.853 178.437 157.852 177.704C161.919 172.872 163.795 169.665 165.876 162.41Z" stroke="#344F10"/>
<path d="M153.929 224.327L153.144 217.994C176.143 214.521 188.468 212.57 170.882 175.518L153.826 185.606C159.682 191.528 162.284 195.25 165.622 202.74L153.148 202.423L152.18 195.454C148.346 201.171 146.524 204.358 144.31 209.984C146.619 215.862 148.544 219.041 153.929 224.327Z" stroke="#344F10"/>
<path d="M101.3 182.8L107.217 185.183C99.1027 206.989 94.8327 218.719 135.753 221.298L135.203 201.484C127.186 203.736 122.67 204.207 114.504 203.497L120.829 192.737L127.391 195.269C124.252 189.143 122.349 186.003 118.504 181.338C112.245 180.508 108.533 180.652 101.3 182.8Z" stroke="#344F10"/>
<path d="M43.0204 447.098C42.115 447.098 41.289 446.888 40.5424 446.468C39.7957 446.039 39.203 445.446 38.7644 444.69C38.335 443.925 38.1204 443.066 38.1204 442.114C38.1204 441.162 38.335 440.308 38.7644 439.552C39.203 438.787 39.7957 438.194 40.5424 437.774C41.289 437.345 42.115 437.13 43.0204 437.13C43.935 437.13 44.7657 437.345 45.5124 437.774C46.259 438.194 46.847 438.782 47.2764 439.538C47.7057 440.294 47.9204 441.153 47.9204 442.114C47.9204 443.075 47.7057 443.934 47.2764 444.69C46.847 445.446 46.259 446.039 45.5124 446.468C44.7657 446.888 43.935 447.098 43.0204 447.098ZM43.0204 445.992C43.7017 445.992 44.313 445.833 44.8544 445.516C45.405 445.199 45.8344 444.746 46.1424 444.158C46.4597 443.57 46.6184 442.889 46.6184 442.114C46.6184 441.33 46.4597 440.649 46.1424 440.07C45.8344 439.482 45.4097 439.029 44.8684 438.712C44.327 438.395 43.711 438.236 43.0204 438.236C42.3297 438.236 41.7137 438.395 41.1724 438.712C40.631 439.029 40.2017 439.482 39.8844 440.07C39.5764 440.649 39.4224 441.33 39.4224 442.114C39.4224 442.889 39.5764 443.57 39.8844 444.158C40.2017 444.746 40.631 445.199 41.1724 445.516C41.723 445.833 42.339 445.992 43.0204 445.992ZM57.9742 447H56.7002L51.5762 439.23V447H50.3022V437.228H51.5762L56.7002 444.984V437.228H57.9742V447ZM62.12 445.964H65.536V447H60.846V437.242H62.12V445.964ZM74.4209 437.242L71.2429 443.318V447H69.9689V443.318L66.7769 437.242H68.1909L70.5989 442.184L73.0069 437.242H74.4209ZM88.5691 447H87.2951L82.1711 439.23V447H80.8971V437.228H82.1711L87.2951 444.984V437.228H88.5691V447ZM97.2089 444.83H92.9529L92.1689 447H90.8249L94.3529 437.298H95.8229L99.3369 447H97.9929L97.2089 444.83ZM96.8449 443.794L95.0809 438.866L93.3169 443.794H96.8449ZM107.58 437.242V438.278H104.92V447H103.646V438.278H100.972V437.242H107.58ZM111.095 437.242V443.416C111.095 444.284 111.305 444.928 111.725 445.348C112.154 445.768 112.747 445.978 113.503 445.978C114.249 445.978 114.833 445.768 115.253 445.348C115.682 444.928 115.897 444.284 115.897 443.416V437.242H117.171V443.402C117.171 444.214 117.007 444.9 116.681 445.46C116.354 446.011 115.911 446.421 115.351 446.692C114.8 446.963 114.179 447.098 113.489 447.098C112.798 447.098 112.173 446.963 111.613 446.692C111.062 446.421 110.623 446.011 110.297 445.46C109.979 444.9 109.821 444.214 109.821 443.402V437.242H111.095ZM125.134 447L122.81 443.01H121.27V447H119.996V437.242H123.146C123.883 437.242 124.504 437.368 125.008 437.62C125.521 437.872 125.904 438.213 126.156 438.642C126.408 439.071 126.534 439.561 126.534 440.112C126.534 440.784 126.338 441.377 125.946 441.89C125.563 442.403 124.985 442.744 124.21 442.912L126.66 447H125.134ZM121.27 441.988H123.146C123.837 441.988 124.355 441.82 124.7 441.484C125.045 441.139 125.218 440.681 125.218 440.112C125.218 439.533 125.045 439.085 124.7 438.768C124.364 438.451 123.846 438.292 123.146 438.292H121.27V441.988ZM134.982 444.83H130.726L129.942 447H128.598L132.126 437.298H133.596L137.11 447H135.766L134.982 444.83ZM134.618 443.794L132.854 438.866L131.09 443.794H134.618ZM140.621 445.964H144.037V447H139.347V437.242H140.621V445.964ZM151.797 437.242V447H150.523V437.242H151.797ZM162.34 447H161.066L155.942 439.23V447H154.668V437.228H155.942L161.066 444.984V437.228H162.34V447ZM172.604 440.07C172.333 439.501 171.941 439.062 171.428 438.754C170.914 438.437 170.317 438.278 169.636 438.278C168.954 438.278 168.338 438.437 167.788 438.754C167.246 439.062 166.817 439.51 166.5 440.098C166.192 440.677 166.038 441.349 166.038 442.114C166.038 442.879 166.192 443.551 166.5 444.13C166.817 444.709 167.246 445.157 167.788 445.474C168.338 445.782 168.954 445.936 169.636 445.936C170.588 445.936 171.372 445.651 171.988 445.082C172.604 444.513 172.963 443.743 173.066 442.772H169.174V441.736H174.424V442.716C174.349 443.519 174.097 444.256 173.668 444.928C173.238 445.591 172.674 446.118 171.974 446.51C171.274 446.893 170.494 447.084 169.636 447.084C168.73 447.084 167.904 446.874 167.158 446.454C166.411 446.025 165.818 445.432 165.38 444.676C164.95 443.92 164.736 443.066 164.736 442.114C164.736 441.162 164.95 440.308 165.38 439.552C165.818 438.787 166.411 438.194 167.158 437.774C167.904 437.345 168.73 437.13 169.636 437.13C170.672 437.13 171.586 437.387 172.38 437.9C173.182 438.413 173.766 439.137 174.13 440.07H172.604ZM181.946 447L179.622 443.01H178.082V447H176.808V437.242H179.958C180.695 437.242 181.316 437.368 181.82 437.62C182.333 437.872 182.716 438.213 182.968 438.642C183.22 439.071 183.346 439.561 183.346 440.112C183.346 440.784 183.15 441.377 182.758 441.89C182.375 442.403 181.797 442.744 181.022 442.912L183.472 447H181.946ZM178.082 441.988H179.958C180.649 441.988 181.167 441.82 181.512 441.484C181.857 441.139 182.03 440.681 182.03 440.112C182.03 439.533 181.857 439.085 181.512 438.768C181.176 438.451 180.658 438.292 179.958 438.292H178.082V441.988ZM187.3 438.278V441.54H190.856V442.59H187.3V445.95H191.276V447H186.026V437.228H191.276V438.278H187.3ZM196.941 437.242C198.005 437.242 198.925 437.443 199.699 437.844C200.483 438.236 201.081 438.801 201.491 439.538C201.911 440.275 202.121 441.143 202.121 442.142C202.121 443.141 201.911 444.009 201.491 444.746C201.081 445.474 200.483 446.034 199.699 446.426C198.925 446.809 198.005 447 196.941 447H193.903V437.242H196.941ZM196.941 445.95C198.201 445.95 199.163 445.619 199.825 444.956C200.488 444.284 200.819 443.346 200.819 442.142C200.819 440.929 200.483 439.981 199.811 439.3C199.149 438.619 198.192 438.278 196.941 438.278H195.177V445.95H196.941ZM205.776 437.242V447H204.502V437.242H205.776ZM209.921 438.278V441.54H213.477V442.59H209.921V445.95H213.897V447H208.647V437.228H213.897V438.278H209.921ZM224.197 447H222.923L217.799 439.23V447H216.525V437.228H217.799L222.923 444.984V437.228H224.197V447ZM233.075 437.242V438.278H230.415V447H229.141V438.278H226.467V437.242H233.075ZM238.437 447.098C237.793 447.098 237.214 446.986 236.701 446.762C236.197 446.529 235.8 446.211 235.511 445.81C235.222 445.399 235.072 444.928 235.063 444.396H236.421C236.468 444.853 236.654 445.241 236.981 445.558C237.317 445.866 237.802 446.02 238.437 446.02C239.044 446.02 239.52 445.871 239.865 445.572C240.22 445.264 240.397 444.872 240.397 444.396C240.397 444.023 240.294 443.719 240.089 443.486C239.884 443.253 239.627 443.075 239.319 442.954C239.011 442.833 238.596 442.702 238.073 442.562C237.429 442.394 236.911 442.226 236.519 442.058C236.136 441.89 235.805 441.629 235.525 441.274C235.254 440.91 235.119 440.425 235.119 439.818C235.119 439.286 235.254 438.815 235.525 438.404C235.796 437.993 236.174 437.676 236.659 437.452C237.154 437.228 237.718 437.116 238.353 437.116C239.268 437.116 240.014 437.345 240.593 437.802C241.181 438.259 241.512 438.866 241.587 439.622H240.187C240.14 439.249 239.944 438.922 239.599 438.642C239.254 438.353 238.796 438.208 238.227 438.208C237.695 438.208 237.261 438.348 236.925 438.628C236.589 438.899 236.421 439.281 236.421 439.776C236.421 440.131 236.519 440.42 236.715 440.644C236.92 440.868 237.168 441.041 237.457 441.162C237.756 441.274 238.171 441.405 238.703 441.554C239.347 441.731 239.865 441.909 240.257 442.086C240.649 442.254 240.985 442.52 241.265 442.884C241.545 443.239 241.685 443.724 241.685 444.34C241.685 444.816 241.559 445.264 241.307 445.684C241.055 446.104 240.682 446.445 240.187 446.706C239.692 446.967 239.109 447.098 238.437 447.098Z" fill="black"/>
<path d="M143.617 413L140.69 407.559M114.639 359.135L121.957 372.737M121.957 372.737L125.315 361.311M121.957 372.737L110.572 369.473M121.957 372.737L128.396 384.707M128.396 384.707L132.941 367.296M128.396 384.707L113.114 380.355M128.396 384.707L136.006 398.853M136.006 398.853L142.091 376.002M136.006 398.853L114.639 392.869M136.006 398.853L140.69 407.559M140.69 407.559C162.788 378.304 166.441 362.561 104.98 339.548" stroke="#344F10"/>
<path d="M104.966 339C91.117 405.096 107.267 408.645 140.567 407.559M154.292 385.796L156.326 382.615M167.51 365.12L160.901 375.458M160.901 375.458H169.544M160.901 375.458L158.359 367.297M160.901 375.458L156.326 382.615M156.326 382.615H167.51M156.326 382.615L150.734 392.869L163.951 393.957" stroke="#344F10"/>
<path d="M143.108 404.294C173.969 403.864 185.669 397.3 175.317 351.059" stroke="#344F10"/>
<path d="M175.644 351.518C164.484 354.102 158.686 356.318 151.242 365.12" stroke="#344F10"/>
</svg>
