<svg width="15" height="15" viewBox="0 0 15 15" fill="none" xmlns="http://www.w3.org/2000/svg">
<path d="M9.48367 0.0177611C8.75273 0.0572287 8.09562 0.227432 7.41391 0.553039C7.01111 0.746266 6.64769 0.978138 6.31299 1.25688C6.17435 1.37199 5.85523 1.69513 5.73382 1.84149C5.09394 2.61686 4.66407 3.60602 4.53774 4.59599C4.50574 4.84349 4.5 4.94545 4.5 5.26201C4.5 5.64599 4.51723 5.8532 4.57875 6.19278C4.72314 6.99776 5.09148 7.83562 5.59189 8.49835C6.19486 9.29592 7.05705 9.89944 8.08086 10.2407C8.45658 10.3657 8.80769 10.4405 9.23346 10.4849C9.40819 10.503 9.96029 10.5054 10.1276 10.489C10.8504 10.4183 11.4287 10.2522 12.0637 9.9348C12.8808 9.52532 13.5198 8.96373 13.9997 8.23441C14.4739 7.5133 14.7807 6.67708 14.8726 5.85402C14.9792 4.90516 14.8316 3.97027 14.4345 3.08307C14.0153 2.14572 13.4189 1.42955 12.6215 0.905781C12.1318 0.585107 11.5042 0.308834 10.9464 0.169053C10.4656 0.0490065 9.92994 -0.00690628 9.48367 0.0177611ZM9.97588 0.891802C10.4295 0.92387 10.8816 1.02829 11.3065 1.20014C12.268 1.58988 12.9571 2.18272 13.4402 3.03374C13.9382 3.91271 14.1285 4.85171 14.0071 5.82524C13.889 6.77246 13.3992 7.76655 12.7364 8.40625C12.405 8.72528 12.067 8.96044 11.6289 9.17587C11.0932 9.43981 10.5756 9.58206 10.0013 9.62481C9.82986 9.63715 9.40655 9.63057 9.25479 9.61248C8.74781 9.55246 8.31302 9.42912 7.86182 9.21781C7.19897 8.90782 6.66574 8.47943 6.25146 7.92607C5.7896 7.30856 5.48197 6.5447 5.39009 5.78906C5.29082 4.96929 5.4229 4.15938 5.78058 3.39059C6.23423 2.41624 6.92744 1.72555 7.89217 1.28812C8.4172 1.0505 8.89875 0.927981 9.46726 0.889335C9.55914 0.882757 9.86841 0.884402 9.97588 0.891802Z" fill="#E4DFD3"/>
<path d="M9.50841 2.089C9.09413 2.12682 8.76106 2.22138 8.42143 2.39981C7.58713 2.83642 6.9858 3.67921 6.80615 4.6659C6.76513 4.89202 6.7561 5.00384 6.7561 5.2908C6.7561 5.49719 6.76021 5.58517 6.77087 5.67726C6.86685 6.45427 7.18269 7.12111 7.70362 7.64241C8.15563 8.09629 8.69297 8.37174 9.30742 8.46465C9.4559 8.48767 9.77338 8.4959 9.92433 8.48192C10.547 8.42189 11.0942 8.17687 11.5806 7.74026C11.7988 7.54539 12.0179 7.2724 12.1779 6.9986C12.2673 6.84566 12.3788 6.60721 12.4297 6.46085L12.4436 6.4181L12.3977 6.40247C12.3723 6.39343 12.1664 6.32107 11.9408 6.24214C11.7152 6.1632 11.524 6.0966 11.5158 6.09496C11.5043 6.09331 11.4937 6.11222 11.4617 6.19116C11.3468 6.47565 11.1926 6.71163 10.9818 6.92377C10.506 7.39985 9.87839 7.58732 9.26968 7.43274C8.70692 7.28967 8.22044 6.86293 7.96203 6.28571C7.81765 5.96504 7.75284 5.65341 7.75284 5.28669C7.75284 4.88544 7.83241 4.54339 8.00797 4.19723C8.17532 3.86586 8.42307 3.58301 8.71676 3.38896C9.24179 3.0428 9.88659 2.99593 10.4477 3.26316C10.643 3.35607 10.8087 3.47612 10.9777 3.6455C11.0999 3.76884 11.2123 3.90944 11.2845 4.03113L11.3247 4.09773L11.3501 4.08293C11.3632 4.07471 11.5519 3.96453 11.7685 3.83955C11.9851 3.71375 12.1688 3.60686 12.1762 3.6011C12.1885 3.59288 12.1836 3.58137 12.1262 3.48928C11.6824 2.77311 10.9908 2.28305 10.2123 2.13422C10.0515 2.10298 9.92597 2.09147 9.734 2.08818C9.63064 2.08736 9.52891 2.08736 9.50841 2.089Z" fill="#E4DFD3"/>
</svg>
