<svg width="24" height="24" viewBox="0 0 24 24" fill="none" xmlns="http://www.w3.org/2000/svg">
<g clip-path="url(#clip0_21779_1127)">
<path d="M20.7658 23.5H16.1219L16.1349 15.9237H18.5978C19.1176 15.9237 19.5553 15.5349 19.6164 15.0187L19.9441 12.2543C20.0165 11.6442 19.5398 11.1078 18.9255 11.1078H16.121V9.29522C16.121 8.79224 16.1971 8.50858 16.3371 8.34229C16.4608 8.1953 16.7308 8.03187 17.4161 8.03187H17.4163L18.8089 8.03122H18.8089C19.3751 8.03088 19.8341 7.57183 19.8341 7.00547V4.67444C19.8341 4.10788 19.3748 3.64869 18.8083 3.64869H16.5392C15.0551 3.64869 13.7534 4.10334 12.8214 5.02453C11.8879 5.94725 11.3806 7.28319 11.3806 8.93651V11.1077H9.65659C9.08858 11.1077 8.62866 11.5693 8.63084 12.1374V12.1374L8.64153 14.9019C8.6437 15.4668 9.10224 15.9236 9.66721 15.9236H11.3945L11.3814 23.4999H3.23405C1.72405 23.4999 0.5 22.2758 0.5 20.7658V3.23405C0.5 1.72406 1.7241 0.5 3.23405 0.5H20.7657C22.2757 0.5 23.4998 1.72405 23.4998 3.23405V20.766C23.4998 22.2759 22.2758 23.5 20.7658 23.5Z" stroke="#344F10"/>
</g>
<defs>
<clipPath id="clip0_21779_1127">
<rect width="24" height="24" fill="white"/>
</clipPath>
</defs>
</svg>
