<svg width="23.962402" height="24.000000" viewBox="0 0 23.9624 24" fill="none" xmlns="http://www.w3.org/2000/svg" xmlns:xlink="http://www.w3.org/1999/xlink">
	<desc>
			Created with Pixso.
	</desc>
	<defs>
		<clipPath id="clip12716_49">
			<rect id="facebook-letter-logo" width="23.962555" height="24.000000" fill="white" fill-opacity="0"/>
		</clipPath>
	</defs>
	<rect id="facebook-letter-logo" width="23.962555" height="24.000000" fill="#FFFFFF" fill-opacity="0"/>
	<g clip-path="url(#clip12716_49)">
		<path id="Facebook" d="M8.80713 4.64893C8.80713 5.25391 8.80713 7.95312 8.80713 7.95312L6.39014 7.95312L6.39014 11.9937L8.80713 11.9937L8.80713 24.001L13.7725 24.001L13.7725 11.9941L17.104 11.9941C17.104 11.9941 17.4165 10.0566 17.5674 7.93848C17.1338 7.93848 13.791 7.93848 13.791 7.93848C13.791 7.93848 13.791 5.58789 13.791 5.17578C13.791 4.7627 14.3325 4.20752 14.8677 4.20752C15.4019 4.20752 16.5288 4.20752 17.5728 4.20752C17.5728 3.65723 17.5728 1.75635 17.5728 0.000976562C16.1792 0.000976562 14.5938 0.000976562 13.8945 0.000976562C8.68457 0.000488281 8.80713 4.04541 8.80713 4.64893Z" fill="#000000" fill-opacity="1.000000" fill-rule="nonzero"/>
	</g>
</svg>
