<svg width="20.000000" height="20.000000" viewBox="0 0 20 20" fill="none" xmlns="http://www.w3.org/2000/svg" xmlns:xlink="http://www.w3.org/1999/xlink">
	<desc>
			Created with Pixso.
	</desc>
	<defs/>
	<rect id="facebook" width="20.000000" height="20.000000" fill="#FFFFFF" fill-opacity="0"/>
	<path id="Vector" d="M7.90918 20L7.90918 10.9434L5 10.9434L5 7.1698L7.90918 7.1698C7.90918 6.60376 7.90918 5.05664 7.90918 3.39624C7.90918 1.3208 9.90918 0 10.8184 0C11.5459 0 13.9092 0 15 0L15 3.39624C14.3936 3.39624 13.0723 3.39624 12.6367 3.39624C12.0908 3.39624 11.5459 3.96228 11.5459 4.52832C11.5459 4.98108 11.5459 6.47803 11.5459 7.1698L15 7.1698L14.2725 10.9434L11.5459 10.9434L11.5459 20L7.90918 20Z" fill="#F1F5F4" fill-opacity="1.000000" fill-rule="evenodd"/>
</svg>
