<svg width="20.000000" height="20.000000" viewBox="0 0 20 20" fill="none" xmlns="http://www.w3.org/2000/svg" xmlns:xlink="http://www.w3.org/1999/xlink">
	<desc>
			Created with Pixso.
	</desc>
	<defs/>
	<rect id="instagram" width="20.000000" height="20.000000" fill="#FFFFFF" fill-opacity="0"/>
	<path id="Subtract" d="M1 14.2441L1 3.56982C1 2.38367 2.38379 1 3.76758 1L15.2324 1C16.8135 1 18 2.58142 18 4.36047L18 15.0349C18 16.2209 17.0117 18 14.8369 18L4.95312 18C2.7793 18 1 16.4186 1 14.2441ZM14.0469 3.5697C13.501 3.5697 13.0586 4.01221 13.0586 4.55811C13.0586 5.104 13.501 5.54651 14.0469 5.54651C14.5928 5.54651 15.0352 5.104 15.0352 4.55811C15.0352 4.01221 14.5928 3.5697 14.0469 3.5697ZM5.3418 9.5C5.3418 7.20361 7.20312 5.34192 9.5 5.34192C11.7969 5.34192 13.6582 7.20361 13.6582 9.5C13.6582 11.7965 11.7969 13.6582 9.5 13.6582C7.20312 13.6582 5.3418 11.7965 5.3418 9.5ZM6.54199 9.5C6.54199 7.86633 7.86621 6.54187 9.5 6.54187C11.1338 6.54187 12.458 7.86633 12.458 9.5C12.458 11.1338 11.1338 12.4581 9.5 12.4581C7.86621 12.4581 6.54199 11.1338 6.54199 9.5Z" clip-rule="evenodd" fill="#F1F5F4" fill-opacity="1.000000" fill-rule="evenodd"/>
</svg>
