<svg width="24.000000" height="24.000000" viewBox="0 0 24 24" fill="none" xmlns="http://www.w3.org/2000/svg" xmlns:xlink="http://www.w3.org/1999/xlink">
	<desc>
			Created with Pixso.
	</desc>
	<defs>
		<clipPath id="clip12716_52">
			<rect id="instagram (3)" width="24.000000" height="24.000000" fill="white" fill-opacity="0"/>
		</clipPath>
	</defs>
	<rect id="instagram (3)" width="24.000000" height="24.000000" fill="#FFFFFF" fill-opacity="0"/>
	<g clip-path="url(#clip12716_52)">
		<path id="Vector" d="M17.5034 0L6.49658 0C2.91406 0 0 2.91406 0 6.49658L0 17.5034C0 21.0854 2.91406 24 6.49658 24L17.5034 24C21.0854 24 24 21.0854 24 17.5034L24 6.49658C24 2.91406 21.0854 0 17.5034 0L17.5034 0ZM12 18.5625C8.38135 18.5625 5.4375 15.6187 5.4375 12C5.4375 8.38135 8.38135 5.4375 12 5.4375C15.6187 5.4375 18.5625 8.38135 18.5625 12C18.5625 15.6187 15.6187 18.5625 12 18.5625ZM18.7192 6.98535C17.6499 6.98535 16.7803 6.11572 16.7803 5.04639C16.7803 3.97705 17.6499 3.10693 18.7192 3.10693C19.7886 3.10693 20.6587 3.97705 20.6587 5.04639C20.6587 6.11572 19.7886 6.98535 18.7192 6.98535Z" fill="#000000" fill-opacity="1.000000" fill-rule="nonzero"/>
		<path id="Vector" d="M12 6.84473C9.15771 6.84473 6.84473 9.15723 6.84473 12C6.84473 14.8428 9.15771 17.1553 12 17.1553C14.8428 17.1553 17.1553 14.8428 17.1553 12C17.1553 9.15723 14.8428 6.84473 12 6.84473Z" fill="#000000" fill-opacity="1.000000" fill-rule="nonzero"/>
		<path id="Vector" d="M18.7192 4.51416C18.4258 4.51416 18.187 4.75293 18.187 5.04639C18.187 5.33936 18.4258 5.57812 18.7192 5.57812C19.0127 5.57812 19.2515 5.33984 19.2515 5.04639C19.2515 4.75293 19.0127 4.51416 18.7192 4.51416Z" fill="#000000" fill-opacity="1.000000" fill-rule="nonzero"/>
	</g>
</svg>
