<svg width="20.000000" height="20.000000" viewBox="0 0 20 20" fill="none" xmlns="http://www.w3.org/2000/svg" xmlns:xlink="http://www.w3.org/1999/xlink">
	<desc>
			Created with Pixso.
	</desc>
	<defs/>
	<rect id="twitter" width="20.000000" height="20.000000" fill="#FFFFFF" fill-opacity="0"/>
	<path id="Vector 2" d="M0 16.3734C0.912109 16.4412 2.94727 16.4547 3.78906 15.9669C4.63184 15.479 5.40332 14.9504 5.68457 14.7471C4.70215 14.4761 2.56836 13.4867 1.89453 11.6978L3.1582 11.6978C2.31543 11.0881 0.631836 9.82751 0.631836 8.03857L2.10547 8.44519C1.47363 7.42883 -0.125977 4.86731 1.05273 2.75317C1.05273 2.75317 5.89453 6.81897 9.68457 7.22559C9.47363 5.80261 9.13672 4.0542 11.1582 2.75317C13.6846 1.12683 16.6318 2.5498 16.8418 3.15967C17.0107 3.64758 18.5967 2.82092 19.3682 2.34668L18.3154 4.37952L20 4.37952L18.1055 6.41248C18.3154 7.97095 18.0215 11.7386 15.1582 14.3408C11.5791 17.5934 9.47363 18 6.52637 18C3.5791 18 0.420898 16.78 0 16.3734Z" fill="#F1F5F4" fill-opacity="1.000000" fill-rule="evenodd"/>
</svg>
