<svg width="117" height="27" viewBox="0 0 117 27" fill="none" xmlns="http://www.w3.org/2000/svg">
<path d="M18.96 0.799998V20.744L4.668 0.799998H0.24V26H3.84V5.516L18.6 26H22.56V0.799998H18.96ZM48.977 0.799998V5.588C46.889 2.672 43.649 0.583999 39.941 0.583999C32.669 0.583999 27.413 5.984 27.413 13.4C27.413 20.816 32.669 26.216 39.941 26.216C43.649 26.216 46.889 24.128 48.977 21.212V26H52.469V0.799998H48.977ZM40.085 22.904C34.937 22.904 31.193 18.908 31.193 13.4C31.193 7.892 34.937 3.896 40.085 3.896C45.233 3.896 48.977 7.892 48.977 13.4C48.977 18.908 45.233 22.904 40.085 22.904ZM88.8309 0.799998H83.6829L73.9629 21.752L64.2069 0.799998H58.9509V26H62.5509V5.48L72.0549 26H75.6549L85.2309 5.3V26H88.8309V0.799998ZM105.923 26.36C112.187 26.36 116.903 21.788 116.903 15.704V0.799998H113.303V15.704C113.303 19.808 110.135 22.904 105.923 22.904C101.711 22.904 98.5425 19.808 98.5425 15.704V0.799998H94.9425V15.704C94.9425 21.788 99.6585 26.36 105.923 26.36Z" fill="#F1F5F4"/>
</svg>
